<?xml version="1.0" encoding="utf-8"?>
<!-- Generator: Adobe Illustrator 16.0.0, SVG Export Plug-In . SVG Version: 6.00 Build 0)  -->
<!DOCTYPE svg PUBLIC "-//W3C//DTD SVG 1.1//EN" "http://www.w3.org/Graphics/SVG/1.1/DTD/svg11.dtd">
<svg version="1.1" id="Layer_1" xmlns="http://www.w3.org/2000/svg" xmlns:xlink="http://www.w3.org/1999/xlink" x="0px" y="0px"
	 width="1000px" height="1000px" viewBox="0 0 1000 1000" enable-background="new 0 0 1000 1000" xml:space="preserve">
<g>
	<path d="M655.412,410.624c7.087,0.638,15.762-0.312,25.876-2.812c-6.496-2.594-12.002-8.206-14.529-15.746l-10.573-31.519
		c-1.414,2.146-3.179,4.111-5.297,5.799c-0.582,0.464-7.353,5.816-19.105,13.426c-0.204,9.628,1.617,17.108,5.482,22.193
		C641.119,407.039,647.056,409.871,655.412,410.624z"/>
	<path d="M940.957,264.504C810.896,20.97,508.039-71.018,264.504,59.044C20.97,189.105-71.018,491.963,59.043,735.497
		c130.062,243.533,432.919,335.521,676.454,205.459C979.03,810.895,1071.018,508.038,940.957,264.504z M619.721,327.251
		c5.128-4.088,11.369-5.83,17.433-5.379c1.134-2.888,2.271-5.666,3.39-8.307c-2.91-12.221,3.132-24.556,14.264-28.291
		c11.846-3.973,24.976,3.304,29.315,16.257l25.542,76.145c3.114,9.293,0.863,18.98-5.033,25.181l72.773,216.98l14.635-4.909
		c3.629-1.217,7.644,1.012,8.973,4.97c1.328,3.963-0.532,8.158-4.159,9.377l-16.001,5.366l4.794,40.749l-20.744-35.401
		l-16.002,5.367c-3.624,1.217-7.636-1.01-8.965-4.97c-1.33-3.961,0.529-8.156,4.157-9.373l14.635-4.909l-70.591-210.468
		c-12.914,3.593-23.98,5.003-32.985,4.19c-10.771-0.969-18.996-5.095-24.438-12.261c-4.345-5.719-6.802-13.229-7.381-22.479
		c-13.08,7.982-30.352,17.459-50.833,26.244c-43.572,18.69-87.688,28.177-130.028,28.177c-10.032,0-19.957-0.549-29.756-1.617
		c3.029,8.333,6.61,16.597,10.846,24.545c25.832,48.473,57.216,55.526,104.72,66.2c14.626,3.287,29.75,6.686,46.079,11.621
		c76.709,23.188,132.713,86.228,154.188,138.416c5.255,12.769-0.838,27.379-13.605,32.632c-3.112,1.281-6.335,1.888-9.504,1.888
		c-9.832,0.001-19.156-5.837-23.129-15.493c-16.427-39.921-61.741-91.24-122.417-109.581c-13.394-4.049-26.472-7.072-39.167-9.932
		c1.727,3.518,3.425,7.16,5.07,10.96c12.163,28.089,19.355,58.386,21.38,90.048c2.495,39.046-2.916,80.195-16.085,122.302
		c-3.344,10.693-13.211,17.544-23.854,17.545c-2.472,0.001-4.983-0.369-7.469-1.146c-13.178-4.122-20.52-18.146-16.398-31.322
		c20.12-64.335,19.285-123.305-2.483-175.271c-13.63-32.54-31.702-52.185-37.401-57.876c-0.019-0.011-0.039-0.02-0.058-0.03
		c-26.931-14.623-47.265-36.055-63.994-67.446c-32.594-61.163-33.456-133.505-33.121-151.42c8.205,1.484,16.614,2.264,25.152,2.264
		c8.391,0,16.694-0.742,24.865-2.216c-0.122,5.826-0.193,25.777,3.493,50.802C516.063,408.527,618.69,328.072,619.721,327.251z
		 M323.718,85.333c0.963-0.415,1.928-0.816,2.896-1.205c0.305-0.122,0.611-0.235,0.917-0.354c0.665-0.261,1.33-0.523,1.997-0.771
		c0.353-0.131,0.707-0.252,1.059-0.379c0.621-0.224,1.241-0.452,1.864-0.665c0.382-0.131,0.765-0.252,1.148-0.378
		c0.595-0.198,1.19-0.399,1.787-0.586c0.394-0.124,0.789-0.237,1.184-0.357c0.587-0.178,1.174-0.359,1.762-0.528
		c0.402-0.115,0.805-0.221,1.207-0.332c0.582-0.16,1.163-0.324,1.745-0.475c0.412-0.107,0.825-0.204,1.238-0.307
		c0.573-0.142,1.146-0.287,1.72-0.421c0.419-0.098,0.84-0.186,1.26-0.278c0.568-0.125,1.136-0.254,1.705-0.372
		c0.426-0.088,0.853-0.167,1.279-0.25c0.562-0.109,1.124-0.221,1.687-0.322c0.434-0.079,0.868-0.147,1.303-0.221
		c0.556-0.094,1.112-0.189,1.668-0.275c0.439-0.068,0.879-0.127,1.318-0.189c0.551-0.079,1.102-0.159,1.653-0.23
		c0.448-0.058,0.896-0.107,1.344-0.159c0.541-0.063,1.082-0.128,1.623-0.184c0.459-0.047,0.918-0.087,1.377-0.129
		c0.53-0.048,1.06-0.099,1.59-0.14c0.465-0.036,0.93-0.065,1.395-0.096c0.525-0.035,1.05-0.071,1.575-0.098
		c0.468-0.025,0.937-0.042,1.405-0.062c0.519-0.021,1.038-0.043,1.557-0.059c0.476-0.013,0.952-0.02,1.427-0.027
		c0.509-0.009,1.019-0.018,1.528-0.02c0.329-0.001,0.656,0.004,0.983,0.005c1.08,0.005,2.157,0.025,3.233,0.059
		c0.274,0.009,0.549,0.014,0.823,0.024c1.264,0.049,2.524,0.118,3.784,0.207c0.295,0.021,0.59,0.046,0.886,0.069
		c1.056,0.083,2.11,0.178,3.162,0.288c0.289,0.03,0.578,0.057,0.866,0.089c1.245,0.14,2.487,0.298,3.725,0.475
		c0.294,0.043,0.587,0.09,0.88,0.134c1.031,0.156,2.06,0.325,3.085,0.507c0.302,0.054,0.603,0.104,0.904,0.16
		c1.222,0.227,2.44,0.472,3.653,0.736c0.291,0.063,0.579,0.131,0.868,0.197c1.005,0.226,2.005,0.465,3.002,0.717
		c0.311,0.078,0.623,0.154,0.934,0.235c1.194,0.312,2.383,0.641,3.567,0.988c0.285,0.083,0.568,0.172,0.852,0.258
		c0.977,0.295,1.951,0.603,2.919,0.921c0.315,0.104,0.63,0.206,0.944,0.312c1.166,0.395,2.325,0.806,3.478,1.236
		c0.272,0.101,0.542,0.209,0.814,0.313c0.953,0.363,1.9,0.738,2.843,1.125c0.314,0.129,0.629,0.256,0.942,0.388
		c1.133,0.476,2.26,0.967,3.377,1.478c0.258,0.117,0.512,0.24,0.769,0.36c0.926,0.43,1.847,0.874,2.762,1.327
		c0.311,0.154,0.623,0.307,0.933,0.464c1.097,0.556,2.186,1.126,3.266,1.715c0.238,0.13,0.474,0.267,0.712,0.398
		c0.901,0.5,1.795,1.011,2.684,1.535c0.301,0.177,0.604,0.354,0.904,0.534c1.058,0.635,2.108,1.284,3.147,1.952
		c0.215,0.139,0.427,0.282,0.641,0.421c0.877,0.572,1.746,1.156,2.609,1.751c0.288,0.198,0.576,0.396,0.862,0.597
		c1.016,0.714,2.024,1.44,3.019,2.186c0.19,0.143,0.376,0.29,0.565,0.434c0.849,0.645,1.69,1.302,2.523,1.97
		c0.273,0.219,0.546,0.438,0.818,0.659c0.97,0.792,1.931,1.596,2.877,2.419c0.16,0.14,0.317,0.284,0.477,0.424
		c0.822,0.723,1.633,1.458,2.436,2.205c0.255,0.237,0.51,0.473,0.763,0.712c0.919,0.869,1.83,1.75,2.723,2.651
		c0.13,0.13,0.256,0.265,0.385,0.397c0.791,0.804,1.569,1.622,2.338,2.45c0.236,0.254,0.472,0.508,0.706,0.764
		c0.863,0.945,1.716,1.902,2.551,2.877c0.101,0.118,0.199,0.239,0.299,0.358c0.754,0.888,1.495,1.791,2.225,2.705
		c0.215,0.269,0.43,0.537,0.642,0.808c0.802,1.021,1.593,2.052,2.365,3.104c0.073,0.099,0.143,0.201,0.215,0.301
		c0.711,0.976,1.408,1.967,2.092,2.968c0.194,0.283,0.386,0.565,0.577,0.85c0.735,1.096,1.46,2.202,2.163,3.327
		c0.044,0.071,0.086,0.145,0.131,0.215c0.665,1.07,1.31,2.156,1.944,3.251c0.172,0.297,0.343,0.594,0.512,0.893
		c0.663,1.168,1.314,2.346,1.941,3.542c0.02,0.037,0.039,0.076,0.058,0.113c0.609,1.167,1.197,2.351,1.772,3.543
		c0.15,0.312,0.299,0.623,0.446,0.936c0.583,1.238,1.155,2.484,1.702,3.751c26.337,61.087-1.832,131.958-62.92,158.296
		c-0.963,0.415-1.929,0.816-2.896,1.205c-0.305,0.122-0.611,0.234-0.916,0.354c-0.666,0.26-1.331,0.522-1.998,0.771
		c-0.354,0.132-0.71,0.253-1.065,0.381c-0.619,0.223-1.237,0.45-1.856,0.662c-0.389,0.134-0.778,0.256-1.167,0.385
		c-0.589,0.195-1.177,0.395-1.767,0.58c-0.407,0.128-0.814,0.246-1.221,0.369c-0.574,0.173-1.147,0.351-1.722,0.516
		c-0.419,0.121-0.838,0.23-1.257,0.346c-0.564,0.155-1.128,0.314-1.694,0.46c-0.428,0.111-0.857,0.213-1.285,0.318
		c-0.558,0.139-1.115,0.28-1.673,0.41c-0.436,0.101-0.872,0.193-1.308,0.29c-0.552,0.122-1.103,0.247-1.656,0.36
		c-0.444,0.092-0.889,0.174-1.333,0.26c-0.544,0.106-1.087,0.214-1.632,0.312c-0.451,0.082-0.902,0.153-1.353,0.229
		c-0.54,0.09-1.079,0.184-1.618,0.267c-0.457,0.07-0.914,0.132-1.371,0.197c-0.532,0.076-1.064,0.154-1.597,0.223
		c-0.466,0.06-0.932,0.111-1.399,0.166c-0.523,0.061-1.047,0.124-1.57,0.178c-0.474,0.049-0.947,0.089-1.42,0.133
		c-0.516,0.047-1.032,0.095-1.547,0.136c-0.481,0.037-0.961,0.067-1.441,0.099c-0.509,0.034-1.018,0.068-1.526,0.096
		c-0.483,0.026-0.966,0.044-1.448,0.063c-0.506,0.021-1.013,0.043-1.519,0.057c-0.483,0.014-0.966,0.02-1.449,0.028
		c-0.503,0.008-1.007,0.018-1.51,0.019c-0.33,0.001-0.659-0.003-0.987-0.005c-1.083-0.005-2.165-0.025-3.245-0.059
		c-0.268-0.009-0.535-0.014-0.803-0.024c-1.269-0.049-2.534-0.119-3.798-0.208c-0.288-0.021-0.575-0.045-0.863-0.068
		c-1.069-0.083-2.136-0.18-3.201-0.291c-0.276-0.029-0.554-0.055-0.83-0.086c-1.254-0.14-2.505-0.299-3.752-0.479
		c-0.279-0.04-0.556-0.085-0.835-0.127c-1.052-0.159-2.102-0.332-3.147-0.517c-0.285-0.051-0.571-0.099-0.854-0.151
		c-1.234-0.229-2.464-0.476-3.689-0.743c-0.27-0.059-0.539-0.123-0.808-0.184c-1.033-0.232-2.062-0.478-3.087-0.737
		c-0.289-0.073-0.578-0.144-0.866-0.218c-1.21-0.315-2.416-0.648-3.614-1.001c-0.26-0.077-0.518-0.158-0.777-0.236
		c-1.009-0.304-2.013-0.621-3.013-0.951c-0.293-0.097-0.587-0.191-0.88-0.29c-1.18-0.399-2.354-0.815-3.521-1.25
		c-0.249-0.093-0.495-0.191-0.744-0.286c-0.983-0.374-1.96-0.761-2.933-1.161c-0.292-0.121-0.586-0.239-0.877-0.361
		c-1.148-0.482-2.29-0.98-3.423-1.498c-0.233-0.106-0.463-0.218-0.696-0.326c-0.958-0.445-1.909-0.903-2.855-1.373
		c-0.289-0.143-0.578-0.285-0.865-0.43c-1.111-0.563-2.215-1.141-3.309-1.738c-0.216-0.118-0.43-0.242-0.646-0.361
		c-0.929-0.515-1.85-1.042-2.766-1.581c-0.284-0.167-0.567-0.333-0.85-0.502c-1.07-0.643-2.133-1.299-3.184-1.975
		c-0.195-0.125-0.388-0.256-0.582-0.383c-0.9-0.586-1.792-1.185-2.677-1.795c-0.274-0.189-0.549-0.378-0.822-0.569
		c-1.026-0.721-2.043-1.455-3.047-2.208c-0.173-0.129-0.342-0.264-0.515-0.395c-0.87-0.659-1.729-1.332-2.582-2.016
		c-0.261-0.209-0.523-0.418-0.783-0.63c-0.978-0.798-1.946-1.609-2.9-2.439c-0.148-0.129-0.293-0.262-0.44-0.392
		c-0.835-0.734-1.66-1.482-2.477-2.242c-0.248-0.23-0.496-0.459-0.741-0.692c-0.924-0.874-1.839-1.759-2.737-2.665
		c-0.122-0.124-0.241-0.251-0.363-0.375c-0.799-0.813-1.587-1.64-2.365-2.478c-0.23-0.248-0.46-0.496-0.688-0.745
		c-0.868-0.95-1.726-1.912-2.564-2.893c-0.093-0.109-0.184-0.221-0.277-0.331c-0.762-0.897-1.509-1.81-2.247-2.732
		c-0.211-0.264-0.422-0.528-0.631-0.794c-0.805-1.024-1.599-2.06-2.373-3.115c-0.067-0.092-0.132-0.186-0.199-0.277
		c-0.717-0.983-1.418-1.983-2.108-2.992c-0.191-0.279-0.382-0.56-0.571-0.841c-0.737-1.098-1.462-2.205-2.167-3.333
		c-0.042-0.068-0.083-0.139-0.125-0.207c-0.667-1.072-1.314-2.161-1.95-3.26c-0.171-0.295-0.341-0.591-0.51-0.888
		c-0.664-1.169-1.315-2.347-1.943-3.544c-0.02-0.038-0.038-0.076-0.057-0.114c-0.61-1.167-1.197-2.351-1.772-3.544
		c-0.15-0.311-0.299-0.623-0.446-0.936c-0.583-1.237-1.156-2.484-1.701-3.75C234.461,182.542,262.63,111.67,323.718,85.333z
		 M244.317,528.897c-52.999-104.584,75-175,75-175s-3.704,112.792,65.58,186.772C384.897,540.669,286.91,612.946,244.317,528.897z
		 M399.826,938.624c-0.117,0.046-0.235,0.082-0.353,0.124c-0.25,0.088-0.5,0.169-0.753,0.236c-0.134,0.035-0.268,0.068-0.403,0.098
		c-0.248,0.057-0.497,0.101-0.746,0.137c-0.127,0.02-0.254,0.041-0.381,0.055c-0.3,0.032-0.6,0.049-0.899,0.054
		c-0.072,0.001-0.145,0.01-0.217,0.01c-0.404-0.002-0.805-0.033-1.204-0.081c-0.11-0.014-0.22-0.033-0.329-0.051
		c-0.307-0.048-0.61-0.109-0.911-0.185c-0.107-0.025-0.214-0.05-0.32-0.08c-0.385-0.109-0.764-0.237-1.134-0.391
		c-0.053-0.021-0.103-0.05-0.155-0.073c-0.32-0.14-0.632-0.297-0.937-0.469c-0.104-0.059-0.206-0.12-0.308-0.183
		c-0.28-0.171-0.551-0.356-0.815-0.555c-0.067-0.051-0.137-0.096-0.204-0.148c-0.317-0.252-0.62-0.526-0.908-0.818
		c-0.071-0.072-0.138-0.151-0.207-0.226c-0.22-0.237-0.43-0.487-0.63-0.748c-0.073-0.096-0.147-0.191-0.217-0.29
		c-0.245-0.348-0.479-0.707-0.684-1.091c-2.65-4.962-0.776-11.133,4.186-13.782l238.814-127.541
		c22.805-12.179,34.733-25.756,40.724-35.003c5.856-9.032,7.066-15.306,7.077-15.365c0.053-0.331,0.124-0.654,0.208-0.972
		c0.028-0.108,0.065-0.211,0.098-0.318c0.062-0.207,0.123-0.413,0.197-0.612c0.045-0.121,0.097-0.238,0.146-0.356
		c0.073-0.179,0.148-0.357,0.231-0.531c0.059-0.121,0.123-0.238,0.185-0.356c0.087-0.163,0.176-0.324,0.271-0.481
		c0.07-0.116,0.144-0.229,0.218-0.343c0.1-0.152,0.204-0.3,0.312-0.446c0.079-0.108,0.16-0.215,0.244-0.318
		c0.115-0.144,0.234-0.281,0.355-0.417c0.087-0.097,0.174-0.194,0.263-0.288c0.132-0.136,0.27-0.266,0.409-0.395
		c0.089-0.082,0.177-0.168,0.27-0.248c0.156-0.135,0.319-0.261,0.484-0.386c0.082-0.063,0.163-0.131,0.247-0.191
		c0.235-0.168,0.479-0.326,0.728-0.475c0.019-0.01,0.035-0.023,0.054-0.033c0.269-0.157,0.545-0.301,0.828-0.434
		c0.087-0.041,0.178-0.073,0.266-0.112c0.198-0.086,0.397-0.17,0.601-0.243c0.112-0.041,0.227-0.074,0.341-0.11
		c0.186-0.06,0.372-0.118,0.561-0.167c0.125-0.032,0.251-0.059,0.376-0.086c0.184-0.039,0.369-0.076,0.556-0.106
		c0.131-0.021,0.264-0.038,0.396-0.054c0.186-0.023,0.373-0.04,0.562-0.052c0.135-0.009,0.27-0.016,0.406-0.019
		c0.21-0.005,0.422-0.003,0.635,0.006c0.096,0.004,0.191,0.004,0.289,0.012c0.314,0.021,0.63,0.053,0.946,0.104
		c5.554,0.897,9.327,6.127,8.428,11.681c-0.094,0.583-1.094,6.251-5.217,14.574c-0.001,0.002-0.002,0.004-0.003,0.006
		c-0.63,1.271-1.333,2.604-2.117,3.99c-0.026,0.048-0.055,0.096-0.082,0.144c-0.233,0.412-0.474,0.827-0.722,1.246
		c-0.029,0.052-0.06,0.103-0.09,0.154c-0.553,0.933-1.141,1.886-1.768,2.859c-0.031,0.049-0.063,0.098-0.096,0.146
		c-0.271,0.422-0.552,0.846-0.838,1.273c-0.066,0.098-0.132,0.196-0.199,0.295c-0.278,0.412-0.563,0.828-0.856,1.246
		c-0.052,0.075-0.103,0.149-0.155,0.224c-0.693,0.986-1.426,1.989-2.198,3.005c-0.084,0.109-0.169,0.22-0.254,0.33
		c-0.303,0.394-0.611,0.791-0.927,1.188c-0.104,0.132-0.208,0.264-0.313,0.396c-0.343,0.429-0.692,0.858-1.05,1.291
		c-0.064,0.078-0.128,0.157-0.193,0.236c-0.434,0.522-0.878,1.048-1.333,1.575c-0.055,0.062-0.11,0.124-0.164,0.187
		c-0.39,0.449-0.787,0.9-1.193,1.353c-0.13,0.146-0.262,0.29-0.393,0.435c-0.353,0.389-0.711,0.778-1.075,1.169
		c-0.136,0.145-0.27,0.289-0.406,0.435c-0.443,0.472-0.896,0.943-1.357,1.417c-0.051,0.052-0.099,0.104-0.15,0.156
		c-0.521,0.531-1.053,1.063-1.596,1.598c-0.123,0.12-0.249,0.241-0.373,0.361c-0.42,0.41-0.847,0.819-1.28,1.23
		c-0.171,0.161-0.343,0.323-0.516,0.484c-0.422,0.394-0.851,0.789-1.285,1.185c-0.158,0.143-0.313,0.286-0.474,0.43
		c-1.184,1.064-2.416,2.133-3.697,3.2c-0.178,0.147-0.359,0.296-0.54,0.444c-0.475,0.392-0.955,0.782-1.442,1.173
		c-0.208,0.166-0.416,0.333-0.627,0.499c-0.519,0.409-1.045,0.82-1.579,1.229c-0.161,0.125-0.32,0.249-0.484,0.374
		c-0.702,0.535-1.418,1.069-2.147,1.603c-0.107,0.079-0.22,0.157-0.328,0.236c-0.619,0.449-1.247,0.898-1.885,1.348
		c-0.226,0.159-0.456,0.317-0.685,0.478c-0.551,0.381-1.108,0.763-1.673,1.145c-0.235,0.159-0.47,0.317-0.708,0.477
		c-0.664,0.442-1.339,0.884-2.022,1.324c-0.128,0.082-0.252,0.166-0.381,0.248c-0.818,0.523-1.651,1.045-2.497,1.565
		c-0.201,0.124-0.407,0.245-0.608,0.368c-0.651,0.396-1.31,0.792-1.978,1.185c-0.276,0.163-0.555,0.326-0.833,0.487
		c-0.64,0.372-1.286,0.743-1.94,1.111c-0.263,0.148-0.522,0.297-0.789,0.445c-0.903,0.504-1.817,1.006-2.75,1.505
		c-0.004,0.002-0.009,0.004-0.012,0.006l-0.004,0.002c-0.009,0.006-0.019,0.01-0.028,0.016l-238.815,127.54
		C400.545,938.322,400.188,938.481,399.826,938.624z M718.953,910.725c-94.682,50.566-199.27,64.526-297.452,47.646
		c0,0,33.696-10.62,43.241-17.287c6.663-4.654,59.112-14.381,91.843-44.458c31.854-29.271,67.474-54.349,121.06-63.995
		c6.389-1.15,37.014-16.968,43.397-18.979c20.709-6.521,34.64-34.653,69.345-52.286c2.927-1.488,45.877-10.287,66.047-31.455
		c3.609-3.788,30.303-9.715,35.198-11.562c10.218-3.854,32.968-28.66,32.968-28.66C884.078,781.018,813.915,860.011,718.953,910.725
		z M932.583,620.241c-0.246,1.518-6.603,37.469-58.315,65.086L708.549,773.83c7.332-13.073,9.237-22.925,9.585-25.083
		c0.179-1.105,0.291-2.212,0.35-3.315l146.188-78.073c42.154-22.512,47.61-49.356,47.821-50.489l-0.021,0.121
		c0,0,2.054-8.854,10.781-8.231C936.217,609.685,932.583,620.241,932.583,620.241z"/>
</g>
</svg>
