<?xml version="1.0" encoding="utf-8"?>
<!-- Generator: Adobe Illustrator 16.0.0, SVG Export Plug-In . SVG Version: 6.00 Build 0)  -->
<!DOCTYPE svg PUBLIC "-//W3C//DTD SVG 1.1//EN" "http://www.w3.org/Graphics/SVG/1.1/DTD/svg11.dtd">
<svg version="1.1" id="Layer_1" xmlns="http://www.w3.org/2000/svg" xmlns:xlink="http://www.w3.org/1999/xlink" x="0px" y="0px"
	 width="1000px" height="1000px" viewBox="0 0 1000 1000" enable-background="new 0 0 1000 1000" xml:space="preserve">
<path d="M753.352,69.033C515.335-70.89,208.957,8.631,69.033,246.647C-70.891,484.666,8.631,791.045,246.646,930.967
	c238.018,139.923,544.397,60.403,684.32-177.613C1070.89,515.335,991.369,208.957,753.352,69.033z M559.975,167.84
	c19.721-56.921,81.851-87.081,138.771-67.358c56.922,19.719,87.08,81.849,67.358,138.769
	c-15.729,45.404-58.444,73.778-103.975,73.393c-6.749-0.006-13.563-0.643-20.365-1.949c-0.011-0.059-0.021-0.113-0.033-0.172
	c-4.816-0.965-9.625-2.26-14.397-3.914C570.412,286.891,540.256,224.761,559.975,167.84z M418.739,309.386
	c7.063-0.931,13.542,4.041,14.474,11.103c0.93,7.062-4.041,13.542-11.103,14.473c-7.063,0.93-13.543-4.041-14.473-11.103
	C406.707,316.796,411.677,310.316,418.739,309.386z M430.77,443.979c-3.651,3.189-7.163,6.652-10.513,10.381
	c-8.231,9.168-15.21,19.574-20.634,30.674l-61.656-87.247c27.543-10.056,61.606,1.737,81.662,30.316L430.77,443.979z
	 M386.531,207.227c8.619-1.136,16.527,4.93,17.663,13.549s-4.931,16.528-13.551,17.664c-8.618,1.136-16.526-4.931-17.662-13.55
	S377.912,208.363,386.531,207.227z M345.796,309.707c14.01-1.846,26.863,8.015,28.709,22.024
	c1.846,14.009-8.014,26.863-22.022,28.709c-14.01,1.846-26.863-8.014-28.71-22.023C321.927,324.407,331.787,311.554,345.796,309.707
	z M321.067,407.565l70.194,99.329c-4.509,16.043-5.412,31.775-2.569,45.803c0.072,0.363,0.152,0.726,0.235,1.086
	c2.072,8.992,7.202,17.09,14.448,22.806c7.159,5.646,16.107,8.756,25.196,8.756c2.715,0,5.447-0.275,8.12-0.817
	c2.686-0.545,5.276-1.347,7.746-2.384l36.506,51.659c5.543,14.462,13.403,29.551,23.576,45.229
	c4.778,7.364,11.665,12.835,19.594,15.858l77.374,109.489c-28.81,17.812-69.31,6.913-91.948-25.35l-194.672-277.41
	C292.588,469.869,295.664,428.909,321.067,407.565z M468.506,536.573c-0.44-3.056,2.039-14.547,9.845-24.791l11.078,15.786
	c-4.54,6.227-8.288,12.908-11.216,20.039c-4.956,12.066-7.33,24.916-7.166,38.495l-11.021-15.595
	c0.887-1.081,1.726-2.211,2.509-3.393C468.534,558.062,470.653,547.218,468.506,536.573z M548.887,696.251
	c4.189-1.087,8.172-2.832,11.877-5.234c12.365-8.022,18.925-21.669,18.508-35.423l35.029,49.918
	c19.68,28.045,19.587,63.286,1.792,85.839L548.887,696.251z M264.43,900.719C43.118,770.619-30.82,485.74,99.281,264.43
	c17.721-30.144,38.313-57.555,61.226-82.088c0,0,17.049,59.189,68.021,77.992c24.581,9.068,48.147,12.647,64.194,37.738
	c13.225,20.678-1.707,63.422,11.45,84.143c2.65,4.174,4.954,7.453,7.019,10.055c-16.377,12.899-26.584,31.943-28.88,54.083
	c-2.351,22.665,3.957,45.979,17.762,65.65l194.672,277.41c18.262,26.025,46.713,41.563,76.104,41.563
	c15.945,0,31.079-4.708,43.769-13.612c18.34-12.87,29.79-32.965,32.239-56.582c2.351-22.663-3.957-45.979-17.76-65.65
	l-47.536-67.737c6.684,5.743,12.311,11.93,16.378,18.639c31.795,52.438,92.105,36.115,129.296,130.108
	c19.452,49.162,57.874,91.141,57.874,91.141C639.218,980.461,433.316,1000.003,264.43,900.719z M817.498,554.874
	c-0.137,12.392-10.227,22.346-22.586,22.346c-0.086,0-0.17,0-0.254-0.002c-12.477-0.137-22.48-10.363-22.344-22.84
	c0.595-54.06-16.403-93.654-50.522-117.686c-10.068-7.093-20.309-11.841-29.113-15.005c-8.223,72.592-42.498,99.922-72.907,109.563
	c-1.049,0.422-2.127,0.797-3.263,1.063c-1.003,0.236-2.077,0.481-3.199,0.732c-2.022,0.501-4.009,0.951-5.932,1.311
	c-22.069,4.85-61.029,13.86-70.648,37.282c-2.527,6.156-2.946,13.181-1.928,20.585v0.001c1.491,10.852,6.087,22.521,11.747,33.491
	c0.052,0.102,0.104,0.201,0.156,0.302c1.082,2.089,2.203,4.151,3.348,6.178c0.092,0.163,0.184,0.324,0.275,0.485
	c0.497,0.873,0.997,1.739,1.5,2.598c0.079,0.135,0.158,0.271,0.237,0.406c0.564,0.957,1.133,1.905,1.704,2.842
	c0.098,0.162,0.196,0.321,0.296,0.481c0.469,0.768,0.939,1.526,1.41,2.275c0.146,0.233,0.293,0.468,0.439,0.699
	c0.558,0.884,1.116,1.76,1.674,2.618c6.79,10.467,3.812,24.459-6.656,31.25c-2.914,1.888-6.101,3.024-9.329,3.448
	c-0.51,0.066-1.019,0.114-1.527,0.147c-0.159,0.01-0.317,0.008-0.477,0.015c-0.314,0.013-0.63,0.031-0.944,0.031
	c-0.03,0-0.062-0.004-0.092-0.004c-7.366-0.03-14.57-3.653-18.882-10.294c-11.133-17.159-19.222-33.384-24.274-48.62l0,0
	c-0.002-0.004-0.003-0.008-0.004-0.012c-0.483-1.46-0.936-2.909-1.363-4.351c-0.053-0.18-0.105-0.359-0.158-0.539
	c-0.389-1.332-0.755-2.655-1.098-3.973c-0.036-0.143-0.076-0.286-0.112-0.43c-1.117-4.365-1.97-8.644-2.557-12.833
	c-0.032-0.223-0.061-0.445-0.09-0.669c-0.155-1.162-0.291-2.316-0.405-3.465c-0.024-0.241-0.05-0.483-0.072-0.723
	c-0.118-1.271-0.214-2.536-0.281-3.79c-0.004-0.064-0.01-0.129-0.013-0.192c-0.071-1.381-0.113-2.751-0.123-4.11
	c-0.001-0.033,0.001-0.065,0-0.098c-0.008-1.239,0.015-2.468,0.058-3.688c0.011-0.304,0.027-0.604,0.041-0.906
	c0.044-0.97,0.104-1.934,0.181-2.892c0.027-0.342,0.055-0.685,0.086-1.025c0.09-0.982,0.2-1.958,0.325-2.929
	c0.033-0.263,0.062-0.528,0.098-0.791c0.171-1.235,0.366-2.462,0.593-3.678c0.016-0.084,0.036-0.166,0.052-0.25
	c0.209-1.099,0.443-2.189,0.698-3.272c0.084-0.36,0.178-0.717,0.268-1.074c0.205-0.816,0.42-1.629,0.65-2.437
	c0.114-0.397,0.229-0.792,0.349-1.187c0.244-0.803,0.504-1.6,0.773-2.393c0.119-0.351,0.232-0.702,0.356-1.051
	c0.4-1.123,0.82-2.24,1.273-3.344c0.49-1.193,1.014-2.355,1.554-3.502c0.188-0.401,0.382-0.794,0.575-1.189
	c0.363-0.737,0.736-1.465,1.118-2.184c0.238-0.45,0.474-0.902,0.719-1.345c0.536-0.961,1.085-1.909,1.653-2.838
	c9.539-15.576,23.764-26.483,39.077-34.331c-1.68-1.938-3.26-3.84-4.751-5.635c-11.237-13.55-17.83-20.691-33.503-22.147
	c-15.231-1.419-26.742,7.404-33.772,15.161l0.001,0.001c-0.067,0.074-0.141,0.15-0.207,0.225
	c-12.811,14.264-18.597,33.651-16.612,43.434c0.118,0.581,0.205,1.161,0.277,1.74c0.012,0.102,0.026,0.203,0.038,0.304
	c0.062,0.561,0.102,1.118,0.122,1.673c0.003,0.095,0.004,0.188,0.006,0.282c0.027,1.182-0.037,2.351-0.189,3.498
	c-0.007,0.047-0.012,0.094-0.019,0.141c-0.081,0.581-0.186,1.155-0.311,1.724c-0.008,0.037-0.017,0.073-0.025,0.109
	c-1.901,8.432-8.565,15.389-17.584,17.22c-0.759,0.153-1.517,0.268-2.271,0.343c-0.063,0.007-0.126,0.009-0.189,0.015
	c-0.312,0.028-0.622,0.055-0.932,0.07c-0.153,0.008-0.306,0.007-0.459,0.012c-0.22,0.007-0.439,0.016-0.658,0.016
	c-0.006,0-0.012,0.001-0.018,0.001c-0.015,0-0.028-0.002-0.043-0.002c-0.579-0.001-1.154-0.028-1.727-0.074
	c-0.08-0.006-0.16-0.01-0.239-0.017c-0.557-0.05-1.108-0.123-1.655-0.214c-0.102-0.017-0.203-0.034-0.305-0.052
	c-0.543-0.098-1.08-0.213-1.611-0.349c-0.084-0.021-0.166-0.046-0.25-0.068c-0.554-0.148-1.102-0.313-1.64-0.501
	c-0.008-0.003-0.016-0.007-0.023-0.01c-0.539-0.189-1.067-0.404-1.588-0.635c-0.068-0.029-0.138-0.058-0.205-0.087
	c-0.501-0.228-0.991-0.475-1.474-0.735c-0.085-0.046-0.169-0.093-0.252-0.139c-0.479-0.268-0.946-0.55-1.403-0.851
	c-0.066-0.044-0.131-0.089-0.196-0.133c-0.952-0.641-1.856-1.354-2.704-2.134c-0.054-0.05-0.108-0.097-0.162-0.147
	c-0.401-0.377-0.788-0.771-1.162-1.176c-0.064-0.071-0.129-0.142-0.192-0.212c-0.369-0.41-0.725-0.834-1.063-1.271
	c-0.048-0.063-0.095-0.126-0.142-0.188c-0.699-0.924-1.33-1.906-1.886-2.942c-0.038-0.071-0.077-0.141-0.115-0.212
	c-0.259-0.497-0.499-1.007-0.723-1.526c-0.04-0.095-0.08-0.189-0.119-0.285c-0.217-0.522-0.417-1.055-0.596-1.601
	c-0.026-0.082-0.051-0.165-0.077-0.248c-0.181-0.574-0.347-1.157-0.483-1.754c-0.045-0.191-0.088-0.386-0.127-0.579
	c-0.169-0.831-0.318-1.673-0.453-2.52c-0.035-0.226-0.063-0.455-0.096-0.681c-0.093-0.634-0.184-1.27-0.259-1.91
	c-0.026-0.232-0.046-0.467-0.07-0.7c-0.068-0.649-0.133-1.3-0.183-1.957c-0.016-0.207-0.026-0.416-0.04-0.625
	c-0.046-0.695-0.086-1.394-0.111-2.097c-0.007-0.17-0.009-0.341-0.015-0.512c-0.022-0.753-0.034-1.51-0.033-2.271
	c0-0.127,0.002-0.253,0.003-0.38c0.005-0.814,0.022-1.634,0.054-2.458c0.003-0.079,0.007-0.158,0.01-0.238
	c0.036-0.877,0.086-1.757,0.151-2.641c0.003-0.036,0.005-0.072,0.008-0.109c0.681-9.056,2.884-18.492,6.435-27.751
	c0.001-0.003,0.002-0.004,0.003-0.007c0.261-0.679,0.531-1.354,0.806-2.031c0.066-0.162,0.131-0.326,0.198-0.49
	c0.256-0.623,0.521-1.244,0.789-1.865c0.093-0.213,0.186-0.428,0.279-0.641c0.262-0.596,0.528-1.188,0.801-1.781
	c0.109-0.236,0.219-0.473,0.329-0.709c0.271-0.578,0.545-1.154,0.826-1.729c0.12-0.245,0.242-0.488,0.363-0.732
	c0.284-0.571,0.569-1.142,0.864-1.711c0.118-0.229,0.241-0.457,0.361-0.685c0.308-0.585,0.615-1.169,0.934-1.75
	c0.067-0.123,0.138-0.244,0.206-0.367c0.708-1.283,1.442-2.555,2.203-3.815c0.088-0.147,0.173-0.296,0.262-0.442
	c0.278-0.457,0.564-0.908,0.85-1.361c0.22-0.351,0.437-0.702,0.66-1.05c0.265-0.414,0.537-0.823,0.808-1.233
	c0.254-0.385,0.508-0.771,0.768-1.153c0.263-0.388,0.529-0.773,0.797-1.158c0.278-0.401,0.56-0.802,0.843-1.199
	c0.262-0.366,0.525-0.731,0.791-1.095c0.305-0.416,0.612-0.83,0.923-1.243c0.257-0.343,0.514-0.684,0.775-1.022
	c0.336-0.437,0.678-0.87,1.02-1.302c0.246-0.311,0.49-0.621,0.739-0.929c0.392-0.483,0.789-0.96,1.188-1.437
	c0.211-0.252,0.418-0.506,0.632-0.757c0.616-0.723,1.241-1.439,1.877-2.147c19.723-21.961,45.243-32.693,71.863-30.215
	c35.084,3.262,51.891,23.528,64.161,38.325c12.533,15.113,15.9,19.175,34.285,14.158c15.234-4.157,26.315-14.649,33.879-32.074
	c3.552-8.179,6.278-17.725,8.169-28.558c-11.674,3.583-25.381,6.353-39.887,6.354c-11.741,0-23.997-1.811-36.124-6.468
	c-33.329-12.801-56.898-42.994-70.052-89.741c-3.38-12.011,3.617-24.488,15.628-27.868c12.002-3.381,24.487,3.617,27.867,15.628
	c9.081,32.271,23.466,52.39,42.757,59.799c22.895,8.794,49.448-0.874,62.879-7.195c-0.458-17.871-2.268-34.881-4.228-48.653
	c15.188,2.11,30.55,1.437,45.466-1.971c1.824,13.675,3.419,29.833,3.959,46.945c13.997,3.771,32.781,10.721,51.438,23.431
	C779.025,420.992,818.468,466.544,817.498,554.874z"/>
</svg>
