<?xml version="1.0" encoding="utf-8"?>
<!-- Generator: Adobe Illustrator 16.0.0, SVG Export Plug-In . SVG Version: 6.00 Build 0)  -->
<!DOCTYPE svg PUBLIC "-//W3C//DTD SVG 1.1//EN" "http://www.w3.org/Graphics/SVG/1.1/DTD/svg11.dtd">
<svg version="1.1" id="Layer_1" xmlns="http://www.w3.org/2000/svg" xmlns:xlink="http://www.w3.org/1999/xlink" x="0px" y="0px"
	 width="1000px" height="1000px" viewBox="0 0 1000 1000" enable-background="new 0 0 1000 1000" xml:space="preserve">
<g>
	<path d="M482.45,452.136c0.143,7.968,0.863,15.356,2.187,22.106c4.038,20.59,13.857,33.904,28.965,42.619
		c8.134,4.691,13.21,8.39,16.16,11.504l42.396-42.396c-1.396,0.044-2.812,0.068-4.246,0.068
		C542.703,486.038,511.437,478.86,482.45,452.136z"/>
	<path d="M500,0C223.857,0,0,223.857,0,500c0,276.142,223.857,500,500,500c276.144,0,500-223.858,500-500
		C1000,223.857,776.144,0,500,0z M733.481,271.194l67.427-67.427c13.492-13.492,36.115-12.745,50.53,1.669l15.658,15.66
		c14.414,14.414,15.162,37.036,1.669,50.528l-67.426,67.427c-13.492,13.491-67.629,44.26-82.044,29.845l-0.625-0.626l-67.881,67.881
		c4.321,11.083,0.222,24.002-10.29,30.408c-1.956,1.192-14.873,8.799-34.265,14.146L440.311,646.63l0.626,0.626
		c0.256,0.256,0.493,0.527,0.721,0.808c0.072,0.089,0.138,0.182,0.208,0.273c0.152,0.2,0.299,0.404,0.438,0.616
		c0.071,0.107,0.14,0.218,0.208,0.329c0.13,0.213,0.253,0.433,0.371,0.657c0.057,0.107,0.115,0.213,0.168,0.324
		c0.141,0.288,0.272,0.586,0.395,0.892c0.02,0.049,0.042,0.094,0.062,0.144c0.138,0.356,0.261,0.726,0.374,1.104
		c0.032,0.107,0.059,0.22,0.089,0.33c0.077,0.276,0.148,0.557,0.212,0.845c0.031,0.138,0.059,0.276,0.086,0.417
		c0.055,0.276,0.104,0.559,0.148,0.845c0.021,0.138,0.043,0.274,0.062,0.415c0.045,0.341,0.082,0.688,0.113,1.041
		c0.007,0.085,0.018,0.168,0.024,0.254c0.034,0.443,0.056,0.896,0.067,1.356c0.002,0.106,0.001,0.216,0.002,0.323
		c0.005,0.357,0.005,0.719-0.003,1.085c-0.003,0.154-0.009,0.312-0.015,0.467c-0.012,0.337-0.029,0.677-0.051,1.021
		c-0.01,0.157-0.02,0.314-0.032,0.473c-0.03,0.389-0.066,0.783-0.108,1.181c-0.012,0.108-0.021,0.215-0.033,0.324
		c-0.059,0.517-0.126,1.04-0.205,1.57c-0.011,0.072-0.024,0.146-0.036,0.22c-0.069,0.454-0.145,0.912-0.228,1.375
		c-0.027,0.152-0.057,0.307-0.086,0.461c-0.075,0.398-0.154,0.799-0.238,1.203c-0.034,0.159-0.067,0.318-0.101,0.478
		c-0.095,0.44-0.197,0.884-0.303,1.33c-0.027,0.114-0.052,0.227-0.08,0.342c-0.278,1.144-0.591,2.306-0.935,3.485
		c-0.037,0.126-0.075,0.252-0.112,0.379c-0.139,0.467-0.281,0.937-0.429,1.408c-0.046,0.145-0.091,0.289-0.138,0.436
		c-0.158,0.494-0.32,0.991-0.488,1.489c-0.033,0.099-0.064,0.196-0.098,0.295c-0.418,1.233-0.865,2.478-1.337,3.731
		c-0.027,0.069-0.054,0.14-0.081,0.21c-0.208,0.551-0.422,1.102-0.641,1.655c-0.043,0.108-0.086,0.216-0.129,0.324
		c-0.22,0.552-0.443,1.104-0.671,1.656c-0.029,0.07-0.058,0.141-0.087,0.211c-0.797,1.922-1.646,3.85-2.534,5.771
		c-0.029,0.062-0.057,0.123-0.085,0.185c-0.278,0.6-0.56,1.197-0.846,1.795c-0.018,0.037-0.035,0.073-0.053,0.11
		c-0.933,1.95-1.904,3.886-2.9,5.795c-0.002,0.004-0.005,0.009-0.007,0.015c-6.932,13.272-15.1,25.19-20.502,30.591l-67.426,67.427
		c-0.413,0.412-0.835,0.811-1.264,1.197c-0.144,0.129-0.293,0.249-0.439,0.376c-0.289,0.25-0.577,0.503-0.873,0.741
		c-0.178,0.145-0.361,0.278-0.542,0.417c-0.271,0.21-0.541,0.422-0.816,0.622c-0.195,0.142-0.396,0.273-0.593,0.41
		c-0.268,0.186-0.535,0.372-0.808,0.549c-0.207,0.133-0.417,0.258-0.625,0.387c-0.271,0.167-0.542,0.335-0.817,0.493
		c-0.214,0.123-0.432,0.239-0.649,0.357c-0.275,0.15-0.549,0.301-0.828,0.442c-0.222,0.113-0.446,0.219-0.67,0.326
		c-0.279,0.135-0.559,0.269-0.841,0.395c-0.227,0.103-0.457,0.197-0.686,0.293c-0.285,0.119-0.568,0.238-0.855,0.35
		c-0.233,0.089-0.466,0.174-0.701,0.259c-0.289,0.104-0.578,0.207-0.869,0.303c-0.236,0.078-0.475,0.151-0.713,0.225
		c-0.293,0.09-0.586,0.177-0.881,0.258c-0.239,0.066-0.479,0.129-0.721,0.19c-0.298,0.075-0.596,0.146-0.896,0.214
		c-0.242,0.055-0.484,0.105-0.727,0.154c-0.302,0.062-0.605,0.117-0.909,0.17c-0.244,0.042-0.488,0.083-0.732,0.12
		c-0.305,0.046-0.611,0.087-0.917,0.125c-0.246,0.03-0.492,0.061-0.739,0.086c-0.308,0.031-0.617,0.057-0.926,0.081
		c-0.246,0.019-0.492,0.037-0.739,0.051c-0.313,0.018-0.625,0.027-0.939,0.036c-0.244,0.007-0.489,0.016-0.734,0.018
		c-0.095,0.001-0.189,0.006-0.284,0.006c-0.193,0-0.387-0.012-0.58-0.015c-0.301-0.004-0.603-0.01-0.904-0.022
		c-0.283-0.012-0.567-0.029-0.851-0.048c-0.3-0.02-0.601-0.041-0.902-0.067c-0.284-0.025-0.567-0.057-0.852-0.089
		c-0.302-0.034-0.603-0.07-0.904-0.112c-0.281-0.04-0.562-0.083-0.843-0.128c-0.303-0.05-0.606-0.103-0.91-0.16
		c-0.278-0.052-0.555-0.108-0.833-0.167c-0.304-0.064-0.607-0.132-0.909-0.204c-0.275-0.066-0.55-0.134-0.825-0.206
		c-0.303-0.08-0.606-0.165-0.908-0.253c-0.271-0.078-0.542-0.158-0.812-0.243c-0.303-0.095-0.605-0.196-0.906-0.299
		c-0.267-0.092-0.534-0.184-0.8-0.281c-0.302-0.111-0.602-0.229-0.902-0.349c-0.261-0.104-0.521-0.207-0.781-0.316
		c-0.302-0.128-0.603-0.264-0.903-0.399c-0.254-0.115-0.507-0.229-0.759-0.351c-0.302-0.145-0.601-0.298-0.9-0.452
		c-0.246-0.126-0.492-0.249-0.736-0.382c-0.301-0.162-0.598-0.334-0.896-0.506c-0.238-0.137-0.476-0.271-0.711-0.413
		c-0.3-0.181-0.595-0.372-0.891-0.563c-0.228-0.146-0.458-0.289-0.684-0.441c-0.3-0.201-0.595-0.415-0.891-0.626
		c-0.215-0.154-0.433-0.303-0.646-0.461c-0.307-0.229-0.607-0.47-0.91-0.709c-0.195-0.154-0.394-0.304-0.587-0.462
		c-0.332-0.273-0.656-0.56-0.981-0.846c-0.157-0.139-0.317-0.27-0.472-0.41c-0.477-0.433-0.946-0.879-1.407-1.339l-15.66-15.659
		c-0.469-0.468-0.921-0.946-1.361-1.433c-0.11-0.122-0.213-0.248-0.323-0.371c-0.327-0.371-0.651-0.743-0.962-1.123
		c-0.105-0.128-0.204-0.26-0.307-0.39c-0.307-0.384-0.609-0.771-0.898-1.162c-0.085-0.115-0.166-0.233-0.25-0.349
		c-0.301-0.417-0.595-0.836-0.876-1.261c-0.063-0.094-0.122-0.188-0.183-0.282c-0.296-0.456-0.583-0.915-0.858-1.379
		c-0.041-0.068-0.08-0.137-0.12-0.206c-0.29-0.496-0.569-0.997-0.835-1.503c-0.022-0.041-0.042-0.082-0.064-0.123
		c-0.279-0.535-0.545-1.076-0.798-1.621c-0.008-0.018-0.017-0.036-0.025-0.054c-0.262-0.568-0.508-1.139-0.74-1.715
		c0-0.001-0.001-0.002-0.001-0.003c-5.187-12.872-2.957-27.666,6.933-37.557l13.438-13.438l36.215-36.215l17.772-17.772
		c0.309-0.309,0.646-0.628,0.996-0.955c0.071-0.064,0.14-0.131,0.212-0.197c0.347-0.318,0.71-0.643,1.093-0.976
		c0.073-0.064,0.15-0.129,0.226-0.193c0.369-0.317,0.751-0.641,1.151-0.969c0.049-0.041,0.094-0.079,0.144-0.119
		c0.427-0.351,0.875-0.707,1.336-1.068c0.109-0.086,0.219-0.172,0.33-0.259c0.46-0.358,0.934-0.721,1.425-1.089
		c0.092-0.068,0.187-0.139,0.279-0.207c0.444-0.331,0.899-0.665,1.365-1.001c0.11-0.081,0.219-0.159,0.33-0.24
		c0.514-0.368,1.042-0.741,1.58-1.115c0.155-0.109,0.311-0.217,0.468-0.325c0.545-0.376,1.097-0.755,1.666-1.136
		c0.11-0.074,0.223-0.148,0.334-0.223c0.5-0.334,1.01-0.671,1.527-1.008c0.168-0.109,0.334-0.219,0.503-0.328
		c0.579-0.374,1.167-0.75,1.764-1.127c0.19-0.12,0.382-0.239,0.573-0.359c0.538-0.336,1.08-0.672,1.63-1.009
		c0.18-0.11,0.36-0.221,0.542-0.331c0.561-0.34,1.129-0.68,1.701-1.02c0.22-0.131,0.44-0.261,0.661-0.392
		c0.622-0.365,1.248-0.729,1.881-1.092c0.218-0.125,0.438-0.249,0.657-0.374c0.527-0.299,1.058-0.598,1.593-0.896
		c0.195-0.108,0.388-0.218,0.584-0.326c0.646-0.356,1.297-0.709,1.951-1.061c0.252-0.136,0.504-0.271,0.757-0.405
		c0.653-0.348,1.31-0.693,1.971-1.036c0.222-0.114,0.445-0.228,0.667-0.342c0.538-0.275,1.077-0.549,1.619-0.82
		c0.232-0.115,0.464-0.233,0.697-0.348c0.667-0.331,1.337-0.657,2.008-0.979c0.259-0.125,0.517-0.247,0.777-0.37
		c0.642-0.305,1.285-0.605,1.929-0.901c0.226-0.104,0.452-0.206,0.678-0.309c0.574-0.261,1.147-0.517,1.722-0.769
		c0.246-0.108,0.491-0.218,0.736-0.324c0.681-0.295,1.362-0.584,2.042-0.867c0.239-0.1,0.478-0.197,0.718-0.295
		c0.604-0.248,1.206-0.49,1.807-0.727c0.204-0.08,0.408-0.16,0.611-0.239c0.647-0.251,1.292-0.494,1.935-0.73
		c0.232-0.086,0.464-0.171,0.695-0.255c0.685-0.248,1.366-0.489,2.044-0.72c0.203-0.068,0.404-0.135,0.607-0.202
		c0.591-0.197,1.179-0.388,1.764-0.571c0.164-0.051,0.328-0.104,0.49-0.154c0.684-0.211,1.362-0.408,2.036-0.598
		c0.203-0.057,0.405-0.113,0.606-0.168c0.678-0.186,1.351-0.363,2.017-0.525c0.137-0.034,0.272-0.063,0.409-0.097
		c0.598-0.142,1.189-0.274,1.775-0.397c0.149-0.031,0.3-0.064,0.449-0.095c0.656-0.133,1.303-0.251,1.942-0.357
		c0.159-0.026,0.316-0.052,0.474-0.076c0.656-0.104,1.305-0.196,1.941-0.271c0.051-0.005,0.1-0.009,0.151-0.016
		c0.61-0.067,1.208-0.119,1.798-0.159c0.124-0.009,0.25-0.018,0.373-0.025c0.607-0.035,1.203-0.054,1.786-0.056
		c0.044,0,0.091-0.005,0.135-0.005c0.078,0,0.15,0.007,0.227,0.008c0.446,0.003,0.886,0.017,1.317,0.04
		c0.1,0.005,0.201,0.009,0.299,0.015c0.508,0.034,1.006,0.083,1.492,0.146c0.092,0.013,0.183,0.028,0.275,0.042
		c0.411,0.059,0.814,0.13,1.207,0.212c0.098,0.021,0.198,0.04,0.295,0.062c0.457,0.103,0.901,0.22,1.332,0.355
		c0.065,0.02,0.126,0.044,0.191,0.064c0.37,0.122,0.728,0.257,1.077,0.404c0.095,0.04,0.191,0.08,0.286,0.122
		c0.394,0.177,0.776,0.366,1.14,0.577c0.039,0.022,0.074,0.049,0.113,0.071c0.325,0.194,0.635,0.403,0.935,0.626
		c0.087,0.064,0.174,0.13,0.258,0.196c0.325,0.256,0.641,0.523,0.934,0.817l0.625,0.625l43.808-43.808l25.376-25.376
		c-1.59-0.459-3.158-1.074-4.681-1.871c-35.601-18.638-73.437-63.285-51.513-170.156c5.172-25.213,12.674-49.006,19.574-67.998
		c14.991,7.044,31.389,11.502,48.591,12.853c-5.235,14.023-11.041,31.404-15.705,50.024c2.153,1.665,4.072,3.707,5.642,6.115
		c20.519,31.454,45.466,45.799,76.272,43.852c22.972-1.452,41.033-11.896,41.205-12.001c6.836-4.167,14.88-4.656,21.836-2.038
		l67.954-67.955l-0.626-0.626C689.223,338.823,719.99,284.686,733.481,271.194z M504.157,75.806
		c1.125-0.133,2.248-0.246,3.369-0.348c0.356-0.032,0.712-0.057,1.068-0.085c0.769-0.063,1.536-0.122,2.303-0.17
		c0.417-0.025,0.833-0.046,1.249-0.067c0.706-0.037,1.411-0.069,2.115-0.094c0.436-0.015,0.872-0.027,1.307-0.038
		c0.689-0.017,1.378-0.025,2.065-0.03c0.463-0.003,0.925-0.007,1.385-0.005c0.423,0.002,0.844,0.008,1.266,0.015
		c0.562,0.008,1.121,0.02,1.681,0.036c0.416,0.012,0.831,0.026,1.247,0.043c0.566,0.022,1.134,0.049,1.699,0.08
		c0.404,0.021,0.808,0.044,1.211,0.07c0.575,0.036,1.15,0.078,1.724,0.123c0.392,0.031,0.782,0.062,1.173,0.097
		c0.591,0.052,1.18,0.11,1.769,0.171c0.369,0.038,0.738,0.075,1.106,0.116c0.619,0.07,1.236,0.147,1.853,0.228
		c0.335,0.043,0.672,0.083,1.007,0.129c0.669,0.092,1.336,0.193,2.002,0.296c0.279,0.043,0.561,0.082,0.84,0.128
		c0.799,0.129,1.595,0.269,2.389,0.413c0.144,0.026,0.288,0.05,0.432,0.076c1.912,0.357,3.812,0.759,5.694,1.206
		c0.124,0.029,0.247,0.063,0.371,0.092c0.802,0.193,1.602,0.393,2.398,0.602c0.229,0.061,0.458,0.125,0.688,0.188
		c0.688,0.185,1.374,0.373,2.058,0.57c0.273,0.078,0.545,0.161,0.817,0.241c0.638,0.189,1.275,0.381,1.91,0.58
		c0.291,0.092,0.58,0.187,0.87,0.28c0.614,0.198,1.228,0.399,1.838,0.607c0.296,0.101,0.591,0.204,0.885,0.307
		c0.604,0.211,1.205,0.426,1.804,0.646c0.294,0.108,0.588,0.217,0.881,0.327c0.597,0.226,1.192,0.455,1.786,0.688
		c0.288,0.114,0.576,0.229,0.863,0.345c0.6,0.241,1.195,0.489,1.791,0.74c0.273,0.115,0.548,0.23,0.82,0.349
		c0.614,0.264,1.224,0.535,1.832,0.81c0.249,0.111,0.497,0.223,0.745,0.336c0.646,0.297,1.289,0.602,1.93,0.909
		c0.204,0.099,0.409,0.194,0.613,0.294c0.721,0.352,1.437,0.711,2.148,1.076c0.12,0.062,0.242,0.121,0.361,0.183
		c2.551,1.318,5.051,2.726,7.495,4.218c0.056,0.034,0.109,0.069,0.165,0.104c0.741,0.454,1.479,0.916,2.21,1.387
		c0.16,0.103,0.318,0.209,0.478,0.313c0.624,0.405,1.245,0.814,1.862,1.23c0.205,0.14,0.407,0.281,0.612,0.421
		c0.567,0.39,1.134,0.782,1.695,1.181c0.224,0.159,0.446,0.32,0.669,0.48c0.538,0.389,1.074,0.78,1.605,1.177
		c0.231,0.172,0.461,0.346,0.689,0.52c0.52,0.393,1.036,0.79,1.549,1.191c0.233,0.183,0.465,0.365,0.696,0.55
		c0.506,0.401,1.009,0.809,1.509,1.219c0.228,0.188,0.455,0.374,0.682,0.563c0.502,0.418,0.999,0.842,1.494,1.268
		c0.217,0.188,0.435,0.373,0.65,0.562c0.505,0.441,1.005,0.889,1.502,1.337c0.198,0.18,0.396,0.356,0.594,0.537
		c0.524,0.479,1.043,0.966,1.559,1.455c0.163,0.154,0.328,0.307,0.49,0.463c0.579,0.554,1.15,1.116,1.718,1.683
		c0.095,0.095,0.191,0.187,0.285,0.281c2.011,2.02,3.952,4.112,5.819,6.274c0.111,0.129,0.22,0.26,0.33,0.39
		c0.497,0.581,0.992,1.165,1.479,1.756c0.166,0.201,0.327,0.404,0.491,0.606c0.426,0.523,0.85,1.049,1.267,1.58
		c0.19,0.242,0.377,0.486,0.564,0.729c0.386,0.499,0.77,1,1.148,1.505c0.198,0.266,0.394,0.533,0.59,0.8
		c0.361,0.49,0.719,0.982,1.072,1.479c0.2,0.282,0.399,0.565,0.599,0.85c0.342,0.488,0.68,0.979,1.015,1.474
		c0.199,0.292,0.396,0.586,0.592,0.881c0.329,0.494,0.652,0.991,0.975,1.491c0.191,0.298,0.383,0.596,0.572,0.896
		c0.319,0.506,0.633,1.016,0.945,1.526c0.182,0.299,0.364,0.596,0.544,0.896c0.313,0.523,0.621,1.051,0.927,1.58
		c0.169,0.293,0.339,0.584,0.506,0.878c0.315,0.555,0.622,1.115,0.929,1.677c0.148,0.272,0.3,0.543,0.446,0.817
		c0.332,0.619,0.654,1.243,0.976,1.868c0.113,0.222,0.23,0.439,0.342,0.662c0.864,1.709,1.689,3.443,2.474,5.202
		c0.081,0.181,0.157,0.364,0.237,0.546c0.304,0.691,0.605,1.384,0.897,2.083c0.123,0.296,0.24,0.595,0.361,0.892
		c0.241,0.589,0.48,1.179,0.712,1.772c0.135,0.344,0.264,0.691,0.395,1.037c0.209,0.551,0.417,1.103,0.617,1.657
		c0.136,0.374,0.268,0.751,0.398,1.127c0.188,0.533,0.373,1.067,0.554,1.604c0.131,0.392,0.259,0.784,0.385,1.178
		c0.171,0.527,0.34,1.056,0.504,1.587c0.124,0.403,0.246,0.809,0.366,1.215c0.156,0.526,0.311,1.055,0.459,1.585
		c0.116,0.411,0.23,0.822,0.342,1.234c0.145,0.534,0.284,1.07,0.422,1.607c0.105,0.412,0.211,0.825,0.313,1.239
		c0.133,0.543,0.259,1.089,0.385,1.636c0.095,0.412,0.191,0.823,0.281,1.238c0.122,0.559,0.237,1.121,0.352,1.684
		c0.083,0.405,0.168,0.809,0.246,1.216c0.114,0.589,0.219,1.181,0.325,1.772c0.067,0.384,0.14,0.768,0.205,1.152
		c0.109,0.655,0.21,1.314,0.31,1.973c0.05,0.327,0.104,0.652,0.15,0.979c0.142,0.988,0.272,1.979,0.391,2.977
		c7.809,66.076-39.427,125.971-105.503,133.779c-1.125,0.134-2.248,0.247-3.37,0.349c-0.356,0.032-0.712,0.056-1.067,0.085
		c-0.768,0.063-1.533,0.122-2.298,0.169c-0.422,0.027-0.843,0.047-1.263,0.069c-0.701,0.036-1.401,0.068-2.101,0.093
		c-0.438,0.015-0.877,0.027-1.314,0.037c-0.691,0.018-1.381,0.026-2.068,0.031c-0.459,0.003-0.917,0.007-1.375,0.005
		c-0.428-0.002-0.855-0.008-1.283-0.015c-0.552-0.009-1.104-0.02-1.654-0.035c-0.429-0.013-0.856-0.028-1.284-0.046
		c-0.548-0.021-1.097-0.047-1.643-0.076c-0.427-0.022-0.852-0.047-1.277-0.074c-0.548-0.035-1.095-0.075-1.642-0.118
		c-0.419-0.033-0.839-0.065-1.258-0.103c-0.553-0.049-1.104-0.104-1.655-0.161c-0.409-0.042-0.818-0.082-1.225-0.129
		c-0.564-0.063-1.126-0.135-1.688-0.206c-0.391-0.05-0.783-0.098-1.173-0.15c-0.593-0.082-1.184-0.172-1.774-0.263
		c-0.355-0.055-0.712-0.104-1.066-0.162c-0.668-0.108-1.333-0.227-1.997-0.347c-0.274-0.049-0.55-0.093-0.823-0.145
		c-1.884-0.352-3.753-0.748-5.608-1.188c-0.257-0.061-0.512-0.128-0.769-0.19c-0.666-0.162-1.331-0.325-1.993-0.499
		c-0.324-0.085-0.645-0.176-0.968-0.264c-0.593-0.161-1.185-0.321-1.774-0.492c-0.349-0.1-0.694-0.205-1.042-0.309
		c-0.56-0.167-1.119-0.334-1.676-0.509c-0.358-0.112-0.715-0.229-1.072-0.345c-0.544-0.176-1.087-0.354-1.628-0.538
		c-0.358-0.122-0.714-0.247-1.07-0.371c-0.537-0.188-1.073-0.379-1.606-0.574c-0.354-0.131-0.708-0.263-1.062-0.396
		c-0.532-0.201-1.063-0.405-1.592-0.613c-0.348-0.138-0.696-0.275-1.043-0.416c-0.533-0.215-1.064-0.436-1.594-0.658
		c-0.336-0.143-0.673-0.284-1.008-0.429c-0.542-0.233-1.081-0.474-1.619-0.716c-0.316-0.142-0.634-0.283-0.949-0.428
		c-0.564-0.26-1.125-0.525-1.684-0.793c-0.285-0.137-0.57-0.271-0.853-0.409c-0.612-0.298-1.219-0.605-1.825-0.914
		c-0.226-0.115-0.455-0.227-0.68-0.344c-0.745-0.385-1.484-0.779-2.219-1.179c-0.085-0.047-0.171-0.091-0.256-0.137
		c-1.666-0.912-3.309-1.863-4.928-2.851c-0.161-0.098-0.318-0.2-0.478-0.299c-0.635-0.391-1.268-0.785-1.895-1.188
		c-0.23-0.147-0.457-0.3-0.687-0.449c-0.554-0.361-1.106-0.724-1.653-1.094c-0.256-0.173-0.51-0.35-0.765-0.524
		c-0.516-0.354-1.03-0.711-1.541-1.073c-0.268-0.189-0.534-0.383-0.8-0.575c-0.492-0.354-0.981-0.713-1.467-1.075
		c-0.272-0.202-0.543-0.407-0.814-0.612c-0.476-0.361-0.951-0.726-1.421-1.095c-0.27-0.21-0.539-0.423-0.807-0.636
		c-0.467-0.372-0.932-0.748-1.393-1.126c-0.263-0.216-0.526-0.432-0.787-0.65c-0.465-0.388-0.926-0.78-1.385-1.175
		c-0.25-0.215-0.5-0.429-0.748-0.646c-0.47-0.411-0.936-0.827-1.399-1.245c-0.23-0.208-0.461-0.414-0.69-0.624
		c-0.487-0.445-0.968-0.897-1.448-1.352c-0.199-0.188-0.399-0.374-0.597-0.563c-0.531-0.509-1.055-1.025-1.577-1.545
		c-0.14-0.14-0.283-0.276-0.422-0.417c-2-2.009-3.93-4.09-5.787-6.239c-0.141-0.163-0.278-0.33-0.418-0.494
		c-0.467-0.546-0.932-1.095-1.389-1.649c-0.186-0.226-0.367-0.454-0.551-0.681c-0.407-0.5-0.812-1.002-1.21-1.51
		c-0.202-0.257-0.4-0.518-0.601-0.776c-0.373-0.482-0.745-0.967-1.11-1.456c-0.209-0.279-0.416-0.561-0.623-0.842
		c-0.351-0.477-0.699-0.955-1.042-1.438c-0.208-0.292-0.414-0.586-0.62-0.88c-0.335-0.479-0.667-0.96-0.995-1.444
		c-0.205-0.302-0.407-0.604-0.609-0.906c-0.322-0.485-0.64-0.973-0.956-1.463c-0.197-0.308-0.396-0.615-0.59-0.924
		c-0.313-0.495-0.62-0.994-0.925-1.494c-0.188-0.309-0.377-0.616-0.563-0.926c-0.308-0.514-0.608-1.032-0.909-1.552
		c-0.174-0.301-0.351-0.602-0.522-0.904c-0.309-0.545-0.61-1.095-0.91-1.645c-0.155-0.283-0.312-0.563-0.464-0.848
		c-0.329-0.616-0.65-1.237-0.97-1.859c-0.114-0.222-0.231-0.441-0.344-0.664c-0.864-1.71-1.689-3.444-2.473-5.203
		c-0.082-0.183-0.159-0.368-0.239-0.552c-0.303-0.688-0.604-1.38-0.895-2.076c-0.125-0.3-0.244-0.603-0.367-0.904
		c-0.238-0.584-0.476-1.169-0.706-1.758c-0.136-0.349-0.267-0.7-0.399-1.051c-0.207-0.547-0.414-1.095-0.614-1.646
		c-0.135-0.375-0.267-0.753-0.399-1.13c-0.188-0.533-0.373-1.067-0.553-1.604c-0.131-0.391-0.258-0.782-0.385-1.175
		c-0.171-0.529-0.341-1.061-0.505-1.594c-0.123-0.4-0.244-0.802-0.363-1.204c-0.158-0.53-0.312-1.063-0.462-1.597
		c-0.115-0.408-0.229-0.818-0.34-1.229c-0.145-0.533-0.285-1.07-0.421-1.607c-0.106-0.412-0.211-0.825-0.313-1.239
		c-0.133-0.544-0.26-1.09-0.386-1.638c-0.095-0.411-0.19-0.822-0.28-1.236c-0.123-0.559-0.238-1.121-0.353-1.685
		c-0.083-0.404-0.167-0.809-0.247-1.215c-0.113-0.589-0.218-1.181-0.324-1.771c-0.068-0.386-0.141-0.769-0.206-1.154
		c-0.11-0.655-0.21-1.314-0.309-1.974c-0.05-0.326-0.104-0.65-0.151-0.979c-0.141-0.987-0.272-1.979-0.39-2.976
		C390.846,143.509,438.081,83.614,504.157,75.806z M37.096,500h368.897c0.696,33.183,18.223,62.222,44.385,78.936l-29.118,29.117
		c-2.252-0.374-4.7-0.587-7.356-0.587c-16.238-0.003-35.384,8.119-48.587,14.932c-15.107,7.797-29.09,17.237-36.489,24.637
		l-25.263,25.262C132.002,614.604,37.096,500,37.096,500z M500,964.907c-155.6,0-293.332-76.45-377.719-193.828
		c13.203,2.803,26.238,4.009,38.423,3.577c0.136-0.005,0.27-0.012,0.405-0.018c1.013-0.039,2.021-0.09,3.021-0.151
		c0.29-0.018,0.577-0.039,0.866-0.06c0.844-0.058,1.683-0.123,2.517-0.197c0.358-0.032,0.715-0.065,1.071-0.101
		c0.764-0.074,1.521-0.157,2.276-0.246c0.385-0.046,0.771-0.09,1.153-0.139c0.73-0.093,1.453-0.196,2.174-0.302
		c0.382-0.058,0.767-0.11,1.147-0.17c0.751-0.12,1.494-0.25,2.235-0.383c0.331-0.06,0.665-0.114,0.994-0.177
		c1.059-0.2,2.108-0.414,3.146-0.645c0.768-0.171,1.526-0.351,2.277-0.537c0.246-0.062,0.486-0.127,0.73-0.189
		c0.504-0.129,1.006-0.259,1.501-0.395c0.279-0.077,0.554-0.158,0.831-0.236c0.455-0.13,0.909-0.262,1.357-0.397
		c0.282-0.085,0.56-0.172,0.839-0.26c0.439-0.137,0.875-0.278,1.308-0.421c0.27-0.09,0.539-0.181,0.807-0.272
		c0.441-0.151,0.878-0.308,1.313-0.465c0.246-0.09,0.492-0.178,0.735-0.27c0.468-0.175,0.93-0.355,1.389-0.537
		c0.199-0.079,0.401-0.157,0.599-0.238c0.569-0.231,1.13-0.469,1.685-0.711c0.081-0.035,0.164-0.069,0.244-0.104
		c0.66-0.291,1.309-0.59,1.948-0.896h0.001c13.182-6.318,21.964-15.837,25.309-27.737c2.17-7.688,2.091-15.618-0.182-23.376
		c10.981-3.796,25.078-5.08,40.236-3.797l-3.232,3.231c-13.839,13.84-18.408,33.599-13.891,51.875h0
		c0.149,0.606,0.31,1.21,0.479,1.812c0.017,0.06,0.034,0.117,0.05,0.175c0.495,1.735,1.074,3.455,1.734,5.151
		c0.068,0.176,0.137,0.351,0.207,0.526c0.204,0.51,0.413,1.021,0.632,1.527c0.039,0.09,0.082,0.18,0.122,0.27
		c0.399,0.91,0.827,1.811,1.275,2.704c0.152,0.305,0.304,0.607,0.462,0.908c0.202,0.386,0.408,0.769,0.619,1.149
		c0.215,0.391,0.438,0.776,0.663,1.162c0.232,0.398,0.467,0.796,0.709,1.19c0.335,0.544,0.677,1.084,1.031,1.618
		c0.179,0.271,0.363,0.539,0.547,0.809c0.321,0.468,0.649,0.932,0.985,1.393c0.161,0.222,0.319,0.444,0.484,0.664
		c0.491,0.653,0.997,1.303,1.519,1.94c0.129,0.158,0.265,0.314,0.396,0.472c0.435,0.521,0.881,1.038,1.337,1.548
		c0.165,0.185,0.33,0.369,0.498,0.552c0.588,0.642,1.187,1.277,1.808,1.898l15.661,15.659
		c10.985,10.985,26.003,17.286,41.202,17.286c14.524,0,28.069-5.546,38.14-15.617l30.748-30.748
		c13.959,3.949,29.044,3.974,43.983-0.099c1.886-0.514,3.771-1.084,5.65-1.729c0.944-0.324,1.876-0.668,2.801-1.021
		c0.141-0.053,0.281-0.107,0.422-0.161c0.218-0.085,0.433-0.175,0.65-0.261c0.687-0.272,1.372-0.547,2.048-0.834
		c0.334-0.142,0.663-0.291,0.994-0.437c0.633-0.279,1.263-0.561,1.885-0.852c0.33-0.154,0.655-0.313,0.982-0.471
		c0.623-0.302,1.24-0.607,1.851-0.921c0.303-0.155,0.604-0.313,0.904-0.472c0.636-0.335,1.264-0.678,1.887-1.028
		c0.261-0.146,0.522-0.292,0.781-0.441c0.674-0.387,1.337-0.783,1.994-1.187c0.195-0.119,0.393-0.236,0.586-0.357
		c0.767-0.479,1.521-0.969,2.264-1.467c0.076-0.052,0.155-0.102,0.231-0.153c0.842-0.57,1.668-1.152,2.476-1.746h0
		c10.492-7.713,18.046-17.377,20.856-27.382c2.157-7.68,2.074-15.603-0.19-23.355c17.681-6.116,43.437-5.728,68.704,1.412
		c31.094,8.76,43.464,22.938,54.379,35.448c1.765,2.023,3.502,4.003,5.271,5.924c0.129,0.141,0.256,0.28,0.386,0.419
		c1.818,1.96,3.677,3.855,5.65,5.659l-0.004,0.002c1.635,1.494,3.343,2.929,5.178,4.281c1.318,0.972,2.665,1.883,4.028,2.763
		c0.791,0.511,1.591,1.007,2.396,1.486c0.003,0.002,0.005,0.003,0.007,0.003c5.55,3.305,11.432,5.867,17.533,7.681
		c0.151,0.044,0.303,0.093,0.453,0.138c0.662,0.191,1.33,0.369,1.997,0.543c0.29,0.076,0.579,0.154,0.87,0.227
		c0.596,0.149,1.195,0.286,1.795,0.421c0.369,0.083,0.74,0.165,1.112,0.242c0.549,0.114,1.101,0.223,1.653,0.325
		c0.431,0.081,0.863,0.156,1.296,0.229c0.512,0.087,1.024,0.17,1.538,0.246c0.483,0.071,0.969,0.136,1.453,0.199
		c0.477,0.062,0.953,0.124,1.431,0.177c0.542,0.061,1.085,0.109,1.628,0.158c0.431,0.039,0.86,0.082,1.293,0.113
		c0.636,0.048,1.274,0.079,1.912,0.11c0.347,0.019,0.691,0.043,1.039,0.056c0.991,0.036,1.984,0.057,2.98,0.057
		c9.271,0,18.736-1.581,28.08-4.789c0.787-0.27,1.565-0.552,2.34-0.843c0.239-0.089,0.478-0.184,0.716-0.275
		c0.545-0.209,1.087-0.423,1.625-0.642c0.256-0.104,0.512-0.21,0.767-0.316c0.555-0.231,1.106-0.469,1.653-0.712
		c0.203-0.09,0.408-0.178,0.61-0.27c0.753-0.34,1.502-0.688,2.24-1.046c0.006-0.003,0.012-0.007,0.018-0.01
		c0.728-0.354,1.445-0.718,2.155-1.088c0.183-0.096,0.363-0.192,0.545-0.289c0.546-0.289,1.089-0.584,1.626-0.885
		c0.191-0.106,0.383-0.213,0.572-0.321c0.572-0.326,1.139-0.657,1.699-0.993c0.123-0.073,0.247-0.146,0.369-0.22
		c0.702-0.427,1.396-0.86,2.077-1.303c12.436-8.074,21.472-18.811,24.608-29.963c2.172-7.672,2.091-15.605-0.184-23.383
		c17.645-6.112,43.38-5.723,68.656,1.419c39.178,11.037,58.977,27.368,71.869,40.291h0.001c0.057,0.057,0.109,0.112,0.167,0.169
		c0.528,0.532,1.046,1.057,1.553,1.576c0.127,0.131,0.256,0.262,0.382,0.391c0.047,0.047,0.094,0.096,0.14,0.144h-0.001
		c0.524,0.541,1.045,1.079,1.548,1.604C799.917,884.753,659.325,964.907,500,964.907z M546.691,703.085
		c-29.662-7.084-54.319-2.734-67.88,1.152c-8.928-0.328-17.739-0.835-26.424-1.521c0.941-1.938,1.847-3.879,2.706-5.808
		c4.919-11.052,8.055-21.047,9.319-29.706c0.898-6.146,0.797-11.415,0.054-15.915l59.938-59.938
		c35.042-8.375,62.62-35.954,70.996-70.996L615.755,500h351.156C966.911,500,814.456,684.098,546.691,703.085z"/>
</g>
</svg>
