<?xml version="1.0" encoding="utf-8"?>
<!-- Generator: Adobe Illustrator 16.0.0, SVG Export Plug-In . SVG Version: 6.00 Build 0)  -->
<!DOCTYPE svg PUBLIC "-//W3C//DTD SVG 1.1//EN" "http://www.w3.org/Graphics/SVG/1.1/DTD/svg11.dtd">
<svg version="1.1" id="Layer_1" xmlns="http://www.w3.org/2000/svg" xmlns:xlink="http://www.w3.org/1999/xlink" x="0px" y="0px"
	 width="1000px" height="1000px" viewBox="0 0 1000 1000" enable-background="new 0 0 1000 1000" xml:space="preserve">
<path d="M500,0C223.857,0,0,223.857,0,500c0,276.142,223.857,500,500,500c276.144,0,500-223.858,500-500
	C1000,223.857,776.144,0,500,0z M648.839,432.194c7.187,11.793,3.454,27.179-8.339,34.365c-1.414,0.862-8.563,5.08-19.745,9.37
	l-20.082,208.829l0.748,0.043c17.215,0.969,26.309,52.302,24.765,68.366l-7.722,80.283c-0.048,0.493-0.109,0.982-0.182,1.468
	c-0.024,0.158-0.056,0.313-0.083,0.472c-0.054,0.325-0.107,0.651-0.174,0.974c-0.038,0.188-0.086,0.373-0.127,0.559
	c-0.065,0.288-0.128,0.576-0.202,0.86c-0.052,0.198-0.111,0.392-0.166,0.587c-0.076,0.271-0.15,0.541-0.234,0.808
	c-0.063,0.2-0.135,0.398-0.202,0.596c-0.087,0.258-0.173,0.515-0.268,0.769c-0.075,0.201-0.157,0.4-0.236,0.6
	c-0.099,0.246-0.195,0.493-0.3,0.735c-0.087,0.201-0.18,0.398-0.271,0.598c-0.107,0.236-0.215,0.472-0.33,0.705
	c-0.098,0.199-0.2,0.395-0.304,0.591c-0.118,0.228-0.236,0.456-0.36,0.68c-0.108,0.194-0.221,0.387-0.333,0.579
	c-0.13,0.22-0.259,0.44-0.393,0.657c-0.119,0.19-0.241,0.378-0.363,0.565c-0.138,0.213-0.278,0.426-0.422,0.635
	c-0.127,0.185-0.258,0.366-0.389,0.549c-0.149,0.207-0.3,0.412-0.454,0.614c-0.136,0.18-0.274,0.355-0.414,0.531
	c-0.158,0.199-0.318,0.396-0.481,0.591c-0.146,0.174-0.293,0.345-0.442,0.516c-0.167,0.19-0.336,0.379-0.508,0.565
	c-0.153,0.168-0.309,0.332-0.465,0.496c-0.177,0.184-0.354,0.364-0.536,0.543c-0.161,0.16-0.323,0.318-0.488,0.477
	c-0.186,0.175-0.372,0.348-0.562,0.519c-0.169,0.153-0.338,0.305-0.51,0.454c-0.193,0.167-0.39,0.332-0.588,0.496
	c-0.176,0.145-0.352,0.289-0.53,0.43c-0.201,0.16-0.408,0.317-0.614,0.473c-0.181,0.136-0.361,0.272-0.546,0.405
	c-0.211,0.151-0.426,0.3-0.641,0.447c-0.187,0.128-0.372,0.256-0.563,0.38c-0.221,0.145-0.444,0.284-0.669,0.424
	c-0.19,0.118-0.379,0.237-0.571,0.352c-0.231,0.138-0.468,0.27-0.704,0.401c-0.191,0.107-0.382,0.217-0.576,0.321
	c-0.242,0.13-0.489,0.253-0.735,0.377c-0.193,0.098-0.385,0.197-0.58,0.291c-0.256,0.122-0.514,0.236-0.771,0.352
	c-0.193,0.087-0.385,0.177-0.58,0.26c-0.27,0.115-0.544,0.222-0.816,0.329c-0.188,0.075-0.375,0.153-0.564,0.225
	c-0.3,0.112-0.604,0.214-0.906,0.318c-0.168,0.057-0.334,0.119-0.503,0.175c-0.356,0.114-0.717,0.22-1.077,0.323
	c-0.122,0.035-0.241,0.075-0.363,0.108c-0.973,0.269-1.962,0.494-2.966,0.675c-0.13,0.023-0.264,0.041-0.395,0.063
	c-0.371,0.063-0.742,0.125-1.117,0.175c-0.174,0.023-0.35,0.039-0.524,0.059c-0.335,0.04-0.67,0.081-1.007,0.11
	c-0.195,0.017-0.392,0.025-0.587,0.04c-0.32,0.021-0.641,0.045-0.964,0.059c-0.208,0.009-0.418,0.01-0.627,0.015
	c-0.257,0.005-0.512,0.017-0.77,0.017c-0.048,0-0.096-0.003-0.144-0.003c-0.587-0.003-1.176-0.018-1.769-0.051l-18.701-1.053
	c-17.215-0.97-29.918-14.778-28.373-30.844l7.721-80.284c0.034-0.36,0.081-0.742,0.133-1.135c0.011-0.083,0.021-0.166,0.032-0.25
	c0.055-0.388,0.115-0.789,0.185-1.206c0.012-0.074,0.026-0.151,0.039-0.227c0.066-0.385,0.139-0.781,0.217-1.188
	c0.015-0.075,0.027-0.149,0.043-0.225c0.089-0.45,0.186-0.917,0.289-1.393c0.022-0.105,0.046-0.212,0.07-0.319
	c0.109-0.493,0.224-0.995,0.349-1.513c0.002-0.007,0.004-0.016,0.005-0.022c0.124-0.516,0.258-1.046,0.396-1.584
	c0.028-0.107,0.056-0.214,0.084-0.322c0.141-0.538,0.287-1.085,0.441-1.643c0.023-0.084,0.048-0.17,0.071-0.255
	c0.149-0.534,0.305-1.075,0.465-1.624c0.021-0.065,0.038-0.131,0.059-0.197c0.173-0.589,0.355-1.188,0.542-1.793
	c0.034-0.107,0.067-0.215,0.101-0.324c0.388-1.244,0.804-2.519,1.245-3.815c0.031-0.091,0.062-0.184,0.094-0.274
	c0.222-0.647,0.448-1.3,0.683-1.957c0.024-0.069,0.049-0.137,0.073-0.206c0.233-0.652,0.472-1.31,0.717-1.971
	c0.012-0.03,0.023-0.062,0.035-0.093c0.252-0.679,0.511-1.359,0.774-2.043c0.034-0.088,0.068-0.176,0.102-0.264
	c0.535-1.379,1.094-2.767,1.673-4.154c0.02-0.045,0.037-0.091,0.057-0.136h0.001c2.696-6.439,5.854-12.868,9.279-18.416
	c-0.001-0.001-0.001-0.001-0.002-0.001c0.039-0.063,0.079-0.125,0.118-0.188c5.95-9.586,12.692-16.485,19.207-16.118
	c-0.216-0.012-0.432-0.011-0.647-0.008c0.05,0,0.101-0.006,0.149-0.006c0.166,0,0.331,0.005,0.498,0.014l0.748,0.041l18.976-202.095
	c-7.833,1.948-16.587,3.478-26.021,4.073c-2.746,0.174-5.589,0.271-8.511,0.271c-25.209,0-56.476-7.178-85.462-33.902
	c0.143,7.968,0.863,15.356,2.187,22.106c4.038,20.59,13.513,34.53,28.965,42.619c12.234,6.404,16.961,21.515,10.556,33.75
	c-4.467,8.532-13.168,13.412-22.174,13.413c-3.909,0-7.874-0.919-11.576-2.856c-35.601-18.638-73.437-63.285-51.513-170.156
	c5.172-25.213,12.674-49.006,19.574-67.998c14.991,7.044,31.389,11.502,48.591,12.853c-5.095,13.647-10.732,30.472-15.33,48.525
	c1.613,2.173,3.36,4.692,5.268,7.614c20.529,31.447,45.466,45.799,76.272,43.852c14.45-0.913,26.953-5.384,34.287-8.602
	l7.037-74.947c0,0,0.86-8.95,9.617-8.457c9.197,0.518,8.337,9.468,8.337,9.468l-6.436,66.92
	C635.008,419.757,643.876,424.054,648.839,432.194z M504.157,75.806c1.125-0.133,2.248-0.246,3.369-0.348
	c0.356-0.032,0.712-0.057,1.068-0.085c0.769-0.063,1.536-0.122,2.303-0.17c0.417-0.025,0.833-0.046,1.249-0.067
	c0.706-0.037,1.411-0.069,2.115-0.094c0.436-0.015,0.872-0.027,1.307-0.038c0.689-0.017,1.378-0.025,2.065-0.03
	c0.463-0.003,0.925-0.007,1.385-0.005c0.423,0.002,0.844,0.008,1.266,0.015c0.562,0.008,1.121,0.02,1.681,0.036
	c0.416,0.012,0.831,0.026,1.247,0.043c0.566,0.022,1.134,0.049,1.699,0.08c0.404,0.021,0.808,0.044,1.211,0.07
	c0.575,0.036,1.15,0.078,1.724,0.123c0.392,0.031,0.782,0.062,1.173,0.097c0.591,0.052,1.18,0.11,1.769,0.171
	c0.369,0.038,0.738,0.075,1.106,0.116c0.619,0.07,1.236,0.147,1.853,0.228c0.335,0.043,0.672,0.083,1.007,0.129
	c0.669,0.092,1.336,0.193,2.002,0.296c0.279,0.043,0.561,0.082,0.84,0.128c0.799,0.129,1.595,0.269,2.389,0.413
	c0.144,0.026,0.288,0.05,0.432,0.076c1.912,0.357,3.812,0.759,5.694,1.206c0.124,0.029,0.247,0.063,0.371,0.092
	c0.802,0.193,1.602,0.393,2.398,0.602c0.229,0.061,0.458,0.125,0.688,0.188c0.688,0.185,1.374,0.373,2.058,0.57
	c0.273,0.078,0.545,0.161,0.817,0.241c0.638,0.189,1.275,0.381,1.91,0.58c0.291,0.092,0.58,0.187,0.87,0.28
	c0.614,0.198,1.228,0.399,1.838,0.607c0.296,0.101,0.591,0.204,0.885,0.307c0.604,0.211,1.205,0.426,1.804,0.646
	c0.294,0.108,0.588,0.217,0.881,0.327c0.597,0.226,1.192,0.455,1.786,0.688c0.288,0.114,0.576,0.229,0.863,0.345
	c0.6,0.241,1.195,0.489,1.791,0.74c0.273,0.115,0.548,0.23,0.82,0.349c0.614,0.264,1.224,0.535,1.832,0.81
	c0.249,0.111,0.497,0.223,0.745,0.336c0.646,0.297,1.289,0.602,1.93,0.909c0.204,0.099,0.409,0.194,0.613,0.294
	c0.721,0.352,1.437,0.711,2.148,1.076c0.12,0.062,0.242,0.121,0.361,0.183c2.551,1.318,5.051,2.726,7.495,4.218
	c0.056,0.034,0.109,0.069,0.165,0.104c0.741,0.454,1.479,0.916,2.21,1.387c0.16,0.103,0.318,0.209,0.478,0.313
	c0.624,0.405,1.245,0.814,1.862,1.23c0.205,0.14,0.407,0.281,0.612,0.421c0.567,0.39,1.134,0.782,1.695,1.181
	c0.224,0.159,0.446,0.32,0.669,0.48c0.538,0.389,1.074,0.78,1.605,1.177c0.231,0.172,0.461,0.346,0.689,0.52
	c0.52,0.393,1.036,0.79,1.549,1.191c0.233,0.183,0.465,0.365,0.696,0.55c0.506,0.401,1.009,0.809,1.509,1.219
	c0.228,0.188,0.455,0.374,0.682,0.563c0.502,0.418,0.999,0.842,1.494,1.268c0.217,0.188,0.435,0.373,0.65,0.562
	c0.505,0.441,1.005,0.889,1.502,1.337c0.198,0.18,0.396,0.356,0.594,0.537c0.524,0.479,1.043,0.966,1.559,1.455
	c0.163,0.154,0.328,0.307,0.49,0.463c0.579,0.554,1.15,1.116,1.718,1.683c0.095,0.095,0.191,0.187,0.285,0.281
	c2.011,2.02,3.952,4.112,5.819,6.274c0.111,0.129,0.22,0.26,0.33,0.39c0.497,0.581,0.992,1.165,1.479,1.756
	c0.166,0.201,0.327,0.404,0.491,0.606c0.426,0.523,0.85,1.049,1.267,1.58c0.19,0.242,0.377,0.486,0.564,0.729
	c0.386,0.499,0.77,1,1.148,1.505c0.198,0.266,0.394,0.533,0.59,0.8c0.361,0.49,0.719,0.982,1.072,1.479
	c0.2,0.282,0.399,0.565,0.599,0.85c0.342,0.488,0.68,0.979,1.015,1.474c0.199,0.292,0.396,0.586,0.592,0.881
	c0.329,0.494,0.652,0.991,0.975,1.491c0.191,0.298,0.383,0.596,0.572,0.896c0.319,0.506,0.633,1.016,0.945,1.526
	c0.182,0.299,0.364,0.596,0.544,0.896c0.313,0.523,0.621,1.051,0.927,1.58c0.169,0.293,0.339,0.584,0.506,0.878
	c0.315,0.555,0.622,1.115,0.929,1.677c0.148,0.272,0.3,0.543,0.446,0.817c0.332,0.619,0.654,1.243,0.976,1.868
	c0.113,0.222,0.23,0.439,0.342,0.662c0.864,1.709,1.689,3.443,2.474,5.202c0.081,0.181,0.157,0.364,0.237,0.546
	c0.304,0.691,0.605,1.384,0.897,2.083c0.123,0.296,0.24,0.595,0.361,0.892c0.241,0.589,0.48,1.179,0.712,1.772
	c0.135,0.344,0.264,0.691,0.395,1.037c0.209,0.551,0.417,1.103,0.617,1.657c0.136,0.374,0.268,0.751,0.398,1.127
	c0.188,0.533,0.373,1.067,0.554,1.604c0.131,0.392,0.259,0.784,0.385,1.178c0.171,0.527,0.34,1.056,0.504,1.587
	c0.124,0.403,0.246,0.809,0.366,1.215c0.156,0.526,0.311,1.055,0.459,1.585c0.116,0.411,0.23,0.822,0.342,1.234
	c0.145,0.534,0.284,1.07,0.422,1.607c0.105,0.412,0.211,0.825,0.313,1.239c0.133,0.543,0.259,1.089,0.385,1.636
	c0.095,0.412,0.191,0.823,0.281,1.238c0.122,0.559,0.237,1.121,0.352,1.684c0.083,0.405,0.168,0.809,0.246,1.216
	c0.114,0.589,0.219,1.181,0.325,1.772c0.067,0.384,0.14,0.768,0.205,1.152c0.109,0.655,0.21,1.314,0.31,1.973
	c0.05,0.327,0.104,0.652,0.15,0.979c0.142,0.988,0.272,1.979,0.391,2.977c7.809,66.076-39.427,125.971-105.503,133.779
	c-1.125,0.134-2.248,0.247-3.37,0.349c-0.356,0.032-0.712,0.056-1.067,0.085c-0.768,0.063-1.533,0.122-2.298,0.169
	c-0.422,0.027-0.843,0.047-1.263,0.069c-0.701,0.036-1.401,0.068-2.101,0.093c-0.438,0.015-0.877,0.027-1.314,0.037
	c-0.691,0.018-1.381,0.026-2.068,0.031c-0.459,0.003-0.917,0.007-1.375,0.005c-0.428-0.002-0.855-0.008-1.283-0.015
	c-0.552-0.009-1.104-0.02-1.654-0.035c-0.429-0.013-0.856-0.028-1.284-0.046c-0.548-0.021-1.097-0.047-1.643-0.076
	c-0.427-0.022-0.852-0.047-1.277-0.074c-0.548-0.035-1.095-0.075-1.642-0.118c-0.419-0.033-0.839-0.065-1.258-0.103
	c-0.553-0.049-1.104-0.104-1.655-0.161c-0.409-0.042-0.818-0.082-1.225-0.129c-0.564-0.063-1.126-0.135-1.688-0.206
	c-0.391-0.05-0.783-0.098-1.173-0.15c-0.593-0.082-1.184-0.172-1.774-0.263c-0.355-0.055-0.712-0.104-1.066-0.162
	c-0.668-0.108-1.333-0.227-1.997-0.347c-0.274-0.049-0.55-0.093-0.823-0.145c-1.884-0.352-3.753-0.748-5.608-1.188
	c-0.257-0.061-0.512-0.128-0.769-0.19c-0.666-0.162-1.331-0.325-1.993-0.499c-0.324-0.085-0.645-0.176-0.968-0.264
	c-0.593-0.161-1.185-0.321-1.774-0.492c-0.349-0.1-0.694-0.205-1.042-0.309c-0.56-0.167-1.119-0.334-1.676-0.509
	c-0.358-0.112-0.715-0.229-1.072-0.345c-0.544-0.176-1.087-0.354-1.628-0.538c-0.358-0.122-0.714-0.247-1.07-0.371
	c-0.537-0.188-1.073-0.379-1.606-0.574c-0.354-0.131-0.708-0.263-1.062-0.396c-0.532-0.201-1.063-0.405-1.592-0.613
	c-0.348-0.138-0.696-0.275-1.043-0.416c-0.533-0.215-1.064-0.436-1.594-0.658c-0.336-0.143-0.673-0.284-1.008-0.429
	c-0.542-0.233-1.081-0.474-1.619-0.716c-0.316-0.142-0.634-0.283-0.949-0.428c-0.564-0.26-1.125-0.525-1.684-0.793
	c-0.285-0.137-0.57-0.271-0.853-0.409c-0.612-0.298-1.219-0.605-1.825-0.914c-0.226-0.115-0.455-0.227-0.68-0.344
	c-0.745-0.385-1.484-0.779-2.219-1.179c-0.085-0.047-0.171-0.091-0.256-0.137c-1.666-0.912-3.309-1.863-4.928-2.851
	c-0.161-0.098-0.318-0.2-0.478-0.299c-0.635-0.391-1.268-0.785-1.895-1.188c-0.23-0.147-0.457-0.3-0.687-0.449
	c-0.554-0.361-1.106-0.724-1.653-1.094c-0.256-0.173-0.51-0.35-0.765-0.524c-0.516-0.354-1.03-0.711-1.541-1.073
	c-0.268-0.189-0.534-0.383-0.8-0.575c-0.492-0.354-0.981-0.713-1.467-1.075c-0.272-0.202-0.543-0.407-0.814-0.612
	c-0.476-0.361-0.951-0.726-1.421-1.095c-0.27-0.21-0.539-0.423-0.807-0.636c-0.467-0.372-0.932-0.748-1.393-1.126
	c-0.263-0.216-0.526-0.432-0.787-0.65c-0.465-0.388-0.926-0.78-1.385-1.175c-0.25-0.215-0.5-0.429-0.748-0.646
	c-0.47-0.411-0.936-0.827-1.399-1.245c-0.23-0.208-0.461-0.414-0.69-0.624c-0.487-0.445-0.968-0.897-1.448-1.352
	c-0.199-0.188-0.399-0.374-0.597-0.563c-0.531-0.509-1.055-1.025-1.577-1.545c-0.14-0.14-0.283-0.276-0.422-0.417
	c-2-2.009-3.93-4.09-5.787-6.239c-0.141-0.163-0.278-0.33-0.418-0.494c-0.467-0.546-0.932-1.095-1.389-1.649
	c-0.186-0.226-0.367-0.454-0.551-0.681c-0.407-0.5-0.812-1.002-1.21-1.51c-0.202-0.257-0.4-0.518-0.601-0.776
	c-0.373-0.482-0.745-0.967-1.11-1.456c-0.209-0.279-0.416-0.561-0.623-0.842c-0.351-0.477-0.699-0.955-1.042-1.438
	c-0.208-0.292-0.414-0.586-0.62-0.88c-0.335-0.479-0.667-0.96-0.995-1.444c-0.205-0.302-0.407-0.604-0.609-0.906
	c-0.322-0.485-0.64-0.973-0.956-1.463c-0.197-0.308-0.396-0.615-0.59-0.924c-0.313-0.495-0.62-0.994-0.925-1.494
	c-0.188-0.309-0.377-0.616-0.563-0.926c-0.308-0.514-0.608-1.032-0.909-1.552c-0.174-0.301-0.351-0.602-0.522-0.904
	c-0.309-0.545-0.61-1.095-0.91-1.645c-0.155-0.283-0.312-0.563-0.464-0.848c-0.329-0.616-0.65-1.237-0.97-1.859
	c-0.114-0.222-0.231-0.441-0.344-0.664c-0.864-1.71-1.689-3.444-2.473-5.203c-0.082-0.183-0.159-0.368-0.239-0.552
	c-0.303-0.688-0.604-1.38-0.895-2.076c-0.125-0.3-0.244-0.603-0.367-0.904c-0.238-0.584-0.476-1.169-0.706-1.758
	c-0.136-0.349-0.267-0.7-0.399-1.051c-0.207-0.547-0.414-1.095-0.614-1.646c-0.135-0.375-0.267-0.753-0.399-1.13
	c-0.188-0.533-0.373-1.067-0.553-1.604c-0.131-0.391-0.258-0.782-0.385-1.175c-0.171-0.529-0.341-1.061-0.505-1.594
	c-0.123-0.4-0.244-0.802-0.363-1.204c-0.158-0.53-0.312-1.063-0.462-1.597c-0.115-0.408-0.229-0.818-0.34-1.229
	c-0.145-0.533-0.285-1.07-0.421-1.607c-0.106-0.412-0.211-0.825-0.313-1.239c-0.133-0.544-0.26-1.09-0.386-1.638
	c-0.095-0.411-0.19-0.822-0.28-1.236c-0.123-0.559-0.238-1.121-0.353-1.685c-0.083-0.404-0.167-0.809-0.247-1.215
	c-0.113-0.589-0.218-1.181-0.324-1.771c-0.068-0.386-0.141-0.769-0.206-1.154c-0.11-0.655-0.21-1.314-0.309-1.974
	c-0.05-0.326-0.104-0.65-0.151-0.979c-0.141-0.987-0.272-1.979-0.39-2.976C390.846,143.509,438.081,83.614,504.157,75.806z
	 M37.096,500h368.897c1.093,52.092,43.657,93.984,96.01,93.984c28.969,0,54.935-12.83,72.542-33.113l-10.15,108.095
	c-3.604,2.38-7.08,5.513-10.411,9.39c-3.772,4.393-7.461,9.852-11.005,16.281c-30.524-6.151-60.046-3.595-79.309,7.267l-2.567,1.446
	C190.987,685.844,37.096,500,37.096,500z M500,964.907c-155.6,0-293.332-76.45-377.719-193.828
	c21.18,4.496,41.929,4.888,59.428,0.99c22.982-5.118,38.209-17.079,42.871-33.667c2.17-7.688,2.091-15.618-0.182-23.376
	c17.675-6.11,43.415-5.721,68.672,1.419c31.103,8.762,43.47,22.938,54.381,35.447c5.199,5.959,10.109,11.589,16.475,16.283
	c21.155,15.599,48.319,19.384,74.527,10.381c21.923-7.528,39.042-22.912,43.614-39.19c2.157-7.68,2.074-15.603-0.19-23.355
	c13.819-4.78,32.575-5.567,52.172-2.283c-4.854,12.184-8.386,24.601-9.187,32.926l-7.722,80.284
	c-1.248,12.98,2.771,25.612,11.319,35.568c8.901,10.371,22.093,16.775,36.189,17.568l18.702,1.053
	c1.012,0.057,2.041,0.086,3.057,0.086c12.794,0,25.163-4.527,34.826-12.748c10.064-8.562,16.282-20.304,17.51-33.063l5.264-54.735
	c7.655,2.427,15.675,3.664,23.848,3.664c9.271,0,18.736-1.581,28.08-4.789c21.922-7.524,39.046-22.908,43.621-39.175
	c2.172-7.672,2.091-15.605-0.184-23.383c17.645-6.112,43.38-5.723,68.656,1.419c43.219,12.176,62.863,30.797,75.658,44.174
	C799.917,884.753,659.325,964.907,500,964.907z M634.206,690.562c-2.596-5.562-5.507-10.237-8.726-13.986
	c-1.065-1.242-2.145-2.359-3.229-3.368L638.909,500h328.002C966.911,500,847.415,644.29,634.206,690.562z"/>
</svg>
