<?xml version="1.0" encoding="utf-8"?>
<!-- Generator: Adobe Illustrator 16.0.0, SVG Export Plug-In . SVG Version: 6.00 Build 0)  -->
<!DOCTYPE svg PUBLIC "-//W3C//DTD SVG 1.1//EN" "http://www.w3.org/Graphics/SVG/1.1/DTD/svg11.dtd">
<svg version="1.1" id="Layer_1" xmlns="http://www.w3.org/2000/svg" xmlns:xlink="http://www.w3.org/1999/xlink" x="0px" y="0px"
	 width="1000px" height="1000px" viewBox="0 0 1000 1000" enable-background="new 0 0 1000 1000" xml:space="preserve">
<g>
	<path d="M677.826,549.298c-1.156,0.106-2.32,0.201-3.5,0.275c-2.522,0.159-5.134,0.248-7.818,0.248
		c-21.799,0-48.529-5.845-73.757-27.031c0.303,4.738,0.865,9.209,1.688,13.398c3.51,17.862,11.332,29.42,24.616,36.374
		c8.464,4.431,13.331,13.027,13.409,21.957c15.558-2.47,31.112-5.627,46.579-9.549C677.418,574.572,676.9,562.748,677.826,549.298z"
		/>
	<path d="M715.05,574.715c3.789-1.205,7.436-2.41,10.945-3.613c-3.896-2.875-7.767-6.146-11.582-9.864
		C714.38,565.977,714.593,570.472,715.05,574.715z"/>
	<path d="M500,0C223.857,0,0,223.857,0,500c0,276.142,223.857,500,500,500c276.143,0,500-223.858,500-500
		C1000,223.857,776.143,0,500,0z M839.808,348.622c6.227,52.681-31.433,100.435-84.114,106.66c-5.2,0.614-10.352,0.788-15.42,0.575
		c-0.001,0.003-0.003,0.006-0.004,0.01c-0.752-0.032-1.502-0.074-2.25-0.123c-0.339-0.022-0.675-0.052-1.013-0.077
		c-0.739-0.057-1.478-0.12-2.214-0.194c-0.384-0.038-0.769-0.078-1.152-0.121c-0.835-0.094-1.669-0.197-2.499-0.313
		c-0.32-0.044-0.639-0.091-0.958-0.139c-0.812-0.121-1.619-0.253-2.425-0.394c-0.35-0.062-0.697-0.125-1.046-0.19
		c-0.821-0.153-1.642-0.317-2.458-0.492c-0.189-0.041-0.382-0.078-0.57-0.12c-0.945-0.209-1.883-0.436-2.817-0.672
		c-0.304-0.077-0.606-0.157-0.91-0.236c-0.823-0.218-1.644-0.444-2.46-0.683c-0.163-0.048-0.328-0.092-0.491-0.141
		c-0.959-0.286-1.911-0.591-2.859-0.905c-0.252-0.084-0.503-0.171-0.754-0.257c-0.831-0.284-1.658-0.579-2.479-0.885
		c-0.146-0.055-0.294-0.106-0.44-0.162c-0.956-0.361-1.903-0.74-2.845-1.132c-0.199-0.083-0.396-0.168-0.594-0.252
		c-0.836-0.354-1.668-0.719-2.492-1.097c-0.132-0.06-0.266-0.118-0.397-0.18c-0.099-0.045-0.198-0.088-0.296-0.134
		c0-0.003,0.001-0.005,0.002-0.008c-17.432-8.146-32.183-21.409-42.084-38.101c23.978-7.742,45.131-22.392,61.084-42.62
		c21.231-26.922,30.708-60.501,26.685-94.551c-0.31-2.62-0.705-5.21-1.167-7.775C794.737,265.766,834.189,301.072,839.808,348.622z
		 M418.66,258.354c42.897-5.068,82.525,18.963,99.126,56.508c-0.107-0.402-0.214-0.806-0.317-1.21
		c-0.095-0.371-0.19-0.741-0.28-1.114c-0.12-0.486-0.232-0.975-0.346-1.463c-0.085-0.371-0.171-0.741-0.252-1.113
		c-0.109-0.5-0.213-1.002-0.315-1.505c-0.074-0.364-0.15-0.729-0.222-1.094c-0.101-0.527-0.196-1.059-0.29-1.59
		c-0.062-0.344-0.126-0.686-0.184-1.031c-0.1-0.589-0.188-1.183-0.278-1.776c-0.045-0.29-0.093-0.578-0.134-0.869
		c-0.127-0.886-0.244-1.775-0.351-2.669c-6.999-59.229,35.343-112.916,94.57-119.915c1.009-0.118,2.015-0.221,3.02-0.312
		c0.32-0.028,0.639-0.051,0.958-0.076c0.688-0.057,1.377-0.109,2.063-0.152c0.373-0.023,0.745-0.041,1.117-0.061
		c0.636-0.033,1.271-0.063,1.904-0.084c0.386-0.014,0.771-0.024,1.156-0.033c0.628-0.016,1.256-0.024,1.881-0.028
		c0.402-0.003,0.806-0.006,1.207-0.004c0.39,0.001,0.779,0.008,1.169,0.014c0.491,0.007,0.982,0.017,1.473,0.031
		c0.384,0.011,0.767,0.024,1.15,0.04c0.495,0.02,0.987,0.043,1.48,0.069c0.377,0.02,0.753,0.041,1.129,0.065
		c0.502,0.032,1.003,0.069,1.503,0.107c0.362,0.029,0.727,0.058,1.088,0.09c0.515,0.045,1.027,0.097,1.54,0.149
		c0.346,0.035,0.692,0.069,1.037,0.108c0.539,0.061,1.076,0.129,1.613,0.197c0.315,0.041,0.631,0.079,0.946,0.122
		c0.582,0.08,1.162,0.168,1.741,0.257c0.268,0.042,0.537,0.079,0.804,0.123c0.69,0.111,1.377,0.232,2.063,0.357
		c0.154,0.027,0.311,0.053,0.465,0.081c1.71,0.319,3.408,0.679,5.092,1.078c0.124,0.03,0.246,0.063,0.37,0.092
		c0.706,0.171,1.41,0.346,2.11,0.529c0.217,0.057,0.432,0.118,0.647,0.176c0.606,0.163,1.212,0.329,1.814,0.503
		c0.253,0.073,0.504,0.15,0.756,0.225c0.564,0.167,1.128,0.336,1.688,0.513c0.268,0.084,0.532,0.171,0.798,0.257
		c0.545,0.176,1.088,0.354,1.629,0.538c0.271,0.092,0.541,0.187,0.811,0.281c0.534,0.187,1.068,0.376,1.599,0.571
		c0.27,0.099,0.537,0.199,0.805,0.299c0.53,0.2,1.061,0.404,1.588,0.612c0.262,0.104,0.522,0.207,0.783,0.313
		c0.534,0.216,1.067,0.437,1.598,0.66c0.247,0.104,0.494,0.208,0.741,0.314c0.55,0.237,1.097,0.48,1.643,0.726
		c0.222,0.101,0.443,0.199,0.664,0.301c0.58,0.266,1.155,0.538,1.729,0.814c0.184,0.089,0.369,0.175,0.553,0.265
		c0.641,0.313,1.276,0.632,1.909,0.956c0.114,0.059,0.229,0.115,0.343,0.174c2.285,1.181,4.524,2.441,6.715,3.779
		c0.049,0.03,0.097,0.061,0.146,0.091c0.665,0.408,1.326,0.823,1.982,1.245c0.143,0.091,0.282,0.185,0.424,0.276
		c0.562,0.365,1.12,0.733,1.675,1.107c0.182,0.123,0.362,0.249,0.544,0.373c0.51,0.35,1.019,0.703,1.522,1.061
		c0.202,0.144,0.401,0.289,0.602,0.434c0.481,0.347,0.961,0.696,1.436,1.051c0.209,0.155,0.417,0.313,0.624,0.47
		c0.465,0.352,0.926,0.707,1.385,1.065c0.208,0.163,0.416,0.327,0.622,0.491c0.455,0.361,0.907,0.727,1.355,1.096
		c0.203,0.167,0.408,0.334,0.609,0.503c0.45,0.376,0.897,0.756,1.343,1.138c0.192,0.167,0.386,0.332,0.577,0.5
		c0.454,0.396,0.904,0.798,1.352,1.202c0.177,0.16,0.354,0.317,0.529,0.478c0.472,0.433,0.938,0.87,1.402,1.311
		c0.144,0.137,0.29,0.271,0.434,0.409c0.52,0.498,1.033,1.003,1.544,1.513c0.084,0.084,0.169,0.165,0.252,0.249
		c1.804,1.811,3.543,3.687,5.218,5.624c0.098,0.114,0.193,0.23,0.292,0.345c0.446,0.522,0.891,1.048,1.328,1.578
		c0.147,0.179,0.292,0.36,0.438,0.54c0.383,0.472,0.764,0.945,1.14,1.423c0.168,0.215,0.332,0.43,0.499,0.646
		c0.348,0.45,0.694,0.901,1.035,1.357c0.177,0.235,0.351,0.473,0.524,0.709c0.325,0.442,0.647,0.887,0.967,1.334
		c0.179,0.25,0.354,0.502,0.53,0.753c0.309,0.44,0.613,0.883,0.915,1.328c0.178,0.262,0.353,0.523,0.527,0.786
		c0.296,0.443,0.587,0.891,0.876,1.339c0.171,0.267,0.342,0.532,0.511,0.8c0.286,0.455,0.568,0.912,0.848,1.371
		c0.164,0.268,0.328,0.534,0.489,0.803c0.28,0.47,0.556,0.942,0.829,1.416c0.151,0.263,0.305,0.523,0.455,0.787
		c0.282,0.499,0.557,1.001,0.832,1.504c0.133,0.244,0.269,0.486,0.399,0.73c0.3,0.562,0.594,1.127,0.884,1.694
		c0.098,0.19,0.199,0.38,0.296,0.571c0.775,1.534,1.516,3.091,2.219,4.668c0.071,0.157,0.136,0.316,0.206,0.473
		c0.274,0.625,0.547,1.252,0.81,1.883c0.111,0.266,0.218,0.535,0.327,0.802c0.215,0.526,0.43,1.054,0.637,1.585
		c0.12,0.31,0.235,0.623,0.354,0.935c0.187,0.492,0.372,0.986,0.553,1.482c0.121,0.334,0.237,0.67,0.355,1.006
		c0.169,0.48,0.336,0.96,0.498,1.443c0.116,0.35,0.23,0.701,0.345,1.052c0.152,0.475,0.305,0.95,0.452,1.428
		c0.11,0.359,0.219,0.72,0.325,1.08c0.143,0.477,0.279,0.953,0.415,1.432c0.104,0.366,0.204,0.732,0.304,1.101
		c0.13,0.479,0.256,0.958,0.379,1.439c0.095,0.371,0.188,0.741,0.28,1.114c0.119,0.486,0.232,0.975,0.345,1.465
		c0.085,0.37,0.171,0.739,0.253,1.11c0.108,0.5,0.211,1.002,0.313,1.504c0.075,0.365,0.151,0.729,0.223,1.096
		c0.102,0.525,0.194,1.054,0.288,1.582c0.063,0.347,0.128,0.692,0.187,1.041c0.098,0.582,0.187,1.167,0.275,1.752
		c0.045,0.298,0.094,0.595,0.137,0.894c0.127,0.885,0.244,1.773,0.35,2.666c6.999,59.229-35.341,112.916-94.569,119.916
		c-1.008,0.119-2.016,0.221-3.021,0.312c-0.317,0.028-0.635,0.051-0.952,0.076c-0.69,0.057-1.38,0.109-2.068,0.152
		c-0.373,0.023-0.743,0.041-1.115,0.061c-0.636,0.033-1.271,0.063-1.906,0.084c-0.386,0.014-0.77,0.024-1.155,0.034
		c-0.628,0.015-1.256,0.023-1.882,0.027c-0.401,0.003-0.803,0.006-1.204,0.004c-0.395-0.001-0.788-0.007-1.183-0.013
		c-0.483-0.008-0.966-0.018-1.448-0.031c-0.395-0.012-0.788-0.026-1.182-0.042c-0.481-0.019-0.963-0.042-1.441-0.067
		c-0.392-0.021-0.782-0.043-1.172-0.067c-0.48-0.031-0.962-0.067-1.442-0.104c-0.385-0.03-0.771-0.062-1.155-0.095
		c-0.485-0.044-0.969-0.092-1.452-0.142c-0.376-0.038-0.752-0.076-1.128-0.118c-0.494-0.056-0.988-0.118-1.481-0.182
		c-0.36-0.046-0.722-0.089-1.081-0.139c-0.521-0.072-1.039-0.151-1.558-0.23c-0.329-0.05-0.658-0.097-0.986-0.149
		c-0.579-0.095-1.157-0.197-1.734-0.301c-0.265-0.048-0.531-0.091-0.796-0.14c-1.683-0.315-3.354-0.669-5.012-1.062
		c-0.253-0.061-0.504-0.126-0.757-0.188c-0.574-0.141-1.148-0.281-1.719-0.432c-0.303-0.079-0.604-0.164-0.904-0.245
		c-0.521-0.142-1.038-0.282-1.555-0.432c-0.32-0.092-0.638-0.188-0.957-0.283c-0.494-0.147-0.986-0.295-1.478-0.449
		c-0.329-0.104-0.657-0.21-0.985-0.316c-0.479-0.155-0.957-0.313-1.435-0.474c-0.328-0.112-0.655-0.227-0.981-0.341
		c-0.474-0.166-0.945-0.334-1.415-0.506c-0.326-0.119-0.651-0.241-0.977-0.363c-0.469-0.178-0.936-0.357-1.401-0.54
		c-0.319-0.126-0.639-0.253-0.957-0.382c-0.471-0.19-0.938-0.384-1.404-0.58c-0.31-0.131-0.618-0.261-0.927-0.394
		c-0.477-0.206-0.951-0.417-1.425-0.63c-0.293-0.132-0.586-0.262-0.878-0.396c-0.492-0.227-0.981-0.46-1.471-0.693
		c-0.268-0.128-0.537-0.254-0.804-0.385c-0.531-0.26-1.058-0.526-1.585-0.794c-0.22-0.111-0.439-0.22-0.659-0.333
		c-0.645-0.334-1.285-0.676-1.923-1.022c-0.097-0.053-0.195-0.104-0.293-0.156c-1.488-0.814-2.956-1.664-4.403-2.547
		c-0.164-0.101-0.325-0.204-0.489-0.305c-0.548-0.339-1.095-0.68-1.638-1.028c-0.219-0.141-0.436-0.285-0.654-0.428
		c-0.482-0.315-0.965-0.632-1.442-0.954c-0.241-0.163-0.479-0.329-0.719-0.494c-0.451-0.31-0.9-0.62-1.347-0.938
		c-0.249-0.177-0.495-0.355-0.743-0.534c-0.433-0.312-0.863-0.626-1.291-0.945c-0.251-0.187-0.501-0.376-0.75-0.565
		c-0.42-0.318-0.837-0.639-1.252-0.963c-0.248-0.194-0.496-0.39-0.742-0.585c-0.412-0.329-0.822-0.661-1.23-0.995
		c-0.241-0.198-0.483-0.396-0.724-0.597c-0.408-0.342-0.813-0.687-1.217-1.033c-0.232-0.199-0.465-0.398-0.696-0.601
		c-0.411-0.36-0.819-0.725-1.226-1.091c-0.215-0.194-0.432-0.388-0.646-0.584c-0.422-0.388-0.841-0.78-1.258-1.175
		c-0.191-0.181-0.385-0.359-0.574-0.542c-0.463-0.444-0.92-0.895-1.375-1.347c-0.137-0.137-0.276-0.271-0.413-0.408
		c-1.2-1.206-2.372-2.439-3.516-3.702c-0.012-0.013-0.023-0.026-0.036-0.04c-0.549-0.607-1.091-1.221-1.626-1.84
		c-0.137-0.159-0.271-0.32-0.406-0.479c-0.408-0.479-0.814-0.958-1.215-1.443c-0.172-0.209-0.341-0.421-0.512-0.631
		c-0.357-0.441-0.715-0.885-1.066-1.332c-0.187-0.237-0.369-0.477-0.554-0.715c-0.329-0.427-0.658-0.854-0.98-1.286
		c-0.191-0.255-0.379-0.512-0.568-0.769c-0.31-0.422-0.619-0.847-0.923-1.273c-0.191-0.268-0.379-0.536-0.567-0.805
		c-0.296-0.424-0.59-0.849-0.879-1.276c-0.188-0.276-0.373-0.553-0.558-0.83c-0.284-0.429-0.566-0.861-0.845-1.295
		c-0.181-0.279-0.36-0.559-0.539-0.84c-0.276-0.44-0.55-0.883-0.82-1.327c-0.172-0.281-0.344-0.561-0.513-0.843
		c-0.272-0.456-0.54-0.916-0.807-1.377c-0.158-0.273-0.318-0.547-0.474-0.822c-0.275-0.486-0.545-0.978-0.814-1.47
		c-0.138-0.254-0.28-0.507-0.416-0.762c-0.292-0.543-0.574-1.092-0.857-1.642c-0.106-0.209-0.218-0.416-0.323-0.625
		c-0.38-0.752-0.752-1.508-1.114-2.271c-0.004-0.008-0.008-0.017-0.013-0.025c-0.371-0.78-0.732-1.566-1.085-2.357
		c-0.082-0.182-0.158-0.367-0.239-0.55c-0.101-0.231-0.199-0.466-0.301-0.699c1.085,4.191,1.906,8.502,2.428,12.921
		c6.227,52.681-31.434,100.435-84.115,106.659c-5.201,0.615-10.353,0.795-15.422,0.582c0,0.001,0,0.002-0.001,0.003
		c-0.091-0.004-0.183-0.011-0.274-0.015c-0.618-0.027-1.234-0.062-1.849-0.101c-0.181-0.012-0.361-0.023-0.542-0.036
		c-0.613-0.043-1.225-0.093-1.834-0.146c-0.182-0.017-0.363-0.033-0.544-0.05c-0.606-0.059-1.211-0.122-1.814-0.191
		c-0.185-0.021-0.369-0.042-0.553-0.064c-0.597-0.071-1.193-0.149-1.787-0.232c-0.188-0.026-0.377-0.052-0.565-0.08
		c-0.585-0.085-1.168-0.177-1.75-0.272c-0.197-0.033-0.394-0.063-0.59-0.098c-0.573-0.099-1.144-0.203-1.713-0.312
		c-0.201-0.038-0.403-0.075-0.604-0.114c-0.562-0.11-1.122-0.229-1.681-0.349c-0.207-0.045-0.414-0.088-0.62-0.134
		c-0.55-0.123-1.098-0.251-1.645-0.384c-0.212-0.051-0.425-0.1-0.636-0.153c-0.538-0.133-1.073-0.273-1.607-0.417
		c-0.218-0.058-0.437-0.113-0.655-0.174c-0.525-0.145-1.048-0.296-1.57-0.449c-0.223-0.064-0.446-0.128-0.668-0.194
		c-0.513-0.154-1.023-0.316-1.533-0.479c-0.228-0.073-0.458-0.143-0.685-0.218c-0.5-0.164-0.998-0.336-1.495-0.508
		c-0.233-0.081-0.467-0.158-0.699-0.24c-0.49-0.174-0.977-0.356-1.462-0.537c-0.236-0.089-0.473-0.173-0.708-0.263
		c-0.481-0.184-0.959-0.376-1.437-0.567c-0.235-0.095-0.473-0.186-0.708-0.282c-0.476-0.195-0.948-0.398-1.42-0.602
		c-0.233-0.101-0.468-0.196-0.7-0.298c-0.489-0.214-0.973-0.437-1.457-0.659c-0.204-0.094-0.411-0.183-0.614-0.277l0-0.001
		c-27.913-13.04-48.939-39.221-54.21-71.544c0.835-0.998,1.663-2.005,2.473-3.031c18.91-23.978,28.485-53.237,27.513-83.405
		C379.465,269.718,397.894,260.808,418.66,258.354z M224.158,179.512c59.227-6.999,112.915,35.341,119.915,94.569
		c6.999,59.229-35.341,112.916-94.569,119.916c-4.315,0.51-8.601,0.75-12.842,0.749c-0.001,0.002-0.002,0.005-0.003,0.007
		c-0.123,0-0.245-0.006-0.367-0.006c-0.787-0.003-1.571-0.017-2.354-0.036c-0.231-0.007-0.464-0.008-0.695-0.015
		c-1.022-0.033-2.042-0.079-3.058-0.141c-0.156-0.01-0.312-0.023-0.468-0.034c-0.85-0.055-1.699-0.119-2.545-0.194
		c-0.31-0.027-0.618-0.06-0.927-0.09c-0.701-0.068-1.402-0.143-2.1-0.225c-0.33-0.038-0.66-0.079-0.989-0.121
		c-0.703-0.089-1.403-0.186-2.102-0.289c-0.295-0.043-0.592-0.085-0.887-0.131c-0.849-0.132-1.696-0.274-2.54-0.427
		c-0.131-0.023-0.263-0.044-0.394-0.068c-1.005-0.185-2.007-0.385-3.003-0.598c-0.13-0.028-0.26-0.06-0.391-0.088
		c-0.843-0.184-1.683-0.377-2.52-0.58c-0.255-0.063-0.509-0.128-0.764-0.191c-0.724-0.182-1.446-0.37-2.165-0.566
		c-0.266-0.073-0.533-0.146-0.798-0.222c-0.744-0.209-1.485-0.428-2.223-0.653c-0.211-0.063-0.422-0.126-0.633-0.191
		c-1.934-0.604-3.847-1.258-5.736-1.967c-0.083-0.03-0.165-0.063-0.248-0.095c-0.842-0.318-1.679-0.647-2.512-0.985
		c-0.201-0.082-0.4-0.165-0.6-0.248c-0.73-0.303-1.457-0.611-2.179-0.929c-0.208-0.092-0.417-0.184-0.625-0.276
		c-0.758-0.34-1.511-0.687-2.26-1.043c-0.144-0.068-0.29-0.135-0.433-0.204c-32.209-15.479-56.052-46.597-60.556-84.713
		C122.589,240.198,164.93,186.511,224.158,179.512z M500,958.611c-155.827,0-293.737-76.672-378.091-194.341
		c22.007,4.988,43.664,5.547,61.823,1.503c22.982-5.118,38.209-17.078,42.871-33.667c2.17-7.688,2.091-15.618-0.182-23.375
		c17.675-6.111,43.415-5.722,68.672,1.419c31.103,8.761,43.47,22.938,54.381,35.446c5.199,5.96,10.109,11.589,16.476,16.283
		c21.154,15.599,48.317,19.384,74.527,10.382c21.923-7.529,39.042-22.912,43.615-39.191c1.987-7.077,2.05-14.36,0.278-21.525
		c0-0.002-0.001-0.003-0.001-0.005c-0.15-0.608-0.291-1.218-0.468-1.825c17.681-6.116,43.436-5.728,68.704,1.412
		c0.949,0.267,1.879,0.54,2.792,0.816c29.053,8.808,41.005,22.505,51.586,34.632c5.201,5.962,10.113,11.592,16.481,16.285
		c13.604,10.031,29.694,15.175,46.415,15.174c9.271,0,18.736-1.58,28.079-4.788c21.923-7.524,39.046-22.909,43.622-39.176
		c2.171-7.672,2.091-15.605-0.184-23.382c17.644-6.113,43.38-5.724,68.656,1.419c41.901,11.804,61.644,29.668,74.468,42.937
		C800.852,877.911,659.859,958.611,500,958.611z M881.674,611.191c-35.965,33.204-93.77,60.326-171.808,80.612
		c-35.401,9.203-72.541,15.421-111.108,18.666c-9.817-7.165-22.625-13.882-40.619-18.952c-35.002-9.891-70.426-8.325-92.444,4.09
		l-8.834,4.98l4.941,8.856c0.085,0.153,0.161,0.305,0.243,0.456c-53.863-4.653-109.643-14.328-166.214-28.877
		c-111.941-28.787-188.586-66.694-191.794-68.293c-27.464-13.694-38.626-47.06-24.931-74.523
		c13.685-27.446,47.012-38.612,74.466-24.96c0.09,0.045,1.353,0.665,3.685,1.761c-0.053-15.601,1.729-33.325,5.864-53.478
		c4.505-21.964,10.973-42.735,17.018-59.563c14.845,7.32,31.27,11.832,48.549,12.905c-4.382,11.847-9.164,26.235-13.097,41.636
		c1.619,1.441,3.078,3.115,4.319,5.018c17.489,26.811,38.579,39.322,64.478,38.22c20.844-0.879,37.286-10.456,37.45-10.553
		l-0.079,0.047c1.318-0.789,22.401-13.004,33.824,5.738c14.232,23.352-7.863,37.006-7.863,37.006
		c-2.602,1.585-26.35,15.551-58.622,17.59c-2.522,0.159-5.134,0.248-7.818,0.248c-21.799,0-48.53-5.846-73.757-27.031
		c0.303,4.738,0.864,9.209,1.687,13.398c0.05,0.255,0.11,0.494,0.162,0.746c29.79,11.435,69.946,25.216,116.639,37.098
		c12.324,3.136,25.469,6.224,39.298,9.137c-3.663-18.938-3.516-42.901,2.704-73.224c3.752-18.292,9.048-35.641,14.114-50.005
		c11.178,5.041,23.268,8.358,35.917,9.638c-3.639,10.085-7.474,21.964-10.681,34.581c1.55,2.281,3.739,6.046,4.405,7.067
		c16.166,24.779,36.637,36.794,60.884,35.665c19.431-0.894,34.635-9.8,34.786-9.891l-0.088,0.054c0,0,16.092-9.104,25.7,6.66
		c9.672,15.867-6.42,24.972-6.42,24.972c-2.234,1.361-22.629,13.353-50.442,15.11c-2.156,0.137-4.388,0.212-6.682,0.212
		c-20.504,0-46.114-6.047-69.58-28.925c-0.056,7.718,0.53,14.801,1.782,21.189c1.062,5.418,2.592,10.268,4.593,14.587
		c50.866,8.357,108.261,13.32,167.267,9.937c-23.554-22.94-40.577-64.388-25.217-139.267c4.506-21.964,10.973-42.735,17.018-59.563
		c14.846,7.32,31.271,11.832,48.549,12.905c-4.382,11.848-9.163,26.235-13.097,41.636c1.619,1.442,3.079,3.115,4.32,5.018
		c17.837,27.343,39.435,39.829,66.034,38.138c5.724-0.362,11.088-1.362,15.835-2.606c2.982-11.196,6.342-21.703,9.607-30.964
		c11.178,5.041,23.268,8.359,35.916,9.639c-1.3,3.603-2.625,7.438-3.939,11.447c5.107,1.882,9.642,5.43,12.695,10.439
		c6.57,10.782,4.008,24.564-5.492,32.34c10.661,11.993,22.839,19.356,36.415,22.021c28.792-14.635,38.521-26.524,40.938-30.04
		c6.344-25.984,30.753-44.288,58.283-42.153c30.596,2.381,53.469,29.113,51.089,59.71
		C921.664,550.504,915.969,579.527,881.674,611.191z"/>
</g>
</svg>
