<?xml version="1.0" encoding="utf-8"?>
<!-- Generator: Adobe Illustrator 16.0.0, SVG Export Plug-In . SVG Version: 6.00 Build 0)  -->
<!DOCTYPE svg PUBLIC "-//W3C//DTD SVG 1.1//EN" "http://www.w3.org/Graphics/SVG/1.1/DTD/svg11.dtd">
<svg version="1.1" id="Layer_1" xmlns="http://www.w3.org/2000/svg" xmlns:xlink="http://www.w3.org/1999/xlink" x="0px" y="0px"
	 width="1000px" height="1000px" viewBox="0 0 1000 1000" enable-background="new 0 0 1000 1000" xml:space="preserve">
<g>
	<polygon points="255.826,743.027 237.768,733.305 237.768,743.027 247.491,768.033 264.16,761.086 	"/>
	<polygon points="651.315,700.465 653.167,711.578 664.28,700.465 658.724,689.52 	"/>
	<polygon points="908.504,415.072 902.947,441.465 918.228,441.465 918.228,428.269 918.228,408.127 	"/>
	<path d="M899.552,375.612l-9.802,4.949c0,0-2.778,25.611,0,21.443c2.778-4.167,12.502,0.458,12.502,0.458l8.335-15.503
		L899.552,375.612z"/>
	<path d="M377.834,502.451c1.616,3.043,3.968,6.637,7.976,9.953L418.508,483c-14.979-0.421-30.535-3.39-46.793-8.899
		C371.864,484.678,373.625,494.525,377.834,502.451z"/>
	<path d="M500,0C223.857,0,0,223.858,0,500.001C0,776.143,223.857,1000,500,1000c276.144,0,500-223.857,500-499.999
		C1000,223.858,776.144,0,500,0z M518.789,386.848c3.659-3.597,8.333-5.511,13.082-5.79l266.388-239.55l3.787,4.758l0.238-0.282
		c9.449,8.052,18.572,16.477,27.347,25.249l-66.825,147.342l-1.427,3.146l1.585,2.892l31.193,56.924l-4.721,21.904l-0.16,0.743
		l0.007,0.601l0.211,16.001l-14.312,57.746l-0.413,1.662l0.607,1.459l5.081,12.223l-10.111,30.896l-0.593,1.811l0.84,1.58
		l9.379,17.662l-2.314,16.488L742.38,678.666l-0.126,0.414l0.057,0.379c0.471,3.096,0.994,6.141,1.546,9.197
		c0.554,3.053,1.139,6.1,1.757,9.137c1.239,6.08,2.606,12.133,4.147,18.148c1.543,6.014,3.255,11.994,5.263,17.889
		c2.022,5.889,4.295,11.723,7.297,17.266c1.514,2.762,3.211,5.459,5.339,7.895c1.068,1.211,2.253,2.352,3.619,3.316
		c0.682,0.48,1.409,0.916,2.188,1.273c0.391,0.174,0.789,0.338,1.201,0.471c0.187,0.061,0.376,0.117,0.566,0.166
		c0.014,0.08,0.025,0.166,0.03,0.27c0.019,0.297,0.003,0.646-0.025,0.996c-0.061,0.705-0.178,1.443-0.316,2.178
		c-0.279,1.477-0.644,2.959-1.032,4.439c-0.785,2.957-1.684,5.902-2.62,8.838c-1.879,5.867-3.918,11.695-6.013,17.502
		c-2.102,5.805-4.263,11.592-6.488,17.352l-0.034,0.084l0.001,0.08l2.552,5.383c-23.336-3.746-52.546-8.533-82.372-13.67
		c-123.937-21.344-147.17-29.541-151.338-31.545c-4.981-2.396-7.296-4.33-8.283-5.352c0.847-1.537,2.708-3.672,3.429-4.254
		l20.378-16.457l69.313-49.512l-18.078-77.059l19.192-41.414l17.054-102.905l51.893-76.708v-47.688l49.562-125.654l44.695-52.896
		L544.834,384.759c0.971,0.689,1.904,1.456,2.768,2.334c7.889,8.024,7.778,20.924-0.246,28.813
		c-25.436,25.006-48.964,46.669-79.353,58.529c-10.279,4.012-20.796,6.621-31.603,7.833l-40.167,36.122
		c2.86,1.117,6.144,2.082,9.93,2.826c4.263,0.051,8.451,0.285,12.554,0.709c13.558-1.49,24.237-10.762,38.486-24.493
		c12.559-12.101,25.545-24.614,43.492-26.761c30.645-3.667,58.747,9.18,73.331,33.523c15.735,26.264,12.682,59.742-8.169,89.557
		c-3.962,5.668-10.286,8.701-16.714,8.701c-4.032,0-8.104-1.195-11.659-3.682c-9.221-6.447-11.469-19.15-5.019-28.373
		c11.372-16.262,13.842-33.182,6.604-45.262c-6.307-10.525-18.846-15.762-33.536-14.004c-4.363,0.521-13.064,8.906-20.057,15.643
		c-4.333,4.176-9.22,8.885-14.751,13.488c3.408,2.324,6.669,4.852,9.77,7.582c17.247,15.184,28.971,36.211,33.011,59.205
		c7.013,39.904-10.119,75.709-41.658,87.068c-2.28,0.822-4.612,1.211-6.904,1.211c-8.348,0-16.178-5.168-19.17-13.475
		c-3.813-10.586,1.678-22.26,12.264-26.072c13.99-5.041,18.303-24.783,15.334-41.682c-3.966-22.572-20.757-46.484-55.786-51.273
		c-5.123,0.186-10.511-0.133-16.188-1.074c-0.196-0.027-0.393-0.057-0.588-0.09c-0.039-0.006-0.077-0.01-0.116-0.018
		c-0.097-0.018-0.189-0.037-0.286-0.055c-0.134-0.025-0.268-0.047-0.401-0.076c-33.786-6.105-50.299-25.104-58.204-40.027
		c-12.485-23.573-14.151-55.48-4.951-94.834c1.235-5.282,2.586-10.335,3.965-15.064c12.435,5.506,25.783,8.859,39.507,9.849
		c-1.08,3.63-2.123,7.431-3.09,11.333C440.172,457.604,473.235,431.631,518.789,386.848z M315.786,236.777
		c0.589-0.654,1.187-1.296,1.79-1.93c0.2-0.211,0.405-0.415,0.607-0.623c0.406-0.419,0.811-0.838,1.222-1.249
		c0.244-0.243,0.491-0.479,0.736-0.719c0.376-0.368,0.753-0.737,1.135-1.098c0.261-0.248,0.527-0.489,0.79-0.734
		c0.371-0.343,0.742-0.687,1.118-1.024c0.275-0.247,0.553-0.489,0.83-0.732c0.369-0.324,0.738-0.647,1.111-0.965
		c0.287-0.244,0.576-0.484,0.864-0.725c0.37-0.308,0.74-0.614,1.113-0.915c0.294-0.238,0.591-0.473,0.888-0.707
		c0.374-0.295,0.748-0.587,1.125-0.875c0.3-0.23,0.601-0.457,0.902-0.683c0.38-0.284,0.762-0.565,1.145-0.843
		c0.304-0.221,0.608-0.439,0.914-0.656c0.387-0.274,0.777-0.545,1.168-0.813c0.305-0.209,0.61-0.418,0.917-0.624
		c0.399-0.267,0.8-0.529,1.202-0.79c0.303-0.197,0.606-0.395,0.912-0.587c0.413-0.262,0.83-0.518,1.246-0.772
		c0.298-0.183,0.596-0.367,0.896-0.546c0.434-0.259,0.87-0.511,1.307-0.763c0.287-0.166,0.572-0.333,0.86-0.496
		c0.465-0.262,0.935-0.516,1.403-0.77c0.264-0.143,0.526-0.29,0.792-0.43c0.538-0.285,1.079-0.561,1.621-0.835
		c0.199-0.101,0.396-0.206,0.596-0.305c1.493-0.743,3.001-1.446,4.523-2.109c0.222-0.097,0.445-0.188,0.667-0.282
		c0.538-0.229,1.075-0.458,1.616-0.678c0.283-0.115,0.568-0.224,0.852-0.335c0.483-0.191,0.967-0.382,1.454-0.566
		c0.308-0.116,0.617-0.226,0.925-0.339c0.466-0.17,0.932-0.34,1.401-0.503c0.321-0.112,0.645-0.219,0.967-0.328
		c0.456-0.154,0.913-0.307,1.371-0.454c0.333-0.107,0.668-0.209,1.004-0.313c0.451-0.139,0.902-0.276,1.354-0.41
		c0.34-0.099,0.68-0.196,1.02-0.291c0.451-0.127,0.902-0.251,1.355-0.372c0.344-0.091,0.689-0.181,1.033-0.269
		c0.45-0.115,0.901-0.226,1.352-0.334c0.349-0.083,0.697-0.166,1.046-0.245c0.452-0.103,0.904-0.202,1.356-0.299
		c0.35-0.075,0.699-0.148,1.049-0.219c0.458-0.093,0.917-0.18,1.376-0.266c0.344-0.065,0.689-0.13,1.034-0.191
		c0.469-0.083,0.938-0.159,1.408-0.235c0.338-0.055,0.676-0.111,1.014-0.162c0.481-0.073,0.964-0.139,1.447-0.204
		c0.328-0.045,0.656-0.092,0.984-0.133c0.505-0.064,1.011-0.119,1.518-0.175c0.306-0.034,0.611-0.071,0.917-0.102
		c0.572-0.058,1.145-0.106,1.717-0.154c0.241-0.02,0.481-0.044,0.722-0.063c0.815-0.062,1.631-0.114,2.447-0.156
		c0.08-0.004,0.161-0.005,0.241-0.009c0.734-0.036,1.469-0.065,2.204-0.084c0.28-0.008,0.561-0.008,0.841-0.013
		c0.534-0.009,1.069-0.02,1.604-0.021c0.14,0,0.28,0.003,0.42,0.004c1.384,0.003,2.767,0.031,4.15,0.092
		c0.013,0,0.025,0.001,0.038,0.002c1.383,0.062,2.767,0.157,4.148,0.277c0.11,0.01,0.219,0.016,0.329,0.026
		c1.326,0.12,2.649,0.271,3.971,0.445c0.172,0.022,0.345,0.043,0.517,0.066c1.284,0.176,2.565,0.379,3.844,0.606
		c0.203,0.036,0.407,0.072,0.61,0.108c1.262,0.232,2.519,0.49,3.773,0.771c0.21,0.047,0.419,0.095,0.629,0.143
		c1.255,0.291,2.507,0.604,3.752,0.944c0.193,0.053,0.386,0.108,0.579,0.162c1.266,0.354,2.528,0.73,3.782,1.137
		c0.15,0.049,0.3,0.101,0.451,0.15c1.298,0.427,2.591,0.877,3.875,1.36c0.071,0.027,0.143,0.056,0.213,0.083
		c1.301,0.493,2.594,1.015,3.878,1.565c0.063,0.026,0.127,0.051,0.189,0.079c1.271,0.547,2.53,1.128,3.782,1.733
		c0.139,0.067,0.279,0.131,0.417,0.199c1.205,0.588,2.399,1.207,3.585,1.847c0.178,0.096,0.355,0.19,0.533,0.288
		c1.162,0.637,2.313,1.302,3.454,1.989c0.188,0.113,0.376,0.227,0.564,0.342c1.135,0.694,2.258,1.413,3.371,2.157
		c0.179,0.12,0.357,0.242,0.535,0.363c1.121,0.76,2.231,1.544,3.328,2.357c0.15,0.11,0.298,0.225,0.447,0.336
		c1.123,0.841,2.234,1.706,3.329,2.602c0.096,0.079,0.191,0.161,0.288,0.241c1.146,0.945,2.278,1.914,3.392,2.919
		c40.408,36.473,43.599,98.795,7.126,139.203c-0.589,0.653-1.186,1.296-1.789,1.929c-0.203,0.213-0.41,0.419-0.614,0.63
		c-0.404,0.417-0.807,0.834-1.216,1.243c-0.246,0.245-0.495,0.483-0.743,0.725c-0.374,0.365-0.747,0.73-1.125,1.088
		c-0.269,0.254-0.541,0.503-0.812,0.754c-0.363,0.336-0.726,0.672-1.092,1.001c-0.283,0.254-0.568,0.502-0.853,0.752
		c-0.362,0.318-0.724,0.636-1.09,0.947c-0.292,0.248-0.585,0.492-0.879,0.736c-0.364,0.304-0.73,0.605-1.098,0.903
		c-0.299,0.242-0.6,0.48-0.902,0.718c-0.369,0.291-0.738,0.58-1.11,0.864c-0.304,0.233-0.61,0.463-0.917,0.693
		c-0.375,0.281-0.753,0.559-1.131,0.833c-0.308,0.223-0.616,0.444-0.925,0.663c-0.382,0.271-0.768,0.538-1.153,0.802
		c-0.312,0.214-0.624,0.427-0.937,0.637c-0.391,0.262-0.783,0.518-1.176,0.773c-0.313,0.203-0.625,0.406-0.938,0.604
		c-0.402,0.255-0.808,0.503-1.213,0.751c-0.309,0.189-0.617,0.38-0.928,0.566c-0.419,0.25-0.841,0.494-1.264,0.737
		c-0.301,0.174-0.602,0.351-0.905,0.521c-0.445,0.25-0.894,0.493-1.342,0.736c-0.284,0.154-0.566,0.312-0.851,0.463
		c-0.51,0.271-1.025,0.531-1.539,0.792c-0.226,0.115-0.449,0.233-0.676,0.346c-0.745,0.372-1.494,0.733-2.247,1.084
		c-0.023,0.011-0.046,0.021-0.069,0.031c-0.728,0.339-1.458,0.668-2.193,0.988c-0.247,0.108-0.498,0.209-0.745,0.315
		c-0.512,0.218-1.023,0.436-1.539,0.645c-0.298,0.121-0.598,0.235-0.897,0.354c-0.468,0.185-0.937,0.37-1.407,0.548
		c-0.322,0.122-0.646,0.237-0.969,0.354c-0.45,0.165-0.9,0.329-1.352,0.486c-0.337,0.118-0.676,0.23-1.015,0.344
		c-0.44,0.148-0.881,0.295-1.323,0.437c-0.347,0.112-0.695,0.219-1.043,0.326c-0.437,0.135-0.875,0.268-1.313,0.397
		c-0.353,0.104-0.707,0.204-1.061,0.304c-0.436,0.123-0.872,0.243-1.31,0.359c-0.358,0.095-0.716,0.188-1.075,0.28
		c-0.437,0.111-0.875,0.219-1.313,0.324c-0.36,0.086-0.719,0.171-1.08,0.253c-0.44,0.101-0.88,0.197-1.322,0.291
		c-0.36,0.077-0.72,0.154-1.081,0.227c-0.444,0.09-0.889,0.174-1.334,0.258c-0.36,0.068-0.72,0.136-1.081,0.2
		c-0.451,0.08-0.902,0.153-1.354,0.226c-0.354,0.057-0.708,0.117-1.063,0.17c-0.463,0.07-0.928,0.133-1.392,0.196
		c-0.346,0.047-0.691,0.097-1.036,0.14c-0.487,0.062-0.975,0.114-1.462,0.168c-0.323,0.037-0.646,0.076-0.97,0.108
		c-0.549,0.055-1.099,0.101-1.648,0.147c-0.263,0.021-0.525,0.048-0.788,0.068c-0.812,0.062-1.624,0.114-2.437,0.155
		c-0.126,0.006-0.253,0.009-0.379,0.015c-0.688,0.032-1.376,0.061-2.064,0.079c-0.297,0.008-0.595,0.008-0.892,0.014
		c-0.519,0.009-1.038,0.019-1.556,0.019c-0.143,0-0.286-0.003-0.428-0.003c-1.381-0.003-2.762-0.031-4.142-0.092
		c-0.017,0-0.034-0.002-0.05-0.003c-1.379-0.062-2.757-0.157-4.134-0.276c-0.111-0.01-0.224-0.017-0.335-0.027
		c-1.323-0.119-2.645-0.271-3.963-0.443c-0.176-0.023-0.352-0.044-0.527-0.068c-1.282-0.176-2.56-0.379-3.835-0.605
		c-0.207-0.036-0.413-0.072-0.619-0.11c-1.26-0.231-2.515-0.488-3.768-0.769c-0.211-0.047-0.423-0.096-0.634-0.145
		c-1.254-0.29-2.504-0.604-3.749-0.943c-0.194-0.053-0.389-0.109-0.583-0.164c-1.265-0.354-2.525-0.73-3.778-1.136
		c-0.152-0.049-0.303-0.101-0.455-0.151c-1.297-0.427-2.588-0.876-3.871-1.359c-0.073-0.028-0.145-0.057-0.218-0.084
		c-1.298-0.492-2.59-1.013-3.873-1.563c-0.063-0.027-0.128-0.052-0.192-0.08c-1.27-0.547-2.529-1.128-3.78-1.731
		c-0.139-0.067-0.28-0.132-0.418-0.2c-1.205-0.588-2.399-1.207-3.585-1.848c-0.177-0.096-0.354-0.19-0.531-0.287
		c-1.162-0.637-2.313-1.302-3.455-1.99c-0.188-0.113-0.375-0.226-0.562-0.341c-1.136-0.694-2.26-1.414-3.374-2.159
		c-0.178-0.119-0.355-0.24-0.532-0.36c-1.122-0.762-2.233-1.545-3.331-2.359c-0.149-0.11-0.297-0.224-0.446-0.335
		c-1.123-0.842-2.235-1.707-3.331-2.603c-0.095-0.079-0.189-0.16-0.285-0.238c-1.146-0.945-2.28-1.916-3.394-2.92
		C282.504,339.508,279.313,277.185,315.786,236.777z M168.335,830.605C83.097,746.33,30.277,629.336,30.277,500
		c0-99.18,31.063-191.102,83.983-266.579l45.321,124.681l0.887,50.025l0.028,1.592l0.616,1.217l26.896,53.09L188.646,500
		l0.025,1.449l0.706,1.07l26.8,40.67l59.098,207.479L223.409,540.59l-0.125-0.508l-0.342-0.561l-24.861-40.803l0.639-36.018
		l0.021-1.136l-0.558-1.205l-24.807-53.597l0.887-50.02l0.02-1.121l-0.426-1.289l-46.039-139.271
		c19.593-25.224,41.718-48.382,66.008-69.079l20.321,156.833l41.679,56.706l8.335,81.944l49.475,140.611v41.414l17.212,33.342
		l57.177,43.717l25.788,33.436c-14.826,2.422-31.104,5.893-46.287,10c-16.63,4.496-30.541,9.32-41.346,14.34
		c-16.93,7.863-26.411,16.465-29.836,27.068c-2.921,9.047-1.119,18.135,4.791,25.604c-8.846,3.201-24.886,7.551-53.314,11.773
		c-29.01,4.307-55.613,6.18-55.878,6.197L168.335,830.605z M500.146,964.908c-117.566,0-224.929-43.65-306.794-115.615
		c0,0,176.476-12.246,126.997-47.928c-30.886-22.273,90.816-50.697,129.975-50.697c50.22,0,57.758,0,58.67,0
		c0,0-30.714,24.805,8.827,43.816c32.544,15.646,289.118,54.809,289.118,54.809C725.075,921.258,617.713,964.908,500.146,964.908z
		 M826.798,831.572l-15.857-2.42c-0.354-0.055-20.078-3.07-48.993-7.709l-2.314-5.445c2.363-5.668,4.659-11.361,6.898-17.08
		c2.251-5.76,4.446-11.545,6.49-17.396c1.019-2.928,2.003-5.871,2.881-8.863c0.437-1.498,0.849-3.006,1.187-4.559
		c0.167-0.777,0.315-1.566,0.409-2.396c0.044-0.42,0.08-0.842,0.064-1.316c-0.006-0.234-0.028-0.488-0.087-0.775
		c-0.068-0.285-0.146-0.631-0.491-1.049c-0.103-0.107-0.177-0.189-0.356-0.307c-0.091-0.059-0.189-0.107-0.288-0.148l-0.08-0.031
		l-0.359-0.104c-0.164-0.041-0.324-0.096-0.484-0.15c-0.322-0.107-0.637-0.244-0.95-0.387c-0.623-0.295-1.222-0.664-1.797-1.08
		c-1.149-0.836-2.196-1.861-3.154-2.979c-1.916-2.248-3.504-4.83-4.92-7.502c-2.818-5.367-4.979-11.121-6.891-16.939
		c-1.899-5.828-3.513-11.762-4.964-17.736c-1.446-5.977-2.723-11.998-3.872-18.045c-0.573-3.023-1.114-6.055-1.622-9.088
		c-0.483-2.895-0.941-5.807-1.346-8.691l39.139-115.064l0.08-0.236l0.059-0.354l3.018-18.021l0.208-1.246l-0.611-1.229l-8.625-17.33
		l10.938-30.668l0.577-1.615l-0.662-1.719l-4.759-12.356l15.629-56.617l0.179-0.645l0.011-0.821l0.21-15.913l5.733-23.561
		l0.553-2.272l-1.157-2.162l-30.093-56.218l67.426-135.334c21.272,23.21,40.217,48.587,56.467,75.762l-35.201,81.632l-18.986,44.028
		l-1.187,2.752l-0.593,1.375l-0.351,0.831l-0.281,0.695l-2.246,5.556l-4.493,11.112l-8.987,22.225l-0.936,2.315l1.081,2.093
		l7.785,15.061l-5.645,28.876l-1.498,7.666l-0.188,0.959l-0.093,0.479l-0.11,0.621l-0.314,1.927l-0.627,3.854l-2.51,15.418
		l-10.041,61.674l-20.082,123.348l-0.084,0.51l0.188,0.432l13.022,30.01l-6.496,24.668l-0.016,0.057l-0.004,0.033l-10.236,65.609
		l11.98-65.256l7.271-24.879l0.116-0.395l-0.167-0.414l-12.174-30.252l23.294-122.303l11.691-61.383l2.922-15.345l0.73-3.837
		l0.365-1.918l0.044-0.224c0,0-0.002,0.008-0.001,0.004l0.026-0.119l0.106-0.477l0.213-0.953l1.703-7.623l6.813-30.491l0.367-1.645
		l-0.792-1.639l-7.024-14.532l8.638-19.815l4.79-10.988l2.396-5.494l0.299-0.687l0.074-0.171l0.021-0.049
		c-0.021,0.049-0.038,0.09-0.006,0.018l0.159-0.339l0.639-1.355l1.277-2.711l20.44-43.372l32.854-69.715
		c35.512,65.681,55.674,140.879,55.674,220.786C965.833,629.83,912.61,747.227,826.798,831.572z M837.177,491.298l0.001-0.009
		C837.192,491.215,837.186,491.251,837.177,491.298z"/>
</g>
</svg>
