<?xml version="1.0" encoding="utf-8"?>
<!-- Generator: Adobe Illustrator 16.0.0, SVG Export Plug-In . SVG Version: 6.00 Build 0)  -->
<!DOCTYPE svg PUBLIC "-//W3C//DTD SVG 1.1//EN" "http://www.w3.org/Graphics/SVG/1.1/DTD/svg11.dtd">
<svg version="1.1" id="Layer_1" xmlns="http://www.w3.org/2000/svg" xmlns:xlink="http://www.w3.org/1999/xlink" x="0px" y="0px"
	 width="1000px" height="1000px" viewBox="0 0 1000 1000" enable-background="new 0 0 1000 1000" xml:space="preserve">
<g>
	<path d="M500,0C223.857,0,0,223.858,0,500c0,276.141,223.857,500,500,500c276.144,0,500-223.859,500-500
		C1000,223.858,776.144,0,500,0z M740.574,271.997L808,204.571c13.493-13.492,36.116-12.745,50.53,1.668l15.659,15.66
		c14.414,14.414,15.161,37.037,1.668,50.529l-67.426,67.426c-13.492,13.491-67.629,44.26-82.043,29.845l-0.626-0.626l-67.079,67.08
		c5.924,11.547,2.021,25.881-9.239,32.744c-2.106,1.284-16.918,9.998-38.831,15.326l-15.653,15.654l-8.236,8.237l-31.769,31.768
		l-23.004,23.004l-29.492,29.492l-55.056,55.057l0.626,0.625c0.246,0.246,0.476,0.506,0.696,0.773
		c0.072,0.088,0.137,0.184,0.207,0.273c0.143,0.186,0.284,0.375,0.416,0.57c0.074,0.111,0.144,0.227,0.214,0.342
		c0.116,0.186,0.228,0.377,0.334,0.572c0.066,0.123,0.131,0.248,0.194,0.373c0.101,0.201,0.195,0.408,0.286,0.617
		c0.055,0.125,0.111,0.25,0.163,0.379c0.093,0.234,0.178,0.473,0.26,0.715c0.038,0.111,0.08,0.221,0.115,0.336
		c0.113,0.359,0.216,0.727,0.306,1.104c0.002,0.01,0.004,0.02,0.006,0.029c0.087,0.369,0.163,0.748,0.229,1.135
		c0.022,0.127,0.039,0.258,0.058,0.387c0.042,0.273,0.081,0.551,0.112,0.832c0.018,0.154,0.031,0.309,0.045,0.463
		c0.025,0.27,0.046,0.541,0.063,0.818c0.009,0.16,0.018,0.322,0.024,0.486c0.011,0.283,0.018,0.57,0.021,0.861
		c0.002,0.158,0.005,0.314,0.004,0.473c-0.002,0.326-0.011,0.658-0.022,0.992c-0.005,0.127-0.006,0.252-0.012,0.379
		c-0.043,0.938-0.126,1.902-0.246,2.893c-0.015,0.131-0.035,0.264-0.052,0.395c-0.047,0.367-0.098,0.736-0.154,1.109
		c-0.025,0.162-0.051,0.324-0.078,0.486c-0.058,0.354-0.119,0.711-0.184,1.07c-0.03,0.166-0.061,0.33-0.093,0.496
		c-0.072,0.375-0.149,0.754-0.229,1.135c-0.031,0.146-0.062,0.293-0.094,0.441c-0.098,0.447-0.202,0.898-0.311,1.354
		c-0.02,0.08-0.037,0.16-0.057,0.24c-0.271,1.111-0.574,2.24-0.906,3.385c-0.022,0.076-0.046,0.152-0.068,0.229
		c-0.143,0.488-0.291,0.979-0.444,1.471c-0.037,0.117-0.075,0.234-0.112,0.354c-0.146,0.463-0.297,0.928-0.452,1.395
		c-0.04,0.119-0.079,0.238-0.119,0.357c-0.165,0.49-0.334,0.982-0.508,1.479c-0.03,0.084-0.059,0.166-0.088,0.25
		c-0.848,2.393-1.799,4.822-2.83,7.26c-0.018,0.043-0.035,0.082-0.052,0.123c-0.243,0.574-0.49,1.146-0.741,1.721
		c-0.019,0.043-0.038,0.086-0.057,0.129c-5.618,12.785-13.258,25.574-19.624,34.127c-0.023,0.031-0.046,0.063-0.069,0.094
		c-0.417,0.561-0.83,1.102-1.234,1.623c-0.037,0.047-0.073,0.092-0.109,0.139c-0.796,1.021-1.564,1.963-2.302,2.822
		c-0.059,0.066-0.117,0.137-0.176,0.203c-0.344,0.398-0.681,0.775-1.009,1.133c-0.062,0.066-0.123,0.131-0.184,0.197
		c-0.335,0.361-0.665,0.709-0.982,1.025l-67.427,67.426c-0.413,0.412-0.835,0.813-1.264,1.197c-0.144,0.131-0.293,0.25-0.439,0.377
		c-0.289,0.25-0.577,0.502-0.873,0.742c-0.178,0.143-0.361,0.277-0.541,0.416c-0.271,0.211-0.541,0.422-0.817,0.621
		c-0.195,0.143-0.395,0.275-0.593,0.41c-0.268,0.186-0.535,0.373-0.808,0.551c-0.206,0.133-0.417,0.258-0.625,0.385
		c-0.271,0.168-0.542,0.336-0.817,0.494c-0.214,0.123-0.432,0.238-0.649,0.357c-0.275,0.15-0.549,0.301-0.828,0.441
		c-0.222,0.113-0.446,0.221-0.67,0.328c-0.279,0.135-0.559,0.268-0.841,0.395c-0.227,0.102-0.457,0.195-0.686,0.293
		c-0.285,0.119-0.568,0.236-0.855,0.348c-0.232,0.09-0.466,0.176-0.701,0.26c-0.289,0.104-0.578,0.207-0.869,0.303
		c-0.236,0.078-0.475,0.152-0.713,0.225c-0.293,0.09-0.586,0.176-0.881,0.258c-0.24,0.066-0.48,0.129-0.721,0.189
		c-0.298,0.076-0.596,0.146-0.896,0.215c-0.242,0.055-0.484,0.105-0.726,0.154c-0.303,0.061-0.605,0.117-0.909,0.17
		c-0.244,0.043-0.488,0.082-0.732,0.119c-0.305,0.047-0.611,0.088-0.917,0.125c-0.246,0.031-0.492,0.061-0.739,0.086
		c-0.308,0.033-0.617,0.059-0.925,0.082c-0.246,0.018-0.492,0.037-0.739,0.051c-0.313,0.018-0.625,0.027-0.939,0.035
		c-0.244,0.008-0.488,0.016-0.733,0.018c-0.095,0.002-0.189,0.008-0.285,0.008c-0.193,0-0.387-0.014-0.58-0.016
		c-0.301-0.004-0.603-0.01-0.904-0.021c-0.284-0.012-0.567-0.031-0.851-0.049c-0.301-0.02-0.602-0.041-0.902-0.068
		c-0.284-0.025-0.567-0.055-0.852-0.088c-0.302-0.035-0.603-0.07-0.904-0.113c-0.281-0.039-0.562-0.082-0.842-0.127
		c-0.304-0.051-0.606-0.104-0.91-0.16c-0.277-0.053-0.555-0.107-0.833-0.166c-0.304-0.064-0.607-0.133-0.909-0.205
		c-0.275-0.066-0.55-0.135-0.825-0.207c-0.304-0.078-0.606-0.164-0.908-0.252c-0.271-0.078-0.542-0.158-0.812-0.242
		c-0.303-0.096-0.605-0.197-0.906-0.301c-0.268-0.09-0.534-0.184-0.8-0.281c-0.302-0.111-0.602-0.229-0.902-0.348
		c-0.261-0.104-0.521-0.207-0.781-0.316c-0.302-0.127-0.603-0.264-0.903-0.4c-0.254-0.115-0.507-0.229-0.759-0.35
		c-0.302-0.145-0.601-0.299-0.9-0.451c-0.246-0.127-0.492-0.25-0.736-0.383c-0.301-0.162-0.598-0.334-0.896-0.506
		c-0.237-0.137-0.476-0.271-0.711-0.412c-0.3-0.182-0.595-0.373-0.891-0.563c-0.228-0.146-0.458-0.291-0.684-0.441
		c-0.3-0.203-0.595-0.416-0.891-0.627c-0.215-0.154-0.433-0.303-0.646-0.461c-0.307-0.229-0.607-0.471-0.91-0.709
		c-0.195-0.154-0.394-0.305-0.587-0.463c-0.332-0.271-0.656-0.559-0.981-0.846c-0.157-0.137-0.317-0.27-0.472-0.408
		c-0.478-0.434-0.947-0.879-1.407-1.34l-15.66-15.658c-14.414-14.416-15.161-37.037-1.668-50.531l54.161-54.16l13.265-13.266
		c0.308-0.309,0.645-0.629,0.995-0.955c0.071-0.064,0.14-0.131,0.212-0.197c0.347-0.318,0.71-0.643,1.093-0.975
		c0.074-0.064,0.15-0.131,0.226-0.195c0.369-0.316,0.751-0.639,1.151-0.969c0.049-0.039,0.094-0.078,0.144-0.119
		c0.427-0.35,0.875-0.707,1.336-1.068c0.109-0.084,0.219-0.17,0.33-0.258c0.461-0.357,0.934-0.721,1.425-1.088
		c0.092-0.07,0.187-0.139,0.279-0.207c0.444-0.332,0.899-0.666,1.365-1.002c0.11-0.08,0.219-0.16,0.33-0.24
		c0.514-0.369,1.042-0.742,1.58-1.115c0.155-0.109,0.312-0.217,0.468-0.324c0.545-0.377,1.098-0.756,1.666-1.137
		c0.11-0.074,0.223-0.148,0.334-0.223c0.5-0.334,1.01-0.672,1.527-1.008c0.167-0.109,0.334-0.219,0.503-0.328
		c0.579-0.375,1.168-0.75,1.764-1.127c0.19-0.119,0.382-0.24,0.573-0.359c0.538-0.336,1.08-0.672,1.63-1.008
		c0.181-0.111,0.36-0.221,0.542-0.332c0.561-0.34,1.129-0.68,1.701-1.02c0.22-0.131,0.44-0.262,0.661-0.391
		c0.621-0.365,1.248-0.73,1.88-1.094c0.218-0.125,0.438-0.248,0.657-0.373c0.527-0.299,1.058-0.598,1.593-0.895
		c0.195-0.109,0.388-0.219,0.584-0.328c0.646-0.355,1.297-0.709,1.951-1.061c0.252-0.135,0.504-0.27,0.757-0.404
		c0.653-0.348,1.31-0.693,1.971-1.035c0.222-0.115,0.445-0.229,0.667-0.342c0.538-0.277,1.078-0.549,1.619-0.82
		c0.232-0.117,0.464-0.234,0.697-0.35c0.667-0.33,1.337-0.656,2.008-0.979c0.259-0.125,0.518-0.246,0.777-0.369
		c0.642-0.305,1.285-0.605,1.929-0.902c0.226-0.104,0.452-0.205,0.678-0.309c0.574-0.26,1.148-0.516,1.722-0.768
		c0.246-0.109,0.491-0.217,0.736-0.324c0.681-0.295,1.362-0.584,2.042-0.867c0.239-0.1,0.479-0.197,0.718-0.295
		c0.604-0.248,1.206-0.49,1.807-0.727c0.204-0.08,0.408-0.16,0.611-0.24c0.647-0.25,1.292-0.492,1.935-0.73
		c0.232-0.086,0.464-0.17,0.696-0.254c0.685-0.248,1.366-0.488,2.044-0.719c0.202-0.07,0.404-0.135,0.606-0.203
		c0.591-0.197,1.179-0.387,1.764-0.57c0.164-0.053,0.328-0.105,0.49-0.154c0.684-0.211,1.362-0.408,2.036-0.6
		c0.202-0.057,0.404-0.111,0.606-0.168c0.678-0.186,1.351-0.361,2.016-0.525c0.137-0.033,0.272-0.063,0.409-0.096
		c0.598-0.143,1.189-0.275,1.775-0.398c0.149-0.029,0.3-0.063,0.449-0.094c0.656-0.133,1.303-0.25,1.942-0.357
		c0.159-0.027,0.316-0.051,0.474-0.076c0.656-0.104,1.305-0.195,1.941-0.27c0.051-0.006,0.101-0.01,0.151-0.016
		c0.61-0.068,1.208-0.119,1.798-0.16c0.124-0.008,0.25-0.018,0.373-0.025c0.607-0.035,1.203-0.055,1.787-0.055
		c0.043,0,0.091-0.006,0.135-0.006c0.077,0,0.15,0.006,0.227,0.008c0.446,0.002,0.886,0.016,1.317,0.039
		c0.1,0.006,0.201,0.01,0.299,0.016c0.508,0.033,1.006,0.082,1.492,0.146c0.092,0.012,0.183,0.027,0.275,0.041
		c0.411,0.059,0.814,0.131,1.207,0.211c0.098,0.021,0.198,0.041,0.295,0.063c0.457,0.104,0.901,0.219,1.332,0.355
		c0.065,0.02,0.126,0.045,0.191,0.064c0.37,0.123,0.728,0.258,1.077,0.404c0.095,0.041,0.191,0.08,0.286,0.123
		c0.394,0.176,0.776,0.365,1.14,0.576c0.039,0.023,0.075,0.049,0.113,0.072c0.325,0.193,0.635,0.402,0.935,0.625
		c0.087,0.064,0.174,0.129,0.258,0.197c0.325,0.256,0.641,0.523,0.934,0.816l0.625,0.625L577.66,488.361
		c-0.271,0.002-0.531,0.014-0.804,0.014c-7.974,0-16.554-0.722-25.475-2.549c-0.643-0.132-1.289-0.271-1.937-0.414
		c-0.366-0.082-0.733-0.167-1.102-0.252c-0.41-0.095-0.822-0.193-1.234-0.293c-0.359-0.087-0.72-0.174-1.081-0.265
		c-0.671-0.169-1.345-0.346-2.02-0.528c-0.343-0.093-0.687-0.19-1.03-0.288c-0.443-0.124-0.888-0.251-1.332-0.381
		c-0.352-0.103-0.7-0.205-1.052-0.312c-0.696-0.21-1.393-0.427-2.091-0.652c-0.301-0.097-0.603-0.199-0.903-0.299
		c-0.496-0.165-0.993-0.332-1.49-0.504c-0.329-0.114-0.659-0.229-0.989-0.346c-0.657-0.234-1.314-0.474-1.972-0.721
		c-0.306-0.115-0.612-0.234-0.918-0.352c-0.564-0.218-1.13-0.44-1.696-0.668c-0.309-0.124-0.616-0.25-0.926-0.377
		c-0.627-0.259-1.255-0.524-1.883-0.796c-0.26-0.112-0.519-0.224-0.777-0.338c-0.673-0.296-1.346-0.601-2.019-0.913
		c-0.286-0.132-0.57-0.266-0.855-0.401c-0.623-0.294-1.247-0.596-1.871-0.904c-0.189-0.094-0.379-0.184-0.568-0.279
		c-0.775-0.388-1.553-0.79-2.329-1.199c-0.256-0.135-0.512-0.272-0.769-0.41c-0.629-0.337-1.259-0.682-1.888-1.034
		c-0.201-0.112-0.401-0.221-0.602-0.334c-0.79-0.447-1.58-0.908-2.37-1.378c-0.223-0.133-0.445-0.269-0.669-0.404
		c-0.645-0.39-1.289-0.787-1.934-1.191c-0.204-0.128-0.408-0.255-0.612-0.385c-0.801-0.509-1.6-1.031-2.399-1.566
		c-0.188-0.126-0.376-0.256-0.565-0.383c-0.663-0.449-1.325-0.906-1.988-1.373c-0.206-0.146-0.413-0.29-0.621-0.437
		c-0.808-0.575-1.614-1.163-2.42-1.764c-0.144-0.108-0.287-0.219-0.433-0.328c-0.691-0.521-1.382-1.053-2.071-1.593
		c-0.209-0.164-0.418-0.328-0.627-0.493c-0.811-0.643-1.62-1.297-2.429-1.968c-0.087-0.073-0.176-0.15-0.264-0.224
		c-0.731-0.611-1.463-1.237-2.191-1.872c-0.211-0.184-0.422-0.368-0.633-0.553c-0.811-0.714-1.62-1.438-2.427-2.182
		c0.143,7.968,0.862,15.356,2.187,22.107c4.038,20.589,18.407,35.196,24.631,39.042l-36.803,36.676
		c-20.444-11.018-55.495-52.078-33.572-158.948c0.358-1.747,0.73-3.484,1.11-5.216c0.113-0.517,0.231-1.03,0.346-1.544
		c0.275-1.234,0.554-2.464,0.839-3.688c0.13-0.558,0.262-1.112,0.394-1.667c0.288-1.212,0.579-2.419,0.875-3.622
		c0.125-0.504,0.249-1.008,0.375-1.511c0.328-1.313,0.662-2.619,0.999-3.918c0.068-0.262,0.133-0.527,0.201-0.788
		c0.001,0,0.001,0.001,0.002,0.001c4.429-16.938,9.579-32.682,14.434-46.044c14.991,7.044,31.39,11.502,48.591,12.852
		c-5.234,14.024-11.046,31.399-15.71,50.021c2.155,1.666,4.075,3.709,5.647,6.119c0.966,1.48,1.944,2.911,2.93,4.316
		c0.543,0.773,1.088,1.536,1.637,2.287c0.034,0.046,0.067,0.092,0.101,0.138c3.505,4.781,7.134,9.097,10.893,12.949
		c0.04,0.041,0.08,0.083,0.12,0.124c0.56,0.572,1.123,1.131,1.689,1.682c0.106,0.104,0.212,0.208,0.318,0.312
		c0.535,0.517,1.072,1.022,1.612,1.521c0.138,0.127,0.275,0.254,0.414,0.38c0.527,0.481,1.058,0.955,1.59,1.419
		c0.145,0.126,0.29,0.25,0.436,0.375c0.537,0.461,1.074,0.917,1.615,1.36c0.129,0.106,0.259,0.208,0.389,0.313
		c0.564,0.458,1.13,0.91,1.7,1.349c0.057,0.043,0.114,0.086,0.172,0.129c2.494,1.91,5.043,3.636,7.644,5.188
		c0.204,0.121,0.404,0.246,0.608,0.364c0.485,0.283,0.974,0.555,1.462,0.826c0.267,0.147,0.532,0.296,0.8,0.44
		c0.461,0.248,0.925,0.488,1.39,0.726c0.301,0.153,0.601,0.305,0.902,0.454c0.448,0.221,0.898,0.437,1.35,0.648
		c0.323,0.151,0.646,0.298,0.972,0.444c0.44,0.199,0.882,0.394,1.326,0.583c0.342,0.146,0.685,0.285,1.028,0.424
		c0.434,0.176,0.868,0.354,1.305,0.521c0.361,0.139,0.727,0.269,1.09,0.401c0.425,0.155,0.851,0.314,1.278,0.46
		c0.399,0.137,0.803,0.263,1.204,0.393c0.517,0.167,1.033,0.332,1.553,0.486c0.657,0.195,1.316,0.386,1.979,0.563
		c0.357,0.095,0.719,0.178,1.077,0.268c0.467,0.116,0.934,0.235,1.405,0.342c0.374,0.085,0.752,0.161,1.129,0.241
		c0.461,0.097,0.921,0.194,1.385,0.282c0.382,0.072,0.766,0.138,1.148,0.204c0.465,0.081,0.93,0.159,1.397,0.23
		c0.386,0.06,0.772,0.114,1.16,0.167c0.474,0.065,0.947,0.126,1.424,0.182c0.384,0.045,0.769,0.088,1.154,0.128
		c0.49,0.05,0.983,0.093,1.477,0.134c0.377,0.031,0.753,0.063,1.132,0.088c0.518,0.036,1.04,0.062,1.562,0.086
		c0.357,0.017,0.714,0.038,1.073,0.05c0.584,0.02,1.174,0.028,1.763,0.035c0.301,0.004,0.601,0.014,0.902,0.014
		c0.584,0.001,1.172-0.013,1.76-0.024c0.339-0.006,0.675-0.005,1.015-0.016c0.929-0.029,1.863-0.073,2.803-0.132
		c0.831-0.052,1.654-0.12,2.472-0.195c0.252-0.023,0.5-0.05,0.751-0.076c0.579-0.058,1.154-0.121,1.726-0.189
		c0.263-0.032,0.524-0.063,0.786-0.097c0.605-0.078,1.206-0.162,1.803-0.251c0.19-0.028,0.383-0.054,0.572-0.083
		c0.795-0.124,1.583-0.255,2.36-0.396c0.054-0.009,0.105-0.02,0.16-0.03c0.722-0.131,1.435-0.271,2.14-0.416
		c0.179-0.037,0.356-0.075,0.534-0.112c0.601-0.127,1.196-0.258,1.784-0.393c0.161-0.037,0.324-0.074,0.485-0.112
		c0.699-0.164,1.391-0.333,2.069-0.507c0.022-0.006,0.044-0.011,0.065-0.017c0.758-0.195,1.502-0.396,2.231-0.6
		c12.678-3.559,21.147-8.455,21.266-8.527c6.008-3.662,12.948-4.483,19.264-2.853l68.674-68.674l-0.626-0.626
		C696.315,339.626,727.082,285.489,740.574,271.997z M471.559,652.09l72.797-72.797c10.639-6.822,19.823-16.025,26.933-26.932
		l52.484-52.485h298.56c0,0-153.958,201.528-422.333,201.528c-13.229,0-26.175-0.496-38.843-1.428
		c0.349-0.756,0.694-1.512,1.029-2.266c4.919-11.051,8.054-21.047,9.319-29.705C472.403,661.859,472.302,656.592,471.559,652.09z
		 M315.711,668.047c-153.315-57.264-238.045-168.17-238.045-168.17h335.115c0.667,34.446,18.324,64.362,44.254,80.297
		l-28.683,28.682c-2.252-0.375-4.7-0.588-7.356-0.588c-16.238-0.002-35.384,8.119-48.587,14.934
		c-15.107,7.797-29.09,17.236-36.489,24.637L315.711,668.047z M513.103,78.143c1.125-0.133,2.247-0.247,3.368-0.348
		c0.356-0.032,0.712-0.056,1.068-0.085c0.769-0.063,1.537-0.122,2.303-0.169c0.417-0.026,0.833-0.046,1.249-0.068
		c0.706-0.037,1.411-0.069,2.115-0.093c0.436-0.015,0.872-0.027,1.307-0.038c0.689-0.017,1.379-0.025,2.065-0.03
		c0.463-0.003,0.925-0.007,1.385-0.005c0.423,0.002,0.844,0.008,1.266,0.015c0.562,0.009,1.121,0.02,1.682,0.036
		c0.416,0.012,0.831,0.027,1.246,0.043c0.566,0.022,1.133,0.049,1.699,0.08c0.404,0.021,0.808,0.045,1.211,0.07
		c0.576,0.037,1.15,0.079,1.724,0.124c0.392,0.031,0.782,0.062,1.173,0.096c0.591,0.052,1.18,0.11,1.769,0.171
		c0.369,0.038,0.739,0.075,1.106,0.117c0.619,0.07,1.236,0.147,1.853,0.227c0.336,0.043,0.672,0.083,1.007,0.129
		c0.669,0.092,1.336,0.193,2.002,0.296c0.279,0.043,0.561,0.083,0.841,0.127c0.798,0.129,1.594,0.269,2.389,0.414
		c0.143,0.026,0.287,0.049,0.431,0.076c1.912,0.357,3.812,0.759,5.694,1.206c0.124,0.029,0.247,0.063,0.371,0.092
		c0.802,0.193,1.602,0.392,2.398,0.601c0.229,0.061,0.458,0.125,0.688,0.188c0.688,0.185,1.374,0.373,2.058,0.57
		c0.273,0.079,0.545,0.162,0.817,0.242c0.639,0.19,1.275,0.381,1.911,0.581c0.29,0.091,0.579,0.186,0.87,0.28
		c0.613,0.198,1.227,0.4,1.837,0.608c0.296,0.1,0.591,0.203,0.885,0.307c0.604,0.21,1.206,0.425,1.805,0.645
		c0.294,0.108,0.587,0.217,0.88,0.328c0.597,0.225,1.192,0.454,1.786,0.688c0.288,0.114,0.576,0.228,0.863,0.344
		c0.599,0.242,1.196,0.489,1.791,0.74c0.274,0.116,0.548,0.23,0.821,0.349c0.613,0.264,1.223,0.535,1.831,0.81
		c0.249,0.111,0.498,0.222,0.745,0.336c0.647,0.296,1.289,0.601,1.93,0.909c0.204,0.098,0.41,0.194,0.614,0.293
		c0.72,0.352,1.436,0.711,2.147,1.077c0.12,0.062,0.242,0.121,0.362,0.183c2.55,1.318,5.05,2.725,7.494,4.218
		c0.056,0.034,0.109,0.069,0.166,0.103c0.74,0.455,1.478,0.917,2.208,1.387c0.161,0.103,0.319,0.209,0.479,0.313
		c0.623,0.405,1.244,0.814,1.861,1.231c0.205,0.139,0.408,0.281,0.612,0.42c0.568,0.389,1.134,0.782,1.695,1.18
		c0.224,0.159,0.446,0.321,0.669,0.481c0.538,0.388,1.074,0.78,1.606,1.176c0.23,0.172,0.46,0.346,0.688,0.52
		c0.52,0.393,1.036,0.79,1.549,1.191c0.233,0.183,0.465,0.366,0.696,0.55c0.507,0.402,1.01,0.809,1.51,1.219
		c0.227,0.187,0.454,0.374,0.681,0.563c0.502,0.418,0.999,0.841,1.494,1.268c0.217,0.187,0.435,0.373,0.65,0.562
		c0.505,0.441,1.005,0.888,1.502,1.337c0.198,0.179,0.397,0.356,0.595,0.537c0.524,0.479,1.042,0.966,1.558,1.456
		c0.163,0.155,0.328,0.307,0.49,0.462c0.579,0.555,1.15,1.117,1.718,1.683c0.095,0.095,0.191,0.187,0.285,0.282
		c2.011,2.02,3.953,4.112,5.819,6.274c0.111,0.129,0.22,0.261,0.33,0.39c0.498,0.581,0.992,1.166,1.479,1.756
		c0.166,0.201,0.328,0.404,0.491,0.606c0.426,0.524,0.85,1.049,1.268,1.581c0.189,0.242,0.376,0.486,0.564,0.729
		c0.385,0.499,0.77,1,1.147,1.505c0.198,0.266,0.395,0.533,0.591,0.799c0.36,0.49,0.718,0.982,1.071,1.479
		c0.201,0.282,0.4,0.565,0.599,0.85c0.342,0.489,0.68,0.979,1.015,1.474c0.199,0.292,0.396,0.586,0.592,0.881
		c0.328,0.495,0.653,0.992,0.974,1.491c0.193,0.298,0.384,0.596,0.573,0.896c0.319,0.506,0.634,1.016,0.945,1.527
		c0.182,0.298,0.364,0.596,0.545,0.896c0.313,0.524,0.62,1.052,0.926,1.581c0.169,0.292,0.339,0.583,0.507,0.878
		c0.313,0.555,0.621,1.115,0.928,1.676c0.148,0.272,0.3,0.543,0.446,0.818c0.332,0.619,0.654,1.243,0.976,1.868
		c0.113,0.221,0.23,0.439,0.343,0.662c0.863,1.709,1.688,3.443,2.474,5.202c0.08,0.181,0.156,0.364,0.236,0.546
		c0.304,0.691,0.605,1.384,0.897,2.083c0.123,0.296,0.24,0.595,0.362,0.892c0.24,0.589,0.479,1.178,0.711,1.772
		c0.135,0.344,0.264,0.691,0.395,1.037c0.209,0.551,0.417,1.102,0.618,1.657c0.136,0.374,0.267,0.75,0.398,1.126
		c0.188,0.534,0.372,1.068,0.553,1.605c0.131,0.391,0.259,0.784,0.386,1.177c0.17,0.528,0.34,1.056,0.503,1.587
		c0.125,0.404,0.246,0.809,0.366,1.214c0.156,0.527,0.311,1.056,0.46,1.585c0.115,0.411,0.229,0.822,0.341,1.234
		c0.145,0.534,0.285,1.07,0.422,1.607c0.106,0.412,0.211,0.825,0.313,1.239c0.132,0.543,0.26,1.089,0.385,1.636
		c0.096,0.412,0.19,0.824,0.281,1.238c0.122,0.559,0.237,1.121,0.353,1.684c0.083,0.405,0.167,0.809,0.246,1.216
		c0.113,0.589,0.219,1.181,0.324,1.773c0.067,0.384,0.141,0.767,0.205,1.152c0.11,0.655,0.21,1.314,0.31,1.973
		c0.05,0.327,0.104,0.651,0.151,0.979c0.141,0.987,0.271,1.979,0.39,2.976c7.809,66.076-39.427,125.972-105.503,133.78
		c-1.125,0.133-2.247,0.246-3.368,0.348c-0.358,0.032-0.717,0.057-1.074,0.086c-0.765,0.063-1.529,0.121-2.292,0.168
		c-0.423,0.026-0.844,0.047-1.266,0.069c-0.7,0.037-1.399,0.068-2.098,0.093c-0.439,0.015-0.878,0.028-1.315,0.038
		c-0.691,0.017-1.38,0.026-2.068,0.031c-0.459,0.002-0.917,0.007-1.375,0.005c-0.428-0.002-0.855-0.008-1.283-0.015
		c-0.552-0.008-1.104-0.02-1.654-0.035c-0.429-0.013-0.856-0.028-1.284-0.045c-0.549-0.021-1.096-0.047-1.644-0.076
		c-0.426-0.023-0.851-0.047-1.275-0.075c-0.549-0.035-1.096-0.075-1.642-0.118c-0.42-0.033-0.84-0.066-1.259-0.103
		c-0.552-0.049-1.104-0.104-1.655-0.161c-0.409-0.042-0.817-0.083-1.225-0.129c-0.564-0.063-1.126-0.135-1.688-0.207
		c-0.391-0.05-0.782-0.097-1.172-0.15c-0.594-0.082-1.185-0.172-1.775-0.262c-0.354-0.055-0.711-0.105-1.065-0.163
		c-0.669-0.108-1.333-0.227-1.998-0.346c-0.274-0.049-0.55-0.094-0.823-0.145c-1.883-0.352-3.753-0.748-5.608-1.188
		c-0.257-0.061-0.512-0.128-0.769-0.191c-0.666-0.162-1.33-0.325-1.992-0.499c-0.324-0.085-0.645-0.176-0.968-0.263
		c-0.593-0.161-1.186-0.322-1.774-0.492c-0.349-0.1-0.695-0.206-1.042-0.309c-0.56-0.167-1.119-0.334-1.675-0.509
		c-0.359-0.112-0.715-0.229-1.072-0.345c-0.544-0.176-1.087-0.354-1.629-0.539c-0.357-0.122-0.714-0.246-1.07-0.371
		c-0.537-0.188-1.073-0.379-1.606-0.574c-0.355-0.13-0.709-0.262-1.063-0.396c-0.532-0.201-1.063-0.405-1.592-0.613
		c-0.348-0.137-0.696-0.275-1.043-0.415c-0.533-0.216-1.064-0.437-1.593-0.659c-0.336-0.142-0.673-0.283-1.008-0.428
		c-0.542-0.234-1.082-0.474-1.62-0.716c-0.316-0.142-0.633-0.283-0.949-0.428c-0.563-0.26-1.125-0.526-1.684-0.793
		c-0.285-0.136-0.57-0.27-0.854-0.409c-0.612-0.298-1.219-0.605-1.825-0.914c-0.226-0.115-0.455-0.227-0.68-0.344
		c-0.744-0.385-1.483-0.779-2.219-1.179c-0.085-0.047-0.171-0.091-0.256-0.137c-1.666-0.912-3.309-1.863-4.928-2.851
		c-0.161-0.098-0.318-0.2-0.479-0.298c-0.635-0.392-1.268-0.786-1.895-1.189c-0.23-0.148-0.458-0.3-0.687-0.45
		c-0.554-0.361-1.106-0.724-1.653-1.093c-0.256-0.173-0.51-0.35-0.765-0.525c-0.516-0.354-1.031-0.71-1.541-1.073
		c-0.268-0.19-0.534-0.383-0.8-0.576c-0.491-0.354-0.981-0.712-1.467-1.074c-0.272-0.203-0.543-0.408-0.814-0.613
		c-0.476-0.361-0.951-0.726-1.421-1.094c-0.27-0.211-0.539-0.423-0.807-0.637c-0.467-0.372-0.931-0.747-1.393-1.126
		c-0.263-0.215-0.525-0.432-0.787-0.649c-0.465-0.388-0.926-0.781-1.385-1.175c-0.25-0.215-0.5-0.429-0.749-0.646
		c-0.47-0.411-0.935-0.827-1.398-1.245c-0.23-0.208-0.462-0.414-0.69-0.623c-0.487-0.446-0.968-0.898-1.447-1.352
		c-0.199-0.188-0.4-0.374-0.597-0.563c-0.531-0.509-1.055-1.026-1.577-1.545c-0.14-0.14-0.283-0.277-0.422-0.417
		c-2-2.009-3.93-4.09-5.787-6.239c-0.141-0.164-0.279-0.331-0.419-0.495c-0.467-0.546-0.932-1.095-1.389-1.649
		c-0.186-0.225-0.367-0.454-0.551-0.681c-0.407-0.5-0.812-1.002-1.21-1.51c-0.202-0.257-0.4-0.518-0.601-0.776
		c-0.373-0.483-0.744-0.967-1.11-1.457c-0.209-0.279-0.416-0.561-0.623-0.842c-0.35-0.477-0.699-0.955-1.042-1.438
		c-0.208-0.292-0.415-0.585-0.62-0.879c-0.335-0.479-0.667-0.961-0.996-1.445c-0.204-0.301-0.407-0.604-0.608-0.906
		c-0.322-0.485-0.641-0.972-0.956-1.462c-0.198-0.308-0.396-0.615-0.591-0.924c-0.312-0.495-0.62-0.994-0.925-1.494
		c-0.188-0.309-0.377-0.615-0.563-0.926c-0.307-0.514-0.608-1.032-0.909-1.551c-0.174-0.301-0.351-0.602-0.522-0.905
		c-0.309-0.544-0.61-1.094-0.91-1.645c-0.155-0.283-0.312-0.563-0.464-0.847c-0.329-0.616-0.651-1.237-0.97-1.859
		c-0.114-0.222-0.231-0.441-0.344-0.665c-0.863-1.71-1.688-3.444-2.473-5.203c-0.082-0.183-0.159-0.369-0.239-0.552
		c-0.304-0.689-0.604-1.38-0.895-2.076c-0.125-0.3-0.244-0.603-0.367-0.904c-0.238-0.584-0.476-1.169-0.706-1.758
		c-0.136-0.349-0.266-0.701-0.399-1.051c-0.208-0.546-0.414-1.094-0.614-1.645c-0.136-0.375-0.267-0.753-0.399-1.13
		c-0.187-0.533-0.373-1.067-0.553-1.603c-0.13-0.39-0.257-0.783-0.385-1.175c-0.171-0.53-0.34-1.061-0.505-1.594
		c-0.124-0.4-0.244-0.802-0.364-1.204c-0.157-0.531-0.312-1.063-0.462-1.597c-0.115-0.408-0.229-0.818-0.34-1.228
		c-0.144-0.534-0.284-1.071-0.421-1.608c-0.106-0.412-0.21-0.825-0.313-1.24c-0.133-0.543-0.26-1.09-0.386-1.637
		c-0.094-0.411-0.19-0.823-0.28-1.236c-0.123-0.559-0.238-1.122-0.352-1.684c-0.083-0.405-0.168-0.809-0.247-1.216
		c-0.114-0.588-0.219-1.18-0.324-1.771c-0.069-0.385-0.141-0.768-0.206-1.154c-0.11-0.655-0.209-1.314-0.309-1.973
		c-0.05-0.327-0.104-0.651-0.151-0.978c-0.141-0.988-0.272-1.98-0.39-2.977C399.79,145.846,447.026,85.951,513.103,78.143z
		 M499.998,964.908C243.239,964.908,35.093,756.762,35.093,500c0-44.213,6.172-86.985,17.701-127.501
		c0,0,149.772-100.752,381.2-8.994c-2.234,8.332-4.311,16.958-6.115,25.75c-6.934,33.803-8.976,64-6.145,90.248h-8.954H77.666
		H36.461l25.015,32.744c1.649,2.158,41.258,53.488,115.039,105.09c39.081,27.334,80.544,49.643,123.436,66.471l-31.456,31.457
		c-21.415,21.416-20.666,57.008,1.668,79.344l15.661,15.658c10.985,10.986,26.002,17.287,41.202,17.287
		c14.524,0,28.069-5.547,38.14-15.617l67.426-67.426c0.322-0.322,0.647-0.658,0.976-1.002c0.107-0.113,0.215-0.23,0.322-0.346
		c0.225-0.24,0.451-0.484,0.68-0.734c0.124-0.137,0.249-0.275,0.373-0.414c0.218-0.244,0.436-0.49,0.656-0.742
		c0.126-0.145,0.252-0.289,0.379-0.438c0.235-0.273,0.471-0.553,0.709-0.836c0.108-0.129,0.216-0.256,0.325-0.387
		c0.329-0.396,0.659-0.801,0.991-1.213c0.018-0.021,0.035-0.043,0.053-0.064c0.359-0.447,0.719-0.906,1.081-1.371
		c0.083-0.105,0.166-0.217,0.249-0.324c0.276-0.357,0.553-0.719,0.83-1.088c0.109-0.146,0.219-0.293,0.329-0.439
		c0.26-0.348,0.52-0.699,0.781-1.055c0.107-0.146,0.214-0.293,0.321-0.441c0.279-0.385,0.56-0.775,0.84-1.168
		c0.085-0.119,0.169-0.238,0.255-0.359c0.75-1.059,1.501-2.148,2.254-3.27c0.024-0.035,0.048-0.072,0.072-0.109
		c0.345-0.514,0.689-1.031,1.033-1.557c0.078-0.119,0.155-0.238,0.232-0.355c0.296-0.455,0.593-0.914,0.889-1.375
		c0.086-0.135,0.171-0.268,0.257-0.402c0.301-0.473,0.602-0.949,0.902-1.43c0.069-0.111,0.139-0.221,0.208-0.332
		c0.754-1.211,1.503-2.443,2.247-3.693c16.305,1.471,32.703,2.215,49.167,2.215c63.588,0,126.217-11.004,186.147-32.707
		c47.84-17.324,94.047-41.459,137.337-71.736c73.78-51.602,113.389-102.932,115.039-105.09l25.015-32.744h-41.205H668.645
		c7.956-8.02,12.501-18.64,13.086-29.612c156.087,16.797,273.576-44.344,273.576-44.344c6.294,30.499,9.601,62.09,9.601,94.454
		C964.907,756.762,756.761,964.908,499.998,964.908z"/>
	<path d="M582.577,757.799c-27.575,0-50.01,22.434-50.01,50.01c0,27.574,22.435,50.01,50.01,50.01s50.011-22.436,50.011-50.01
		C632.588,780.232,610.152,757.799,582.577,757.799z M582.577,843.926c-19.915,0-36.118-16.201-36.118-36.117
		s16.203-36.119,36.118-36.119c19.916,0,36.118,16.203,36.118,36.119S602.493,843.926,582.577,843.926z"/>
	<path d="M714.085,706.861c-15.319,0-27.783,12.465-27.783,27.783c0,15.32,12.464,27.785,27.783,27.785
		c15.32,0,27.783-12.465,27.783-27.785C741.868,719.326,729.405,706.861,714.085,706.861z M714.085,748.537
		c-7.66,0-13.892-6.23-13.892-13.893c0-7.66,6.231-13.891,13.892-13.891s13.892,6.23,13.892,13.891
		C727.977,742.307,721.745,748.537,714.085,748.537z"/>
	<path d="M693.942,800.863c-10.852,0-19.68,8.828-19.68,19.68c0,10.85,8.828,19.68,19.68,19.68c10.851,0,19.68-8.83,19.68-19.68
		C713.622,809.691,704.793,800.863,693.942,800.863z M693.942,826.33c-3.191,0-5.788-2.596-5.788-5.787
		c0-3.193,2.597-5.789,5.788-5.789s5.788,2.596,5.788,5.789C699.73,823.734,697.134,826.33,693.942,826.33z"/>
	<path d="M204.51,655c-18.128,0-32.877,14.748-32.877,32.877s14.749,32.877,32.877,32.877s32.877-14.748,32.877-32.877
		S222.639,655,204.51,655z M204.51,706.861c-10.468,0-18.985-8.516-18.985-18.984s8.517-18.984,18.985-18.984
		s18.985,8.516,18.985,18.984S214.979,706.861,204.51,706.861z"/>
	<path d="M213.522,790.213c-11.49,0-20.837,9.348-20.837,20.836c0,11.49,9.348,20.838,20.837,20.838
		c11.49,0,20.838-9.348,20.838-20.838C234.36,799.561,225.013,790.213,213.522,790.213z M213.522,817.996
		c-3.83,0-6.946-3.117-6.946-6.947s3.116-6.945,6.946-6.945s6.946,3.115,6.946,6.945S217.353,817.996,213.522,817.996z"/>
</g>
</svg>
