<?xml version="1.0" encoding="utf-8"?>
<!-- Generator: Adobe Illustrator 16.0.0, SVG Export Plug-In . SVG Version: 6.00 Build 0)  -->
<!DOCTYPE svg PUBLIC "-//W3C//DTD SVG 1.1//EN" "http://www.w3.org/Graphics/SVG/1.1/DTD/svg11.dtd">
<svg version="1.1" id="Layer_1" xmlns="http://www.w3.org/2000/svg" xmlns:xlink="http://www.w3.org/1999/xlink" x="0px" y="0px"
	 width="1000px" height="1000px" viewBox="0 0 1000 1000" enable-background="new 0 0 1000 1000" xml:space="preserve">
<g>
	<path d="M364.594,783.969c-10.213,0-18.522,8.309-18.522,18.522c0,10.213,8.309,18.521,18.522,18.521s18.522-8.309,18.522-18.521
		C383.117,792.277,374.807,783.969,364.594,783.969z"/>
	<path d="M261.951,566.061c-27.22,0-49.366,22.146-49.366,49.366c0,27.22,22.146,49.365,49.366,49.365s49.366-22.146,49.366-49.365
		C311.317,588.206,289.171,566.061,261.951,566.061z"/>
	<path d="M570.541,422.816c6.128,0,11.113-4.985,11.113-11.113s-4.985-11.113-11.113-11.113c-6.129,0-11.113,4.985-11.113,11.113
		S564.412,422.816,570.541,422.816z"/>
	<path d="M159.622,652.388c-12.6,0-22.851,10.251-22.851,22.852s10.251,22.851,22.851,22.851c12.6,0,22.851-10.25,22.851-22.851
		S172.222,652.388,159.622,652.388z"/>
	<path d="M744.444,373.9c9.812,0,17.794-7.983,17.794-17.795s-7.982-17.794-17.794-17.794s-17.794,7.982-17.794,17.794
		S734.633,373.9,744.444,373.9z"/>
	<path d="M768.583,306.505c5.22,0,9.466-4.246,9.466-9.466s-4.246-9.466-9.466-9.466s-9.466,4.246-9.466,9.466
		S763.363,306.505,768.583,306.505z"/>
	<path d="M678.873,208.491c21.958,0,39.823-17.864,39.823-39.823c0-21.958-17.865-39.822-39.823-39.822
		s-39.822,17.864-39.822,39.822C639.051,190.627,656.915,208.491,678.873,208.491z"/>
	<path d="M500,0C223.857,0,0,223.857,0,500.001C0,776.143,223.857,1000,500,1000c276.144,0,500-223.857,500-499.999
		C1000,223.857,776.144,0,500,0z M768.583,280.164c9.306,0,16.875,7.57,16.875,16.875s-7.569,16.875-16.875,16.875
		c-9.305,0-16.874-7.57-16.874-16.875S759.278,280.164,768.583,280.164z M744.444,330.902c13.897,0,25.203,11.306,25.203,25.203
		s-11.306,25.203-25.203,25.203s-25.203-11.306-25.203-25.203S730.547,330.902,744.444,330.902z M678.873,121.437
		c26.043,0,47.231,21.188,47.231,47.231c0,26.044-21.188,47.232-47.231,47.232s-47.231-21.188-47.231-47.232
		C631.642,142.625,652.83,121.437,678.873,121.437z M570.541,393.181c10.213,0,18.522,8.31,18.522,18.522
		s-8.31,18.522-18.522,18.522c-10.214,0-18.522-8.31-18.522-18.522S560.327,393.181,570.541,393.181z M159.622,705.499
		c-16.685,0-30.259-13.574-30.259-30.26s13.574-30.261,30.259-30.261c16.686,0,30.26,13.575,30.26,30.261
		S176.307,705.499,159.622,705.499z M261.951,672.2c-31.306,0-56.774-25.469-56.774-56.773c0-31.307,25.469-56.775,56.774-56.775
		c31.306,0,56.775,25.469,56.775,56.775C318.726,646.731,293.257,672.2,261.951,672.2z M364.594,828.422
		c-14.298,0-25.931-11.633-25.931-25.931c0-14.299,11.633-25.932,25.931-25.932c14.299,0,25.931,11.633,25.931,25.932
		C390.525,816.789,378.893,828.422,364.594,828.422z M539.93,762.278c-4.898,6.679-12.491,10.219-20.184,10.219
		c-5.134,0-10.312-1.574-14.769-4.843c-1.365-1.002-33.698-25.027-55.508-68.32c-20-39.701-34.989-103.498,5.783-183.277
		c-5.422-11.473-9.721-23.201-13.784-34.292c-15.143-41.341-23.74-57.825-50.872-59.693c-7.217,1.346-14.334,2.281-21.341,2.798
		c-5.738,3.346-8.954,9.815-14.497,20.998c-9.43,19.023-22.345,45.076-59.225,57.501c-27.986,9.427-58.146,4.378-84.925-14.218
		c-29.198-20.274-49.433-53.206-50.352-81.944c-0.44-13.804,10.391-25.351,24.193-25.792c13.787-0.429,25.35,10.391,25.792,24.193
		c0.352,11.02,11.498,30.388,28.891,42.465c9.522,6.612,24.266,13.35,40.436,7.903c16.475-5.551,21.749-14.899,30.384-32.319
		c0.709-1.432,1.444-2.913,2.212-4.429c-6.667-1.936-13.192-4.322-19.562-7.173c-24.249-10.852-45.91-28.18-64.381-51.506
		c-30.329-38.298-41.793-80.146-42.266-81.908c-3.581-13.338,4.329-27.053,17.667-30.633c13.316-3.575,27.008,4.303,30.615,17.603
		c0.095,0.345,9.73,34.799,34.061,64.982c24.63,30.557,55.247,45.506,91.243,44.658c8.28-2.383,17.975-3.637,29.398-3.314
		c0.01,0,0.021,0.001,0.03,0.001c0.253,0.008,0.5,0.011,0.755,0.019c0.029,0.001,0.057,0.003,0.086,0.005
		c0.199,0.007,0.397,0.015,0.595,0.026c28.962,1.155,52.22,12.527,69.129,33.82c13.684,17.231,21.416,38.342,28.894,58.757
		c7.518,20.524,14.67,39.989,26.771,53.304c-0.941,1.146-1.872,2.302-2.78,3.48c-9.81,12.722-17.244,26.751-22.179,41.555
		c-0.253-0.204-0.498-0.419-0.749-0.624c-14.83,40.497-13.306,78.928,4.642,114.555c16.204,32.165,40.184,50.318,40.422,50.493
		C545.689,735.493,548.097,751.143,539.93,762.278z M639.399,726.836c-1.191,0.153-2.38,0.284-3.568,0.403
		c-0.373,0.037-0.745,0.067-1.118,0.101c-0.832,0.075-1.663,0.144-2.493,0.201c-0.41,0.028-0.819,0.056-1.229,0.08
		c-0.855,0.051-1.708,0.091-2.561,0.123c-0.338,0.013-0.677,0.031-1.015,0.041c-1.165,0.034-2.327,0.055-3.485,0.057
		c-1.953,0.001-3.896-0.044-5.831-0.135c-0.265-0.013-0.528-0.032-0.793-0.047c-0.702-0.038-1.402-0.077-2.102-0.128
		c-0.341-0.024-0.681-0.056-1.021-0.083c-0.62-0.049-1.24-0.1-1.858-0.159c-0.373-0.036-0.744-0.077-1.116-0.116
		c-0.583-0.063-1.167-0.125-1.748-0.195c-0.386-0.046-0.771-0.097-1.156-0.147c-0.565-0.073-1.131-0.149-1.695-0.231
		c-0.39-0.057-0.779-0.116-1.169-0.177c-0.557-0.086-1.113-0.176-1.669-0.271c-0.388-0.065-0.776-0.133-1.164-0.202
		c-0.557-0.101-1.111-0.205-1.666-0.313c-0.38-0.073-0.761-0.148-1.14-0.226c-0.563-0.116-1.125-0.237-1.686-0.36
		c-0.365-0.079-0.73-0.159-1.096-0.242c-0.578-0.133-1.155-0.272-1.731-0.414c-0.343-0.084-0.687-0.166-1.029-0.253
		c-0.618-0.157-1.232-0.323-1.848-0.49c-0.294-0.08-0.591-0.156-0.884-0.239c-0.749-0.209-1.493-0.429-2.235-0.651
		c-0.157-0.048-0.315-0.091-0.473-0.139c-0.914-0.279-1.825-0.569-2.731-0.87c-0.066-0.021-0.133-0.046-0.199-0.068
		c-0.824-0.275-1.644-0.558-2.459-0.85c-0.259-0.093-0.515-0.19-0.772-0.285c-0.623-0.228-1.246-0.457-1.866-0.695
		c-0.308-0.118-0.612-0.242-0.918-0.362c-0.565-0.223-1.129-0.447-1.69-0.678c-0.33-0.136-0.658-0.276-0.987-0.415
		c-0.533-0.226-1.065-0.452-1.596-0.685c-0.338-0.148-0.675-0.301-1.012-0.452c-0.519-0.233-1.035-0.47-1.551-0.71
		c-0.337-0.157-0.672-0.317-1.008-0.478c-0.511-0.245-1.021-0.493-1.527-0.745c-0.333-0.165-0.665-0.331-0.996-0.499
		c-0.508-0.258-1.015-0.521-1.52-0.786c-0.32-0.17-0.643-0.338-0.963-0.51c-0.516-0.277-1.028-0.561-1.54-0.845
		c-0.303-0.169-0.607-0.335-0.908-0.506c-0.535-0.304-1.067-0.615-1.598-0.928c-0.271-0.159-0.544-0.316-0.814-0.478
		c-0.592-0.354-1.177-0.715-1.762-1.078c-0.204-0.128-0.411-0.252-0.615-0.38c-1.589-1.002-3.154-2.039-4.694-3.112
		c-0.139-0.097-0.275-0.196-0.412-0.294c-0.622-0.437-1.24-0.877-1.853-1.325c-0.235-0.173-0.468-0.349-0.702-0.522
		c-0.512-0.381-1.022-0.763-1.528-1.15c-0.265-0.204-0.527-0.411-0.79-0.617c-0.47-0.366-0.938-0.734-1.402-1.107
		c-0.276-0.223-0.551-0.449-0.825-0.674c-0.446-0.365-0.89-0.731-1.33-1.104c-0.279-0.235-0.556-0.473-0.834-0.711
		c-0.43-0.37-0.858-0.742-1.284-1.119c-0.275-0.244-0.551-0.489-0.824-0.735c-0.422-0.38-0.842-0.764-1.258-1.15
		c-0.27-0.248-0.538-0.497-0.804-0.748c-0.419-0.396-0.833-0.795-1.246-1.195c-0.255-0.248-0.511-0.494-0.765-0.745
		c-0.424-0.418-0.842-0.841-1.26-1.266c-0.235-0.241-0.475-0.479-0.709-0.723c-0.438-0.452-0.869-0.912-1.3-1.371
		c-0.207-0.221-0.416-0.439-0.621-0.661c-0.498-0.54-0.989-1.088-1.479-1.637c-0.13-0.146-0.263-0.29-0.393-0.437
		c-1.241-1.411-2.452-2.851-3.629-4.32c-0.16-0.2-0.316-0.403-0.476-0.605c-0.419-0.53-0.838-1.063-1.249-1.602
		c-0.199-0.261-0.396-0.528-0.594-0.791c-0.362-0.484-0.726-0.969-1.082-1.459c-0.212-0.292-0.42-0.587-0.63-0.881
		c-0.335-0.469-0.668-0.938-0.996-1.413c-0.215-0.31-0.427-0.623-0.639-0.935c-0.315-0.466-0.629-0.933-0.938-1.403
		c-0.212-0.32-0.422-0.645-0.631-0.968c-0.302-0.47-0.6-0.941-0.896-1.414c-0.205-0.329-0.41-0.659-0.611-0.99
		c-0.292-0.478-0.581-0.959-0.866-1.44c-0.196-0.331-0.392-0.661-0.584-0.994c-0.286-0.493-0.566-0.99-0.846-1.488
		c-0.184-0.328-0.369-0.655-0.55-0.985c-0.282-0.516-0.558-1.035-0.833-1.556c-0.167-0.317-0.337-0.633-0.503-0.952
		c-0.291-0.563-0.574-1.131-0.857-1.698c-0.139-0.281-0.283-0.561-0.421-0.844c-0.346-0.709-0.683-1.425-1.015-2.142
		c-0.067-0.146-0.138-0.289-0.205-0.435c-0.398-0.871-0.788-1.748-1.167-2.631c-0.083-0.193-0.161-0.39-0.243-0.583
		c-0.289-0.685-0.575-1.369-0.854-2.06c-0.126-0.314-0.246-0.634-0.37-0.95c-0.226-0.575-0.45-1.149-0.667-1.729
		c-0.135-0.359-0.263-0.722-0.395-1.083c-0.196-0.541-0.393-1.083-0.581-1.629c-0.132-0.383-0.261-0.769-0.39-1.153
		c-0.179-0.531-0.354-1.063-0.525-1.597c-0.127-0.397-0.25-0.795-0.373-1.192c-0.163-0.529-0.323-1.06-0.479-1.592
		c-0.118-0.404-0.235-0.81-0.349-1.217c-0.151-0.533-0.298-1.069-0.44-1.605c-0.109-0.408-0.218-0.817-0.322-1.228
		c-0.139-0.541-0.272-1.086-0.403-1.631c-0.099-0.409-0.197-0.818-0.292-1.228c-0.129-0.559-0.25-1.12-0.37-1.681
		c-0.087-0.401-0.175-0.801-0.257-1.203c-0.12-0.587-0.231-1.178-0.344-1.769c-0.072-0.382-0.147-0.762-0.216-1.145
		c-0.118-0.655-0.225-1.313-0.331-1.973c-0.053-0.321-0.109-0.641-0.159-0.964c-0.152-0.982-0.293-1.971-0.422-2.963
		c-2.305-17.83-0.578-35.25,4.46-51.352c0.02-0.064,0.042-0.129,0.062-0.193c0.291-0.927,0.593-1.847,0.907-2.765
		c0.032-0.097,0.066-0.193,0.1-0.289c0.307-0.889,0.623-1.774,0.949-2.654c0.039-0.105,0.078-0.211,0.117-0.315
		c0.33-0.881,0.67-1.758,1.02-2.629c0.036-0.092,0.072-0.183,0.109-0.274c0.364-0.899,0.737-1.793,1.121-2.681
		c0.025-0.057,0.05-0.115,0.074-0.172c4.175-9.615,9.578-18.622,16.038-26.8c0.005-0.005,0.009-0.01,0.013-0.016
		c18.818-23.813,46.589-40.585,79.067-44.783c1.191-0.153,2.38-0.284,3.567-0.402c0.374-0.037,0.746-0.068,1.119-0.102
		c0.834-0.075,1.667-0.144,2.499-0.201c0.405-0.028,0.811-0.055,1.215-0.079c0.866-0.052,1.731-0.092,2.594-0.125
		c0.326-0.013,0.653-0.029,0.978-0.04c1.174-0.034,2.344-0.055,3.511-0.056c1.945-0.002,3.882,0.043,5.811,0.135
		c0.285,0.013,0.569,0.034,0.854,0.049c0.681,0.037,1.36,0.076,2.038,0.124c0.355,0.025,0.71,0.059,1.064,0.087
		c0.605,0.049,1.213,0.098,1.815,0.156c0.38,0.036,0.758,0.078,1.137,0.118c0.578,0.062,1.156,0.123,1.732,0.193
		c0.388,0.046,0.774,0.098,1.16,0.147c0.566,0.074,1.133,0.15,1.696,0.231c0.389,0.057,0.775,0.116,1.162,0.176
		c0.562,0.087,1.121,0.178,1.68,0.272c0.385,0.065,0.77,0.132,1.152,0.201c0.562,0.101,1.121,0.206,1.68,0.314
		c0.375,0.073,0.751,0.146,1.125,0.223c0.571,0.117,1.141,0.24,1.709,0.364c0.356,0.079,0.715,0.156,1.07,0.237
		c0.593,0.136,1.182,0.279,1.771,0.424c0.328,0.081,0.658,0.159,0.986,0.243c0.637,0.161,1.27,0.332,1.902,0.504
		c0.277,0.076,0.557,0.147,0.833,0.225c0.778,0.219,1.554,0.446,2.326,0.679c0.127,0.038,0.254,0.074,0.381,0.112
		c0.922,0.281,1.84,0.573,2.752,0.876c0.01,0.004,0.021,0.008,0.031,0.011c0.88,0.293,1.756,0.596,2.628,0.908
		c0.232,0.083,0.462,0.171,0.693,0.256c0.65,0.237,1.299,0.477,1.944,0.726c0.29,0.111,0.578,0.228,0.868,0.342
		c0.582,0.229,1.163,0.46,1.741,0.698c0.315,0.129,0.628,0.264,0.94,0.396c0.552,0.232,1.102,0.467,1.649,0.707
		c0.321,0.142,0.643,0.287,0.964,0.431c0.534,0.241,1.068,0.484,1.599,0.732c0.323,0.151,0.645,0.305,0.966,0.458
		c0.526,0.252,1.051,0.508,1.575,0.768c0.317,0.157,0.634,0.316,0.949,0.476c0.526,0.268,1.05,0.539,1.572,0.814
		c0.305,0.16,0.61,0.32,0.914,0.482c0.533,0.287,1.064,0.58,1.594,0.875c0.286,0.159,0.573,0.316,0.858,0.479
		c0.555,0.315,1.106,0.637,1.657,0.961c0.252,0.148,0.506,0.295,0.757,0.444c0.62,0.371,1.235,0.751,1.849,1.133
		c0.176,0.109,0.354,0.215,0.528,0.325c1.597,1.006,3.17,2.049,4.718,3.128c0.103,0.072,0.205,0.146,0.309,0.22
		c0.656,0.461,1.311,0.927,1.958,1.4c0.212,0.156,0.422,0.316,0.635,0.474c0.534,0.396,1.067,0.795,1.594,1.2
		c0.251,0.191,0.498,0.388,0.747,0.582c0.484,0.377,0.968,0.758,1.446,1.143c0.265,0.213,0.525,0.429,0.788,0.644
		c0.458,0.376,0.916,0.753,1.369,1.136c0.268,0.227,0.534,0.455,0.802,0.684c0.44,0.379,0.879,0.761,1.314,1.146
		c0.268,0.237,0.535,0.476,0.801,0.714c0.431,0.389,0.858,0.78,1.284,1.174c0.26,0.241,0.519,0.482,0.777,0.726
		c0.428,0.403,0.853,0.812,1.274,1.222c0.247,0.24,0.495,0.479,0.74,0.721c0.432,0.428,0.859,0.859,1.286,1.293
		c0.228,0.232,0.456,0.463,0.683,0.695c0.449,0.466,0.894,0.938,1.336,1.41c0.195,0.208,0.393,0.414,0.586,0.623
		c0.516,0.559,1.022,1.124,1.528,1.691c0.114,0.129,0.23,0.255,0.345,0.384c1.244,1.413,2.457,2.856,3.638,4.331
		c0.15,0.188,0.297,0.38,0.447,0.569c0.429,0.542,0.856,1.087,1.276,1.636c0.194,0.255,0.384,0.514,0.577,0.77
		c0.369,0.492,0.737,0.984,1.099,1.482c0.208,0.285,0.411,0.574,0.617,0.861c0.34,0.477,0.677,0.953,1.01,1.434
		c0.211,0.304,0.419,0.61,0.627,0.917c0.319,0.471,0.636,0.943,0.948,1.419c0.21,0.318,0.417,0.639,0.623,0.959
		c0.305,0.472,0.605,0.945,0.903,1.422c0.204,0.327,0.406,0.654,0.607,0.983c0.293,0.479,0.582,0.961,0.868,1.444
		c0.195,0.332,0.392,0.662,0.584,0.994c0.286,0.494,0.567,0.992,0.847,1.492c0.183,0.325,0.366,0.649,0.546,0.977
		c0.284,0.521,0.563,1.045,0.841,1.57c0.165,0.313,0.334,0.625,0.496,0.939c0.293,0.566,0.578,1.138,0.863,1.711
		c0.138,0.277,0.279,0.553,0.415,0.832c0.35,0.717,0.69,1.439,1.026,2.165c0.063,0.138,0.13,0.272,0.193,0.411
		c0.4,0.871,0.789,1.748,1.169,2.632c0.082,0.192,0.161,0.389,0.242,0.583c0.29,0.685,0.577,1.371,0.854,2.062
		c0.125,0.313,0.244,0.627,0.366,0.939c0.227,0.578,0.453,1.157,0.671,1.739c0.134,0.358,0.262,0.719,0.392,1.077
		c0.197,0.544,0.394,1.087,0.584,1.636c0.133,0.382,0.261,0.767,0.39,1.151c0.178,0.531,0.354,1.063,0.525,1.598
		c0.127,0.396,0.249,0.792,0.372,1.189c0.163,0.53,0.324,1.063,0.48,1.597c0.118,0.402,0.234,0.807,0.349,1.211
		c0.15,0.536,0.298,1.073,0.441,1.611c0.108,0.407,0.216,0.813,0.32,1.223c0.139,0.544,0.272,1.09,0.405,1.637
		c0.098,0.407,0.196,0.814,0.29,1.223c0.128,0.56,0.25,1.122,0.371,1.685c0.086,0.399,0.174,0.799,0.257,1.201
		c0.12,0.587,0.231,1.178,0.343,1.769c0.073,0.382,0.147,0.762,0.217,1.145c0.117,0.653,0.225,1.312,0.331,1.97
		c0.052,0.322,0.109,0.643,0.159,0.966c0.151,0.983,0.293,1.972,0.421,2.964c1.89,14.615,1.07,28.954-2.06,42.519
		c-1.964,0.026-4.011,0.366-6.092,1.027c-9.767,3.103-20.606,4.61-33.141,4.61c-20.629,0-42.49-4.225-61.777-7.952
		c-16.863-3.26-32.792-6.337-46.121-6.337c-15.474,0-26.403,4.26-33.414,13.023c-15.05,18.813-19.065,35.875-11.936,50.711
		c15.237,31.702,74.945,34.166,92.882,34.166c5.17,0,10.272-0.162,15.257-0.47C651.338,724.831,645.451,726.054,639.399,726.836z
		 M693.968,696.415c-0.531,0.172-1.071,0.34-1.622,0.507c-0.012,0.003-0.022,0.007-0.034,0.011
		c-0.547,0.164-1.104,0.327-1.669,0.486c-0.015,0.005-0.03,0.009-0.045,0.013c-0.563,0.159-1.136,0.314-1.717,0.469
		c-0.019,0.004-0.036,0.009-0.054,0.014c-0.575,0.151-1.159,0.3-1.752,0.446c-0.027,0.007-0.054,0.014-0.081,0.02
		c-0.588,0.146-1.185,0.287-1.788,0.426c-0.03,0.007-0.06,0.015-0.09,0.021c-0.601,0.139-1.208,0.273-1.823,0.405
		c-0.037,0.008-0.073,0.017-0.109,0.023c-0.612,0.131-1.23,0.26-1.856,0.386c-0.041,0.008-0.081,0.016-0.121,0.023
		c-0.625,0.125-1.257,0.246-1.895,0.366c-0.042,0.008-0.085,0.015-0.128,0.023c-0.634,0.117-1.274,0.232-1.92,0.345
		c-0.033,0.005-0.063,0.012-0.096,0.017c0,0,0,0,0-0.001c-10.665,1.843-22.933,2.895-35.39,2.895
		c-38.069,0-68.016-9.09-74.518-22.618c-3.448-7.173-0.258-16.983,9.481-29.157c1.847-2.309,5.67-5.377,17.504-5.377
		c11.379,0,26.376,2.898,42.255,5.968c20.186,3.9,43.064,8.322,65.644,8.322c11.526,0,21.933-1.137,31.589-3.438
		c-3.974,8.765-8.976,17.005-14.873,24.549c-4.012,3.517-8.794,7.046-14.486,10.41c-2.74,1.618-6.266,3.108-10.389,4.442
		C693.979,696.411,693.974,696.413,693.968,696.415z M826.452,559.238c-35.303,73.966-64.449,120.706-89.104,142.891
		c-13.823,12.438-25.509,16.266-35.065,16.266c-2.831,0-5.468-0.345-7.926-0.892c8.137-2.181,15.1-4.876,20.381-7.997
		c32.149-18.996,46.823-46.95,42.435-63c-0.707-2.59-1.897-4.828-3.454-6.66c14.776-23.265,31.259-53.912,49.331-91.776
		c3.084-6.463,10.822-9.2,17.286-6.116C826.798,545.037,829.536,552.776,826.452,559.238z"/>
</g>
</svg>
