<?xml version="1.0" encoding="utf-8"?>
<!-- Generator: Adobe Illustrator 16.0.0, SVG Export Plug-In . SVG Version: 6.00 Build 0)  -->
<!DOCTYPE svg PUBLIC "-//W3C//DTD SVG 1.1//EN" "http://www.w3.org/Graphics/SVG/1.1/DTD/svg11.dtd">
<svg version="1.1" id="Layer_1" xmlns="http://www.w3.org/2000/svg" xmlns:xlink="http://www.w3.org/1999/xlink" x="0px" y="0px"
	 width="1000px" height="1000px" viewBox="0 0 1000 1000" enable-background="new 0 0 1000 1000" xml:space="preserve">
<g>
	<path d="M426.103,401.769c31.945-29.199,82.037-65.646,143.664-79.188c-16.13-36.071-32.038-70.365-46.901-101.655
		c-112.492,40.866-142.306,78.893-147.867,87.504c0.513,49.879,3.609,96.155,8.31,138.415
		C393.22,434.777,407.648,418.636,426.103,401.769z"/>
	<path d="M514.045,202.447c-35.144-73.248-63.066-127.132-71.753-143.727c-21.074,0.376-41.104,7.068-50.1,10.525
		c-11.384,74.497-16.46,144.24-17.178,208.465c3.25-3.021,6.997-6.259,11.33-9.687C415.834,244.692,458.761,222.654,514.045,202.447
		z"/>
	<path d="M500,0C223.857,0,0,223.857,0,500.001C0,776.143,223.857,1000,500,1000c276.144,0,500-223.857,500-499.999
		C1000,223.857,776.144,0,500,0z M372.939,60.433l0.848-5.415l4.986-2.276c1.289-0.588,31.958-14.411,65.362-14.411
		c1.598,0,3.2,0.032,4.76,0.096l5.84,0.237l2.742,5.162c1.381,2.6,139.078,262.676,223.55,497.729l0.517,1.436l0.072,1.523
		c0.08,1.688,1.69,41.966-22.766,96.131c-11.964,26.499-28.159,51.795-48.219,75.408c0.001,0,0.001,0,0.001,0
		c-0.016,0.019-0.031,0.037-0.047,0.055c-1.537,1.81-3.098,3.608-4.681,5.397c-0.49,0.556-0.979,1.111-1.474,1.665
		c-0.581,0.648-1.165,1.297-1.752,1.943c-1.285,1.417-2.579,2.83-3.896,4.233c-31.825,33.94-72.132,64.055-119.802,89.507
		l-8.741,4.667l-4.907-8.608c-0.025-0.044-0.06-0.105-0.1-0.178c-0.01-0.016-0.021-0.036-0.031-0.053
		c-0.035-0.062-0.072-0.129-0.116-0.207c-0.022-0.04-0.047-0.084-0.071-0.127c-0.035-0.063-0.071-0.128-0.111-0.199
		c-0.036-0.065-0.073-0.132-0.113-0.204c-0.04-0.071-0.082-0.147-0.125-0.227c-0.046-0.084-0.092-0.167-0.143-0.259
		c-0.034-0.063-0.071-0.129-0.107-0.194c-0.432-0.788-1.004-1.845-1.704-3.168c-0.003-0.005-0.005-0.009-0.008-0.014
		c-3.121-5.896-8.773-17.053-15.928-33.238c0-0.001,0-0.001,0-0.002c-12.336-27.907-29.129-70.762-45.091-127.366
		c-0.916,1.715-2.194,3.27-3.845,4.521l-84.264,63.902c-0.02,0.015-0.042,0.027-0.062,0.042c0.245,0.819,0.501,1.618,0.771,2.396
		c1.177,3.406,2.593,6.423,4.244,9.05c0.031,0.049,0.062,0.097,0.093,0.145c0.292,0.46,0.59,0.905,0.896,1.341
		c0.049,0.068,0.098,0.138,0.147,0.207c0.298,0.416,0.603,0.82,0.914,1.214c0.052,0.065,0.104,0.133,0.156,0.197
		c0.333,0.415,0.674,0.815,1.022,1.203c0.028,0.032,0.055,0.065,0.083,0.096c0.77,0.853,1.578,1.643,2.422,2.37
		c0.035,0.03,0.072,0.058,0.106,0.088c0.369,0.313,0.744,0.616,1.126,0.906c0.117,0.089,0.237,0.173,0.355,0.26
		c0.306,0.225,0.615,0.443,0.931,0.653c0.15,0.101,0.303,0.197,0.455,0.294c0.292,0.187,0.588,0.365,0.888,0.539
		c0.167,0.097,0.335,0.192,0.505,0.285c0.298,0.163,0.601,0.318,0.907,0.47c0.171,0.086,0.343,0.173,0.518,0.254
		c0.328,0.154,0.663,0.297,1,0.438c0.155,0.063,0.307,0.134,0.464,0.196c0.495,0.194,0.996,0.377,1.507,0.543
		c3.551,0.201,7.003,0.584,10.346,1.158c0.367-0.095,0.717-0.222,1.063-0.358c0.149-0.06,0.298-0.122,0.444-0.19
		c0.155-0.07,0.307-0.153,0.459-0.232c0.41-0.221,0.814-0.462,1.212-0.741c2.075-1.458,4.051-3.77,6.744-6.956
		c6.384-7.554,15.125-17.901,33.084-19.402c13.613-1.139,26.616,4.48,36.616,15.826c10.941,12.414,16.433,29.511,13.664,42.54
		c-0.639,3.005-2.481,5.441-4.913,6.925c-0.03,0.019-0.061,0.035-0.091,0.054c-0.209,0.124-0.422,0.242-0.639,0.353
		c-0.067,0.033-0.134,0.066-0.202,0.099c-0.186,0.09-0.374,0.174-0.565,0.253c-0.082,0.034-0.164,0.068-0.247,0.101
		c-0.189,0.072-0.381,0.139-0.575,0.2c-0.081,0.026-0.16,0.055-0.241,0.078c-0.272,0.081-0.546,0.152-0.825,0.211
		c-0.71,0.148-1.441,0.227-2.183,0.227c0,0,0,0-0.001,0c-0.004,0-0.008-0.001-0.011-0.001c-0.415,0-0.833-0.032-1.254-0.082
		c-0.001,0-0.001,0-0.002,0c-0.324-0.038-0.649-0.085-0.975-0.154c-5.794-1.231-9.494-6.928-8.262-12.724
		c1.147-5.4-1.88-16.071-8.773-23.894c-3.819-4.333-10.17-9.349-18.732-8.632c-9.098,0.761-13.037,5.421-18.488,11.871
		c-0.776,0.919-1.585,1.874-2.432,2.838c14.088,7.748,25.195,20.122,32.815,36.812c0.532,1.165,1.031,2.327,1.508,3.484
		c0.001,0.003,0.002,0.007,0.003,0.009c0.238,0.578,0.469,1.153,0.693,1.729c0.018,0.045,0.036,0.09,0.053,0.134
		c0.22,0.563,0.432,1.123,0.639,1.684c0.02,0.052,0.04,0.104,0.059,0.158c0.205,0.552,0.402,1.103,0.595,1.652
		c0.021,0.058,0.041,0.115,0.061,0.173c0.192,0.551,0.378,1.097,0.559,1.641c0.017,0.052,0.034,0.104,0.052,0.156
		c0.181,0.55,0.357,1.096,0.527,1.64c0.014,0.043,0.028,0.088,0.042,0.132c0.172,0.552,0.339,1.1,0.5,1.645
		c0.009,0.029,0.018,0.061,0.026,0.09c0.166,0.561,0.326,1.115,0.48,1.667c0.002,0.007,0.003,0.013,0.005,0.02
		c2.228,7.974,3.303,15.004,3.817,19.766c0.001,0.01,0.002,0.02,0.003,0.029c0.035,0.326,0.067,0.64,0.098,0.943
		c0.002,0.02,0.003,0.037,0.005,0.057c0.029,0.294,0.056,0.578,0.081,0.852c0.002,0.024,0.004,0.05,0.007,0.074
		c0.023,0.263,0.045,0.517,0.065,0.759c0.003,0.032,0.005,0.063,0.008,0.096c0.019,0.229,0.036,0.45,0.051,0.66
		c0.003,0.041,0.006,0.079,0.008,0.119c0.015,0.198,0.028,0.39,0.04,0.568c0.002,0.037,0.004,0.07,0.007,0.107
		c0.011,0.174,0.021,0.34,0.03,0.494c0.002,0.034,0.003,0.064,0.005,0.097c0.008,0.147,0.016,0.288,0.022,0.415
		c0.002,0.033,0.003,0.062,0.004,0.094c0.006,0.117,0.011,0.229,0.015,0.327c0.002,0.038,0.003,0.065,0.004,0.101
		c0.003,0.079,0.006,0.158,0.009,0.223c0.002,0.048,0.002,0.082,0.004,0.12s0.003,0.083,0.004,0.112
		c0.001,0.06,0.002,0.104,0.003,0.129c0.109,5.242-3.561,9.685-8.511,10.722c-0.645,0.136-1.308,0.212-1.99,0.226
		c-0.077,0.002-0.151,0.003-0.228,0.003c-0.158,0-0.312-0.017-0.468-0.023c-0.167-0.007-0.335-0.01-0.5-0.024
		c-0.193-0.018-0.382-0.048-0.573-0.075c-0.162-0.023-0.325-0.042-0.484-0.073c-0.188-0.036-0.371-0.084-0.555-0.13
		c-0.156-0.039-0.314-0.072-0.467-0.119c-0.181-0.053-0.357-0.119-0.534-0.183c-0.149-0.052-0.301-0.101-0.448-0.16
		c-0.174-0.071-0.341-0.153-0.51-0.232c-0.143-0.067-0.288-0.129-0.427-0.202c-0.165-0.086-0.321-0.184-0.481-0.277
		c-0.135-0.081-0.273-0.156-0.405-0.242c-0.154-0.101-0.3-0.213-0.449-0.321c-0.127-0.093-0.257-0.181-0.379-0.278
		c-0.145-0.114-0.279-0.24-0.417-0.362c-0.117-0.104-0.238-0.202-0.351-0.312c-0.132-0.127-0.254-0.265-0.38-0.399
		c-0.107-0.115-0.219-0.225-0.321-0.345c-0.12-0.139-0.228-0.289-0.341-0.435c-0.096-0.124-0.197-0.244-0.287-0.373
		c-0.108-0.153-0.204-0.316-0.304-0.476c-0.082-0.13-0.169-0.257-0.246-0.391c-0.095-0.167-0.176-0.342-0.262-0.515
		c-0.068-0.136-0.143-0.268-0.205-0.407c-0.08-0.178-0.145-0.364-0.215-0.548c-0.054-0.141-0.115-0.278-0.164-0.423
		c-0.066-0.197-0.116-0.402-0.17-0.605c-0.037-0.137-0.083-0.27-0.114-0.408c-0.053-0.233-0.088-0.475-0.126-0.714
		c-0.018-0.113-0.045-0.224-0.059-0.339c-0.044-0.355-0.072-0.719-0.08-1.086c-0.032-1.246-0.549-15.638-6.825-30.813
		c-2.486-6.011-5.877-12.142-10.5-17.631c-0.49-0.581-0.997-1.153-1.515-1.719c-0.147-0.16-0.299-0.318-0.448-0.478
		c-0.388-0.415-0.784-0.825-1.188-1.23c-0.166-0.165-0.332-0.331-0.5-0.495c-0.448-0.438-0.907-0.869-1.374-1.293
		c-0.116-0.105-0.229-0.213-0.346-0.318c-0.605-0.54-1.226-1.069-1.863-1.588c-0.459-0.373-0.927-0.739-1.404-1.099
		c-0.098-0.074-0.198-0.146-0.296-0.22c-0.427-0.316-0.86-0.629-1.3-0.936c-0.136-0.094-0.273-0.188-0.411-0.281
		c-0.419-0.285-0.844-0.564-1.275-0.839c-0.147-0.095-0.293-0.188-0.442-0.281c-0.454-0.283-0.918-0.56-1.387-0.831
		c-0.124-0.072-0.244-0.146-0.369-0.216c-1.194-0.679-2.433-1.318-3.72-1.915c-0.155-0.072-0.314-0.14-0.47-0.21
		c-0.479-0.218-0.963-0.43-1.456-0.635c-0.225-0.094-0.455-0.184-0.683-0.275c-0.436-0.175-0.877-0.345-1.324-0.51
		c-0.253-0.094-0.508-0.186-0.765-0.276c-0.44-0.154-0.887-0.304-1.338-0.45c-0.26-0.084-0.52-0.169-0.784-0.25
		c-0.485-0.148-0.98-0.29-1.477-0.428c-0.232-0.064-0.461-0.133-0.697-0.195c-0.734-0.193-1.479-0.377-2.238-0.546
		c-0.471,0.019-0.949,0.029-1.434,0.029c-0.018,0-0.036-0.001-0.054-0.001c-0.115,0-0.234-0.006-0.351-0.007
		c-0.377-0.004-0.757-0.012-1.143-0.027c-0.182-0.008-0.367-0.021-0.55-0.031c-0.328-0.018-0.658-0.038-0.993-0.065
		c-0.208-0.016-0.417-0.037-0.627-0.057c-0.32-0.03-0.643-0.064-0.97-0.104c-0.22-0.025-0.442-0.054-0.665-0.084
		c-0.328-0.044-0.659-0.093-0.993-0.145c-0.226-0.035-0.452-0.071-0.679-0.11c-0.347-0.059-0.698-0.125-1.05-0.192
		c-0.222-0.044-0.443-0.084-0.667-0.131c-0.39-0.081-0.788-0.171-1.186-0.263c-0.193-0.044-0.383-0.085-0.578-0.132
		c-0.597-0.145-1.201-0.299-1.816-0.469c-0.047-0.012-0.093-0.024-0.14-0.037c-0.08-0.022-0.156-0.04-0.235-0.062
		c-0.518-0.146-1.04-0.305-1.562-0.471c-0.172-0.056-0.344-0.115-0.517-0.172c-0.353-0.117-0.707-0.236-1.062-0.363
		c-0.208-0.073-0.416-0.15-0.625-0.228c-0.324-0.12-0.647-0.244-0.971-0.373c-0.221-0.087-0.441-0.174-0.662-0.266
		c-0.319-0.132-0.639-0.271-0.959-0.412c-0.221-0.097-0.441-0.19-0.662-0.291c-0.38-0.174-0.76-0.358-1.14-0.545
		c-0.362-0.178-0.724-0.363-1.086-0.553c-0.281-0.147-0.562-0.292-0.841-0.445c-0.291-0.16-0.58-0.329-0.869-0.496
		c-0.227-0.131-0.453-0.263-0.68-0.398c-0.309-0.186-0.618-0.378-0.925-0.573c-0.198-0.126-0.396-0.255-0.593-0.384
		c-0.329-0.216-0.657-0.435-0.984-0.66c-0.149-0.104-0.298-0.213-0.447-0.319c-1.289-0.917-2.562-1.921-3.812-3.026
		c-0.009-0.008-0.02-0.017-0.029-0.025c-0.403-0.357-0.803-0.729-1.201-1.107c-0.076-0.071-0.152-0.144-0.228-0.216
		c-0.393-0.379-0.783-0.769-1.17-1.168c-0.061-0.063-0.122-0.127-0.182-0.19c-7.431-7.751-13.667-19.458-16.639-37.008
		c0-0.001,0-0.002,0-0.002c-1.161-6.856-1.834-14.584-1.872-23.339c-0.053-12.322,1.141-24.197,2.513-33.717
		c4.597,1.002,9.346,1.537,14.193,1.537c2.459,0,4.909-0.147,7.345-0.42c-1.248,8.193-2.418,18.585-2.577,29.372l71.108-53.925
		c4.679-3.546,10.875-3.667,15.605-0.794c-1.698-6.425-3.381-13-5.04-19.741c-18.627-75.69-30.405-155.536-35.008-237.319
		C350.86,271.841,356.354,166.341,372.939,60.433z M286.939,536c0.859-0.289,1.721-0.55,2.583-0.796
		c0.273-0.078,0.548-0.147,0.821-0.222c0.598-0.161,1.196-0.313,1.795-0.455c0.31-0.072,0.62-0.143,0.93-0.21
		c0.587-0.128,1.175-0.245,1.762-0.354c0.291-0.054,0.582-0.11,0.872-0.16c0.739-0.125,1.479-0.234,2.218-0.329
		c0.126-0.016,0.253-0.038,0.38-0.053c0.86-0.106,1.72-0.188,2.579-0.253c0.265-0.02,0.528-0.031,0.792-0.048
		c0.606-0.037,1.212-0.067,1.816-0.086c0.311-0.01,0.621-0.015,0.931-0.019c0.58-0.009,1.159-0.007,1.737,0.003
		c0.288,0.005,0.576,0.008,0.863,0.018c0.703,0.022,1.405,0.06,2.104,0.107c0.15,0.011,0.301,0.016,0.45,0.027
		c0.845,0.065,1.686,0.151,2.523,0.254c0.236,0.029,0.471,0.065,0.707,0.097c0.611,0.083,1.22,0.173,1.827,0.275
		c0.286,0.048,0.57,0.1,0.854,0.151c0.578,0.106,1.155,0.222,1.729,0.346c0.263,0.057,0.526,0.111,0.789,0.172
		c0.717,0.166,1.43,0.345,2.139,0.537c0.103,0.028,0.208,0.052,0.311,0.08c0.814,0.226,1.622,0.473,2.424,0.734
		c0.216,0.07,0.43,0.147,0.646,0.221c0.588,0.198,1.173,0.406,1.753,0.624c0.261,0.098,0.52,0.198,0.779,0.299
		c0.556,0.218,1.108,0.446,1.657,0.682c0.235,0.1,0.47,0.197,0.704,0.302c0.702,0.312,1.399,0.636,2.087,0.976
		c0.064,0.032,0.13,0.061,0.194,0.093c0.758,0.377,1.506,0.773,2.247,1.184c0.195,0.108,0.387,0.223,0.58,0.333
		c0.543,0.309,1.081,0.624,1.613,0.95c0.234,0.144,0.467,0.289,0.699,0.436c0.509,0.323,1.013,0.654,1.513,0.992
		c0.208,0.142,0.417,0.28,0.624,0.424c0.649,0.453,1.29,0.917,1.921,1.396c0.04,0.03,0.082,0.059,0.122,0.089
		c0.674,0.516,1.335,1.051,1.987,1.596c0.178,0.149,0.351,0.304,0.527,0.455c0.471,0.403,0.936,0.813,1.394,1.233
		c0.206,0.189,0.41,0.381,0.614,0.572c0.439,0.414,0.871,0.838,1.298,1.267c0.181,0.182,0.363,0.36,0.542,0.545
		c0.563,0.584,1.118,1.177,1.658,1.785c0.025,0.028,0.053,0.056,0.079,0.086c0.566,0.64,1.116,1.297,1.655,1.965
		c0.156,0.192,0.306,0.391,0.458,0.586c0.381,0.484,0.755,0.974,1.121,1.473c0.173,0.235,0.343,0.472,0.513,0.71
		c0.351,0.495,0.694,0.997,1.031,1.506c0.147,0.222,0.297,0.441,0.442,0.665c0.455,0.708,0.898,1.424,1.324,2.155
		c0.012,0.021,0.025,0.042,0.038,0.063c0.437,0.753,0.854,1.521,1.259,2.299c0.123,0.236,0.239,0.476,0.359,0.715
		c0.279,0.556,0.552,1.115,0.814,1.683c0.128,0.277,0.254,0.556,0.379,0.836c0.252,0.569,0.494,1.146,0.73,1.726
		c0.104,0.257,0.211,0.512,0.312,0.771c0.324,0.834,0.635,1.677,0.923,2.533c10.076,29.981-6.06,62.453-36.041,72.529
		c-0.859,0.288-1.72,0.55-2.582,0.796c-0.274,0.077-0.55,0.147-0.825,0.221c-0.597,0.161-1.194,0.314-1.792,0.455
		c-0.31,0.072-0.621,0.144-0.931,0.21c-0.59,0.129-1.181,0.246-1.771,0.355c-0.286,0.053-0.573,0.108-0.859,0.157
		c-0.167,0.028-0.333,0.048-0.5,0.074c0,0.005-0.001,0.009-0.002,0.013c-0.468,0.075-0.937,0.133-1.405,0.196
		c-0.115,0.016-0.23,0.037-0.346,0.052c-0.115,0.016-0.23,0.035-0.345,0.049c-0.029,0.004-0.057,0.005-0.085,0.008
		c-0.836,0.102-1.671,0.182-2.506,0.246c-0.001,0-0.003,0-0.004,0c-0.227,0.018-0.453,0.027-0.68,0.041
		c-0.645,0.04-1.289,0.074-1.932,0.093c-0.001,0-0.001,0-0.002,0c-0.031,0.001-0.062,0.001-0.093,0.002
		c-0.531,0.016-1.062,0.031-1.592,0.031c-0.224,0-0.446-0.016-0.669-0.019c-0.107-0.002-0.215,0.001-0.323-0.001
		c-0.274-0.004-0.549-0.007-0.823-0.017c-0.238-0.007-0.474-0.025-0.711-0.036c-0.384-0.017-0.768-0.034-1.151-0.059
		c-0.104-0.007-0.208-0.009-0.311-0.016c-0.128-0.01-0.257-0.013-0.385-0.023c-0.481-0.037-0.959-0.095-1.438-0.145
		c-0.275-0.028-0.552-0.051-0.827-0.083c-0.092-0.011-0.186-0.018-0.277-0.028c-0.227-0.027-0.452-0.063-0.678-0.093
		c-0.621-0.084-1.24-0.176-1.857-0.279c-0.013-0.002-0.025-0.005-0.038-0.007c-0.083-0.015-0.167-0.029-0.25-0.044
		c-0.183-0.032-0.366-0.064-0.549-0.098c-0.583-0.107-1.165-0.225-1.744-0.35c-0.227-0.049-0.454-0.098-0.679-0.147
		c0,0-0.001,0-0.001,0c-0.033-0.008-0.066-0.015-0.1-0.022c-0.72-0.166-1.436-0.345-2.148-0.539c-0.1-0.026-0.202-0.051-0.302-0.078
		c-0.815-0.227-1.623-0.473-2.426-0.733c-0.216-0.071-0.429-0.147-0.644-0.221c-0.589-0.199-1.174-0.406-1.755-0.624
		c-0.261-0.098-0.52-0.199-0.779-0.301c-0.554-0.217-1.104-0.444-1.652-0.678c-0.237-0.102-0.475-0.201-0.711-0.306
		c-0.695-0.309-1.384-0.631-2.066-0.967c-0.071-0.035-0.144-0.066-0.214-0.102c-0.756-0.376-1.502-0.771-2.241-1.181
		c-0.199-0.11-0.395-0.227-0.592-0.34c-0.539-0.307-1.073-0.62-1.602-0.944c-0.236-0.145-0.471-0.291-0.705-0.439
		c-0.506-0.32-1.006-0.649-1.502-0.985c-0.211-0.144-0.424-0.284-0.633-0.43c-0.642-0.448-1.276-0.907-1.9-1.381
		c-0.047-0.036-0.095-0.069-0.143-0.105c-0.672-0.514-1.332-1.046-1.981-1.591c-0.181-0.151-0.358-0.31-0.538-0.463
		c-0.467-0.4-0.928-0.809-1.383-1.225c-0.208-0.19-0.415-0.385-0.621-0.579c-0.437-0.412-0.867-0.833-1.291-1.26
		c-0.182-0.183-0.367-0.364-0.546-0.55c-0.561-0.58-1.112-1.169-1.648-1.773c-0.029-0.032-0.059-0.063-0.088-0.096
		c-0.565-0.64-1.114-1.295-1.652-1.962c-0.158-0.196-0.311-0.396-0.466-0.595c-0.378-0.481-0.75-0.969-1.114-1.464
		c-0.173-0.236-0.345-0.475-0.516-0.714c-0.351-0.494-0.692-0.995-1.028-1.502c-0.148-0.222-0.299-0.443-0.445-0.669
		c-0.453-0.704-0.895-1.419-1.319-2.147c-0.014-0.023-0.029-0.047-0.043-0.07c-0.437-0.752-0.854-1.521-1.258-2.297
		c-0.123-0.237-0.239-0.479-0.36-0.718c-0.278-0.554-0.551-1.113-0.813-1.679c-0.129-0.279-0.255-0.559-0.38-0.84
		c-0.252-0.567-0.494-1.143-0.729-1.723c-0.104-0.258-0.212-0.513-0.313-0.773c-0.324-0.834-0.635-1.676-0.923-2.532
		C240.822,578.55,256.958,546.076,286.939,536z M203.769,866.34c-31.172-25.705-58.933-55.394-82.515-88.284
		c3.871,0.877,7.729,1.608,11.561,2.211c0.359,0.057,0.719,0.116,1.077,0.169c1.112,0.168,2.22,0.322,3.327,0.467
		c0.166,0.021,0.332,0.047,0.497,0.067c1.298,0.165,2.592,0.314,3.881,0.446c0.198,0.021,0.394,0.036,0.591,0.057
		c1.055,0.104,2.108,0.199,3.156,0.283c0.394,0.03,0.785,0.056,1.177,0.084c0.856,0.062,1.709,0.117,2.56,0.164
		c0.44,0.024,0.879,0.046,1.317,0.065c0.81,0.038,1.617,0.067,2.422,0.092c0.439,0.013,0.879,0.026,1.316,0.036
		c0.833,0.018,1.663,0.025,2.49,0.027c0.388,0.002,0.778,0.008,1.166,0.006c1.042-0.006,2.077-0.022,3.107-0.051
		c0.162-0.005,0.325-0.005,0.486-0.01c1.189-0.036,2.37-0.091,3.543-0.158c0.334-0.02,0.665-0.047,0.999-0.068
		c0.833-0.054,1.663-0.113,2.487-0.184c0.426-0.036,0.848-0.079,1.271-0.119c0.729-0.07,1.455-0.145,2.177-0.228
		c0.442-0.051,0.882-0.104,1.321-0.159c0.708-0.089,1.411-0.186,2.11-0.287c0.424-0.062,0.85-0.122,1.271-0.189
		c0.746-0.116,1.483-0.244,2.219-0.375c0.357-0.064,0.717-0.123,1.072-0.189c1.081-0.205,2.154-0.421,3.212-0.657
		c0.767-0.171,1.523-0.35,2.273-0.536c0.252-0.063,0.498-0.129,0.748-0.193c0.496-0.128,0.992-0.256,1.48-0.39
		c0.283-0.078,0.563-0.159,0.844-0.24c0.451-0.128,0.9-0.259,1.344-0.393c0.282-0.086,0.562-0.173,0.841-0.261
		c0.439-0.138,0.875-0.278,1.308-0.422c0.268-0.089,0.535-0.179,0.801-0.271c0.444-0.151,0.884-0.308,1.32-0.467
		c0.243-0.088,0.486-0.176,0.726-0.266c0.471-0.176,0.935-0.357,1.396-0.541c0.196-0.077,0.396-0.154,0.591-0.233
		c0.554-0.226,1.1-0.457,1.641-0.693c0.097-0.042,0.197-0.082,0.293-0.126c0.656-0.289,1.302-0.586,1.937-0.89h0.001
		c13.191-6.319,21.98-15.841,25.326-27.746c2.17-7.688,2.09-15.618-0.182-23.375c14.936-5.164,35.633-5.666,56.929-1.396
		c0.046,0.198,0.091,0.4,0.139,0.599c0.126,0.521,0.256,1.037,0.389,1.551c0.164,0.631,0.334,1.255,0.507,1.875
		c0.154,0.548,0.309,1.095,0.47,1.635c0.236,0.792,0.479,1.574,0.733,2.347c0.135,0.411,0.274,0.818,0.414,1.225
		c0.226,0.656,0.458,1.306,0.697,1.948c0.124,0.333,0.244,0.671,0.37,1c0.351,0.91,0.715,1.807,1.091,2.689
		c0.124,0.291,0.253,0.577,0.381,0.864c0.302,0.687,0.612,1.363,0.93,2.03c0.129,0.272,0.257,0.546,0.389,0.814
		c0.431,0.878,0.874,1.743,1.333,2.589c0.087,0.161,0.179,0.317,0.267,0.476c0.399,0.723,0.809,1.433,1.229,2.131
		c0.138,0.229,0.276,0.458,0.416,0.685c0.51,0.826,1.03,1.642,1.57,2.435c7.836,11.5,18.487,19.219,31.657,22.944l0.049,0.015
		l0.049,0.013c0.081,0.022,0.159,0.042,0.238,0.063l0.02,0.005c0.055,0.016,0.107,0.029,0.157,0.042
		c5.144,1.413,10.092,2.129,14.707,2.129c0.16,0,0.32-0.001,0.48-0.003c1.104,0.271,2.175,0.579,3.217,0.916
		c0.019,0.006,0.038,0.011,0.057,0.018c0.068,0.021,0.13,0.05,0.197,0.072h0.016c0.932,0.309,1.837,0.644,2.72,1.002
		c0.019,0.008,0.04,0.014,0.059,0.021c0.027,0.012,0.056,0.021,0.083,0.033c0.257,0.104,0.495,0.229,0.748,0.338
		c0.618,0.268,1.234,0.537,1.829,0.828c0.072,0.035,0.15,0.065,0.222,0.101c0.028,0.014,0.057,0.026,0.085,0.041
		c0.256,0.127,0.492,0.273,0.743,0.405c0.511,0.268,1.02,0.539,1.513,0.824c0.121,0.069,0.251,0.131,0.37,0.201
		c0.024,0.015,0.049,0.028,0.073,0.043c0.202,0.12,0.388,0.254,0.587,0.377c0.475,0.293,0.943,0.592,1.4,0.899
		c0.158,0.106,0.328,0.204,0.485,0.313c0.016,0.011,0.033,0.021,0.049,0.033c0.148,0.104,0.283,0.216,0.429,0.32
		c0.456,0.326,0.9,0.661,1.338,1.001c0.184,0.142,0.381,0.275,0.562,0.42c0.008,0.006,0.015,0.012,0.023,0.018
		c0.094,0.076,0.179,0.157,0.272,0.233c0.467,0.383,0.918,0.777,1.366,1.174c0.18,0.161,0.374,0.312,0.551,0.475
		c0,0.001,0,0.001,0.001,0.001c0.044,0.041,0.084,0.085,0.128,0.125c0.659,0.61,1.299,1.234,1.914,1.875
		c-0.144,0.063-0.287,0.125-0.431,0.188c-1.313,0.57-2.621,1.141-3.925,1.71c-0.506,0.222-1.012,0.442-1.518,0.664
		c-1.238,0.542-2.473,1.083-3.704,1.624c-0.397,0.175-0.794,0.35-1.19,0.524c-1.229,0.541-2.455,1.082-3.676,1.623
		c-0.493,0.218-0.984,0.436-1.476,0.653c-1.208,0.535-2.41,1.069-3.609,1.604c-0.439,0.195-0.876,0.39-1.314,0.585
		c-1.155,0.516-2.305,1.03-3.452,1.544c-0.521,0.234-1.042,0.468-1.561,0.701c-1.128,0.508-2.253,1.013-3.373,1.519
		c-0.488,0.221-0.976,0.44-1.462,0.66c-1.111,0.502-2.217,1.004-3.32,1.504c-0.489,0.223-0.978,0.445-1.466,0.667
		c-1.144,0.521-2.283,1.04-3.416,1.558c-0.436,0.2-0.871,0.399-1.305,0.599c-1.114,0.51-2.224,1.019-3.328,1.528
		c-0.456,0.209-0.91,0.418-1.364,0.627c-1.196,0.552-2.388,1.103-3.572,1.651c-0.296,0.138-0.592,0.275-0.888,0.413
		c-1.159,0.538-2.312,1.074-3.459,1.609c-0.411,0.192-0.821,0.384-1.23,0.575c-1.271,0.594-2.536,1.187-3.791,1.776
		c-0.13,0.061-0.259,0.122-0.388,0.183c-1.23,0.579-2.452,1.156-3.667,1.731c-0.341,0.161-0.682,0.322-1.021,0.483
		c-1.303,0.618-2.6,1.233-3.885,1.846c-0.009,0.005-0.019,0.01-0.028,0.014c-1.298,0.62-2.584,1.235-3.864,1.851
		c-0.271,0.13-0.543,0.261-0.814,0.391c-2.624,1.262-5.207,2.513-7.747,3.752c-0.175,0.085-0.35,0.171-0.526,0.256
		c-2.62,1.278-5.194,2.545-7.72,3.797c-0.084,0.041-0.169,0.083-0.253,0.124c-17.166,8.512-32.084,16.358-44.007,23.153h-0.006
		c-9.779,5.572-17.544,10.437-22.882,14.38L203.769,866.34z M219.867,879.779c19.994-14.768,80.188-45.301,153.553-77.063
		c5.556,13.441,6.006,26.384,6.032,27.409c0.249,10.742,9.211,19.501,19.977,19.501c0.141,0,0.281-0.001,0.423-0.004
		c1.238-0.025,2.487-0.168,3.702-0.424c9.389-1.967,16.063-10.369,15.863-19.977c-0.047-2.215-0.7-21.223-9.292-42.03
		c1.082-0.446,2.169-0.893,3.254-1.339c2.417,2.019,5.341,3.497,8.63,4.196c1.369,0.291,2.772,0.439,4.167,0.439
		c1.368,0,2.741-0.142,4.081-0.422c3.827-0.805,7.241-2.69,9.917-5.321c9.781,21.755,16.441,33.57,17.115,34.752l4.907,8.609
		l4.461,7.826l7.947-4.243l8.741-4.668c48.563-25.929,89.677-56.66,122.195-91.341c7.476-7.973,14.486-16.163,21.054-24.539
		c75.147-22.929,108.379-29.801,77.396,1.137c-101.132,100.98-425.22,203.315-425.22,203.315
		C247.898,902.907,219.867,879.779,219.867,879.779z M499.333,972.394c-70.117,0-136.604-15.529-196.22-43.326
		c29.378-9.789,90.779-30.961,158.04-58.397c15.063-6.145,29.548-12.241,43.47-18.29c3.205-1.393,6.382-2.782,9.526-4.17
		c0.032-0.015,0.064-0.028,0.097-0.043c3.183-1.404,6.334-2.807,9.454-4.206c0.068-0.03,0.138-0.062,0.208-0.092
		c3.063-1.375,6.096-2.747,9.1-4.116c0.237-0.107,0.474-0.216,0.71-0.323c5.945-2.714,11.771-5.417,17.478-8.108
		c0.289-0.137,0.577-0.272,0.865-0.408c2.853-1.348,5.68-2.693,8.473-4.036c0.001-0.001,0.003-0.002,0.005-0.003
		c2.77-1.33,5.503-2.658,8.214-3.983c0.241-0.118,0.484-0.236,0.725-0.354c2.665-1.306,5.301-2.608,7.909-3.909
		c0.276-0.139,0.552-0.275,0.828-0.414c2.596-1.297,5.168-2.592,7.706-3.884c0.031-0.015,0.062-0.03,0.092-0.046
		c2.535-1.29,5.035-2.576,7.514-3.861c0.377-0.195,0.753-0.391,1.128-0.586c2.464-1.28,4.904-2.559,7.312-3.833
		c0.01-0.006,0.02-0.011,0.029-0.017c2.36-1.251,4.686-2.499,6.992-3.745c0.377-0.203,0.756-0.408,1.131-0.611
		c2.262-1.226,4.497-2.448,6.705-3.669c0.332-0.184,0.66-0.366,0.991-0.55c2.04-1.132,4.058-2.261,6.052-3.388
		c0.276-0.156,0.556-0.313,0.83-0.468c2.117-1.199,4.204-2.396,6.269-3.589c0.438-0.254,0.871-0.506,1.306-0.758
		c2.083-1.21,4.149-2.419,6.179-3.623c9.678,4.126,20.091,6.232,30.765,6.231c9.271,0,18.737-1.581,28.079-4.789
		c0.797-0.273,1.585-0.56,2.368-0.854c0.233-0.088,0.465-0.179,0.696-0.269c0.568-0.219,1.135-0.441,1.696-0.672
		c0.235-0.096,0.471-0.192,0.704-0.29c0.628-0.263,1.252-0.532,1.869-0.808c0.135-0.06,0.271-0.118,0.406-0.179
		c0.786-0.355,1.564-0.72,2.333-1.095c0.025-0.013,0.05-0.025,0.075-0.038c0.729-0.356,1.45-0.724,2.163-1.097
		c0.13-0.069,0.259-0.139,0.39-0.207c0.645-0.343,1.282-0.691,1.913-1.048c0.097-0.054,0.194-0.108,0.292-0.164
		c1.485-0.846,2.933-1.729,4.334-2.645c12.318-8.058,21.265-18.729,24.382-29.813c2.172-7.672,2.092-15.605-0.184-23.382
		c17.644-6.113,43.38-5.725,68.656,1.419c39.042,10.998,58.842,27.255,71.736,40.156h0.002c0.246,0.246,0.482,0.486,0.723,0.729
		c0.172,0.175,0.347,0.35,0.517,0.522c0.269,0.272,0.53,0.542,0.793,0.812c0.113,0.116,0.229,0.234,0.341,0.35h-0.001
		c0.12,0.124,0.244,0.25,0.363,0.373C800.189,891.698,659.192,972.394,499.333,972.394z"/>
	<path d="M484.502,589.375c-30.259,37.303-49.409,70.488-55.306,81.194c12.597,40.578,25.194,72.58,35.034,95.146
		c2.205,5.057,4.271,9.64,6.168,13.74c0.01,0.021,0.02,0.042,0.029,0.063c0.304,0.659,0.604,1.304,0.9,1.937
		c0.014,0.029,0.027,0.058,0.041,0.087c1.222,2.614,2.366,5.013,3.423,7.194c0.02,0.041,0.039,0.081,0.059,0.121
		c0.231,0.477,0.458,0.941,0.68,1.397c0.053,0.107,0.104,0.214,0.157,0.319c0.19,0.388,0.376,0.769,0.56,1.142
		c0.059,0.119,0.118,0.238,0.176,0.356c0.174,0.352,0.344,0.694,0.512,1.031c0.062,0.124,0.124,0.25,0.185,0.372
		c0.171,0.343,0.337,0.676,0.501,1.003c0.046,0.093,0.094,0.188,0.14,0.279c0.209,0.417,0.414,0.824,0.613,1.216
		c2.15-1.201,4.266-2.408,6.366-3.619c0.452-0.261,0.903-0.521,1.352-0.781c2.047-1.188,4.074-2.381,6.072-3.578
		c0.293-0.176,0.582-0.352,0.874-0.528c1.85-1.112,3.679-2.229,5.487-3.35c0.319-0.197,0.642-0.396,0.96-0.594
		c1.962-1.221,3.899-2.446,5.811-3.676c0.349-0.223,0.692-0.446,1.038-0.67c1.925-1.242,3.832-2.488,5.708-3.738
		c0.023-0.016,0.048-0.031,0.07-0.047c1.929-1.285,3.825-2.573,5.703-3.865c0.302-0.208,0.604-0.416,0.904-0.624
		c1.873-1.295,3.726-2.593,5.548-3.894c0.046-0.032,0.091-0.064,0.136-0.098c1.826-1.304,3.623-2.61,5.399-3.92
		c0.179-0.132,0.357-0.263,0.534-0.393c1.798-1.329,3.569-2.66,5.315-3.993c0.139-0.105,0.275-0.211,0.413-0.316
		c3.567-2.729,7.03-5.468,10.391-8.21c0.12-0.098,0.24-0.195,0.359-0.293c3.41-2.789,6.717-5.583,9.922-8.38
		c0.032-0.028,0.064-0.057,0.098-0.085c4.905-4.284,9.572-8.573,14.013-12.854c36.056-34.759,57.146-68.992,69.435-96.208
		c20.006-44.309,21.034-78.235,21.009-85.385c-9.144-25.38-18.907-51.05-29.049-76.648
		C567.842,497.836,516.646,549.751,484.502,589.375z"/>
	<path d="M386.828,475.586c6.705,50.223,15.527,94.106,24.575,130.869c3.201,13.007,6.497,25.424,9.835,37.244
		c9.955-16.359,25.918-40.625,47.442-67.159c33.688-41.528,87.563-96.029,155.993-125.233
		c-15.05-37.271-30.779-74.201-46.44-109.673c-58.912,11.768-107.297,46.833-137.994,74.817
		C411.805,442.372,393.046,466.992,386.828,475.586z"/>
</g>
</svg>
