<?xml version="1.0" encoding="utf-8"?>
<!-- Generator: Adobe Illustrator 16.0.0, SVG Export Plug-In . SVG Version: 6.00 Build 0)  -->
<!DOCTYPE svg PUBLIC "-//W3C//DTD SVG 1.1//EN" "http://www.w3.org/Graphics/SVG/1.1/DTD/svg11.dtd">
<svg version="1.1" id="Layer_1" xmlns="http://www.w3.org/2000/svg" xmlns:xlink="http://www.w3.org/1999/xlink" x="0px" y="0px"
	 width="1000px" height="1000px" viewBox="0 0 1000 1000" enable-background="new 0 0 1000 1000" xml:space="preserve">
<g>
	<path d="M691.756,394.146l4.533-30.608c-2.943,2.623-5.943,5.396-8.914,8.283c-7.932,7.707-14.44,15.005-19.488,21.815
		c2.769-0.723,4.302-1.203,4.37-1.225C678.992,390.218,685.974,391.05,691.756,394.146z"/>
	<path d="M500.329,0.274c-276.143,0-500,223.857-500,500c0,276.142,223.857,500,500,500c276.143,0,499.999-223.857,499.999-500
		C1000.328,224.131,776.472,0.274,500.329,0.274z M681.863,364.877c5.643-5.479,11.326-10.519,16.55-14.914
		c2.949-12.213,13.929-20.469,25.545-18.75c12.364,1.833,20.765,14.273,18.761,27.791l-11.77,79.464
		c-1.438,9.696-7.838,17.311-15.907,20.164l-33.545,226.433l15.274,2.263c3.784,0.561,6.353,4.368,5.741,8.502
		c-0.613,4.133-4.175,7.028-7.959,6.47l-16.698-2.475l-14.209,38.501l-2.436-40.967l-16.7-2.474
		c-3.782-0.562-6.351-4.363-5.737-8.498c0.611-4.135,4.173-7.031,7.957-6.472l15.273,2.263l32.538-219.636
		c-13.142-2.655-23.646-6.417-31.308-11.227c-2.178-1.367-4.141-2.831-5.897-4.383c-13.214,2.212-29.992,4.096-48.869,4.096
		c-2.657,0-5.35-0.037-8.084-0.116c-49.878-1.438-94.433-16.148-131.02-42.932c-4.481,34.678-2.262,70.213,16.056,96.857
		c10.532,15.318,26.545,26.493,43.499,38.324c23.931,16.701,51.055,35.628,64.057,69.22c14.034,36.259,8.841,81.566-16.343,142.585
		c-3.98,9.643-13.301,15.471-23.123,15.471c-3.18,0-6.409-0.609-9.53-1.897c-12.765-5.27-18.843-19.888-13.574-32.652
		c36.432-88.272,19.499-114.882-14.057-140.223c0.681,5.249,1.261,10.697,1.696,16.352c5.484,71.067-13.342,139.906-54.443,199.072
		c-4.856,6.992-12.643,10.74-20.558,10.74c-4.923,0-9.894-1.448-14.243-4.47c-11.342-7.879-14.149-23.46-6.271-34.803
		c34.557-49.744,49.964-105.181,45.796-164.771c-2.695-38.537-13.136-66.669-16.279-74.398c-2.729-3.234-5.362-6.618-7.837-10.218
		c-23.632-34.375-31.785-79.437-24.23-133.936c5.9-42.563,20.405-84.111,32.383-115.554c0.495-1.3,1.093-2.532,1.77-3.697
		c14.26,8.333,29.862,14.065,46.221,16.939c-0.271,1.53-0.684,3.056-1.257,4.562c-4.59,12.048-11.51,30.222-17.717,51.345
		c30.993,30.17,70.923,46.33,118.875,48.044c22.567,0.8,42.266-1.896,55.329-4.454C661.483,386.685,670.249,376.155,681.863,364.877
		z M525.02,37.743c66.536,0,120.474,53.937,120.474,120.474c0,66.535-53.938,120.474-120.474,120.474
		s-120.473-53.938-120.473-120.474C404.546,91.68,458.483,37.743,525.02,37.743z M433.509,279.982c0,0-71.354,138.999-21.554,230.68
		c0,0-122.912,47.229-150.694-62.51C233.479,338.414,372.869,245.343,433.509,279.982z M411.944,834.095l-12.705,15.281
		l-13.639-15.281H411.944z M332.38,822.058v-27.782l7.348-22.688l19.045,22.688l-6.946,22.226L332.38,822.058z M334.607,843.819
		l-7.348,20.837l-16.67-15.28V829.93L334.607,843.819z M497.629,964.231c-82.997,0-160.903-21.792-228.31-59.97l39.882-34.743
		l19.194,18.058l30.813-34.728l74.3,10.644l60.471-54.176h56.464l64.021-51.396l115.742-13.891l46.658-80.212l33.8-10.998
		l55.103-68.536l32.41,4.637l61.434-45.544C937.868,779.405,739.333,964.231,497.629,964.231z"/>
	<path d="M669.892,444.545c5.756,3.189,13.148,5.836,22.094,7.916c-2.887-3.291-4.895-7.455-5.705-12.042
		C683.786,441.17,678.087,442.791,669.892,444.545z"/>
</g>
</svg>
