<?xml version="1.0" encoding="utf-8"?>
<!-- Generator: Adobe Illustrator 16.0.0, SVG Export Plug-In . SVG Version: 6.00 Build 0)  -->
<!DOCTYPE svg PUBLIC "-//W3C//DTD SVG 1.1//EN" "http://www.w3.org/Graphics/SVG/1.1/DTD/svg11.dtd">
<svg version="1.1" id="Layer_1" xmlns="http://www.w3.org/2000/svg" xmlns:xlink="http://www.w3.org/1999/xlink" x="0px" y="0px"
	 width="1000px" height="1000px" viewBox="0 0 1000 1000" enable-background="new 0 0 1000 1000" xml:space="preserve">
<g>
	<path d="M500,0C223.857,0,0,223.857,0,500.001C0,776.143,223.857,1000,500,1000c276.144,0,500-223.857,500-499.999
		C1000,223.857,776.144,0,500,0z M112.444,608.786c-0.319-0.624-0.626-1.256-0.926-1.895c-0.134-0.285-0.272-0.567-0.402-0.854
		c-0.417-0.92-0.819-1.851-1.197-2.799c-13.21-33.187,2.985-70.799,36.171-84.009c0.953-0.379,1.91-0.729,2.869-1.06
		c0.296-0.102,0.593-0.194,0.89-0.292c0.674-0.222,1.35-0.435,2.026-0.633c0.337-0.1,0.673-0.194,1.011-0.287
		c0.666-0.184,1.333-0.354,2-0.516c0.313-0.076,0.627-0.156,0.941-0.227c0.843-0.19,1.687-0.363,2.531-0.519
		c0.127-0.023,0.253-0.053,0.38-0.075c0.968-0.172,1.938-0.317,2.906-0.445c0.289-0.038,0.579-0.065,0.868-0.1
		c0.687-0.08,1.374-0.152,2.06-0.212c0.348-0.028,0.695-0.054,1.043-0.077c0.655-0.044,1.309-0.079,1.963-0.104
		c0.324-0.013,0.649-0.026,0.973-0.034c0.792-0.018,1.584-0.019,2.375-0.007c0.171,0.002,0.343-0.002,0.514,0.002
		c0.955,0.021,1.908,0.067,2.858,0.131c0.271,0.018,0.542,0.045,0.813,0.066c0.689,0.056,1.378,0.12,2.064,0.196
		c0.329,0.037,0.657,0.078,0.984,0.12c0.653,0.084,1.303,0.178,1.952,0.281c0.307,0.049,0.613,0.095,0.919,0.147
		c0.806,0.141,1.608,0.296,2.406,0.466c0.13,0.028,0.262,0.051,0.392,0.079c0.929,0.204,1.851,0.432,2.769,0.676
		c0.254,0.067,0.506,0.144,0.76,0.214c0.668,0.188,1.334,0.382,1.996,0.59c0.305,0.096,0.608,0.195,0.911,0.295
		c0.633,0.21,1.262,0.43,1.887,0.657c0.279,0.102,0.558,0.201,0.835,0.306c0.795,0.304,1.584,0.62,2.366,0.953
		c0.089,0.038,0.18,0.072,0.269,0.11c0.875,0.378,1.739,0.776,2.596,1.191c0.233,0.113,0.463,0.233,0.695,0.35
		c0.624,0.312,1.244,0.632,1.858,0.963c0.276,0.149,0.55,0.301,0.824,0.454c0.59,0.33,1.175,0.67,1.755,1.019
		c0.247,0.148,0.495,0.294,0.74,0.445c0.754,0.467,1.502,0.948,2.238,1.447c0.051,0.034,0.104,0.066,0.155,0.102
		c0.791,0.539,1.568,1.1,2.336,1.675c0.211,0.157,0.417,0.321,0.626,0.481c0.554,0.427,1.103,0.859,1.645,1.305
		c0.244,0.201,0.487,0.403,0.729,0.607c0.521,0.44,1.034,0.891,1.541,1.349c0.215,0.193,0.432,0.385,0.644,0.581
		c0.673,0.624,1.335,1.26,1.983,1.913c0.029,0.03,0.06,0.059,0.09,0.088c0.678,0.688,1.338,1.395,1.987,2.115
		c0.188,0.207,0.369,0.422,0.554,0.632c0.459,0.523,0.912,1.053,1.355,1.593c0.208,0.254,0.415,0.51,0.62,0.767
		c0.428,0.538,0.848,1.085,1.26,1.639c0.179,0.24,0.36,0.477,0.536,0.72c0.558,0.771,1.104,1.555,1.631,2.356
		c0.014,0.021,0.028,0.04,0.042,0.062c0.54,0.822,1.057,1.663,1.562,2.516c0.153,0.259,0.299,0.522,0.45,0.785
		c0.348,0.607,0.689,1.222,1.02,1.845c0.162,0.306,0.322,0.613,0.479,0.923c0.319,0.625,0.627,1.259,0.928,1.898
		c0.134,0.284,0.271,0.564,0.4,0.851c0.417,0.921,0.819,1.852,1.197,2.801c13.209,33.186-2.985,70.797-36.172,84.006
		c-0.951,0.379-1.907,0.728-2.865,1.058c-0.301,0.104-0.603,0.198-0.905,0.298c-0.668,0.22-1.338,0.43-2.008,0.627
		c-0.342,0.101-0.684,0.197-1.025,0.291c-0.661,0.184-1.323,0.353-1.985,0.513c-0.317,0.076-0.634,0.157-0.951,0.229
		c-0.839,0.189-1.679,0.361-2.52,0.517c-0.13,0.024-0.26,0.054-0.39,0.077c-0.968,0.172-1.937,0.317-2.906,0.445
		c-0.287,0.037-0.573,0.065-0.859,0.099c-0.691,0.081-1.382,0.154-2.072,0.213c-0.344,0.028-0.688,0.053-1.031,0.076
		c-0.659,0.046-1.317,0.08-1.976,0.104c-0.322,0.013-0.644,0.027-0.965,0.034c-0.794,0.018-1.586,0.02-2.377,0.007
		c-0.171-0.002-0.343,0.002-0.514-0.001c-0.954-0.022-1.905-0.067-2.854-0.132c-0.278-0.018-0.554-0.046-0.831-0.068
		c-0.683-0.055-1.364-0.118-2.042-0.193c-0.335-0.037-0.67-0.08-1.004-0.122c-0.643-0.083-1.285-0.176-1.924-0.277
		c-0.315-0.051-0.63-0.098-0.944-0.152c-0.786-0.137-1.568-0.289-2.347-0.454c-0.15-0.032-0.302-0.058-0.452-0.091
		c-0.921-0.202-1.837-0.429-2.748-0.671c-0.27-0.071-0.537-0.151-0.805-0.227c-0.652-0.183-1.301-0.372-1.946-0.574
		c-0.317-0.1-0.633-0.203-0.948-0.308c-0.617-0.204-1.23-0.418-1.841-0.641c-0.292-0.106-0.585-0.211-0.876-0.321
		c-0.768-0.292-1.531-0.6-2.288-0.921c-0.114-0.049-0.23-0.092-0.344-0.141c-0.866-0.374-1.723-0.77-2.572-1.182
		c-0.25-0.121-0.498-0.25-0.747-0.375c-0.604-0.302-1.206-0.612-1.801-0.934c-0.29-0.155-0.577-0.314-0.864-0.476
		c-0.574-0.321-1.143-0.651-1.707-0.991c-0.26-0.155-0.521-0.309-0.78-0.469c-0.727-0.45-1.445-0.914-2.154-1.393
		c-0.078-0.053-0.158-0.102-0.236-0.154c-0.784-0.534-1.554-1.091-2.316-1.659c-0.224-0.169-0.442-0.343-0.665-0.514
		c-0.54-0.415-1.075-0.837-1.603-1.271c-0.254-0.208-0.505-0.419-0.756-0.631c-0.509-0.431-1.01-0.871-1.506-1.318
		c-0.225-0.202-0.452-0.402-0.674-0.608c-0.656-0.606-1.301-1.228-1.932-1.864c-0.045-0.045-0.092-0.087-0.137-0.133
		c-0.675-0.684-1.332-1.387-1.977-2.104c-0.193-0.214-0.381-0.436-0.572-0.653c-0.452-0.515-0.897-1.037-1.334-1.567
		c-0.214-0.261-0.425-0.523-0.635-0.786c-0.422-0.531-0.834-1.07-1.241-1.615c-0.184-0.246-0.37-0.489-0.551-0.739
		c-0.549-0.76-1.086-1.531-1.605-2.318c-0.021-0.033-0.044-0.064-0.066-0.097c-0.538-0.819-1.054-1.659-1.557-2.509
		c-0.156-0.263-0.304-0.53-0.456-0.796c-0.347-0.604-0.686-1.216-1.015-1.835C112.763,609.406,112.603,609.098,112.444,608.786z
		 M197.66,845.561l-0.614,0.647c-31.976-27.498-60.173-59.268-83.7-94.427l6.699,3.084l-5.076-4.27c0,0,20.851,3.977,52.552,7.769
		c9.494,12.194,21.839,20.081,36.715,23.425l0.057,0.014l0.056,0.011c0.092,0.021,0.183,0.038,0.271,0.055l0.023,0.005
		c0.063,0.014,0.122,0.027,0.179,0.038c5.888,1.276,11.512,1.779,16.716,1.495c0.181-0.011,0.361-0.021,0.542-0.033
		c14.414,2.72,24.392,10.7,31.288,20.063c-0.096,0.062-0.186,0.121-0.281,0.183c-1.132,0.733-2.246,1.459-3.338,2.176
		c-0.369,0.241-0.722,0.478-1.086,0.717c-0.789,0.52-1.579,1.039-2.346,1.549c-0.438,0.292-0.861,0.576-1.293,0.865
		c-0.674,0.45-1.35,0.901-2.007,1.345c-0.45,0.303-0.886,0.6-1.328,0.899c-0.62,0.419-1.24,0.84-1.844,1.252
		c-0.44,0.301-0.868,0.596-1.299,0.892c-0.587,0.404-1.174,0.808-1.748,1.204c-0.423,0.294-0.837,0.582-1.252,0.872
		c-0.558,0.388-1.114,0.775-1.658,1.157c-0.406,0.285-0.804,0.566-1.201,0.848c-0.539,0.38-1.072,0.758-1.597,1.131
		c-0.379,0.27-0.752,0.537-1.124,0.803c-0.521,0.373-1.035,0.742-1.541,1.107c-0.357,0.258-0.711,0.514-1.062,0.769
		c-0.502,0.365-0.998,0.726-1.485,1.083c-0.332,0.243-0.663,0.486-0.988,0.726c-0.491,0.36-0.972,0.717-1.447,1.07
		c-0.3,0.223-0.6,0.445-0.894,0.665c-0.492,0.367-0.972,0.729-1.447,1.086c-0.26,0.196-0.523,0.394-0.779,0.587
		c-0.487,0.369-0.961,0.731-1.431,1.09c-0.228,0.175-0.459,0.352-0.683,0.523c-0.504,0.387-0.992,0.765-1.475,1.14
		c-0.169,0.132-0.344,0.266-0.511,0.396c-0.54,0.421-1.063,0.831-1.576,1.236c-0.102,0.08-0.207,0.163-0.307,0.241
		C203.079,839.949,198.191,845.001,197.66,845.561z M276.82,886.322c-0.261,0.162-0.517,0.321-0.771,0.479
		c-0.117,0.073-0.233,0.146-0.349,0.218c-0.237,0.146-0.47,0.29-0.7,0.432c-0.129,0.08-0.256,0.157-0.383,0.235
		c-0.213,0.131-0.423,0.261-0.631,0.387c-0.137,0.084-0.271,0.166-0.406,0.247c-0.191,0.117-0.381,0.231-0.567,0.345
		c-0.145,0.087-0.286,0.172-0.428,0.258c-0.174,0.105-0.348,0.21-0.517,0.312c-0.135,0.08-0.265,0.158-0.396,0.236
		c-0.171,0.103-0.343,0.205-0.509,0.304c-0.132,0.078-0.258,0.152-0.387,0.229c-0.151,0.089-0.305,0.18-0.451,0.267
		c-0.208,0.122-0.407,0.238-0.605,0.354c-0.062,0.037-0.128,0.076-0.19,0.111c-0.266,0.155-0.521,0.304-0.77,0.447
		c-0.032,0.02-0.062,0.036-0.094,0.055c-0.21,0.121-0.415,0.239-0.611,0.353c-0.07,0.04-0.136,0.078-0.205,0.117
		c-0.157,0.09-0.313,0.179-0.461,0.263c-0.062,0.035-0.12,0.069-0.18,0.103c-0.156,0.088-0.307,0.174-0.453,0.256
		c-0.038,0.021-0.074,0.041-0.111,0.063c-0.161,0.089-0.315,0.176-0.462,0.259c-0.027,0.015-0.054,0.029-0.08,0.045
		c-0.15,0.083-0.294,0.163-0.431,0.238c-0.021,0.012-0.043,0.023-0.064,0.035c-0.142,0.079-0.275,0.152-0.402,0.222
		c-0.011,0.007-0.021,0.012-0.033,0.018c-0.954,0.522-1.465,0.787-1.484,0.797c0,0,0,0,0,0l-0.003,0.002
		c-17.377-8.948-41.855-27.186-55.954-38.881c0,0,3.017-3.175,10.23-9.146c0.003-0.004,0.007-0.007,0.01-0.01
		c1.9-1.572,4.095-3.342,6.599-5.296c0.032-0.025,0.062-0.049,0.094-0.074c1.266-0.987,2.613-2.022,4.04-3.104
		c0.006-0.005,0.011-0.009,0.017-0.013c0.053-0.041,0.107-0.081,0.16-0.121h0c0.627-0.475,1.275-0.961,1.934-1.452
		c0.148-0.111,0.298-0.224,0.448-0.334c0.629-0.469,1.27-0.943,1.927-1.428c0.028-0.02,0.053-0.039,0.08-0.06
		c0.003-0.002,0.006-0.005,0.01-0.007c0.045-0.033,0.09-0.066,0.136-0.1c0.729-0.536,1.477-1.082,2.24-1.636
		c0.034-0.024,0.064-0.047,0.098-0.071c0.124-0.09,0.253-0.183,0.378-0.273c0.663-0.479,1.339-0.967,2.029-1.46
		c0.068-0.049,0.133-0.096,0.202-0.145c0.068-0.049,0.138-0.099,0.206-0.147c0.795-0.568,1.609-1.146,2.44-1.731
		c0.027-0.019,0.053-0.038,0.08-0.057c0.154-0.109,0.315-0.221,0.471-0.331c0.692-0.486,1.396-0.979,2.114-1.479
		c0.031-0.021,0.061-0.043,0.092-0.064c0.067-0.046,0.13-0.092,0.197-0.138c0.106-0.074,0.215-0.149,0.322-0.224
		c0.852-0.59,1.718-1.189,2.604-1.796c0.03-0.021,0.059-0.041,0.089-0.062c0.183-0.125,0.372-0.253,0.556-0.379
		c0.734-0.502,1.48-1.01,2.238-1.522c0.119-0.08,0.232-0.158,0.352-0.239c0.141-0.095,0.286-0.191,0.428-0.288
		c0.921-0.621,1.856-1.249,2.812-1.886c0.02-0.013,0.04-0.026,0.06-0.04c0.192-0.129,0.391-0.259,0.585-0.388
		c0.805-0.536,1.623-1.076,2.452-1.622c0.133-0.088,0.26-0.173,0.393-0.261c0.173-0.112,0.35-0.229,0.524-0.343
		c0.992-0.651,1.997-1.307,3.024-1.973c0.063-0.041,0.123-0.08,0.186-0.121c6.947,14.952,8.166,29.264,8.214,29.869
		c0.897,11.51,10.658,20.545,22.22,20.545c0.562,0,1.131-0.022,1.692-0.064c1.369-0.102,2.75-0.336,4.09-0.693
		c10.351-2.767,17.275-12.534,16.468-23.225c-0.199-2.604-2.276-25.724-14.5-49.671c0.89-0.512,1.793-1.028,2.699-1.547
		c3.361,3.512,7.741,5.833,12.625,6.595c1.132,0.178,2.299,0.27,3.455,0.27c1.936,0,3.865-0.254,5.736-0.754
		c8.53-2.281,14.92-9.39,16.282-18.109c0.459-2.943,0.625-5.984,0.522-9.082c7.012-3.668,14.354-7.43,22.052-11.287
		c0,0,41.653-7.847,63.994-6.372c0,0-24.152,27.992-63.438,65.958c-5.021,4.853-9.936,9.443-14.726,13.788
		c-0.001,0.002-0.002,0.003-0.003,0.004c-0.737,0.668-1.47,1.329-2.2,1.986c-0.051,0.045-0.102,0.092-0.153,0.137
		c-0.703,0.632-1.402,1.257-2.099,1.876c-0.076,0.068-0.152,0.136-0.227,0.203c-0.688,0.611-1.372,1.216-2.054,1.816
		c-0.075,0.067-0.151,0.134-0.227,0.2c-0.687,0.604-1.372,1.204-2.053,1.799c-0.06,0.052-0.119,0.104-0.179,0.155
		c-0.699,0.609-1.396,1.214-2.089,1.813c-0.025,0.021-0.051,0.044-0.076,0.065c-6.602,5.697-12.902,10.885-18.838,15.584
		c-0.005,0.004-0.01,0.008-0.015,0.012c-0.643,0.509-1.281,1.012-1.916,1.509c-0.029,0.023-0.058,0.047-0.087,0.069
		c-0.624,0.489-1.243,0.973-1.859,1.451c-0.032,0.024-0.063,0.049-0.095,0.073c-0.619,0.48-1.233,0.956-1.843,1.426
		c-0.021,0.015-0.041,0.03-0.061,0.046c-0.621,0.478-1.237,0.949-1.848,1.415c-0.003,0.002-0.004,0.004-0.007,0.006
		c-5.583,4.255-10.772,8.035-15.507,11.361c-0.042,0.028-0.083,0.058-0.125,0.087c-0.475,0.333-0.944,0.66-1.409,0.984
		c-0.067,0.047-0.135,0.094-0.202,0.142c-0.455,0.316-0.906,0.628-1.353,0.937c-0.064,0.044-0.129,0.09-0.193,0.134
		c-0.444,0.306-0.884,0.608-1.32,0.906c-0.067,0.046-0.134,0.092-0.202,0.138c-0.432,0.295-0.86,0.586-1.283,0.873
		c-0.061,0.041-0.121,0.081-0.181,0.122c-0.433,0.293-0.861,0.582-1.284,0.866c-0.027,0.018-0.053,0.035-0.079,0.053
		c-2.746,1.842-5.279,3.495-7.585,4.964c-0.05,0.031-0.101,0.064-0.15,0.096c-0.317,0.202-0.627,0.397-0.936,0.594
		c-0.088,0.055-0.177,0.111-0.264,0.167c-0.286,0.18-0.565,0.355-0.843,0.53C277.029,886.19,276.924,886.257,276.82,886.322z
		 M886.653,751.781C803.259,876.409,661.216,958.472,500,958.472c-80.492,0-156.204-20.459-222.225-56.457
		c10.583-6.248,31.25-19.457,57.607-41.207c0.855-0.705,1.714-1.418,2.582-2.142c0.56-0.468,1.124-0.939,1.688-1.415
		c0.812-0.684,1.631-1.377,2.453-2.075c0.559-0.476,1.116-0.946,1.679-1.429c1.272-1.09,2.554-2.195,3.848-3.322
		c0.538-0.468,1.084-0.952,1.626-1.427c0.85-0.745,1.702-1.494,2.561-2.256c0.657-0.581,1.318-1.172,1.979-1.764
		c0.778-0.695,1.56-1.398,2.344-2.107c0.668-0.603,1.335-1.205,2.009-1.817c0.924-0.842,1.857-1.7,2.791-2.561
		c0.922-0.849,1.848-1.708,2.779-2.575c2.844-2.652,5.72-5.37,8.638-8.189c39.287-37.967,63.3-65.711,64.303-66.873l14.088-16.328
		c25.716-22.394,36.09-37.829,74.371-64.931c43.645-30.899,113.103-10.656,126.068,25.62c0,0-72.236-3.705-44.453,57.419
		c27.217,59.878,123.173,10.187,171.33-40.749c34.715-36.718,91.686-43.784,118.542-11.242
		C896.606,710.645,856.784,713.552,886.653,751.781z M880.484,520.63l-591.82,138.413l-19.228-18.177
		c-0.004,3.583-1.635,7.153-4.809,9.665l-78.768,62.316c-0.397,0.314-0.812,0.595-1.234,0.858
		c4.495,19.147,13.22,30.536,26.073,33.949c4.017,0.006,7.933,0.226,11.738,0.667c3.907-1.229,6.45-4.591,10.667-10.171
		c6.733-8.913,15.952-21.119,36.111-23.918c15.28-2.123,30.29,3.411,42.264,15.589c9.633,9.796,16.094,22.625,17.922,34.64
		c0.004,0.027,0.008,0.054,0.012,0.08c0.275,1.826,0.445,3.632,0.5,5.406c0.002,0.048,0.001,0.096,0.003,0.145
		c0.014,0.501,0.019,1.001,0.014,1.497c-0.001,0.147-0.005,0.295-0.008,0.442c-0.008,0.4-0.021,0.8-0.042,1.195
		c-0.008,0.174-0.017,0.347-0.028,0.519c-0.025,0.387-0.057,0.771-0.094,1.152c-0.015,0.159-0.027,0.319-0.044,0.478
		c-0.058,0.529-0.125,1.056-0.206,1.575c-0.763,4.89-4.353,8.637-8.847,9.839c-0.351,0.095-0.709,0.167-1.07,0.229
		c-0.045,0.008-0.089,0.021-0.134,0.028c-0.038,0.007-0.077,0.008-0.114,0.013c-0.353,0.054-0.708,0.094-1.069,0.115
		c-0.021,0.001-0.04,0.005-0.061,0.006c-0.048,0.003-0.097-0.001-0.145,0c-0.17,0.008-0.341,0.018-0.513,0.018
		c-0.129,0-0.261-0.011-0.391-0.016c-0.071-0.002-0.141,0.005-0.212,0.001c-0.045-0.003-0.09-0.012-0.135-0.015
		c-0.38-0.022-0.762-0.058-1.146-0.118c-0.433-0.068-0.856-0.16-1.27-0.271c-0.064-0.017-0.125-0.041-0.188-0.06
		c-0.357-0.102-0.708-0.215-1.049-0.347c-0.029-0.011-0.057-0.025-0.086-0.037c-5.151-2.035-8.399-7.42-7.509-13.124
		c0.054-0.345,0.087-0.714,0.109-1.094c0.007-0.116,0.009-0.235,0.014-0.354c0.009-0.284,0.01-0.576,0.003-0.877
		c-0.003-0.127-0.004-0.254-0.011-0.384c-0.019-0.412-0.048-0.833-0.097-1.271c-0.006-0.053-0.016-0.109-0.022-0.162
		c-0.047-0.396-0.107-0.801-0.178-1.214c-0.028-0.164-0.06-0.331-0.092-0.497c-0.061-0.323-0.13-0.651-0.205-0.983
		c-0.039-0.171-0.076-0.34-0.118-0.514c-0.116-0.475-0.242-0.955-0.386-1.444c-0.001-0.004-0.001-0.008-0.002-0.011
		c-1.679-5.724-5.208-12.338-10.381-17.599c-4.574-4.652-12.043-9.916-21.655-8.579c-10.212,1.417-14.366,6.915-20.116,14.524
		c-0.818,1.085-1.672,2.211-2.567,3.351c5.118,2.461,9.935,5.451,14.433,8.958c0.793,0.619,1.574,1.26,2.348,1.912
		c0.212,0.178,0.424,0.36,0.635,0.541c0.67,0.575,1.333,1.162,1.987,1.762c0.11,0.101,0.221,0.197,0.331,0.299
		c0.743,0.688,1.474,1.395,2.197,2.115c0.191,0.19,0.38,0.385,0.571,0.578c0.598,0.606,1.188,1.224,1.772,1.853
		c0.145,0.156,0.292,0.31,0.437,0.468c0.695,0.76,1.379,1.536,2.054,2.328c0.162,0.189,0.322,0.384,0.482,0.576
		c0.554,0.66,1.1,1.331,1.64,2.012c0.156,0.197,0.313,0.392,0.468,0.591c0.65,0.836,1.291,1.685,1.92,2.552
		c0.123,0.169,0.242,0.342,0.363,0.512c0.528,0.736,1.048,1.484,1.56,2.244c0.156,0.23,0.312,0.46,0.465,0.691
		c0.604,0.911,1.201,1.836,1.783,2.779c0.072,0.116,0.142,0.236,0.213,0.354c0.519,0.847,1.027,1.707,1.528,2.579
		c0.147,0.256,0.294,0.513,0.44,0.771c0.558,0.99,1.109,1.991,1.646,3.013c9.922,18.925,12.929,37.813,13.725,44.446
		c0.002,0.021,0.005,0.042,0.007,0.063c0.035,0.295,0.066,0.564,0.093,0.809c0.004,0.041,0.009,0.085,0.014,0.124
		c0.012,0.108,0.022,0.205,0.032,0.302c0.006,0.062,0.012,0.119,0.018,0.176c0.008,0.079,0.016,0.157,0.023,0.227
		c0.011,0.115,0.021,0.216,0.029,0.307c0.003,0.04,0.006,0.067,0.009,0.103c0.006,0.063,0.011,0.119,0.015,0.167
		c0.002,0.024,0.003,0.044,0.005,0.064c0.005,0.055,0.009,0.101,0.01,0.126c0.025,0.332,0.032,0.661,0.031,0.988
		c0,0.098-0.004,0.192-0.007,0.288c-0.007,0.241-0.021,0.482-0.043,0.722c-0.008,0.093-0.015,0.188-0.025,0.28
		c-0.035,0.315-0.08,0.629-0.139,0.937c-0.006,0.035-0.017,0.069-0.024,0.104c-0.055,0.274-0.121,0.544-0.194,0.811
		c-0.028,0.103-0.06,0.204-0.091,0.307c-0.063,0.205-0.131,0.407-0.204,0.608c-0.036,0.101-0.071,0.202-0.11,0.301
		c-0.108,0.274-0.224,0.546-0.352,0.811c-0.038,0.079-0.081,0.154-0.121,0.231c-0.098,0.193-0.201,0.387-0.31,0.574
		c-0.064,0.111-0.132,0.221-0.2,0.331c-0.095,0.153-0.194,0.304-0.296,0.452c-0.074,0.108-0.146,0.217-0.224,0.322
		c-0.152,0.207-0.311,0.41-0.475,0.607c-0.097,0.115-0.199,0.226-0.3,0.338c-0.112,0.126-0.226,0.25-0.343,0.37
		c-0.105,0.107-0.214,0.212-0.324,0.316c-0.111,0.105-0.225,0.209-0.34,0.31c-0.113,0.1-0.226,0.201-0.343,0.296
		c-0.188,0.153-0.381,0.3-0.578,0.441c-1.166,0.841-2.488,1.484-3.925,1.869c-0.718,0.191-1.462,0.319-2.23,0.377
		c-0.085,0.006-0.17,0.012-0.256,0.017c-0.181,0.011-0.357,0.001-0.536,0.003c-0.186,0.002-0.372,0.009-0.556,0.003
		c-0.223-0.008-0.442-0.031-0.663-0.051c-0.18-0.017-0.36-0.027-0.538-0.051c-0.219-0.029-0.434-0.074-0.649-0.115
		c-0.173-0.034-0.348-0.061-0.519-0.102c-0.213-0.051-0.421-0.116-0.63-0.178c-0.166-0.049-0.334-0.094-0.498-0.149
		c-0.206-0.071-0.404-0.156-0.605-0.237c-0.16-0.064-0.322-0.123-0.479-0.194c-0.196-0.09-0.384-0.192-0.574-0.292
		c-0.153-0.08-0.309-0.154-0.458-0.24c-0.184-0.105-0.358-0.225-0.536-0.34c-0.146-0.095-0.295-0.184-0.437-0.285
		c-0.17-0.121-0.331-0.255-0.494-0.384c-0.138-0.109-0.28-0.214-0.413-0.329c-0.156-0.135-0.301-0.281-0.45-0.425
		c-0.129-0.124-0.263-0.242-0.387-0.371c-0.14-0.146-0.269-0.305-0.401-0.459c-0.12-0.138-0.244-0.271-0.357-0.414
		c-0.124-0.156-0.233-0.323-0.349-0.486c-0.108-0.153-0.223-0.301-0.325-0.459c-0.105-0.165-0.198-0.34-0.296-0.511
		c-0.096-0.166-0.199-0.328-0.287-0.5c-0.091-0.177-0.166-0.362-0.248-0.544c-0.08-0.175-0.167-0.346-0.238-0.526
		c-0.077-0.194-0.136-0.396-0.204-0.596c-0.038-0.113-0.081-0.225-0.116-0.339c-0.003-0.012-0.008-0.022-0.012-0.034
		c-0.016-0.053-0.036-0.104-0.051-0.156c-0.064-0.226-0.11-0.459-0.161-0.69c-0.02-0.09-0.044-0.179-0.063-0.269
		c-0.01-0.05-0.025-0.098-0.034-0.147c-0.005-0.022-0.011-0.046-0.015-0.068c-0.072-0.398-0.125-0.806-0.157-1.218
		c-0.004-0.045-0.009-0.105-0.015-0.178c-0.002-0.021-0.005-0.053-0.007-0.076c-0.005-0.061-0.01-0.121-0.018-0.195
		c-0.002-0.029-0.007-0.068-0.01-0.101c-0.008-0.078-0.016-0.159-0.025-0.251c-0.004-0.042-0.01-0.092-0.015-0.139
		c-0.01-0.096-0.02-0.194-0.032-0.303c-0.006-0.053-0.012-0.111-0.019-0.166c-0.012-0.11-0.025-0.225-0.04-0.347
		c-0.007-0.063-0.016-0.132-0.024-0.199c-0.016-0.134-0.033-0.271-0.051-0.416c-0.007-0.061-0.016-0.124-0.024-0.188
		c-0.02-0.154-0.041-0.315-0.063-0.482c-0.01-0.072-0.02-0.147-0.03-0.224c-0.024-0.172-0.048-0.351-0.075-0.534
		c-0.011-0.072-0.021-0.146-0.032-0.221c-0.028-0.196-0.059-0.4-0.09-0.608c-0.011-0.074-0.023-0.147-0.035-0.223
		c-0.035-0.227-0.072-0.462-0.111-0.703c-0.01-0.061-0.02-0.121-0.03-0.183c-0.043-0.264-0.089-0.536-0.137-0.813
		c-0.008-0.048-0.016-0.096-0.024-0.144c-0.053-0.306-0.109-0.622-0.168-0.944c-0.004-0.024-0.008-0.048-0.013-0.072
		c-0.457-2.489-1.092-5.459-1.968-8.738c-0.008-0.029-0.016-0.059-0.023-0.087c-0.116-0.434-0.237-0.873-0.361-1.317
		c-0.014-0.05-0.029-0.101-0.043-0.15c-0.12-0.424-0.243-0.852-0.371-1.284c-0.02-0.067-0.041-0.136-0.061-0.202
		c-0.125-0.421-0.254-0.845-0.387-1.272c-0.023-0.075-0.047-0.151-0.071-0.227c-0.132-0.423-0.269-0.849-0.41-1.278
		c-0.026-0.081-0.052-0.161-0.079-0.241c-0.142-0.431-0.289-0.865-0.438-1.301c-0.027-0.079-0.054-0.156-0.081-0.235
		c-0.154-0.443-0.313-0.89-0.475-1.339c-0.026-0.072-0.051-0.145-0.078-0.217c-0.169-0.466-0.344-0.935-0.523-1.404
		c-0.021-0.055-0.041-0.108-0.062-0.164c-0.191-0.499-0.388-1.001-0.59-1.505c-0.011-0.026-0.021-0.053-0.031-0.079
		c-1.084-2.694-2.329-5.445-3.757-8.19c-8.021-15.422-21.826-30.662-45.48-34.578c-0.53,0.05-1.068,0.09-1.616,0.12
		c-0.015,0.001-0.029,0.001-0.044,0.002c-0.174,0.009-0.355,0.012-0.532,0.019c-0.382,0.016-0.765,0.03-1.156,0.035
		c-0.226,0.003-0.458,0-0.687,0c-0.351-0.001-0.702-0.003-1.06-0.012c-0.248-0.006-0.5-0.018-0.752-0.027
		c-0.351-0.015-0.704-0.032-1.061-0.055c-0.258-0.016-0.52-0.036-0.782-0.056c-0.363-0.029-0.731-0.063-1.103-0.1
		c-0.263-0.027-0.527-0.054-0.793-0.084c-0.388-0.046-0.781-0.097-1.177-0.151c-0.258-0.035-0.515-0.068-0.776-0.107
		c-0.441-0.067-0.89-0.144-1.341-0.222c-0.224-0.039-0.443-0.073-0.669-0.115c-0.682-0.125-1.372-0.263-2.076-0.416
		c-0.054-0.011-0.106-0.021-0.16-0.033c-0.091-0.021-0.178-0.035-0.27-0.055c-0.414-0.094-0.83-0.194-1.247-0.297
		c-0.112-0.028-0.224-0.057-0.336-0.085c-0.366-0.094-0.732-0.19-1.101-0.292c-0.061-0.018-0.121-0.033-0.181-0.049
		c-0.421-0.119-0.843-0.243-1.267-0.374c-0.101-0.03-0.202-0.063-0.302-0.094c-0.365-0.114-0.73-0.232-1.096-0.355
		c-0.076-0.025-0.152-0.049-0.227-0.075c-0.435-0.148-0.87-0.303-1.306-0.464c-0.074-0.027-0.148-0.057-0.222-0.083
		c-0.384-0.146-0.77-0.294-1.155-0.449c-0.077-0.03-0.152-0.061-0.229-0.091c-0.451-0.184-0.902-0.374-1.354-0.572
		c-0.023-0.011-0.047-0.021-0.07-0.031c-0.429-0.189-0.858-0.387-1.287-0.591c-0.068-0.031-0.136-0.063-0.204-0.097
		c-0.913-0.438-1.826-0.908-2.737-1.413c-0.055-0.03-0.109-0.061-0.164-0.092c-0.924-0.517-1.844-1.068-2.761-1.658
		c-0.037-0.023-0.074-0.049-0.111-0.072c-0.932-0.604-1.858-1.247-2.777-1.931c-0.017-0.013-0.033-0.025-0.05-0.038
		c-0.452-0.337-0.903-0.686-1.352-1.043c-0.015-0.012-0.03-0.023-0.044-0.035c-13.679-10.946-25.463-31.559-27.707-69.626
		c-0.818-13.892-0.205-27.355,0.756-38.175c5.245,0.847,10.634,1.157,16.1,0.859c2.772-0.151,5.526-0.469,8.256-0.927
		c-0.826,8.528-1.466,19.13-1.196,30.202l66.047-52.253c2.623-2.075,5.838-3.054,9.016-3.008l-9.645-9.118l0.436-2.249
		l94.878-489.259c-38.401-15.64-61.755-37.775-48.035-44.573C355.982,52.396,425.971,35.093,500,35.093
		c234.592,0,428.601,173.754,460.354,399.588c3.001,21.343,4.553,43.149,4.553,65.319
		C964.907,502.827,929.796,521.792,880.484,520.63z M295.175,778.124c-1.068,0.609-2.129,1.216-3.176,1.818
		c-3.639-5.445-7.638-10.399-11.991-14.843c4.546-0.04,9.105-0.126,13.667-0.264c1.257,3.147,1.704,5.729,1.561,6.769
		C294.89,773.819,294.886,776.009,295.175,778.124z"/>
	<path d="M607.811,131.481c-5.621-8.446-12.066-16.309-19.229-23.27c-9.738-9.48-20.73-17.087-31.866-23.313
		c-11.154-6.227-22.485-11.101-33.423-15.058c-10.945-3.957-21.521-6.966-31.364-9.34c-19.704-4.717-36.469-6.847-48.215-7.74
		c-5.877-0.444-10.508-0.568-13.662-0.563c-3.156,0.002-4.835,0.11-4.835,0.11s1.683-0.051,4.832,0.057
		c3.149,0.102,7.764,0.386,13.606,1.03c11.675,1.292,28.304,3.993,47.694,9.349c9.684,2.691,20.058,6.034,30.721,10.311
		c10.655,4.274,21.626,9.455,32.289,15.898c9.371,5.671,18.518,12.348,26.674,20.229c-33.149-9.57-46.461,6.357-109.511,27.402
		c-41.169,13.741-86.598,6.992-121.727-5.795l-94.16,485.558l14.481,13.69l338.822-497.263
		C608.56,132.346,608.194,131.909,607.811,131.481z"/>
	<path d="M723.424,436.645c-43.771-52.846-26.722-200.259-111.346-300.253L273.524,633.26l17.609,16.647l563.331-131.752
		C813.887,511.352,767.167,489.458,723.424,436.645z"/>
</g>
</svg>
