<?xml version="1.0" encoding="utf-8"?>
<!-- Generator: Adobe Illustrator 16.0.0, SVG Export Plug-In . SVG Version: 6.00 Build 0)  -->
<!DOCTYPE svg PUBLIC "-//W3C//DTD SVG 1.1//EN" "http://www.w3.org/Graphics/SVG/1.1/DTD/svg11.dtd">
<svg version="1.1" id="Layer_1" xmlns="http://www.w3.org/2000/svg" xmlns:xlink="http://www.w3.org/1999/xlink" x="0px" y="0px"
	 width="1000px" height="1000px" viewBox="0 0 1000 1000" enable-background="new 0 0 1000 1000" xml:space="preserve">
<g>
	<path d="M500.107,0.478c-276.143,0-500,223.857-500,500c0,276.142,223.857,499.999,500,499.999s500-223.857,500-499.999
		C1000.106,224.334,776.25,0.478,500.107,0.478z M297.688,100.008c66.536,0,120.474,53.938,120.474,120.474
		s-53.938,120.474-120.474,120.474c-5.917,0-11.732-0.435-17.42-1.259c-0.001,0-0.001,0-0.002,0
		c-7.528-1.091-14.832-2.875-21.841-5.291c-0.093-0.032-0.185-0.065-0.277-0.098c-0.875-0.304-1.747-0.617-2.612-0.94
		c-0.179-0.067-0.356-0.135-0.534-0.203c-0.777-0.295-1.55-0.596-2.319-0.906c-0.231-0.093-0.462-0.188-0.693-0.283
		c-0.713-0.292-1.422-0.591-2.128-0.897c-0.264-0.114-0.527-0.229-0.791-0.346c-0.668-0.295-1.334-0.597-1.997-0.904
		c-0.284-0.131-0.567-0.263-0.85-0.397c-0.64-0.303-1.275-0.612-1.909-0.925c-0.293-0.146-0.586-0.289-0.877-0.436
		c-0.624-0.315-1.242-0.638-1.86-0.963c-0.29-0.153-0.581-0.304-0.87-0.459c-0.624-0.335-1.242-0.679-1.858-1.025
		c-0.273-0.153-0.548-0.303-0.82-0.458c-0.661-0.378-1.315-0.764-1.969-1.154c-0.218-0.13-0.439-0.256-0.656-0.388
		c-0.854-0.517-1.701-1.043-2.541-1.58c-0.011-0.006-0.021-0.013-0.031-0.019c-33.446-21.407-55.618-58.885-55.618-101.543
		C177.213,153.946,231.151,100.008,297.688,100.008z M317.753,784.79c-13.158-4.12-20.495-18.109-16.412-31.271
		c0.105-0.341,10.437-34.593,6.074-73.115c-4.417-39.003-22.255-68.035-53.104-86.612c-8.455-2.482-17.522-6.746-27.238-13.391
		c-0.03-0.021-0.06-0.042-0.09-0.063c-0.141-0.098-0.283-0.194-0.421-0.294c-32.987-22.837-64.814-71.642-30.678-174.668
		c8.096-24.434,18.339-47.184,27.421-65.237c14.334,8.948,30.121,15.205,46.733,18.494c-6.747,13.123-14.426,29.416-21.17,47.061
		c39.542,22.049,84.002,26.803,132.253,14.103c26.568-6.994,47.567-17.721,58.407-23.952l-15.06-33.639
		c-2.407,2.509-4.371,4.737-5.884,6.515c-0.589,0.695-1.115,1.315-1.572,1.854c-0.241,0.284-0.464,0.546-0.668,0.787
		c-0.244,0.276-0.465,0.527-0.664,0.751c-0.05,0.057-0.099,0.112-0.146,0.165l-0.07,0.079l-0.034,0.039
		c-0.006,0.008-0.021,0.023-0.077,0.077c-0.354,0.34-0.696,0.648-1.02,0.925c-0.325,0.277-0.632,0.524-0.916,0.743
		c-0.254,0.189-0.483,0.361-0.688,0.514c-0.201,0.175-0.305,0.265-0.305,0.265c-5.838,5.084-14.692,4.474-19.777-1.365
		c-5.085-5.838-4.474-14.692,1.364-19.777c0.693-0.604,1.43-1.127,2.197-1.572l1.499-0.852c0,0,0.118-0.067,0.347-0.197
		c-0.105,0.066-0.223,0.141-0.354,0.223c-0.162,0.109-0.335,0.236-0.516,0.383c-0.18,0.147-0.366,0.315-0.551,0.505
		c-0.036,0.035-0.029,0.032-0.014,0.02l0.028-0.021l0.058-0.044l0.122-0.091c0.171-0.127,0.361-0.27,0.571-0.427
		c0.247-0.195,0.517-0.408,0.808-0.638c0.612-0.483,1.315-1.038,2.103-1.66c3.226-2.536,7.995-6.106,13.955-9.884
		c0.027-0.017,0.055-0.034,0.081-0.05c-1.648-4.913,0.67-10.368,5.497-12.529c4.303-1.926,9.223-0.616,12.059,2.876
		c1.138-0.543,2.287-1.084,3.471-1.59c0.997-0.435,2.001-0.873,3.014-1.314c1.024-0.412,2.054-0.827,3.092-1.244
		c2.059-0.855,4.204-1.582,6.331-2.361c2.149-0.732,4.323-1.436,6.51-2.103c2.21-0.607,4.388-1.304,6.624-1.813l3.328-0.814
		c1.107-0.269,2.231-0.471,3.34-0.708c1.11-0.224,2.218-0.447,3.323-0.67c1.111-0.184,2.219-0.367,3.322-0.549
		c2.195-0.396,4.396-0.648,6.558-0.915c2.155-0.304,4.307-0.44,6.405-0.621c2.096-0.208,4.171-0.261,6.189-0.348
		c1.01-0.036,2.005-0.093,2.991-0.108c0.986,0,1.959,0.001,2.92,0.002c3.832-0.061,7.449,0.189,10.761,0.328
		c1.654,0.144,3.24,0.282,4.747,0.413c0.752,0.066,1.483,0.13,2.194,0.192c0.709,0.092,1.397,0.181,2.064,0.267
		c2.665,0.374,4.98,0.591,6.872,0.968c3.775,0.661,5.933,1.039,5.933,1.039s-2.184,0.056-6.006,0.153
		c-1.902,0.003-4.219,0.249-6.854,0.404c-0.658,0.046-1.339,0.094-2.039,0.143c-0.697,0.078-1.415,0.159-2.152,0.242
		c-1.468,0.165-3.012,0.338-4.621,0.52c-3.205,0.509-6.666,0.958-10.272,1.746c-0.902,0.181-1.815,0.364-2.74,0.549
		c-0.921,0.201-1.847,0.445-2.783,0.668c-1.871,0.461-3.782,0.894-5.691,1.483c-1.914,0.562-3.862,1.08-5.792,1.764
		c-1.938,0.646-3.896,1.276-5.827,2.046c-0.968,0.367-1.939,0.735-2.914,1.104c-0.959,0.404-1.921,0.81-2.886,1.215
		c-0.958,0.417-1.928,0.797-2.875,1.241l-2.837,1.334c-1.901,0.851-3.727,1.878-5.572,2.804c-1.821,0.985-3.615,1.994-5.374,3.018
		c-1.737,1.071-3.479,2.073-5.13,3.19c-0.83,0.545-1.654,1.087-2.473,1.625c-0.801,0.562-1.597,1.119-2.386,1.672
		c-1.482,1.018-2.88,2.109-4.268,3.142l17.381,38.822c9.217-1.52,18.909,2.224,24.602,10.411
		c7.536,10.838,5.278,25.567-4.839,33.732l18.764,41.91c2.299,5.135,0,11.162-5.135,13.46c-1.352,0.606-2.766,0.893-4.157,0.893
		c-3.894,0-7.61-2.244-9.304-6.027l-17.663-39.451c-14.072,7.734-36.577,18.466-64.348,25.981
		c-22.187,6.004-44.109,8.989-65.48,8.989c-33.659,0-65.954-7.403-95.787-22.073c-2.784,14.378-3.765,27.369-2.893,38.818
		c1.52,19.953,8.674,34.467,21.82,44.31c6.739,2.71,13.177,5.706,19.306,8.99c6.654,0.269,12.84-3.473,23.537-9.956
		c18.157-11.005,43.024-26.08,80.818-16.8c28.678,7.039,51.434,27.467,64.075,57.519c13.784,32.767,13.216,71.414-1.412,96.169
		c-4.666,7.897-12.999,12.288-21.551,12.288c-4.325,0-8.705-1.121-12.698-3.48c-11.889-7.025-15.832-22.359-8.807-34.248
		c5.609-9.492,6.581-31.819-1.63-51.337c-4.495-10.685-13.33-24.275-29.9-28.342c-16.884-4.146-26.347,0.92-42.974,10.999
		c-1.372,0.831-2.792,1.692-4.26,2.563c4.593,5.209,8.84,10.708,12.69,16.529c14.655,22.158,23.654,48.397,26.747,77.989
		c5.077,48.589-7.674,90.063-8.219,91.804c-3.348,10.692-13.214,17.541-23.855,17.541
		C322.756,785.938,320.241,785.568,317.753,784.79z M499.412,965.385c-58.993,0-115.419-10.987-167.345-31.028l399.468-759.386
		l231.323,362.636C943.942,777.011,743.678,965.385,499.412,965.385z"/>
	<polygon points="732,206 648.195,365.313 700,354 778,401 801,345.37 833.625,365.312 	"/>
</g>
</svg>
