<?xml version="1.0" encoding="utf-8"?>
<!-- Generator: Adobe Illustrator 16.0.0, SVG Export Plug-In . SVG Version: 6.00 Build 0)  -->
<!DOCTYPE svg PUBLIC "-//W3C//DTD SVG 1.1//EN" "http://www.w3.org/Graphics/SVG/1.1/DTD/svg11.dtd">
<svg version="1.1" id="Layer_1" xmlns="http://www.w3.org/2000/svg" xmlns:xlink="http://www.w3.org/1999/xlink" x="0px" y="0px"
	 width="1000px" height="1000px" viewBox="0 0 1000 1000" enable-background="new 0 0 1000 1000" xml:space="preserve">
<g>
	<path d="M702.111,408.397l0.365-33.409c-2.765,3.237-5.567,6.642-8.322,10.166c-7.356,9.407-13.251,18.169-17.654,26.195
		c2.857-1.181,4.428-1.92,4.497-1.953C687.881,406.065,695.472,405.932,702.111,408.397z"/>
	<path d="M710.9,470.746c-3.57-3.097-6.328-7.258-7.867-12.047c-2.564,1.174-8.422,3.742-16.926,6.817
		C692.732,468.084,701.027,469.832,710.9,470.746z"/>
	<path d="M500.371,0.365c-276.143,0-500,223.857-500,500c0,276.142,223.857,500,500,500s500-223.857,500-500
		C1000.37,224.222,776.514,0.365,500.371,0.365z M363.837,172.007c5.547-66.305,63.792-115.559,130.097-110.012
		c66.304,5.546,115.558,63.792,110.012,130.097c-5.547,66.305-63.792,115.559-130.097,110.012
		C407.545,296.559,358.29,238.312,363.837,172.007z M261.945,416.712c20.05-93.017,136.879-103.209,136.879-103.209
		s-44.477,107.662-7.409,205.413C391.416,518.916,231.535,557.792,261.945,416.712z M251.485,761.252
		c2.071-5.778,8.435-8.781,14.212-6.71l40.101,14.381c0.604,0.217,1.171,0.49,1.711,0.796c13.693-5.03,39.657-3.099,68.744,5.651
		c94.25-109.17,54.674-233.305,54.261-234.553c-0.41-1.239-0.718-2.486-0.928-3.734c-14.959-27.438-22.491-61.438-22.425-101.546
		c0.07-42.97,8.804-86.103,16.405-118.879c0.314-1.355,0.738-2.657,1.251-3.903c15.259,6.322,31.495,9.883,48.092,10.511
		c-0.062,1.552-0.263,3.121-0.626,4.69c-3.429,14.786-8.907,38.415-12.214,65.094c1.59,0.827,3.117,1.832,4.547,3.031
		c36.435,30.548,81.132,43.397,132.847,38.187c22.468-2.263,41.617-7.607,54.213-11.915c4.524-10.445,11.78-22.068,21.758-34.819
		c4.847-6.193,9.794-11.957,14.372-17.021c1.265-12.501,11.022-22.171,22.767-22.043c12.498,0.138,22.511,11.325,22.357,24.987
		l-0.879,80.326c-0.109,9.803-5.417,18.215-13.024,22.137l-2.513,228.89l15.438,0.169c3.827,0.043,6.888,3.466,6.844,7.644
		c-0.045,4.178-3.182,7.531-7.009,7.491l-16.879-0.187L706.053,760l-7.97-40.258l-16.881-0.187c-3.823-0.041-6.884-3.46-6.837-7.64
		c0.043-4.178,3.179-7.531,7.004-7.49l15.439,0.168l2.436-222.019c-13.38-0.847-24.299-3.15-32.539-6.875
		c-2.345-1.059-4.487-2.243-6.438-3.542c-14.591,4.544-33.838,9.296-55.888,11.671c-9.616,1.035-19.104,1.55-28.438,1.55
		c-43.28,0-83.315-11.077-118.093-32.625c2.055,29.655,9.886,58.106,28.476,78.532c12.513,13.749,29.896,22.647,48.298,32.069
		c25.977,13.299,55.416,28.371,72.855,59.887c17.784,32.14,19.651,74.618,5.748,133.068c35.081,0.618,61.257,9.376,62.416,22.373
		c1.429,16.047-35.82,32.48-83.201,36.701c-35.996,3.208-67.478-1.557-81.157-11.068c-0.596,0.156-1.208,0.277-1.842,0.333
		l-42.434,3.782c-0.335,0.03-0.669,0.044-0.999,0.044c-5.693,0-10.542-4.349-11.057-10.127c-0.544-6.114,3.97-11.512,10.083-12.056
		l42.433-3.781c0.636-0.059,1.26-0.049,1.876-0.001c8.823-8.82,27.937-16.783,52.096-21.575c-0.046-2.254,0.206-4.552,0.804-6.841
		c27.728-106.22-3.359-122.134-50.411-146.225c-7.394-3.785-15.143-7.76-22.9-12.24c0.258,7.276,0.284,14.973-0.013,23.023
		c-2.392,64.919-24.644,125.701-64.569,176.932c24.767,13.993,39.532,29.756,35.693,40.461
		c-5.439,15.166-46.146,14.443-90.921-1.614c-34.006-12.197-60.575-29.73-69.005-44.104c-0.609-0.107-1.218-0.266-1.82-0.481
		l-40.101-14.381C252.417,773.393,249.413,767.029,251.485,761.252z M500.019,965.897c-107.358,0-206.211-36.964-284.88-98.116
		l46.294,5.122l30.562-11.113l52.789,13.892l49.083-13.892l106.503,15.743l24.079-9.752l23.152,13.457l85.815-13.457l10.5,7.9
		l13.892-14.818l15.744,6.918l13.892,6.974l37.045-6.974l18.521,9.752l42.591-9.752
		C706.818,929.265,607.696,965.897,500.019,965.897z"/>
</g>
</svg>
