<?xml version="1.0" encoding="utf-8"?>
<!-- Generator: Adobe Illustrator 16.0.0, SVG Export Plug-In . SVG Version: 6.00 Build 0)  -->
<!DOCTYPE svg PUBLIC "-//W3C//DTD SVG 1.1//EN" "http://www.w3.org/Graphics/SVG/1.1/DTD/svg11.dtd">
<svg version="1.1" id="Layer_1" xmlns="http://www.w3.org/2000/svg" xmlns:xlink="http://www.w3.org/1999/xlink" x="0px" y="0px"
	 width="1000px" height="1000px" viewBox="0 0 1000 1000" enable-background="new 0 0 1000 1000" xml:space="preserve">
<g>
	<polygon points="889.75,341.579 889.75,321.438 880.027,328.383 874.471,354.775 889.75,354.775 	"/>
	<path d="M899.552,375.612l-9.802,4.949c0,0-2.778,25.61,0,21.443s12.502,0.459,12.502,0.459l8.335-15.504L899.552,375.612z"/>
	<path d="M500,0C223.857,0,0,223.857,0,500.001C0,776.143,223.857,1000,500,1000c276.144,0,500-223.857,500-499.999
		C1000,223.857,776.144,0,500,0z M702.83,81.567c6.688,3.248,13.28,6.661,19.784,10.216l-21.01-5.697L702.83,81.567z
		 M779.154,128.225c7.265,5.463,14.361,11.134,21.285,17.004l-11.023,40.657l-107.005-29.015l13.861-51.12L779.154,128.225z
		 M519.168,758.92l15.073-55.593l107.004,29.015l-15.073,55.592L519.168,758.92z M620.84,807.597l-15.073,55.593l-107.004-29.014
		l15.073-55.592L620.84,807.597z M539.573,683.664l15.073-55.592l107.004,29.013l-15.073,55.593L539.573,683.664z M559.979,608.408
		l15.073-55.593l107.005,29.014l-15.073,55.593L559.979,608.408z M580.385,533.152l15.072-55.592l107.005,29.014l-15.074,55.591
		L580.385,533.152z M600.79,457.896l15.073-55.592l107.004,29.015l-15.074,55.592L600.79,457.896z M621.194,382.64l15.074-55.592
		l107.005,29.015l-15.074,55.591L621.194,382.64z M641.601,307.384l15.074-55.592l107.003,29.015l-15.073,55.591L641.601,307.384z
		 M662.006,232.127l15.074-55.591l107.003,29.014l-15.072,55.592L662.006,232.127z M253.289,217.398
		c0.223-0.946,0.458-1.886,0.702-2.821c0.079-0.305,0.164-0.605,0.245-0.909c0.17-0.633,0.343-1.264,0.521-1.892
		c0.101-0.351,0.205-0.698,0.308-1.047c0.171-0.58,0.346-1.158,0.525-1.733c0.112-0.359,0.226-0.718,0.341-1.075
		c0.184-0.57,0.373-1.138,0.564-1.704c0.116-0.344,0.232-0.688,0.352-1.03c0.212-0.609,0.432-1.216,0.654-1.82
		c0.106-0.288,0.208-0.577,0.316-0.864c0.333-0.886,0.673-1.767,1.025-2.641c0.007-0.019,0.016-0.037,0.023-0.056
		c0.345-0.855,0.701-1.704,1.063-2.548c0.123-0.285,0.25-0.567,0.375-0.852c0.254-0.577,0.51-1.154,0.772-1.727
		c0.15-0.326,0.303-0.651,0.456-0.977c0.248-0.527,0.498-1.054,0.753-1.576c0.162-0.334,0.326-0.666,0.491-0.998
		c0.259-0.52,0.523-1.036,0.789-1.551c0.164-0.316,0.327-0.635,0.494-0.95c0.295-0.558,0.596-1.11,0.898-1.662
		c0.144-0.262,0.285-0.526,0.43-0.787c0.451-0.807,0.908-1.607,1.376-2.401c0.027-0.046,0.056-0.092,0.083-0.138
		c0.442-0.748,0.893-1.489,1.35-2.227c0.165-0.266,0.334-0.527,0.501-0.791c0.327-0.517,0.654-1.031,0.988-1.542
		c0.196-0.299,0.394-0.596,0.592-0.893c0.315-0.474,0.633-0.944,0.955-1.413c0.207-0.302,0.416-0.603,0.625-0.902
		c0.327-0.465,0.657-0.928,0.99-1.389c0.208-0.287,0.415-0.575,0.625-0.861c0.362-0.491,0.729-0.979,1.099-1.465
		c0.185-0.243,0.367-0.488,0.553-0.729c0.554-0.718,1.114-1.43,1.683-2.134c0.051-0.063,0.105-0.126,0.156-0.189
		c0.522-0.643,1.05-1.28,1.585-1.91c0.204-0.242,0.413-0.479,0.619-0.719c0.388-0.451,0.778-0.901,1.173-1.346
		c0.238-0.268,0.478-0.533,0.717-0.799c0.374-0.414,0.75-0.826,1.129-1.234c0.249-0.269,0.499-0.535,0.75-0.801
		c0.384-0.407,0.773-0.811,1.163-1.211c0.246-0.253,0.491-0.507,0.739-0.758c0.427-0.432,0.86-0.857,1.293-1.283
		c0.214-0.21,0.426-0.422,0.641-0.63c0.646-0.624,1.298-1.242,1.958-1.852c0.075-0.069,0.151-0.136,0.226-0.204
		c0.589-0.541,1.183-1.077,1.783-1.606c0.242-0.214,0.487-0.422,0.729-0.634c0.441-0.383,0.883-0.764,1.329-1.141
		c0.275-0.232,0.552-0.461,0.829-0.69c0.423-0.351,0.848-0.698,1.275-1.043c0.287-0.231,0.575-0.462,0.864-0.69
		c0.433-0.343,0.869-0.681,1.306-1.017c0.281-0.217,0.563-0.434,0.846-0.647c0.478-0.361,0.96-0.717,1.443-1.069
		c0.246-0.18,0.49-0.363,0.737-0.541c0.724-0.521,1.452-1.036,2.187-1.541c0.107-0.074,0.216-0.145,0.324-0.218
		c0.636-0.434,1.275-0.863,1.918-1.284c0.271-0.178,0.545-0.352,0.818-0.526c0.487-0.314,0.975-0.626,1.467-0.933
		c0.307-0.191,0.615-0.38,0.923-0.568c0.465-0.284,0.932-0.565,1.401-0.844c0.319-0.188,0.638-0.377,0.958-0.563
		c0.475-0.276,0.953-0.548,1.432-0.817c0.31-0.174,0.62-0.35,0.932-0.521c0.523-0.288,1.05-0.57,1.578-0.851
		c0.27-0.144,0.538-0.29,0.81-0.433c0.79-0.412,1.584-0.817,2.384-1.213c0.122-0.061,0.245-0.117,0.367-0.177
		c0.687-0.337,1.376-0.668,2.069-0.992c0.293-0.137,0.589-0.269,0.883-0.403c0.529-0.241,1.058-0.481,1.59-0.716
		c0.33-0.145,0.661-0.286,0.993-0.429c0.505-0.217,1.011-0.431,1.519-0.641c0.341-0.141,0.682-0.279,1.025-0.418
		c0.513-0.206,1.028-0.408,1.543-0.607c0.332-0.128,0.664-0.257,0.997-0.383c0.567-0.214,1.138-0.421,1.709-0.626
		c0.281-0.101,0.561-0.205,0.843-0.304c0.847-0.297,1.697-0.587,2.551-0.865c0.129-0.043,0.26-0.081,0.39-0.123
		c0.731-0.235,1.466-0.466,2.203-0.688c0.31-0.094,0.621-0.182,0.932-0.272c0.562-0.165,1.125-0.327,1.69-0.483
		c0.349-0.097,0.698-0.189,1.048-0.283c0.537-0.143,1.073-0.283,1.612-0.419c0.356-0.09,0.713-0.179,1.07-0.265
		c0.549-0.134,1.1-0.262,1.651-0.387c0.342-0.078,0.683-0.156,1.025-0.231c0.609-0.133,1.221-0.259,1.833-0.382
		c0.284-0.058,0.567-0.118,0.851-0.174c0.891-0.173,1.784-0.338,2.681-0.491c0.141-0.024,0.282-0.044,0.423-0.067
		c0.763-0.128,1.526-0.25,2.292-0.362c0.315-0.047,0.632-0.088,0.947-0.132c0.596-0.083,1.192-0.164,1.791-0.238
		c0.354-0.044,0.71-0.084,1.065-0.125c0.567-0.065,1.135-0.127,1.704-0.184c0.363-0.036,0.726-0.072,1.088-0.104
		c0.578-0.053,1.157-0.1,1.736-0.145c0.347-0.026,0.693-0.054,1.041-0.077c0.643-0.044,1.287-0.079,1.932-0.112
		c0.282-0.015,0.563-0.032,0.845-0.045c0.925-0.041,1.851-0.073,2.779-0.093c0.125-0.002,0.252-0.002,0.378-0.004
		c0.789-0.014,1.578-0.021,2.37-0.02c0.937,0.002,1.875,0.017,2.813,0.041c0.14,0.003,0.279,0.002,0.419,0.007
		c1.078,0.031,2.158,0.079,3.239,0.14c0.333,0.019,0.667,0.045,1,0.066c0.751,0.049,1.503,0.101,2.256,0.162
		c0.414,0.035,0.829,0.076,1.243,0.115c0.676,0.063,1.351,0.13,2.027,0.205c0.44,0.049,0.88,0.103,1.32,0.156
		c0.659,0.08,1.32,0.166,1.979,0.258c0.441,0.062,0.882,0.123,1.324,0.19c0.674,0.101,1.348,0.21,2.022,0.323
		c0.422,0.07,0.843,0.139,1.265,0.214c0.735,0.131,1.47,0.273,2.206,0.419c0.359,0.071,0.718,0.137,1.078,0.211
		c1.091,0.226,2.183,0.464,3.274,0.721c64.766,15.243,104.912,80.104,89.668,144.869c-0.223,0.946-0.458,1.886-0.702,2.821
		c-0.079,0.305-0.164,0.606-0.245,0.911c-0.17,0.632-0.342,1.263-0.522,1.89c-0.1,0.351-0.204,0.699-0.307,1.048
		c-0.171,0.579-0.346,1.157-0.525,1.732c-0.112,0.36-0.226,0.718-0.341,1.075c-0.184,0.57-0.372,1.138-0.564,1.703
		c-0.117,0.345-0.232,0.689-0.352,1.031c-0.213,0.611-0.433,1.218-0.655,1.823c-0.105,0.286-0.208,0.575-0.314,0.86
		c-0.333,0.886-0.673,1.767-1.025,2.641c-0.009,0.024-0.02,0.048-0.03,0.072c-0.343,0.85-0.696,1.693-1.057,2.533
		c-0.123,0.285-0.25,0.567-0.375,0.852c-0.254,0.577-0.509,1.153-0.771,1.725c-0.15,0.328-0.304,0.653-0.457,0.979
		c-0.248,0.527-0.499,1.053-0.753,1.576c-0.162,0.332-0.325,0.664-0.49,0.994c-0.26,0.521-0.524,1.04-0.792,1.557
		c-0.163,0.315-0.326,0.631-0.491,0.944c-0.294,0.558-0.595,1.11-0.897,1.661c-0.145,0.264-0.287,0.53-0.433,0.792
		c-0.45,0.806-0.907,1.606-1.375,2.399c-0.029,0.049-0.059,0.097-0.088,0.146c-0.441,0.746-0.89,1.485-1.346,2.219
		c-0.165,0.266-0.333,0.526-0.5,0.789c-0.327,0.518-0.656,1.034-0.99,1.545c-0.195,0.299-0.393,0.595-0.59,0.891
		c-0.316,0.475-0.635,0.947-0.957,1.416c-0.207,0.301-0.415,0.601-0.624,0.899c-0.328,0.467-0.66,0.931-0.993,1.394
		c-0.206,0.285-0.412,0.571-0.621,0.855c-0.366,0.497-0.738,0.989-1.111,1.48c-0.181,0.237-0.358,0.478-0.541,0.713
		c-0.555,0.72-1.116,1.433-1.687,2.138c-0.048,0.06-0.097,0.117-0.146,0.177c-0.526,0.647-1.059,1.29-1.598,1.926
		c-0.2,0.237-0.404,0.47-0.606,0.704c-0.393,0.457-0.787,0.911-1.186,1.361c-0.235,0.265-0.472,0.527-0.709,0.789
		c-0.376,0.417-0.754,0.831-1.136,1.242c-0.248,0.267-0.498,0.533-0.748,0.799c-0.385,0.406-0.774,0.811-1.164,1.212
		c-0.245,0.252-0.49,0.505-0.737,0.755c-0.428,0.433-0.861,0.86-1.296,1.286c-0.214,0.209-0.425,0.421-0.64,0.628
		c-0.646,0.625-1.299,1.243-1.958,1.853c-0.072,0.066-0.146,0.13-0.218,0.196c-0.593,0.545-1.19,1.084-1.794,1.617
		c-0.237,0.21-0.478,0.415-0.717,0.622c-0.444,0.387-0.89,0.771-1.339,1.15c-0.273,0.23-0.549,0.458-0.824,0.686
		c-0.426,0.354-0.854,0.704-1.286,1.052c-0.283,0.229-0.567,0.455-0.852,0.681c-0.436,0.345-0.875,0.687-1.316,1.025
		c-0.28,0.215-0.558,0.431-0.839,0.643c-0.482,0.364-0.968,0.722-1.455,1.078c-0.242,0.177-0.481,0.355-0.724,0.53
		c-0.727,0.523-1.457,1.04-2.195,1.547c-0.089,0.062-0.18,0.12-0.269,0.181c-0.654,0.447-1.312,0.889-1.974,1.322
		c-0.265,0.174-0.532,0.343-0.799,0.514c-0.493,0.317-0.987,0.634-1.485,0.944c-0.303,0.188-0.606,0.374-0.91,0.56
		c-0.471,0.287-0.944,0.573-1.418,0.854c-0.313,0.186-0.628,0.37-0.943,0.553c-0.481,0.28-0.966,0.556-1.451,0.828
		c-0.305,0.171-0.608,0.344-0.914,0.512c-0.534,0.294-1.072,0.582-1.61,0.868c-0.259,0.138-0.516,0.279-0.776,0.415
		c-0.794,0.414-1.593,0.821-2.396,1.219c-0.102,0.051-0.205,0.098-0.307,0.147c-0.708,0.348-1.418,0.689-2.133,1.022
		c-0.282,0.132-0.566,0.259-0.849,0.389c-0.541,0.247-1.082,0.492-1.625,0.731c-0.322,0.141-0.644,0.279-0.967,0.418
		c-0.514,0.221-1.029,0.438-1.547,0.652c-0.333,0.137-0.667,0.273-1.001,0.408c-0.523,0.21-1.049,0.417-1.576,0.62
		c-0.322,0.124-0.643,0.25-0.966,0.371c-0.579,0.218-1.161,0.43-1.744,0.639c-0.271,0.098-0.541,0.197-0.813,0.293
		c-0.85,0.299-1.704,0.589-2.562,0.869c-0.111,0.036-0.223,0.068-0.335,0.104c-0.751,0.243-1.505,0.479-2.262,0.707
		c-0.297,0.089-0.596,0.174-0.893,0.261c-0.575,0.169-1.15,0.335-1.729,0.495c-0.34,0.094-0.682,0.185-1.024,0.275
		c-0.545,0.146-1.091,0.288-1.639,0.427c-0.348,0.088-0.697,0.174-1.046,0.259c-0.559,0.136-1.118,0.266-1.679,0.394
		c-0.333,0.075-0.666,0.152-0.999,0.226c-0.621,0.135-1.243,0.263-1.865,0.389c-0.275,0.056-0.548,0.114-0.823,0.168
		c-0.896,0.174-1.793,0.34-2.694,0.493c-0.112,0.02-0.224,0.035-0.335,0.054c-0.791,0.133-1.583,0.259-2.377,0.376
		c-0.307,0.045-0.616,0.086-0.924,0.129c-0.604,0.084-1.208,0.165-1.815,0.24c-0.349,0.044-0.698,0.083-1.047,0.123
		c-0.574,0.066-1.148,0.129-1.724,0.187c-0.356,0.036-0.713,0.07-1.071,0.103c-0.584,0.054-1.169,0.101-1.755,0.146
		c-0.342,0.026-0.684,0.054-1.026,0.077c-0.648,0.044-1.298,0.079-1.948,0.113c-0.276,0.014-0.553,0.032-0.83,0.044
		c-0.926,0.041-1.853,0.072-2.781,0.093c-0.126,0.002-0.252,0.001-0.378,0.003c-0.789,0.015-1.579,0.021-2.37,0.021
		c-0.93-0.002-1.861-0.017-2.794-0.041c-0.147-0.003-0.293-0.003-0.44-0.007c-1.078-0.031-2.157-0.079-3.237-0.14
		c-0.333-0.019-0.667-0.046-1-0.067c-0.751-0.048-1.503-0.1-2.256-0.162c-0.414-0.034-0.829-0.076-1.243-0.114
		c-0.676-0.064-1.351-0.131-2.027-0.205c-0.44-0.049-0.88-0.103-1.32-0.156c-0.659-0.08-1.319-0.166-1.979-0.258
		c-0.441-0.062-0.883-0.124-1.324-0.19c-0.674-0.101-1.348-0.21-2.022-0.323c-0.422-0.07-0.843-0.14-1.265-0.214
		c-0.735-0.132-1.47-0.274-2.206-0.419c-0.359-0.071-0.718-0.137-1.078-0.211c-1.091-0.226-2.183-0.464-3.274-0.721
		C278.191,347.024,238.046,282.165,253.289,217.398z M315.928,620.594c9.189,24.928,11.938,52.53,8.168,82.045
		c-6.189,48.458-28.103,85.908-29.032,87.479c-4.669,7.886-12.995,12.27-21.541,12.27c-4.331,0-8.718-1.125-12.715-3.492
		c-11.864-7.024-15.8-22.324-8.811-34.199c0.225-0.387,18.089-31.331,22.663-69.778c4.636-38.978-6.077-71.325-31.85-96.475
		c-7.487-4.255-15.157-10.31-22.908-18.698c-0.018-0.019-0.035-0.038-0.053-0.057c-0.161-0.175-0.322-0.343-0.483-0.52
		c-0.022-0.024-0.044-0.049-0.066-0.073c-0.118-0.131-0.238-0.262-0.353-0.395c-26.876-29.786-46.673-84.585,10.157-177.048
		c13.479-21.929,28.662-41.728,41.638-57.219c11.902,11.993,25.835,21.701,41.253,28.708c-8.517,9.989-18.331,22.249-27.862,35.84
		c15.912,1.933,46.495,1.781,103.262-8.917c48.656-9.168,91.793-21.509,92.223-21.633c13.273-3.812,27.125,3.853,30.939,17.123
		c3.816,13.271-3.848,27.122-17.117,30.939c-1.834,0.527-45.508,13.032-96.41,22.646c-38.009,7.179-69.411,10.767-94.582,10.767
		c-18.302,0-33.294-1.904-45.163-5.694c-7.1,14.952-11.679,28.776-13.636,41.293c-3.084,19.723,0.528,35.464,11.011,48.042
		c5.988,4.21,11.606,8.639,16.858,13.275c6.401,1.761,13.274-0.461,25.143-4.313c20.195-6.552,47.852-15.529,82.518,2.161
		c26.303,13.425,43.773,38.521,49.194,70.672c5.91,35.052-3.497,72.541-23.407,93.286c-4.909,5.116-11.472,7.691-18.043,7.691
		c-6.228,0-12.463-2.313-17.312-6.965c-9.963-9.563-10.288-25.392-0.726-35.354c7.634-7.954,13.694-29.465,10.174-50.345
		c-1.927-11.431-7.415-26.685-22.612-34.44c-15.484-7.9-25.856-5.139-44.35,0.863c-1.519,0.492-3.092,1.003-4.713,1.513
		C310.661,607.713,313.515,614.047,315.928,620.594z M465.376,748.73l-15.408,8.918l-9.388-17.837l8.449-11.265l8.285,11.265
		L465.376,748.73z M360.931,921.526l-8.351-6.944l-5.798-19.447l14.149-12.502l9.708,22.226L360.931,921.526z M392.342,873.604
		l-12.103-18.059h12.103V873.604z M398.189,953.726l24.791-112.369l-16.635-41.403l84.93-49.285l20.641-200.029l26.308-33.338
		l-12.416-40.284l34.727-50.008l-6.944-160.535l46.303-25.236l23.02-77.127l29.303-18.122l19.944-77.974
		c3.994,1.594,7.952,3.259,11.891,4.958L443.14,961.458C427.917,959.602,412.921,957.017,398.189,953.726z M500,964.907
		c-12.218,0-24.323-0.481-36.304-1.407l9.329-34.405l106.839,28.97C553.915,962.558,527.232,964.907,500,964.907z M585.36,938.445
		l-107.003-29.014l15.073-55.593l107.004,29.015L585.36,938.445z M697.963,920.767l21.971-72.147l13.701-20.352l1.583-2.35
		l-0.907-2.429l-3.253-8.706l6.06-15.032l1.709-4.236l0.48-1.207l0.39-1.073l0.778-2.146l3.117-8.588l12.465-34.353l24.931-68.704
		l0.202-0.554l-0.145-0.493l-5.398-18.431l6.473-13.25l0.03-0.063l0.01-0.028l12.972-36.584l-14.601,35.888l-7.301,13.358
		l-0.216,0.396l0.12,0.492l4.519,18.523l-27.846,67.02l-14.021,33.747l-3.505,8.437l-0.877,2.108l-0.438,1.055l-0.41,0.896
		l-1.899,4.153l-7.599,16.618l-0.763,1.669l0.634,1.964l2.544,7.894l-13.675,18.435l-0.439,0.594l-0.34,0.951l-30.347,85.087
		c-24.449,10.188-49.955,18.346-76.308,24.268l215.082-793.229c26.179,24.478,49.525,51.942,69.495,81.856L830.57,365.826
		l-1.684,3.692l2.297,3.12l30.462,41.373l-4.345,15.037l-0.28,0.968l0.015,0.8l0.2,11.533l-14.182,42.698l-0.722,2.173l1.034,1.846
		l4.613,8.239l-9.703,22.149l-1.017,2.322l1.388,1.938l9.007,12.576l-2.213,11.743l-0.046,0.241l-0.01,0.115l-10.507,115.096
		l-0.032,0.361l0.083,0.293c1.759,6.2,3.446,12.447,4.98,18.705c0.761,3.131,1.491,6.271,2.073,9.407
		c0.275,1.548,0.557,3.175,0.573,4.581c0,0.168-0.011,0.32-0.024,0.438c-0.009,0.038-0.018,0.103-0.014,0.081
		c0.012-0.02-0.009,0.038-0.029,0.086l-0.058,0.142l-0.454,1.126l-0.908,2.252l-14.539,36.029l-0.037,0.092l0.001,0.08l0.432,24.839
		l0.43-24.743l15.743-35.416l0.985-2.218l0.493-1.109l0.062-0.139c0.02-0.044,0.037-0.081,0.079-0.196
		c0.083-0.209,0.104-0.346,0.14-0.506c0.048-0.281,0.069-0.533,0.08-0.769c0.035-1.835-0.214-3.421-0.438-5.064
		c-0.486-3.251-1.115-6.441-1.772-9.628c-1.303-6.246-2.745-12.438-4.269-18.632l14.429-114.125l2.987-13.293l0.361-1.611
		l-0.991-1.491l-8.075-12.146l10.501-21.871l0.995-2.072l-1.129-2.191l-4.329-8.402l15.299-41.22l0.31-0.832l0.019-1.089
		l0.198-11.411l5.622-17.19l0.964-2.949l-1.895-2.641l-29.37-40.921l54.444-107.173c41.963,69.853,66.109,151.628,66.109,239.05
		C964.907,685.96,855.722,846.414,697.963,920.767z"/>
</g>
</svg>
