<?xml version="1.0" encoding="utf-8"?>
<!-- Generator: Adobe Illustrator 16.0.0, SVG Export Plug-In . SVG Version: 6.00 Build 0)  -->
<!DOCTYPE svg PUBLIC "-//W3C//DTD SVG 1.1//EN" "http://www.w3.org/Graphics/SVG/1.1/DTD/svg11.dtd">
<svg version="1.1" id="Layer_1" xmlns="http://www.w3.org/2000/svg" xmlns:xlink="http://www.w3.org/1999/xlink" x="0px" y="0px"
	 width="1000px" height="1000px" viewBox="0 0 1000 1000" enable-background="new 0 0 1000 1000" xml:space="preserve">
<g>
	<polygon points="553.59,661.767 553.59,689.723 571.647,675.744 571.647,647.876 562.619,647.876 	"/>
	<polygon points="580.214,733.305 580.214,743.028 589.937,768.032 606.605,761.086 598.271,743.028 	"/>
	<polygon points="600.818,704.996 593.409,715.941 595.262,727.054 606.375,715.941 	"/>
	<polygon points="889.75,341.579 889.75,321.438 880.027,328.383 874.471,354.775 889.75,354.775 	"/>
	<path d="M899.552,375.612l-9.802,4.949c0,0-2.778,25.61,0,21.443s12.502,0.458,12.502,0.458l8.335-15.503L899.552,375.612z"/>
	<polygon points="663.47,101.99 623.521,163.733 652.215,145.988 	"/>
	<path d="M211.919,506.368c-1.079,14.609-0.528,27.63,1.682,38.901c3.851,19.634,12.659,33.209,26.867,41.441
		c3.487,0.945,6.923,1.95,10.277,3.054c5.788-9.636,12.283-19.12,19.487-28.424c11.89-15.355,25.708-30.246,41.27-44.513
		c-9.417,1.191-18.797,1.788-28.115,1.788C258.994,518.616,235.026,514.524,211.919,506.368z"/>
	<polygon points="599.893,241.237 622.6,165.16 558.935,263.561 	"/>
	<path d="M500,0C223.857,0,0,223.857,0,500.001C0,776.143,223.857,1000,500,1000c276.144,0,500-223.857,500-499.999
		C1000,223.857,776.144,0,500,0z M157.852,347.235c-0.617-0.683-1.227-1.372-1.829-2.069c-0.15-0.174-0.297-0.352-0.446-0.526
		c-0.458-0.536-0.914-1.073-1.362-1.618c-0.191-0.232-0.379-0.468-0.569-0.702c-0.4-0.493-0.799-0.986-1.191-1.485
		c-0.208-0.265-0.412-0.532-0.617-0.799c-0.368-0.476-0.733-0.952-1.094-1.435c-0.213-0.284-0.423-0.571-0.634-0.857
		c-0.346-0.471-0.69-0.943-1.029-1.42c-0.212-0.298-0.423-0.599-0.633-0.898c-0.331-0.473-0.658-0.948-0.982-1.426
		c-0.208-0.307-0.414-0.613-0.619-0.922c-0.319-0.479-0.633-0.962-0.945-1.446c-0.201-0.313-0.401-0.624-0.599-0.938
		c-0.31-0.49-0.614-0.984-0.917-1.48c-0.191-0.312-0.383-0.624-0.571-0.938c-0.305-0.51-0.604-1.023-0.901-1.538
		c-0.176-0.305-0.354-0.608-0.528-0.916c-0.307-0.541-0.606-1.087-0.904-1.634c-0.156-0.286-0.315-0.57-0.469-0.857
		c-0.325-0.607-0.641-1.22-0.956-1.832c-0.119-0.232-0.242-0.461-0.359-0.693c-0.424-0.839-0.839-1.684-1.244-2.534
		c-0.004-0.01-0.01-0.019-0.014-0.028c-0.414-0.871-0.818-1.749-1.212-2.632c-0.087-0.196-0.17-0.395-0.256-0.591
		c-0.297-0.678-0.593-1.356-0.878-2.04c-0.126-0.303-0.247-0.607-0.37-0.911c-0.238-0.582-0.475-1.165-0.704-1.752
		c-0.136-0.35-0.267-0.703-0.4-1.055c-0.207-0.546-0.413-1.092-0.612-1.642c-0.137-0.375-0.268-0.754-0.401-1.132
		c-0.187-0.533-0.372-1.066-0.552-1.602c-0.131-0.392-0.258-0.785-0.386-1.179c-0.171-0.527-0.339-1.057-0.503-1.587
		c-0.124-0.402-0.245-0.807-0.365-1.211c-0.157-0.529-0.31-1.059-0.46-1.591c-0.116-0.41-0.229-0.82-0.341-1.233
		c-0.144-0.532-0.284-1.067-0.421-1.604c-0.106-0.412-0.211-0.826-0.313-1.24c-0.133-0.544-0.26-1.09-0.385-1.637
		c-0.095-0.412-0.19-0.823-0.281-1.237c-0.123-0.559-0.237-1.121-0.353-1.683c-0.083-0.406-0.167-0.811-0.246-1.218
		c-0.114-0.588-0.219-1.18-0.324-1.771c-0.069-0.385-0.141-0.769-0.206-1.154c-0.11-0.655-0.209-1.314-0.309-1.974
		c-0.05-0.326-0.104-0.65-0.151-0.978c-0.141-0.988-0.272-1.98-0.39-2.977c-7.809-66.077,39.427-125.972,105.503-133.779
		c1.125-0.134,2.248-0.247,3.37-0.349c0.356-0.031,0.71-0.056,1.065-0.085c0.769-0.063,1.539-0.122,2.305-0.17
		c0.417-0.025,0.833-0.046,1.248-0.067c0.706-0.037,1.412-0.069,2.117-0.094c0.436-0.015,0.871-0.027,1.305-0.037
		c0.69-0.018,1.379-0.026,2.067-0.031c0.462-0.003,0.924-0.007,1.384-0.005c0.422,0.002,0.843,0.008,1.265,0.015
		c0.562,0.009,1.123,0.02,1.684,0.036c0.414,0.012,0.828,0.027,1.242,0.043c0.569,0.022,1.137,0.049,1.705,0.08
		c0.402,0.021,0.804,0.045,1.205,0.07c0.579,0.036,1.156,0.079,1.732,0.124c0.389,0.03,0.776,0.061,1.164,0.096
		c0.595,0.052,1.188,0.11,1.781,0.172c0.365,0.038,0.73,0.074,1.094,0.115c0.625,0.07,1.248,0.148,1.87,0.229
		c0.33,0.043,0.66,0.083,0.989,0.127c0.678,0.094,1.353,0.196,2.027,0.3c0.272,0.042,0.544,0.08,0.815,0.124
		c0.814,0.132,1.625,0.274,2.434,0.422c0.128,0.023,0.257,0.044,0.386,0.067c1.916,0.357,3.818,0.761,5.705,1.208
		c0.106,0.025,0.211,0.054,0.318,0.079c0.82,0.197,1.638,0.401,2.452,0.615c0.218,0.057,0.434,0.118,0.651,0.177
		c0.701,0.188,1.401,0.38,2.098,0.581c0.262,0.075,0.522,0.155,0.784,0.232c0.65,0.192,1.299,0.388,1.945,0.591
		c0.281,0.088,0.561,0.18,0.84,0.271c0.625,0.201,1.249,0.406,1.869,0.617c0.287,0.098,0.572,0.198,0.857,0.298
		c0.613,0.214,1.224,0.432,1.833,0.655c0.284,0.104,0.568,0.211,0.852,0.317c0.608,0.229,1.213,0.462,1.817,0.7
		c0.278,0.11,0.556,0.22,0.833,0.332c0.61,0.246,1.218,0.498,1.824,0.754c0.263,0.111,0.527,0.222,0.79,0.336
		c0.625,0.27,1.248,0.546,1.867,0.825c0.237,0.106,0.475,0.212,0.71,0.32c0.66,0.303,1.316,0.613,1.97,0.929
		c0.192,0.092,0.385,0.182,0.576,0.275c0.739,0.359,1.473,0.729,2.203,1.104c0.103,0.052,0.206,0.103,0.307,0.155
		c2.556,1.32,5.062,2.73,7.512,4.227c0.033,0.021,0.066,0.042,0.1,0.063c0.764,0.468,1.523,0.944,2.276,1.429
		c0.144,0.093,0.287,0.188,0.431,0.282c0.64,0.415,1.277,0.835,1.91,1.263c0.192,0.13,0.383,0.263,0.575,0.395
		c0.581,0.397,1.16,0.799,1.733,1.207c0.214,0.151,0.426,0.306,0.639,0.459c0.548,0.396,1.095,0.794,1.637,1.199
		c0.222,0.165,0.443,0.332,0.664,0.5c0.528,0.399,1.053,0.803,1.574,1.211c0.225,0.176,0.45,0.354,0.673,0.531
		c0.515,0.409,1.026,0.822,1.534,1.239c0.219,0.181,0.439,0.361,0.658,0.543c0.511,0.426,1.017,0.856,1.521,1.29
		c0.208,0.18,0.418,0.359,0.625,0.54c0.515,0.449,1.024,0.905,1.532,1.363c0.188,0.171,0.378,0.339,0.565,0.511
		c0.536,0.49,1.067,0.988,1.594,1.488c0.152,0.144,0.305,0.286,0.456,0.43c0.59,0.566,1.173,1.139,1.752,1.717
		c0.084,0.084,0.17,0.167,0.253,0.251c2.014,2.022,3.958,4.118,5.828,6.282c0.102,0.119,0.202,0.24,0.304,0.359
		c0.506,0.59,1.009,1.185,1.504,1.786c0.16,0.193,0.315,0.391,0.474,0.585c0.433,0.532,0.863,1.066,1.287,1.605
		c0.183,0.233,0.363,0.469,0.545,0.704c0.392,0.507,0.782,1.017,1.167,1.53c0.194,0.259,0.385,0.519,0.576,0.779
		c0.366,0.497,0.729,0.996,1.087,1.499c0.197,0.276,0.391,0.554,0.585,0.831c0.346,0.495,0.689,0.992,1.028,1.493
		c0.195,0.287,0.389,0.575,0.581,0.865c0.332,0.498,0.659,1,0.983,1.504c0.189,0.295,0.379,0.59,0.566,0.886
		c0.321,0.509,0.637,1.021,0.951,1.535c0.18,0.296,0.362,0.592,0.54,0.889c0.316,0.528,0.626,1.061,0.935,1.594
		c0.166,0.288,0.333,0.573,0.497,0.862c0.318,0.563,0.63,1.13,0.94,1.699c0.145,0.266,0.292,0.529,0.436,0.796
		c0.337,0.629,0.666,1.264,0.992,1.9c0.107,0.21,0.219,0.418,0.325,0.629c0.865,1.711,1.69,3.446,2.476,5.207
		c0.08,0.179,0.155,0.361,0.235,0.541c0.305,0.693,0.607,1.389,0.9,2.09c0.122,0.293,0.238,0.59,0.358,0.884
		c0.241,0.591,0.482,1.182,0.714,1.778c0.134,0.344,0.263,0.691,0.394,1.037c0.209,0.552,0.417,1.104,0.619,1.66
		c0.134,0.37,0.264,0.743,0.394,1.115c0.188,0.537,0.376,1.075,0.557,1.617c0.13,0.389,0.257,0.779,0.384,1.171
		c0.171,0.529,0.34,1.06,0.505,1.593c0.124,0.401,0.245,0.805,0.364,1.207c0.158,0.529,0.312,1.061,0.461,1.594
		c0.115,0.409,0.229,0.818,0.34,1.229c0.145,0.534,0.285,1.071,0.422,1.608c0.105,0.412,0.21,0.824,0.312,1.238
		c0.133,0.545,0.26,1.091,0.386,1.639c0.094,0.411,0.189,0.822,0.28,1.235c0.123,0.56,0.238,1.122,0.352,1.685
		c0.083,0.405,0.168,0.809,0.247,1.216c0.113,0.589,0.219,1.181,0.324,1.772c0.068,0.385,0.14,0.767,0.205,1.152
		c0.11,0.656,0.21,1.315,0.31,1.976c0.049,0.326,0.104,0.649,0.15,0.977c0.141,0.988,0.272,1.979,0.39,2.977
		c7.809,66.076-39.427,125.972-105.503,133.779c-1.125,0.133-2.247,0.246-3.368,0.348c-0.361,0.033-0.721,0.058-1.082,0.087
		c-0.762,0.062-1.523,0.12-2.283,0.168c-0.425,0.026-0.849,0.047-1.272,0.069c-0.697,0.036-1.394,0.067-2.089,0.092
		c-0.443,0.015-0.884,0.028-1.326,0.039c-0.686,0.016-1.371,0.025-2.054,0.029c-0.462,0.003-0.925,0.008-1.387,0.006
		c-0.425-0.002-0.849-0.009-1.273-0.016c-0.438-0.006-0.876-0.017-1.313-0.027c-0.001,0.001-0.001,0.003-0.002,0.005
		c-0.094-0.003-0.188-0.009-0.281-0.012c-0.022,0-0.045,0-0.067-0.001c-0.425-0.013-0.85-0.027-1.274-0.045
		c-0.378-0.015-0.755-0.034-1.133-0.053c-0.294-0.015-0.588-0.028-0.881-0.045c-0.301-0.017-0.602-0.033-0.902-0.053
		c-0.555-0.035-1.107-0.076-1.66-0.119c-0.002,0-0.004,0-0.007,0c-0.219-0.018-0.438-0.036-0.658-0.055
		c-0.192-0.016-0.385-0.03-0.577-0.047c-0.561-0.05-1.119-0.105-1.678-0.163c-0.079-0.008-0.159-0.017-0.238-0.024
		c-0.204-0.022-0.408-0.042-0.612-0.065c-0.117-0.012-0.233-0.023-0.35-0.036c-0.576-0.065-1.15-0.138-1.724-0.211
		c-0.219-0.028-0.438-0.057-0.657-0.084c-0.103-0.014-0.206-0.026-0.309-0.04c-0.057-0.008-0.115-0.015-0.172-0.022
		c-0.604-0.083-1.205-0.175-1.807-0.267c-0.346-0.053-0.693-0.103-1.038-0.158c-0.68-0.11-1.357-0.23-2.033-0.353
		c-0.262-0.047-0.526-0.09-0.788-0.139c-0.114-0.021-0.227-0.046-0.34-0.067c-0.131-0.025-0.26-0.053-0.391-0.078
		c-0.878-0.169-1.753-0.347-2.624-0.536c-0.219-0.047-0.436-0.098-0.654-0.146c-0.535-0.119-1.071-0.233-1.604-0.359
		c-0.25-0.06-0.498-0.125-0.746-0.186c-0.02-0.005-0.04-0.01-0.059-0.015c-0.218-0.054-0.435-0.109-0.653-0.164
		c-0.436-0.107-0.873-0.213-1.306-0.327c-0.318-0.083-0.634-0.173-0.951-0.259c-0.036-0.01-0.072-0.021-0.109-0.029
		c-0.227-0.063-0.453-0.126-0.679-0.189c-0.333-0.092-0.667-0.181-1-0.276c-0.346-0.1-0.689-0.204-1.034-0.307
		c-0.088-0.026-0.176-0.054-0.263-0.08c-0.234-0.07-0.468-0.142-0.702-0.213c-0.24-0.073-0.481-0.145-0.721-0.22
		c-0.354-0.11-0.707-0.227-1.061-0.341c-0.173-0.056-0.345-0.114-0.518-0.171c-0.21-0.069-0.421-0.138-0.632-0.209
		c-0.163-0.054-0.327-0.106-0.489-0.161c-0.355-0.121-0.709-0.245-1.063-0.369c-0.263-0.092-0.524-0.188-0.786-0.281
		c-0.193-0.069-0.385-0.137-0.578-0.206c-0.083-0.03-0.167-0.06-0.25-0.09c-0.353-0.13-0.705-0.261-1.057-0.394
		c-0.376-0.142-0.75-0.288-1.125-0.434c-0.143-0.056-0.286-0.109-0.429-0.165c-0.014-0.006-0.028-0.011-0.042-0.016
		c-0.348-0.138-0.695-0.274-1.041-0.414c-0.526-0.214-1.05-0.431-1.573-0.651c-0.098-0.041-0.196-0.083-0.294-0.124
		c-0.246-0.104-0.491-0.207-0.735-0.313c-0.543-0.234-1.083-0.475-1.622-0.717c-0.074-0.032-0.147-0.066-0.221-0.099
		c-0.082-0.037-0.165-0.074-0.247-0.111c-0.16-0.072-0.32-0.144-0.479-0.217c-0.564-0.259-1.125-0.525-1.684-0.794
		c-0.179-0.085-0.358-0.171-0.538-0.257c-0.012-0.006-0.023-0.011-0.035-0.017l0,0c-0.094-0.045-0.188-0.09-0.282-0.135
		c-0.61-0.299-1.216-0.604-1.821-0.913c-0.227-0.115-0.457-0.229-0.683-0.346c-0.745-0.386-1.486-0.78-2.223-1.181
		c-0.083-0.045-0.168-0.089-0.251-0.135c-1.665-0.911-3.306-1.86-4.923-2.848c-0.17-0.104-0.339-0.212-0.509-0.317
		c-0.625-0.386-1.249-0.773-1.867-1.171c-0.235-0.15-0.466-0.306-0.7-0.458c-0.548-0.357-1.095-0.716-1.636-1.082
		c-0.264-0.178-0.525-0.359-0.787-0.539c-0.509-0.35-1.017-0.702-1.52-1.06c-0.272-0.192-0.542-0.389-0.813-0.584
		c-0.488-0.353-0.975-0.707-1.458-1.067c-0.275-0.204-0.548-0.411-0.821-0.618c-0.473-0.358-0.943-0.721-1.411-1.086
		c-0.273-0.214-0.546-0.43-0.818-0.646c-0.463-0.368-0.923-0.74-1.381-1.115c-0.267-0.219-0.533-0.438-0.798-0.659
		c-0.459-0.384-0.915-0.771-1.369-1.162c-0.255-0.22-0.512-0.438-0.766-0.661c-0.463-0.405-0.922-0.815-1.38-1.228
		c-0.235-0.213-0.473-0.425-0.707-0.639c-0.48-0.439-0.955-0.886-1.427-1.333c-0.206-0.194-0.413-0.387-0.617-0.583
		c-0.519-0.497-1.031-1.002-1.542-1.51c-0.152-0.151-0.308-0.301-0.459-0.453c-1.338-1.345-2.646-2.722-3.921-4.13
		C157.869,347.255,157.861,347.245,157.852,347.235z M372.859,934.029l-8.351-6.945l-5.798-19.447l14.149-12.502l9.708,22.227
		L372.859,934.029z M500,964.907c-34.973,0-69.044-3.861-101.811-11.182l24.791-112.369l-16.635-41.403l84.93-49.285l20.641-200.029
		l26.308-33.338l-12.416-40.284l34.727-50.008l-6.728-155.521l-99.195,153.317c5.513,10.019,3.568,22.879-5.348,30.779
		c-1.219,1.082-30.387,26.682-75.656,44.863c-10.961,4.403-21.946,7.994-32.917,10.796c-24.667,19.997-52.236,46.996-73.54,80.361
		c4.406-2.034,9.145-5.725,15.753-10.88c16.739-13.061,39.663-30.944,78.288-26.169c29.307,3.626,54.302,21.242,70.383,49.603
		c17.534,30.923,21.505,69.37,9.884,95.671c-4.13,9.345-13.286,14.904-22.886,14.904c-3.376,0-6.806-0.688-10.093-2.14
		c-12.631-5.582-18.346-20.347-12.765-32.979c4.456-10.084,2.801-32.37-7.644-50.79c-5.717-10.083-16.087-22.543-33.02-24.638
		c-17.254-2.138-26.056,4.008-41.385,15.966c-1.265,0.987-2.576,2.009-3.931,3.048c5.172,4.633,10.035,9.596,14.542,14.925
		c17.155,20.285,29.171,45.287,35.714,74.312c10.745,47.657,2.949,90.341,2.612,92.135c-2.258,12.011-12.755,20.391-24.547,20.391
		c-1.532,0-3.086-0.142-4.647-0.436c-13.551-2.547-22.479-15.578-19.968-29.127c0.064-0.352,6.305-35.579-2.548-73.324
		c-8.963-38.216-30.087-64.956-62.905-79.783c-1.71-0.29-3.454-0.65-5.228-1.076c-2.208,6.314-4.142,12.789-5.763,19.42
		c-18.952,77.517,7.711,161.382,79.247,249.269c2.583,3.173,2.104,7.839-1.069,10.422c-1.374,1.119-3.029,1.663-4.672,1.663
		c-2.152,0-4.286-0.932-5.75-2.731c-74.645-91.705-102.278-179.927-82.13-262.215c1.682-6.87,3.722-13.695,6.075-20.472
		c-2.788-1.161-5.647-2.49-8.581-4.001c-0.151-0.072-0.298-0.152-0.448-0.228c-0.1-0.052-0.197-0.098-0.297-0.15
		c-0.032-0.017-0.063-0.034-0.095-0.051c-0.152-0.08-0.305-0.16-0.456-0.243c-35.439-18.809-72.774-63.541-50.963-169.861
		c5.172-25.212,12.674-49.006,19.574-67.998c14.991,7.044,31.389,11.502,48.591,12.852c-5.163,13.828-10.88,30.92-15.51,49.245
		c41.858,17.256,86.569,16.761,132.995-1.516c37.658-14.824,62.39-36.292,62.635-36.507c7.814-6.925,18.736-8.054,27.56-3.729
		l221.31-342.061c1.55-2.395,4.246-3.593,6.901-3.351l0.246-0.96c18.078,7.211,35.588,15.537,52.465,24.868l-19.799,172.133
		l-15.81,39.096l-0.936,2.315l1.081,2.094l7.785,15.061l-5.644,28.877l-1.499,7.666l-0.188,0.957l-0.093,0.479l-0.11,0.621
		l-0.313,1.927l-0.628,3.854l-2.51,15.419l-10.041,61.675L655.84,568.403l-0.083,0.511l0.188,0.432l13.022,30.011l-6.496,24.665
		l-0.016,0.057l-0.004,0.033l-10.236,65.611l11.98-65.258l7.271-24.877l0.116-0.396l-0.167-0.413l-12.174-30.252l23.294-122.304
		l11.691-61.383l2.922-15.346l0.73-3.837l0.365-1.918l0.044-0.224c0,0-0.002,0.009-0.001,0.004l0.026-0.119l0.106-0.477l0.214-0.952
		l1.702-7.623l6.813-30.491l0.367-1.645l-0.791-1.639l-7.024-14.532l16.259-37.3l0.286-0.655l0.124-0.864l23.642-165.448
		c27.611,16.677,53.349,36.141,76.82,58.008l-54.28,159.402l-0.981,2.882l1.394,2.545l31.193,56.924l-4.721,21.903l-0.16,0.743
		l0.008,0.601l0.21,16.001l-14.312,57.745l-0.413,1.662l0.607,1.459l5.081,12.223l-10.11,30.896l-0.593,1.811l0.839,1.581
		l9.379,17.661l-2.349,16.736l-0.026,0.187l-0.006,0.087l-10.469,154.354l-0.018,0.271l0.047,0.223
		c1.749,8.279,3.42,16.595,4.944,24.918c0.754,4.162,1.48,8.332,2.068,12.5c0.283,2.076,0.559,4.182,0.637,6.193
		c0.016,0.49,0.012,1.007-0.041,1.361c-0.021,0.126-0.005,0.061-0.052,0.232l-0.114,0.381l-0.23,0.762l-0.918,3.047l-14.688,48.746
		l-0.023,0.073l0.001,0.062l0.439,33.339l0.439-33.266l15.946-48.271l0.997-3.021l0.25-0.755l0.125-0.378
		c0.026-0.082,0.124-0.402,0.139-0.539c0.118-0.693,0.117-1.242,0.12-1.812c-0.03-2.229-0.258-4.345-0.49-6.476
		c-0.485-4.249-1.104-8.457-1.753-12.661c-1.296-8.315-2.732-16.587-4.252-24.862l14.498-153.629l3-17.927l0.208-1.247l-0.611-1.228
		l-8.624-17.33l10.938-30.669l0.576-1.615l-0.661-1.719l-4.759-12.355l15.629-56.617l0.179-0.646l0.011-0.821l0.21-15.913
		l5.733-23.561l0.553-2.272l-1.157-2.162l-30.289-56.585l55.434-146.818C914.025,258.035,964.907,373.069,964.907,500
		C964.907,756.761,756.761,964.907,500,964.907z M440.581,739.812l8.449-11.265l8.285,11.265l8.062,8.919l-15.408,8.918
		L440.581,739.812z M698.301,363.445l0.001-0.004C698.316,363.369,698.309,363.401,698.301,363.445z"/>
</g>
</svg>
