<?xml version="1.0" encoding="utf-8"?>
<!-- Generator: Adobe Illustrator 16.0.0, SVG Export Plug-In . SVG Version: 6.00 Build 0)  -->
<!DOCTYPE svg PUBLIC "-//W3C//DTD SVG 1.1//EN" "http://www.w3.org/Graphics/SVG/1.1/DTD/svg11.dtd">
<svg version="1.1" id="Layer_1" xmlns="http://www.w3.org/2000/svg" xmlns:xlink="http://www.w3.org/1999/xlink" x="0px" y="0px"
	 width="1000px" height="1000px" viewBox="0 0 1000 1000" enable-background="new 0 0 1000 1000" xml:space="preserve">
<path d="M500,0C223.857,0,0,223.857,0,500.001C0,776.143,223.857,1000,500,1000c276.144,0,500-223.857,500-499.999
	C1000,223.857,776.144,0,500,0z M368.121,355.179c-0.114,0.049-0.243,0.104-0.384,0.165c-0.178,0.082-0.369,0.181-0.57,0.298
	c-0.201,0.116-0.411,0.253-0.624,0.411c-0.023,0.017-0.029,0.021-0.029,0.021l-0.001,0.002c0.001,0,0.006-0.003,0.013-0.007
	l0.032-0.017l0.064-0.034l0.135-0.07c0.188-0.1,0.4-0.211,0.631-0.332c0.275-0.153,0.574-0.321,0.898-0.503
	c0.68-0.38,1.462-0.816,2.338-1.306c3.585-1.995,8.858-4.768,15.34-7.558c3.218-1.363,6.714-2.783,10.473-4.079
	c3.032-9.161,6.606-14.392,6.896-14.807c0,0,0.011-0.014,0.02-0.026c0.004-0.006,0.011-0.014,0.016-0.021
	c0.015-0.019,0.036-0.047,0.061-0.077c0.007-0.009,0.012-0.016,0.02-0.025c0.033-0.041,0.074-0.091,0.122-0.146
	c0.01-0.013,0.023-0.027,0.034-0.04c0.041-0.047,0.087-0.099,0.137-0.153c0.017-0.019,0.034-0.037,0.052-0.057
	c0.067-0.071,0.139-0.147,0.221-0.229c0.006-0.006,0.013-0.012,0.019-0.018c0.075-0.074,0.156-0.152,0.243-0.231
	c0.026-0.025,0.054-0.05,0.082-0.075c0.083-0.074,0.169-0.149,0.261-0.227c0.021-0.017,0.039-0.033,0.06-0.05
	c0.111-0.092,0.23-0.185,0.354-0.277c0.03-0.022,0.062-0.045,0.093-0.067c0.102-0.074,0.208-0.147,0.319-0.222
	c0.037-0.024,0.074-0.049,0.112-0.074c0.143-0.092,0.291-0.183,0.447-0.271c0.019-0.011,0.039-0.02,0.058-0.031
	c0.139-0.076,0.283-0.15,0.432-0.222c0.047-0.023,0.096-0.046,0.145-0.068c0.148-0.068,0.301-0.134,0.458-0.195
	c0.028-0.011,0.056-0.023,0.084-0.034c0.184-0.069,0.376-0.132,0.572-0.19c0.05-0.015,0.101-0.027,0.151-0.041
	c0.16-0.044,0.324-0.083,0.491-0.117c0.054-0.012,0.107-0.023,0.161-0.033c0.213-0.04,0.432-0.072,0.658-0.095
	c0.037-0.004,0.075-0.005,0.112-0.008c0.194-0.018,0.392-0.026,0.594-0.029c0.072-0.001,0.145-0.001,0.218,0
	c0.139,0.002,0.28,0.009,0.423,0.018c0.078,0.005,0.154,0.009,0.233,0.016c0.167,0.015,0.337,0.038,0.509,0.063
	c0.058,0.009,0.113,0.014,0.171,0.023c0.231,0.039,0.466,0.088,0.707,0.147c0.051,0.013,0.104,0.029,0.155,0.043
	c0.189,0.05,0.381,0.104,0.576,0.169c0.086,0.027,0.174,0.061,0.261,0.092c0.166,0.058,0.333,0.12,0.502,0.189
	c0.097,0.04,0.195,0.082,0.293,0.125c0.167,0.073,0.335,0.151,0.506,0.235c0.099,0.048,0.198,0.097,0.298,0.148
	c0.184,0.096,0.371,0.2,0.559,0.309c0.088,0.051,0.175,0.098,0.265,0.152c0.278,0.167,0.559,0.346,0.845,0.542
	c4.7,3.223,5.301,6.775,4.899,9.311c0.103-0.021,0.205-0.039,0.308-0.06c2.237-0.384,4.495-0.735,6.759-1.048
	c2.279-0.251,4.539-0.595,6.828-0.745l3.414-0.279c1.136-0.09,2.278-0.113,3.41-0.171c1.133-0.047,2.262-0.092,3.388-0.138
	c1.126-0.006,2.249-0.012,3.367-0.018c0.458-0.009,0.914-0.009,1.37-0.008c0.803,0.003,1.604,0.019,2.402,0.042
	c0.216,0.006,0.432,0.014,0.648,0.021c0.736,0.024,1.471,0.052,2.199,0.077c2.176,0.04,4.322,0.246,6.424,0.398
	c2.102,0.124,4.159,0.399,6.166,0.633c1.003,0.124,1.994,0.225,2.971,0.365c0.973,0.156,1.935,0.311,2.883,0.463
	c3.793,0.545,7.326,1.362,10.575,2.022c1.61,0.403,3.153,0.789,4.622,1.156c0.731,0.184,1.443,0.362,2.136,0.536
	c0.686,0.203,1.352,0.399,1.997,0.59c2.572,0.79,4.825,1.369,6.633,2.041c3.624,1.248,5.695,1.962,5.695,1.962
	s-2.166-0.29-5.955-0.798c-1.879-0.297-4.205-0.42-6.832-0.683c-0.658-0.059-1.336-0.118-2.035-0.181
	c-0.702-0.033-1.424-0.066-2.164-0.102c-1.476-0.068-3.027-0.141-4.646-0.216c-2.43-0.003-4.996-0.061-7.68-0.002
	c-0.9,0.02-1.813,0.052-2.739,0.104c-0.919,0.036-1.85,0.072-2.792,0.109c-0.941,0.053-1.894,0.147-2.854,0.221
	c-1.92,0.16-3.875,0.286-5.854,0.566c-1.978,0.253-3.984,0.457-5.997,0.827c-2.016,0.333-4.05,0.646-6.077,1.101
	c-1.014,0.21-2.03,0.42-3.051,0.631c-1.012,0.248-2.025,0.495-3.041,0.744c-1.013,0.26-2.031,0.483-3.037,0.772l-3.012,0.869
	c-2.012,0.54-3.977,1.266-5.943,1.889c-1.955,0.687-3.885,1.398-5.783,2.133c-1.885,0.783-3.764,1.498-5.569,2.34
	c-0.905,0.408-1.805,0.813-2.698,1.215c-0.88,0.428-1.753,0.853-2.62,1.273c-0.536,0.255-1.052,0.528-1.574,0.796
	c-1.071,5.967-1.531,13.293-0.47,21.816c1.026,8.242,3.383,16.631,7.01,25.108c-3.895,1.493-7.525,3.68-10.708,6.494
	c-0.158,0.137-2.427,2.073-6.464,5.084c-5.563-12.07-9.015-24.129-10.271-36.028c-0.331-3.133-0.492-6.143-0.523-9.034
	c-2.639,2.008-4.824,3.813-6.535,5.276c-0.691,0.593-1.309,1.123-1.846,1.583c-0.283,0.242-0.544,0.467-0.784,0.672
	c-0.284,0.234-0.543,0.446-0.774,0.637c-0.059,0.049-0.115,0.095-0.17,0.14l-0.082,0.066l-0.04,0.033
	c-0.007,0.007-0.023,0.02-0.087,0.063c-0.402,0.28-0.789,0.53-1.154,0.753c-0.364,0.223-0.706,0.418-1.021,0.589
	c-0.28,0.146-0.535,0.279-0.76,0.398c-0.226,0.142-0.343,0.214-0.343,0.214c-0.366,0.229-0.741,0.432-1.12,0.622
	c-0.103,0.053-0.208,0.103-0.312,0.151c-0.315,0.149-0.634,0.288-0.956,0.412c-0.073,0.028-0.145,0.06-0.218,0.087
	c-0.387,0.142-0.777,0.264-1.17,0.37c-0.096,0.025-0.192,0.047-0.289,0.07c-0.317,0.079-0.637,0.146-0.957,0.201
	c-0.102,0.018-0.203,0.038-0.305,0.053c-0.398,0.061-0.797,0.105-1.196,0.131c-0.063,0.004-0.125,0.004-0.187,0.007
	c-0.352,0.018-0.704,0.021-1.055,0.013c-0.092-0.003-0.185-0.004-0.277-0.009c-0.394-0.018-0.787-0.049-1.178-0.099
	c-0.053-0.007-0.104-0.018-0.157-0.024c-0.352-0.05-0.702-0.115-1.049-0.191c-0.086-0.019-0.173-0.036-0.259-0.057
	c-0.38-0.091-0.757-0.196-1.129-0.318c-0.069-0.023-0.137-0.05-0.206-0.073c-0.326-0.113-0.648-0.238-0.966-0.376
	c-0.074-0.031-0.149-0.062-0.223-0.095c-0.357-0.161-0.707-0.338-1.051-0.529c-0.074-0.042-0.147-0.086-0.221-0.129
	c-0.303-0.177-0.6-0.364-0.891-0.563c-0.055-0.038-0.112-0.073-0.167-0.112c-0.324-0.229-0.638-0.476-0.944-0.735
	c-0.07-0.06-0.14-0.122-0.21-0.184c-0.28-0.247-0.553-0.505-0.815-0.777c-0.03-0.03-0.061-0.059-0.091-0.09
	c-0.281-0.298-0.548-0.613-0.806-0.939c-0.061-0.077-0.121-0.156-0.181-0.235c-0.255-0.337-0.502-0.684-0.731-1.049
	c-4.1-6.568-2.099-15.215,4.469-19.314c0.78-0.487,1.589-0.888,2.417-1.205l1.614-0.604
	C367.747,355.319,367.874,355.271,368.121,355.179z M489.177,483.434c4.476,3.409,5.341,9.801,1.933,14.277
	c-2.005,2.632-5.041,4.015-8.113,4.016c-2.15,0-4.32-0.68-6.164-2.084c-11.891-9.056-22.576-18.235-32.039-27.49
	c6.869-5.112,10.788-8.554,11.228-8.943c1.565-1.389,2.97-2.891,4.229-4.477C468.804,467.014,478.449,475.264,489.177,483.434z
	 M427.035,393.669c-1.871-5.426-3.158-10.787-3.814-16.064c-0.073-0.589-0.115-1.172-0.174-1.759
	c5.385-6.087,10.715-12.156,15.979-18.193c0.475-0.149,0.943-0.293,1.385-0.412l0.094-0.024l0.092-0.027l3.012-0.869
	c0.432-0.124,0.967-0.254,1.531-0.392c0.384-0.093,0.768-0.187,1.149-0.284l1.018-0.249l1.796-0.44l1.092-0.226l1.783-0.368
	l0.082-0.018l0.081-0.018c1.453-0.326,3.003-0.579,4.645-0.848l0.862-0.142l0.092-0.016l0.092-0.017
	c1.229-0.227,2.561-0.388,3.97-0.56c0.409-0.049,0.816-0.1,1.223-0.15C451.363,366.113,439.334,379.859,427.035,393.669z
	 M394.506,421.525c-7.08,4.765-16.446,10.493-27.554,15.986c7.885-8.41,15.717-16.876,23.471-25.363
	C391.648,415.275,393.019,418.401,394.506,421.525z M157.852,347.235c-0.617-0.683-1.227-1.372-1.829-2.069
	c-0.15-0.174-0.297-0.352-0.446-0.526c-0.458-0.536-0.914-1.073-1.362-1.618c-0.191-0.232-0.379-0.468-0.569-0.702
	c-0.4-0.493-0.799-0.986-1.191-1.485c-0.208-0.265-0.412-0.532-0.617-0.799c-0.368-0.476-0.733-0.952-1.094-1.435
	c-0.213-0.284-0.423-0.571-0.634-0.857c-0.346-0.471-0.69-0.943-1.029-1.42c-0.212-0.298-0.423-0.599-0.633-0.898
	c-0.331-0.473-0.658-0.948-0.982-1.426c-0.208-0.307-0.414-0.613-0.619-0.922c-0.319-0.479-0.633-0.962-0.945-1.446
	c-0.201-0.313-0.401-0.624-0.599-0.938c-0.31-0.49-0.614-0.984-0.917-1.48c-0.191-0.312-0.383-0.624-0.571-0.938
	c-0.305-0.51-0.604-1.023-0.901-1.538c-0.176-0.305-0.354-0.608-0.528-0.916c-0.307-0.541-0.606-1.087-0.904-1.634
	c-0.156-0.286-0.315-0.57-0.469-0.857c-0.325-0.607-0.641-1.22-0.956-1.832c-0.119-0.232-0.242-0.461-0.359-0.693
	c-0.424-0.839-0.839-1.684-1.244-2.534c-0.004-0.01-0.01-0.019-0.014-0.028c-0.414-0.871-0.818-1.749-1.212-2.632
	c-0.087-0.196-0.17-0.395-0.256-0.591c-0.297-0.678-0.593-1.356-0.878-2.04c-0.126-0.303-0.247-0.607-0.37-0.911
	c-0.238-0.582-0.475-1.165-0.704-1.752c-0.136-0.35-0.267-0.703-0.4-1.055c-0.207-0.546-0.413-1.092-0.612-1.642
	c-0.137-0.375-0.268-0.754-0.401-1.132c-0.187-0.533-0.372-1.066-0.552-1.602c-0.131-0.392-0.258-0.785-0.386-1.179
	c-0.171-0.527-0.339-1.057-0.503-1.587c-0.124-0.402-0.245-0.807-0.365-1.211c-0.157-0.529-0.31-1.059-0.46-1.591
	c-0.116-0.41-0.229-0.82-0.341-1.233c-0.144-0.532-0.284-1.067-0.421-1.604c-0.106-0.412-0.211-0.826-0.313-1.24
	c-0.133-0.544-0.26-1.09-0.385-1.637c-0.095-0.412-0.19-0.823-0.281-1.237c-0.123-0.559-0.237-1.121-0.353-1.683
	c-0.083-0.406-0.167-0.811-0.246-1.218c-0.114-0.588-0.219-1.18-0.324-1.771c-0.069-0.385-0.141-0.769-0.206-1.154
	c-0.11-0.655-0.209-1.314-0.309-1.974c-0.05-0.326-0.104-0.65-0.151-0.978c-0.141-0.988-0.272-1.98-0.39-2.977
	c-7.809-66.077,39.427-125.972,105.503-133.779c1.125-0.134,2.248-0.247,3.37-0.349c0.356-0.031,0.71-0.056,1.065-0.085
	c0.769-0.063,1.539-0.122,2.305-0.17c0.417-0.025,0.833-0.046,1.248-0.067c0.706-0.037,1.412-0.069,2.117-0.094
	c0.436-0.015,0.871-0.027,1.305-0.037c0.69-0.018,1.379-0.026,2.067-0.031c0.462-0.003,0.924-0.007,1.384-0.005
	c0.422,0.002,0.843,0.008,1.265,0.015c0.562,0.009,1.123,0.02,1.684,0.036c0.414,0.012,0.828,0.027,1.242,0.043
	c0.569,0.022,1.137,0.049,1.705,0.08c0.402,0.021,0.804,0.045,1.205,0.07c0.579,0.036,1.156,0.079,1.732,0.124
	c0.389,0.03,0.776,0.061,1.164,0.096c0.595,0.052,1.188,0.11,1.781,0.172c0.365,0.038,0.73,0.074,1.094,0.115
	c0.625,0.07,1.248,0.148,1.87,0.229c0.33,0.043,0.66,0.083,0.989,0.127c0.678,0.094,1.353,0.196,2.027,0.3
	c0.272,0.042,0.544,0.08,0.815,0.124c0.814,0.132,1.625,0.274,2.434,0.422c0.128,0.023,0.257,0.044,0.386,0.067
	c1.916,0.357,3.818,0.761,5.705,1.208c0.106,0.025,0.211,0.054,0.318,0.079c0.82,0.197,1.638,0.401,2.452,0.615
	c0.218,0.057,0.434,0.118,0.651,0.177c0.701,0.188,1.401,0.38,2.098,0.581c0.262,0.075,0.522,0.155,0.784,0.232
	c0.65,0.192,1.299,0.388,1.945,0.591c0.281,0.088,0.561,0.18,0.84,0.271c0.625,0.201,1.249,0.406,1.869,0.617
	c0.287,0.098,0.572,0.198,0.857,0.298c0.613,0.214,1.224,0.432,1.833,0.655c0.284,0.104,0.568,0.211,0.852,0.317
	c0.608,0.229,1.213,0.462,1.817,0.7c0.278,0.11,0.556,0.22,0.833,0.332c0.61,0.246,1.218,0.498,1.824,0.754
	c0.263,0.111,0.527,0.222,0.79,0.336c0.625,0.27,1.248,0.546,1.867,0.825c0.237,0.106,0.475,0.212,0.71,0.32
	c0.66,0.303,1.316,0.613,1.97,0.929c0.192,0.092,0.385,0.182,0.576,0.275c0.739,0.359,1.473,0.729,2.203,1.104
	c0.103,0.052,0.206,0.103,0.307,0.155c2.556,1.32,5.062,2.73,7.512,4.227c0.033,0.021,0.066,0.042,0.1,0.063
	c0.764,0.468,1.523,0.944,2.276,1.429c0.144,0.093,0.287,0.188,0.431,0.282c0.64,0.415,1.277,0.835,1.91,1.263
	c0.192,0.13,0.383,0.263,0.575,0.395c0.581,0.397,1.16,0.799,1.733,1.207c0.214,0.151,0.426,0.306,0.639,0.459
	c0.548,0.396,1.095,0.794,1.637,1.199c0.222,0.165,0.443,0.332,0.664,0.5c0.528,0.399,1.053,0.803,1.574,1.211
	c0.225,0.176,0.45,0.354,0.673,0.531c0.515,0.409,1.026,0.822,1.534,1.239c0.219,0.181,0.439,0.361,0.658,0.543
	c0.511,0.426,1.017,0.856,1.521,1.29c0.208,0.18,0.418,0.359,0.625,0.54c0.515,0.449,1.024,0.905,1.532,1.363
	c0.188,0.171,0.378,0.339,0.565,0.511c0.536,0.49,1.067,0.988,1.594,1.488c0.152,0.144,0.305,0.286,0.456,0.43
	c0.59,0.566,1.173,1.139,1.752,1.717c0.084,0.084,0.17,0.167,0.253,0.251c2.014,2.022,3.958,4.118,5.828,6.282
	c0.102,0.119,0.202,0.24,0.304,0.359c0.506,0.59,1.009,1.185,1.504,1.786c0.16,0.193,0.315,0.391,0.474,0.585
	c0.433,0.532,0.863,1.066,1.287,1.605c0.183,0.233,0.363,0.469,0.545,0.704c0.392,0.507,0.782,1.017,1.167,1.53
	c0.194,0.259,0.385,0.519,0.576,0.779c0.366,0.497,0.729,0.996,1.087,1.499c0.197,0.276,0.391,0.554,0.585,0.831
	c0.346,0.495,0.689,0.992,1.028,1.493c0.195,0.287,0.389,0.575,0.581,0.865c0.332,0.498,0.659,1,0.983,1.504
	c0.189,0.295,0.379,0.59,0.566,0.886c0.321,0.509,0.637,1.021,0.951,1.535c0.18,0.296,0.362,0.592,0.54,0.889
	c0.316,0.528,0.626,1.061,0.935,1.594c0.166,0.288,0.333,0.573,0.497,0.862c0.318,0.563,0.63,1.13,0.94,1.699
	c0.145,0.266,0.292,0.529,0.436,0.796c0.337,0.629,0.666,1.264,0.992,1.9c0.107,0.21,0.219,0.418,0.325,0.629
	c0.865,1.711,1.69,3.446,2.476,5.207c0.08,0.179,0.155,0.361,0.235,0.541c0.305,0.693,0.607,1.389,0.9,2.09
	c0.122,0.293,0.238,0.59,0.358,0.884c0.241,0.591,0.482,1.182,0.714,1.778c0.134,0.344,0.263,0.691,0.394,1.037
	c0.209,0.552,0.417,1.104,0.619,1.66c0.134,0.37,0.264,0.743,0.394,1.115c0.188,0.537,0.376,1.075,0.557,1.617
	c0.13,0.389,0.257,0.779,0.384,1.171c0.171,0.529,0.34,1.06,0.505,1.593c0.124,0.401,0.245,0.805,0.364,1.207
	c0.158,0.529,0.312,1.061,0.461,1.594c0.115,0.409,0.229,0.818,0.34,1.229c0.145,0.534,0.285,1.071,0.422,1.608
	c0.105,0.412,0.21,0.824,0.312,1.238c0.133,0.545,0.26,1.091,0.386,1.639c0.094,0.411,0.189,0.822,0.28,1.235
	c0.123,0.56,0.238,1.122,0.352,1.685c0.083,0.405,0.168,0.809,0.247,1.216c0.113,0.589,0.219,1.181,0.324,1.772
	c0.068,0.385,0.14,0.767,0.205,1.152c0.11,0.656,0.21,1.315,0.31,1.976c0.049,0.326,0.104,0.649,0.15,0.977
	c0.141,0.988,0.272,1.979,0.39,2.977c7.809,66.076-39.427,125.972-105.503,133.779c-1.125,0.133-2.247,0.246-3.368,0.348
	c-0.361,0.033-0.721,0.058-1.082,0.087c-0.762,0.062-1.523,0.12-2.283,0.168c-0.425,0.026-0.849,0.047-1.272,0.069
	c-0.697,0.036-1.394,0.067-2.089,0.092c-0.443,0.015-0.884,0.028-1.326,0.039c-0.686,0.016-1.371,0.025-2.054,0.029
	c-0.462,0.003-0.925,0.008-1.387,0.006c-0.425-0.002-0.849-0.009-1.273-0.016c-0.555-0.008-1.11-0.02-1.664-0.035
	c-0.425-0.013-0.85-0.027-1.274-0.045c-0.553-0.021-1.105-0.048-1.657-0.077c-0.42-0.022-0.841-0.046-1.26-0.073
	c-0.555-0.035-1.107-0.076-1.66-0.119c-0.414-0.032-0.828-0.065-1.241-0.102c-0.561-0.05-1.119-0.105-1.678-0.163
	c-0.4-0.041-0.801-0.081-1.2-0.126c-0.576-0.065-1.15-0.138-1.724-0.211c-0.379-0.048-0.759-0.095-1.138-0.146
	c-0.604-0.083-1.205-0.175-1.807-0.267c-0.346-0.053-0.693-0.103-1.038-0.158c-0.68-0.11-1.357-0.23-2.033-0.353
	c-0.262-0.047-0.526-0.09-0.788-0.139c-1.885-0.352-3.757-0.748-5.613-1.188c-0.25-0.06-0.498-0.125-0.746-0.186
	c-0.674-0.164-1.348-0.33-2.018-0.506c-0.318-0.083-0.634-0.173-0.951-0.259c-0.597-0.162-1.194-0.324-1.788-0.495
	c-0.346-0.1-0.689-0.204-1.034-0.307c-0.563-0.168-1.126-0.336-1.687-0.513c-0.354-0.11-0.707-0.227-1.061-0.341
	c-0.548-0.177-1.095-0.356-1.639-0.541c-0.355-0.121-0.709-0.245-1.063-0.369c-0.54-0.188-1.078-0.381-1.614-0.577
	c-0.353-0.13-0.705-0.261-1.057-0.394c-0.533-0.201-1.065-0.406-1.595-0.614c-0.348-0.138-0.695-0.274-1.041-0.414
	c-0.534-0.217-1.066-0.438-1.596-0.661c-0.336-0.141-0.672-0.282-1.006-0.427c-0.543-0.234-1.083-0.475-1.622-0.717
	c-0.315-0.142-0.632-0.282-0.946-0.427c-0.564-0.259-1.125-0.525-1.684-0.794c-0.285-0.136-0.571-0.27-0.855-0.408
	c-0.61-0.299-1.216-0.604-1.821-0.913c-0.227-0.115-0.457-0.229-0.683-0.346c-0.745-0.386-1.486-0.78-2.223-1.181
	c-0.083-0.045-0.168-0.089-0.251-0.135c-1.665-0.911-3.306-1.86-4.923-2.848c-0.17-0.104-0.339-0.212-0.509-0.317
	c-0.625-0.386-1.249-0.773-1.867-1.171c-0.235-0.15-0.466-0.306-0.7-0.458c-0.548-0.357-1.095-0.716-1.636-1.082
	c-0.264-0.178-0.525-0.359-0.787-0.539c-0.509-0.35-1.017-0.702-1.52-1.06c-0.272-0.192-0.542-0.389-0.813-0.584
	c-0.488-0.353-0.975-0.707-1.458-1.067c-0.275-0.204-0.548-0.411-0.821-0.618c-0.473-0.358-0.943-0.721-1.411-1.086
	c-0.273-0.214-0.546-0.43-0.818-0.646c-0.463-0.368-0.923-0.74-1.381-1.115c-0.267-0.219-0.533-0.438-0.798-0.659
	c-0.459-0.384-0.915-0.771-1.369-1.162c-0.255-0.22-0.512-0.438-0.766-0.661c-0.463-0.405-0.922-0.815-1.38-1.228
	c-0.235-0.213-0.473-0.425-0.707-0.639c-0.48-0.439-0.955-0.886-1.427-1.333c-0.206-0.194-0.413-0.387-0.617-0.583
	c-0.519-0.497-1.031-1.002-1.542-1.51c-0.152-0.151-0.308-0.301-0.459-0.453c-1.338-1.345-2.646-2.722-3.921-4.13
	C157.869,347.255,157.861,347.245,157.852,347.235z M226.042,847.652c-0.91,3.28-3.889,5.431-7.135,5.431
	c-0.656,0-1.321-0.088-1.984-0.271c-3.943-1.093-6.253-5.176-5.16-9.119c26.194-94.454,13.729-160.257,3.77-202.022
	c0.005,0.002,0.01,0.005,0.016,0.008c5.674,2.917,11.3,5.285,16.842,7.129C242.04,692.243,251.12,757.224,226.042,847.652z
	 M329.96,882.633c-6.138,0-11.113-4.976-11.113-11.112c0-6.139,4.975-11.113,11.113-11.113s11.113,4.975,11.113,11.113
	C341.074,877.657,336.098,882.633,329.96,882.633z M357.874,925.99c-5.452,0-9.872-4.418-9.872-9.871
	c0-5.452,4.419-9.871,9.872-9.871s9.872,4.419,9.872,9.871C367.745,921.572,363.326,925.99,357.874,925.99z M316.441,833.867
	l-8.261,11.806l-1.772-10.034c-2.166-12.261,0.515-24.257,6.666-34.024c-0.134-2.034-0.021-4.118,0.368-6.214
	c0.064-0.352,6.305-35.579-2.548-73.324c-8.963-38.216-30.087-64.956-62.905-79.783c-8.477-1.438-17.737-4.502-27.872-9.722
	c-0.151-0.072-0.298-0.152-0.448-0.228c-0.1-0.052-0.197-0.098-0.297-0.15c-0.032-0.017-0.063-0.034-0.095-0.051
	c-0.152-0.08-0.305-0.16-0.456-0.243c-35.439-18.809-72.774-63.541-50.963-169.861c5.172-25.212,12.674-49.006,19.574-67.998
	c14.991,7.044,31.389,11.502,48.591,12.852c-5.162,13.828-10.885,30.916-15.515,49.243c41.859,17.258,86.572,16.764,133-1.514
	c37.658-14.824,62.39-36.292,62.635-36.507c10.335-9.16,26.113-8.186,35.273,2.149c9.16,10.334,8.183,26.16-2.152,35.32
	c-1.219,1.082-30.387,26.682-75.656,44.863c-30.162,12.114-60.505,18.169-90.22,18.169c-24.394,0-48.362-4.092-71.468-12.248
	c-1.079,14.609-0.528,27.63,1.682,38.901c3.851,19.634,12.659,33.209,26.867,41.441c7.011,1.9,13.756,4.12,20.228,6.661
	c6.64-0.513,12.344-4.953,22.208-12.647c16.739-13.061,39.663-30.944,78.288-26.169c29.307,3.626,54.302,21.242,70.383,49.603
	c8.951,15.787,14.358,33.532,15.97,50.623c16.187,2.781,30.541,13.764,36.853,30.206l1.347,14.366l-10.753-10.756l-6.437,2.471
	l-0.275,13.994l-8.674-10.56l-55.63,21.354l-5.861,13.162l-3.651-9.512c-4.155-10.825-4.139-22.226-0.744-32.433
	c0.268-2.512,0.92-5.024,1.996-7.46c4.456-10.084,2.801-32.37-7.644-50.79c-5.717-10.083-16.087-22.543-33.02-24.638
	c-17.254-2.138-26.056,4.008-41.385,15.966c-1.265,0.987-2.576,2.009-3.931,3.048c5.172,4.633,10.035,9.596,14.542,14.925
	c17.155,20.285,29.171,45.287,35.714,74.312c5.897,26.156,6.209,50.813,5.235,68.033c17.998,4.392,32.617,19.005,36.045,38.413
	l2.253,12.754l-12.175-11.001l-6.789,1.199l-2.937,13.686l-6.504-12.018L316.441,833.867z M298.072,528.316
	c-18.167,17.299-36.241,33.672-53.964,48.679c-4.313-2.727-7.941-6.083-10.95-10.149c14.115-11.906,28.466-24.701,42.922-38.164
	c2.432,0.078,4.868,0.122,7.308,0.122C288.271,528.804,293.168,528.629,298.072,528.316z M465.377,739.207
	c0,7.479-6.063,13.541-13.542,13.541c-7.479,0-13.542-6.062-13.542-13.541c0-7.479,6.063-13.542,13.542-13.542
	C459.313,725.665,465.377,731.729,465.377,739.207z M423.015,752.06c0,4.604-3.731,8.335-8.335,8.335
	c-4.604,0-8.335-3.731-8.335-8.335s3.732-8.336,8.335-8.336C419.283,743.724,423.015,747.456,423.015,752.06z M376.869,883.726
	c0-10.659,8.64-19.3,19.299-19.3s19.299,8.641,19.299,19.3c0,10.658-8.641,19.299-19.299,19.299S376.869,894.384,376.869,883.726z
	 M500,964.907c-34.973,0-69.044-3.861-101.811-11.182c0,0,42.392-44.699,32.768-98.181c-4.641-25.789-13.5-47.924,0-74.477
	c11.126-21.883,55.549-30.675,66.745-52.521c21.026-41.027-17.736-93.173,2.298-162.078c4.25-14.615,21.454-40.617,40.986-112.092
	c10.588-38.75-7.156-152.928,12.604-187.903c6.484-11.478,38.004-14.993,46.303-25.236c12.667-15.635,8.698-62.991,23.02-77.127
	c17.314-17.088,29.116-38.787,36.818-57.242c-25.384,34.016-74.372,98.489-134.181,171.36
	c-12.675,15.443-26.255,31.769-40.538,48.634c-0.252-0.053-0.496-0.103-0.752-0.156c-2.642-0.555-5.633-1.183-8.846-1.648
	l-1.963-0.315l-0.841-0.135l-0.083-0.014l-0.085-0.012c-0.728-0.104-1.463-0.191-2.204-0.276c-0.321-0.038-0.643-0.075-0.966-0.115
	l-0.036-0.004l-0.036-0.004l-1.103-0.131c-0.04-0.005-0.084-0.01-0.125-0.016c16.335-19.198,31.811-37.769,46.123-55.208
	C601.653,162.146,665.909,73.574,666.549,72.691c1.29-1.781,3.226-2.811,5.255-3.018c0.24-1.074,0.356-1.659,0.356-1.659
	C843.691,136.436,964.907,304.061,964.907,500C964.907,756.761,756.761,964.907,500,964.907z"/>
</svg>
