<?xml version="1.0" encoding="utf-8"?>
<!-- Generator: Adobe Illustrator 16.0.0, SVG Export Plug-In . SVG Version: 6.00 Build 0)  -->
<!DOCTYPE svg PUBLIC "-//W3C//DTD SVG 1.1//EN" "http://www.w3.org/Graphics/SVG/1.1/DTD/svg11.dtd">
<svg version="1.1" id="Layer_1" xmlns="http://www.w3.org/2000/svg" xmlns:xlink="http://www.w3.org/1999/xlink" x="0px" y="0px"
	 width="1000px" height="1000px" viewBox="0 0 1000 1000" enable-background="new 0 0 1000 1000" xml:space="preserve">
<g>
	<path d="M546.379,919.996c-0.39-0.264-0.811-0.525-1.259-0.785c-0.33,0.072-0.656,0.148-0.99,0.217
		c-6.639,1.359-14.156,1.898-22.528,1.09c-0.654,5.172-1.125,10.533-1.274,15.898c11.855-1.354,21.259-3.854,26.052-6.947V919.996z"
		/>
	<path d="M506.71,937.404c0.116-6.594,0.675-13.146,1.481-19.391c-5.421-1.629-10.348-3.98-14.796-6.734
		c-18.256,0.713-33.385,4.309-39.858,8.777v9.354c7.24,4.746,25.306,8.111,46.462,8.111
		C502.276,937.521,504.513,937.48,506.71,937.404z"/>
	<path d="M500,0C223.857,0,0,223.858,0,500c0,276.14,223.857,500,500,500c276.144,0,500-223.859,500-500
		C1000,223.858,776.144,0,500,0z M754.838,578.93c-87.424,105.031-201.893,176.961-201.893,258.918h-0.003
		c0,0.012,0.003,0.021,0.003,0.033c0,0.824-0.353,1.629-1.01,2.408v10.625c-1.624-2.201-3.493-4.16-5.557-5.852v-1.211
		c-0.403,0.17-0.817,0.34-1.253,0.506c-1.264-0.947-2.587-1.803-3.968-2.555c2.345-0.723,4.019-1.418,5.221-2.027
		c1.07-0.543,1.763-1.016,2.199-1.375c0.005-0.004,0.009-0.008,0.014-0.012c0.077-0.063,0.145-0.123,0.206-0.18
		c0.011-0.008,0.021-0.018,0.032-0.027c0.052-0.051,0.099-0.094,0.14-0.137c0.01-0.012,0.021-0.021,0.031-0.031
		c0.047-0.049,0.087-0.094,0.12-0.133c-0.009-0.01-0.021-0.023-0.032-0.033c-0.038-0.045-0.085-0.096-0.138-0.148
		c-0.017-0.016-0.035-0.033-0.052-0.051c-0.038-0.037-0.081-0.076-0.126-0.117c-0.043-0.039-0.091-0.08-0.141-0.123
		c-0.027-0.023-0.057-0.047-0.085-0.072c-0.069-0.055-0.145-0.113-0.227-0.176c-0.01-0.008-0.02-0.016-0.03-0.023
		c-0.008-0.006-0.016-0.012-0.023-0.018c-0.097-0.07-0.201-0.145-0.315-0.223c-0.015-0.01-0.028-0.018-0.042-0.027
		c-0.123-0.084-0.255-0.168-0.399-0.256c-0.013-0.008-0.026-0.016-0.039-0.025c-0.149-0.09-0.311-0.184-0.485-0.281
		c-0.007-0.004-0.017-0.01-0.023-0.012c-0.181-0.102-0.375-0.205-0.584-0.311c-0.129-0.066-0.263-0.131-0.402-0.199
		c-0.064-0.031-0.121-0.061-0.188-0.092c-0.204-0.096-0.43-0.193-0.657-0.293c-0.07-0.031-0.133-0.061-0.206-0.092
		c-0.237-0.102-0.497-0.203-0.76-0.307c-0.079-0.031-0.15-0.063-0.231-0.094c-0.271-0.105-0.568-0.211-0.868-0.318
		c-0.088-0.031-0.169-0.063-0.26-0.094c-0.299-0.105-0.623-0.209-0.95-0.316c-0.111-0.035-0.211-0.07-0.326-0.107
		c-0.33-0.104-0.689-0.211-1.048-0.316c-0.129-0.037-0.244-0.074-0.377-0.113c-0.374-0.107-0.777-0.215-1.183-0.322
		c-0.138-0.037-0.263-0.072-0.403-0.109c-0.435-0.113-0.899-0.227-1.367-0.34c-0.133-0.031-0.253-0.063-0.389-0.096
		c-0.613-0.143-1.257-0.287-1.932-0.432c-3.339-0.709-7.036-1.303-10.98-1.779c-1.406-0.17-2.843-0.326-4.309-0.463
		c-0.004,0-0.008-0.002-0.013-0.002c-1.472-0.139-2.973-0.264-4.496-0.371c-0.003,0-0.007,0-0.009,0
		c-1.525-0.107-3.072-0.197-4.64-0.271c-0.003-0.002-0.007-0.002-0.011-0.002c-1.568-0.074-3.156-0.131-4.759-0.172
		c-1.855-0.047-3.728-0.072-5.615-0.072s-3.76,0.025-5.615,0.072c-1.625,0.041-3.235,0.1-4.826,0.176
		c-0.013,0-0.025,0.002-0.039,0.002c-1.579,0.076-3.14,0.168-4.677,0.277c-0.018,0.002-0.035,0.002-0.053,0.004
		c-1.536,0.109-3.047,0.236-4.529,0.377c-0.014,0.002-0.026,0.004-0.04,0.004c-1.487,0.143-2.947,0.303-4.373,0.479
		c-3.831,0.469-7.425,1.053-10.68,1.742c-0.04,0.01-0.075,0.018-0.115,0.027c-4.569,0.977-7.698,1.986-9.839,2.881
		c-0.032,0.016-0.07,0.027-0.104,0.043c-0.239,0.1-0.456,0.199-0.671,0.297c-0.063,0.029-0.135,0.059-0.195,0.088
		c-0.187,0.086-0.354,0.17-0.521,0.254c-0.061,0.031-0.128,0.063-0.186,0.092c-0.176,0.09-0.336,0.178-0.492,0.264
		c-0.036,0.02-0.075,0.041-0.11,0.061c-0.136,0.076-0.259,0.15-0.38,0.225c-0.012,0.006-0.024,0.014-0.035,0.02
		c-0.032,0.02-0.067,0.041-0.1,0.061c-0.104,0.064-0.197,0.127-0.289,0.188c-0.027,0.018-0.056,0.037-0.082,0.055
		c-0.021,0.014-0.042,0.027-0.063,0.043c-0.078,0.053-0.15,0.105-0.22,0.156c-0.037,0.027-0.074,0.055-0.108,0.08
		c-0.01,0.008-0.021,0.016-0.03,0.023c-0.057,0.043-0.109,0.086-0.16,0.125c-0.044,0.035-0.087,0.072-0.125,0.105
		c-0.003,0.002-0.005,0.004-0.007,0.006c-0.037,0.031-0.072,0.063-0.105,0.092c-0.048,0.043-0.094,0.086-0.134,0.125
		c-0.017,0.016-0.035,0.033-0.05,0.051c-0.052,0.051-0.098,0.1-0.135,0.143c-0.01,0.012-0.024,0.025-0.034,0.037
		c0.036,0.041,0.081,0.092,0.134,0.145c0.022,0.023,0.051,0.051,0.077,0.076c0.033,0.033,0.066,0.064,0.105,0.102
		s0.087,0.076,0.133,0.117c0.034,0.029,0.067,0.059,0.105,0.09c0.058,0.047,0.123,0.098,0.19,0.15
		c0.035,0.027,0.071,0.055,0.109,0.082c0.078,0.059,0.162,0.119,0.252,0.18c0.037,0.025,0.076,0.053,0.115,0.078
		c0.101,0.068,0.206,0.137,0.32,0.207c0.037,0.023,0.078,0.047,0.116,0.07c0.127,0.078,0.258,0.156,0.401,0.236
		c0.029,0.016,0.063,0.035,0.093,0.051c0.159,0.088,0.325,0.18,0.507,0.271c2.072,1.064,5.614,2.404,11.629,3.682
		c9.513,2.021,21.884,3.135,34.834,3.135c1.171,0,2.335-0.014,3.495-0.031c-1.257,1.164-2.406,2.414-3.447,3.736
		c-0.017,0-0.031,0-0.048,0c-20.037,0-37.471-2.604-46.463-6.439v74.537c7.524-5.041,21.796-7.977,37.188-8.814
		c-18.11-12.395-27.414-31.053-27.937-32.123c-1.646-3.375-0.245-7.443,3.13-9.09c3.373-1.643,7.438-0.248,9.086,3.121
		c0.227,0.459,15.079,29.902,42.004,34.723c10.515,1.883,20.338,1.443,29.37-1.281v-9.443c2.121-1.736,3.979-3.703,5.557-5.846
		v13.275c3.185-1.348,6.264-2.99,9.224-4.951c9.676-6.412,14.513-13.885,14.561-13.959c1.991-3.182,6.179-4.135,9.361-2.141
		c3.182,1.992,4.138,6.199,2.146,9.381c-0.244,0.391-6.111,9.631-17.977,17.662c-4.509,3.053-10.291,6.182-17.314,8.486v8.314
		c0.054,0.367,0.084,0.738,0.084,1.117v11.828c0,23.332-17.577,42.244-39.261,42.244H487.24c-21.683,0-39.26-18.912-39.26-42.244
		v-7.895v-3.934V840.18c-0.6-0.744-0.927-1.512-0.927-2.299c0-0.012,0.004-0.021,0.004-0.033h-0.003
		c0-81.957-114.469-153.887-201.892-258.918C120.191,428.788,78.103,248.408,204.275,141.255
		c48.14-40.883,105.301-71.206,167.876-88.752c-9.253,5.288-19.541,11.7-30.455,19.528c-7.461,5.31-15.153,11.334-23.042,18.012
		c-3.93,3.356-7.873,6.911-11.832,10.651c-0.987,0.938-1.981,1.881-2.98,2.83c-0.983,0.967-1.973,1.94-2.967,2.918
		c-2.01,1.938-3.947,3.995-5.926,6.055c-15.716,16.557-31.173,36.501-43.62,60.182c-6.256,11.807-11.654,24.553-15.976,38.015
		c-4.346,13.456-7.378,27.68-9.182,42.279c-0.258,1.822-0.391,3.66-0.565,5.498c-0.156,1.839-0.354,3.679-0.474,5.527
		c-0.101,1.849-0.201,3.702-0.303,5.558c-0.044,0.928-0.111,1.857-0.136,2.787l-0.053,2.792c-0.033,1.863-0.065,3.73-0.099,5.6
		c0.033,1.867,0.065,3.738,0.098,5.612c0.011,3.752,0.309,7.494,0.491,11.256c0.085,1.882,0.313,3.75,0.464,5.631
		c0.183,1.876,0.313,3.762,0.542,5.636c0.237,1.872,0.474,3.747,0.711,5.625l0.359,2.817l0.438,2.827
		c0.274,1.754,0.549,3.511,0.824,5.27l0.413,2.64c0.131,0.87,0.32,1.833,0.478,2.745c0.684,3.678,1.316,7.436,2.066,11.066
		c5.786,29.094,14.259,58.134,25.275,86.056c5.48,13.971,11.503,27.697,17.988,41.09c6.508,13.384,13.481,26.423,20.698,39.135
		c7.205,12.723,14.754,25.059,22.389,37.074c7.652,12.004,15.368,23.703,23.116,35.049c7.73,11.355,15.403,22.416,22.876,33.215
		c7.505,10.773,14.809,21.285,21.772,31.568c6.948,10.293,13.646,20.299,19.85,30.111c6.202,9.813,11.989,19.381,17.259,28.697
		c5.263,9.32,9.98,18.4,14.179,27.156c4.2,8.756,7.771,17.23,10.905,25.275c3.143,8.045,5.657,15.723,7.738,22.893
		c2.136,7.162,3.637,13.855,4.952,19.918c0.574,3.045,1.215,5.918,1.648,8.648c0.422,2.729,0.912,5.283,1.203,7.68
		c0.308,2.396,0.592,4.613,0.853,6.646c0.194,2.039,0.372,3.895,0.53,5.555c0.04,0.35,0.074,0.688,0.107,1.021
		c3.345-0.697,7.073-1.297,11.099-1.779c-0.013-1.678-0.028-3.533-0.044-5.574c-0.086-2.148-0.18-4.494-0.281-7.029
		c-0.087-2.541-0.361-5.254-0.556-8.164c-0.206-2.91-0.608-5.979-0.937-9.242c-0.867-6.486-1.952-13.674-3.627-21.395
		c-1.628-7.732-3.68-16.045-6.353-24.77c-5.304-17.463-12.907-36.643-22.748-56.652c-4.893-10.021-10.317-20.264-16.191-30.67
		c-5.872-10.406-12.11-21.029-18.723-31.775c-6.596-10.756-13.475-21.691-20.505-32.813c-7.063-11.098-14.268-22.389-21.467-33.895
		c-7.179-11.518-14.45-23.189-21.512-35.127c-7.066-11.934-13.952-24.113-20.609-36.49c-6.633-12.388-12.983-25.008-18.847-37.868
		c-5.894-12.844-11.376-25.897-16.289-39.135c-9.804-26.477-17.561-53.609-22.629-80.823c-0.668-3.396-1.172-6.703-1.774-10.044
		c-0.144-0.847-0.303-1.634-0.434-2.527l-0.404-2.641c-0.269-1.76-0.537-3.518-0.806-5.273l-0.37-2.436l-0.301-2.459
		c-0.202-1.638-0.403-3.274-0.605-4.908c-0.195-1.634-0.296-3.27-0.45-4.9c-0.123-1.632-0.325-3.26-0.388-4.888
		c-0.138-3.255-0.4-6.501-0.388-9.733c-0.024-1.616-0.048-3.229-0.071-4.84c0.035-1.608,0.07-3.214,0.105-4.816l0.05-2.401
		c0.023-0.8,0.088-1.595,0.129-2.392c0.092-1.592,0.184-3.182,0.274-4.768c0.106-1.585,0.289-3.159,0.427-4.734
		c0.154-1.574,0.267-3.149,0.498-4.706c0.196-1.562,0.393-3.12,0.588-4.675c0.18-1.558,0.48-3.093,0.712-4.636
		c0.444-3.09,1.092-6.129,1.682-9.164c0.272-1.522,0.683-3.013,1.014-4.515c0.368-1.495,0.656-3.004,1.084-4.477
		c0.804-2.958,1.563-5.911,2.461-8.812c1.685-5.834,3.718-11.505,5.864-17.061c1.12-2.761,2.209-5.517,3.431-8.203
		c1.133-2.723,2.401-5.371,3.637-8.014c2.545-5.253,5.203-10.382,8.071-15.313c2.792-4.973,5.773-9.762,8.791-14.427
		c6.161-9.25,12.544-17.99,19.192-26.026c13.222-16.145,26.975-29.821,39.748-41.392c12.832-11.518,24.705-20.951,34.744-28.403
		c10.046-7.448,18.222-12.985,23.836-16.674c2.215-1.446,4.035-2.584,5.42-3.457c22.455-3.789,45.446-5.993,68.827-6.514
		c-0.005,0.019-0.009,0.036-0.014,0.055c-1.153,4.37-2.335,9.393-3.624,15.018c-1.276,5.625-2.587,11.854-3.942,18.634
		c-1.323,6.781-2.686,14.114-4.008,21.95c-2.626,15.67-5.199,33.35-7.342,52.638c-1.118,9.644-2.05,19.689-2.973,30.086
		c-0.842,10.397-1.667,21.146-2.27,32.195c-0.661,11.05-1.116,22.401-1.507,34.004c-0.315,11.602-0.577,23.456-0.665,35.51
		c-0.119,12.055-0.123,24.31,0.023,36.716c0.13,12.406,0.392,24.963,0.82,37.62c0.419,12.657,0.975,25.415,1.702,38.223
		c0.175,3.202,0.349,6.407,0.523,9.614c0.205,3.208,0.411,6.418,0.616,9.629c0.401,6.423,0.821,12.852,1.309,19.281
		c0.887,12.858,1.991,25.716,3.009,38.524c1.051,12.808,2.098,25.566,3.136,38.223c2.146,25.314,4.082,50.227,5.745,74.336
		c0.401,6.027,0.8,12.004,1.194,17.924c0.351,5.92,0.698,11.785,1.043,17.586c0.656,11.602,1.298,22.953,1.924,34.004
		c1.229,22.1,2.39,42.994,3.463,62.281c1.112,19.287,2.134,36.967,3.038,52.639c0.93,15.67,1.741,29.332,2.409,40.584
		c0.578,9.5,1.051,17.275,1.404,23.096c1.919-0.051,3.866-0.078,5.841-0.078s3.922,0.027,5.841,0.078
		c0.354-5.82,0.826-13.596,1.404-23.096c0.668-11.252,1.479-24.914,2.409-40.584c0.904-15.672,1.926-33.352,3.039-52.639
		c1.071-19.287,2.233-40.182,3.463-62.281c0.625-11.051,1.267-22.402,1.924-34.004c0.344-5.801,0.691-11.666,1.043-17.586
		c0.394-5.92,0.792-11.896,1.193-17.924c1.663-24.109,3.601-49.021,5.746-74.336c1.038-12.657,2.084-25.415,3.135-38.223
		c1.018-12.808,2.122-25.666,3.009-38.524c0.487-6.429,0.907-12.858,1.309-19.281c0.206-3.211,0.411-6.421,0.616-9.629
		c0.175-3.208,0.35-6.412,0.523-9.614c0.728-12.808,1.283-25.565,1.702-38.223c0.429-12.657,0.689-25.214,0.821-37.62
		c0.146-12.406,0.142-24.661,0.023-36.716c-0.089-12.054-0.351-23.908-0.666-35.51c-0.391-11.603-0.845-22.954-1.507-34.004
		c-0.603-11.05-1.428-21.798-2.27-32.195c-0.923-10.397-1.854-20.442-2.974-30.086c-2.142-19.288-4.715-36.967-7.341-52.638
		c-1.322-7.835-2.684-15.168-4.008-21.95c-1.355-6.78-2.666-13.008-3.941-18.634c-1.29-5.625-2.472-10.648-3.625-15.018
		c-0.005-0.018-0.009-0.035-0.014-0.053c23.268,0.52,46.149,2.703,68.5,6.458c1.396,0.873,3.238,2.021,5.495,3.478
		c5.632,3.658,13.808,9.198,23.879,16.611c5.009,3.748,10.524,7.913,16.339,12.666c5.861,4.687,12.015,9.964,18.444,15.709
		c3.196,2.895,6.47,5.9,9.742,9.085c3.313,3.14,6.629,6.456,9.983,9.891c6.663,6.915,13.439,14.351,20.032,22.443
		c13.222,16.127,25.876,34.778,35.983,55.843c5.022,10.538,9.408,21.667,12.861,33.306c1.778,5.807,3.187,11.776,4.455,17.823
		c0.59,3.033,1.236,6.07,1.682,9.158c0.231,1.542,0.532,3.076,0.711,4.632c0.194,1.554,0.388,3.112,0.581,4.672
		c0.223,1.557,0.325,3.133,0.471,4.706c0.128,1.575,0.301,3.148,0.397,4.732c0.081,1.585,0.164,3.174,0.245,4.765
		c0.041,0.796,0.105,1.591,0.129,2.389l0.05,2.399c0.036,1.601,0.071,3.205,0.107,4.811c-0.024,1.609-0.048,3.221-0.071,4.835
		c0.013,3.229-0.25,6.471-0.387,9.723c-0.063,1.626-0.264,3.252-0.387,4.883c-0.155,1.629-0.255,3.264-0.45,4.896
		c-0.201,1.632-0.402,3.266-0.604,4.902l-0.301,2.457l-0.369,2.434c-0.27,1.755-0.537,3.513-0.807,5.273l-0.403,2.641
		c-0.131,0.893-0.289,1.68-0.433,2.525c-0.609,3.338-1.129,6.64-1.808,10.031c-2.583,13.586-5.734,27.18-9.536,40.666
		c-3.783,13.492-8.233,26.862-13.12,40.099c-9.814,26.466-21.872,52.191-35.117,76.965c-6.634,12.383-13.572,24.528-20.608,36.473
		c-7.056,11.936-14.299,23.623-21.506,35.121c-7.188,11.512-14.384,22.809-21.437,33.912c-7.06,11.104-13.899,22.066-20.494,32.824
		c-6.601,10.754-12.861,21.367-18.71,31.793c-5.855,10.422-11.297,20.66-16.174,30.693c-9.823,20.029-17.41,39.225-22.702,56.703
		c-2.661,8.734-4.7,17.053-6.317,24.789c-1.666,7.727-2.73,14.922-3.602,21.41c-0.321,3.264-0.718,6.334-0.919,9.246
		c-0.188,2.91-0.457,5.625-0.541,8.166c-0.096,2.537-0.185,4.883-0.268,7.033c-0.012,2.027-0.023,3.871-0.034,5.543
		c4.044,0.477,7.789,1.07,11.154,1.764c0.031-0.318,0.064-0.639,0.098-0.973c0.162-1.66,0.343-3.514,0.542-5.553
		c0.264-2.031,0.552-4.248,0.864-6.645c0.297-2.395,0.791-4.947,1.219-7.676c0.439-2.729,1.086-5.602,1.665-8.643
		c1.313-6.063,2.834-12.75,4.979-19.906c2.093-7.164,4.619-14.834,7.774-22.871c6.191-16.109,14.582-33.762,25.129-52.381
		c5.286-9.303,11.056-18.877,17.276-28.674c6.227-9.795,12.902-19.811,19.863-30.094c13.973-20.529,29.211-42.047,44.689-64.754
		c15.404-22.744,31.088-46.689,45.511-72.145c7.215-12.719,14.237-25.743,20.701-39.156c6.475-13.406,12.52-27.13,18.004-41.108
		c10.967-27.955,19.489-56.997,25.248-86.113c0.739-3.634,1.356-7.398,2.033-11.08c0.159-0.913,0.348-1.876,0.479-2.746l0.414-2.64
		c0.274-1.759,0.55-3.516,0.824-5.27l0.438-2.829l0.36-2.82c0.238-1.879,0.475-3.755,0.712-5.629
		c0.229-1.875,0.36-3.764,0.543-5.641c0.152-1.882,0.38-3.751,0.466-5.636c0.959-15.034,0.731-30.05-1.125-44.662
		c-0.241-1.825-0.481-3.645-0.722-5.462c-0.229-1.818-0.583-3.615-0.871-5.417c-0.556-3.608-1.326-7.16-2.05-10.702
		c-1.609-7.048-3.443-13.975-5.65-20.691c-2.137-6.74-4.598-13.283-7.285-19.622c-1.386-3.151-2.739-6.292-4.239-9.335
		c-1.428-3.079-2.989-6.06-4.521-9.028c-0.747-1.495-1.59-2.929-2.378-4.385c-0.813-1.443-1.575-2.909-2.421-4.315
		c-1.69-2.816-3.337-5.63-5.102-8.333c-3.43-5.472-7.078-10.66-10.727-15.698c-1.871-2.481-3.702-4.962-5.631-7.323
		c-0.952-1.189-1.901-2.372-2.846-3.55c-0.97-1.155-1.934-2.304-2.894-3.448c-3.852-4.564-7.744-8.925-11.694-13.052
		c-15.802-16.52-31.859-29.794-46.737-40.439c-7.412-5.366-14.61-9.983-21.3-14.148c-3.387-2.054-6.651-3.986-9.793-5.788
		c62.969,17.502,120.483,47.934,168.882,89.036C921.897,248.408,879.808,428.788,754.838,578.93z M539.672,894.65
		c-0.601,0.348-1.212,0.664-1.828,0.963c-0.134,0.066-0.268,0.133-0.402,0.195c-0.597,0.279-1.199,0.537-1.807,0.771
		c-0.119,0.045-0.239,0.086-0.359,0.131c-0.556,0.205-1.115,0.393-1.678,0.561c-0.103,0.031-0.204,0.064-0.308,0.096
		c-0.616,0.176-1.237,0.326-1.859,0.457c-0.153,0.035-0.309,0.064-0.463,0.096c-0.621,0.121-1.244,0.227-1.867,0.305
		c-0.063,0.008-0.128,0.012-0.191,0.02c-0.584,0.07-1.169,0.117-1.754,0.148c-0.146,0.008-0.294,0.018-0.44,0.023
		c-0.616,0.023-1.232,0.029-1.848,0.012c-0.131-0.004-0.261-0.012-0.392-0.018c-0.557-0.023-1.112-0.061-1.665-0.117
		c-0.104-0.01-0.21-0.016-0.313-0.029c-0.614-0.068-1.225-0.16-1.832-0.27c-0.146-0.027-0.293-0.057-0.439-0.084
		c-0.615-0.121-1.227-0.256-1.833-0.416c-0.04-0.012-0.081-0.025-0.123-0.037c-0.577-0.156-1.15-0.336-1.717-0.529
		c-0.134-0.045-0.269-0.09-0.401-0.137c-0.581-0.209-1.157-0.434-1.725-0.68c-0.109-0.049-0.216-0.1-0.324-0.148
		c-0.516-0.23-1.025-0.479-1.527-0.742c-0.092-0.047-0.184-0.092-0.274-0.141c-0.55-0.295-1.089-0.613-1.62-0.947
		c-0.121-0.076-0.24-0.152-0.36-0.23c-0.537-0.35-1.067-0.711-1.582-1.098c-0.016-0.012-0.03-0.025-0.045-0.037
		c-0.504-0.381-0.992-0.785-1.472-1.201c-0.105-0.092-0.212-0.184-0.315-0.277c-0.475-0.426-0.939-0.867-1.387-1.326
		c-0.077-0.08-0.151-0.164-0.228-0.244c-0.407-0.428-0.802-0.871-1.185-1.33c-0.067-0.082-0.139-0.16-0.206-0.244
		c-0.412-0.506-0.807-1.031-1.188-1.57c-0.083-0.119-0.164-0.24-0.246-0.359c-0.382-0.561-0.754-1.135-1.101-1.732
		c-6.628-11.418-4.283-25.574,4.858-34.311c0.001-0.002,0.002-0.002,0.003-0.002c0.369-0.354,0.751-0.697,1.142-1.031
		c0.034-0.029,0.068-0.059,0.103-0.088c0.358-0.303,0.727-0.598,1.103-0.885c0.06-0.047,0.118-0.092,0.177-0.135
		c0.364-0.275,0.738-0.541,1.118-0.799c0.064-0.043,0.128-0.088,0.192-0.131c0.434-0.289,0.876-0.568,1.331-0.836
		c0.004-0.002,0.007-0.006,0.01-0.008c0.045-0.025,0.087-0.053,0.132-0.08c0.603-0.35,1.217-0.666,1.835-0.967
		c0.129-0.064,0.258-0.127,0.389-0.189c0.603-0.281,1.21-0.541,1.823-0.777c0.108-0.043,0.219-0.078,0.327-0.119
		c0.572-0.213,1.148-0.404,1.729-0.578c0.089-0.025,0.178-0.057,0.267-0.082c0.626-0.18,1.256-0.33,1.887-0.465
		c0.143-0.031,0.286-0.059,0.429-0.088c0.631-0.123,1.263-0.23,1.896-0.311c0.048-0.006,0.095-0.008,0.143-0.014
		c0.604-0.072,1.207-0.121,1.81-0.152c0.137-0.008,0.273-0.018,0.411-0.021c0.624-0.025,1.248-0.031,1.87-0.014
		c0.119,0.004,0.24,0.012,0.359,0.016c0.572,0.023,1.142,0.063,1.71,0.121c0.094,0.01,0.188,0.016,0.281,0.025
		c0.621,0.07,1.239,0.164,1.854,0.275c0.138,0.023,0.275,0.051,0.414,0.078c0.622,0.121,1.24,0.258,1.854,0.42
		c0.029,0.008,0.058,0.018,0.086,0.025c0.593,0.16,1.179,0.344,1.761,0.543c0.125,0.043,0.252,0.086,0.378,0.131
		c0.588,0.209,1.169,0.438,1.742,0.686c0.101,0.045,0.2,0.092,0.301,0.137c0.527,0.236,1.047,0.488,1.559,0.758
		c0.085,0.043,0.17,0.084,0.253,0.129c0.211,0.113,0.412,0.244,0.62,0.363c0.004,0.002,0.007,0.004,0.01,0.006c0,0,0,0-0.001,0
		c0.337,0.193,0.676,0.379,1.004,0.586c0.116,0.072,0.23,0.146,0.345,0.221c0.542,0.354,1.076,0.719,1.596,1.109
		c0.008,0.004,0.016,0.012,0.023,0.018c0.512,0.387,1.008,0.797,1.494,1.221c0.102,0.088,0.205,0.178,0.307,0.268
		c0.478,0.428,0.942,0.871,1.393,1.334c0.074,0.076,0.146,0.158,0.22,0.236c0.161,0.17,0.312,0.352,0.469,0.525v-0.326
		c1.349,1.469,2.572,3.092,3.614,4.887c0.769,1.324,1.411,2.686,1.942,4.068v0.576c2.305,6.314,2.202,13.096,0,19.158v0.256
		c-1.251,3.285-3.118,6.348-5.557,8.994v-0.018C544.484,891.316,542.243,893.158,539.672,894.65z"/>
</g>
</svg>
