<?xml version="1.0" encoding="utf-8"?>
<!-- Generator: Adobe Illustrator 16.0.0, SVG Export Plug-In . SVG Version: 6.00 Build 0)  -->
<!DOCTYPE svg PUBLIC "-//W3C//DTD SVG 1.1//EN" "http://www.w3.org/Graphics/SVG/1.1/DTD/svg11.dtd">
<svg version="1.1" id="Layer_1" xmlns="http://www.w3.org/2000/svg" xmlns:xlink="http://www.w3.org/1999/xlink" x="0px" y="0px"
	 width="1000px" height="1000px" viewBox="0 0 1000 1000" enable-background="new 0 0 1000 1000" xml:space="preserve">
<g>
	<path d="M500,0C223.857,0,0,223.857,0,500.001C0,776.143,223.857,1000,500,1000c276.144,0,500-223.857,500-499.999
		C1000,223.857,776.144,0,500,0z M539.92,511.104c14.373,17.718,23.127,41.584,25.313,69.018
		c2.058,25.815-1.823,52.945-11.222,78.46c-10.583,28.729-27.056,52.883-47.991,71.246v58.489c5.26-0.601,11.297-2.185,18.23-5.25
		c4.299-2.932,8.653-5.623,13.054-8.07c12.52-10.975,16.722-27.725,21.373-51.44c4.106-20.937,8.353-42.585,24.854-57.33
		c28.161-25.166,65.35-31.989,97.044-17.805c34.198,15.304,54.614,51.013,54.614,95.524c0,13.81-11.194,25.005-25.005,25.005
		s-25.005-11.195-25.005-25.005c0-24.218-9.357-42.862-25.031-49.876c-13.654-6.11-29.838-2.577-43.296,9.447
		c-3.979,3.557-6.819,18.032-9.1,29.664c-1.475,7.518-3.048,15.532-5.244,23.723c4.984-0.052,9.964,0.196,14.926,0.753
		c27.936,3.13,54.429,15.989,74.6,36.208c35.012,35.098,42.938,83.016,19.275,116.53c-4.872,6.898-12.6,10.584-20.448,10.584
		c-4.985,0-10.02-1.486-14.401-4.58c-11.28-7.966-13.969-23.567-6.004-34.85c10.451-14.801,0.955-37.547-13.827-52.364
		c-19.737-19.784-53.206-31.98-91.553-12.354c-5.234,3.964-10.95,7.417-17.118,10.364c-0.205,0.105-0.411,0.206-0.619,0.305
		c-0.048,0.022-0.094,0.048-0.143,0.071c-0.102,0.047-0.2,0.089-0.301,0.136c-0.145,0.066-0.29,0.134-0.436,0.196
		c-16.801,7.744-32.004,10.64-45.322,10.64c-16.946,0-30.848-4.669-41.15-9.946c-29.042-14.879-53.078-45.69-71.438-91.579
		c-3.096-7.739-5.755-15.243-8.017-22.202c16.737-3.193,32.496-9.373,46.653-18c1.771,5.596,3.809,11.487,6.098,17.471
		c25.004-7.72,46.006-23.946,60.699-46.646V475.344l-45.65,20.119c22.767,25.103,34.868,59.606,30.349,95.872
		c-0.124,0.994-0.261,1.983-0.408,2.969c-0.049,0.328-0.105,0.652-0.157,0.979c-0.104,0.655-0.207,1.31-0.32,1.96
		c-0.068,0.394-0.145,0.784-0.217,1.176c-0.107,0.581-0.214,1.16-0.329,1.737c-0.083,0.416-0.173,0.83-0.26,1.244
		c-0.116,0.549-0.231,1.098-0.354,1.643c-0.096,0.425-0.195,0.847-0.296,1.27c-0.126,0.53-0.253,1.062-0.386,1.591
		c-0.107,0.428-0.219,0.854-0.33,1.28c-0.135,0.517-0.273,1.031-0.416,1.544c-0.119,0.431-0.24,0.86-0.363,1.288
		c-0.146,0.506-0.297,1.011-0.45,1.515c-0.129,0.427-0.259,0.853-0.394,1.277c-0.157,0.5-0.319,0.996-0.482,1.493
		c-0.141,0.423-0.279,0.846-0.424,1.266c-0.169,0.496-0.345,0.989-0.52,1.48c-0.148,0.415-0.295,0.831-0.447,1.244
		c-0.184,0.494-0.373,0.985-0.563,1.477c-0.155,0.405-0.309,0.812-0.469,1.214c-0.2,0.506-0.409,1.007-0.616,1.509
		c-0.157,0.382-0.312,0.765-0.472,1.145c-0.249,0.584-0.508,1.164-0.765,1.744c-0.249,0.559-0.501,1.116-0.758,1.671
		c-0.265,0.571-0.528,1.146-0.802,1.712c-0.195,0.406-0.399,0.807-0.6,1.21c-0.219,0.443-0.438,0.89-0.662,1.33
		c-0.216,0.42-0.438,0.836-0.658,1.254c-0.219,0.416-0.436,0.833-0.66,1.246c-0.23,0.427-0.468,0.849-0.704,1.273
		c-0.222,0.396-0.442,0.794-0.667,1.188c-0.244,0.427-0.493,0.849-0.742,1.271c-0.227,0.386-0.455,0.771-0.687,1.155
		c-0.255,0.423-0.515,0.842-0.774,1.261c-0.233,0.376-0.469,0.751-0.705,1.124c-0.268,0.42-0.538,0.838-0.811,1.254
		c-0.238,0.364-0.479,0.727-0.719,1.087c-0.281,0.418-0.563,0.834-0.847,1.248c-0.243,0.353-0.489,0.703-0.735,1.053
		c-0.292,0.415-0.584,0.83-0.883,1.241c-0.244,0.339-0.492,0.674-0.741,1.01c-0.307,0.415-0.613,0.83-0.925,1.242
		c-0.244,0.32-0.492,0.636-0.738,0.953c-0.325,0.421-0.648,0.841-0.98,1.256c-0.229,0.29-0.465,0.573-0.698,0.86
		c-0.354,0.436-0.706,0.874-1.065,1.305c-0.158,0.189-0.321,0.375-0.48,0.563c-0.939,1.11-1.896,2.205-2.873,3.279
		c-0.067,0.074-0.134,0.151-0.202,0.227c-0.396,0.433-0.8,0.858-1.202,1.286c-0.234,0.248-0.465,0.5-0.701,0.747
		c-0.379,0.396-0.765,0.785-1.148,1.176c-0.266,0.27-0.529,0.542-0.797,0.809c-0.381,0.379-0.766,0.753-1.151,1.128
		c-0.278,0.27-0.555,0.539-0.835,0.808c-0.385,0.366-0.773,0.728-1.163,1.089c-0.29,0.27-0.579,0.538-0.87,0.804
		c-0.389,0.353-0.78,0.702-1.174,1.051c-0.299,0.265-0.598,0.529-0.899,0.791c-0.396,0.344-0.793,0.685-1.192,1.023
		c-0.305,0.258-0.611,0.514-0.918,0.769c-0.404,0.335-0.809,0.668-1.216,0.997c-0.311,0.25-0.624,0.499-0.937,0.747
		c-0.41,0.325-0.822,0.649-1.237,0.969c-0.315,0.244-0.632,0.482-0.95,0.722c-0.42,0.317-0.84,0.636-1.264,0.946
		c-0.314,0.231-0.633,0.459-0.951,0.688c-0.433,0.312-0.865,0.626-1.303,0.932c-0.305,0.213-0.613,0.421-0.92,0.632
		c-0.456,0.313-0.91,0.629-1.371,0.936c-0.243,0.163-0.49,0.319-0.735,0.48c-1.089,0.714-2.19,1.413-3.302,2.093
		c-0.177,0.108-0.351,0.22-0.527,0.326c-0.459,0.277-0.924,0.545-1.387,0.816c-0.338,0.199-0.676,0.4-1.017,0.597
		c-0.44,0.252-0.885,0.497-1.328,0.744c-0.369,0.205-0.737,0.412-1.108,0.614c-0.436,0.235-0.875,0.466-1.313,0.697
		c-0.385,0.203-0.77,0.406-1.157,0.605c-0.435,0.223-0.872,0.44-1.309,0.658c-0.397,0.198-0.794,0.396-1.193,0.589
		c-0.434,0.21-0.87,0.416-1.306,0.621c-0.41,0.192-0.82,0.384-1.233,0.571c-0.432,0.197-0.865,0.392-1.299,0.583
		c-0.422,0.187-0.846,0.371-1.271,0.552c-0.432,0.186-0.863,0.368-1.296,0.548c-0.434,0.18-0.869,0.354-1.305,0.53
		c-0.43,0.172-0.859,0.344-1.29,0.51c-0.448,0.174-0.898,0.342-1.349,0.511c-0.424,0.159-0.849,0.318-1.275,0.473
		c-0.47,0.169-0.941,0.332-1.414,0.495c-0.411,0.143-0.822,0.288-1.235,0.427c-0.513,0.171-1.029,0.334-1.544,0.499
		c-0.377,0.12-0.752,0.245-1.13,0.361c-0.66,0.204-1.324,0.397-1.988,0.59c-0.238,0.068-0.474,0.143-0.713,0.211
		c-0.897,0.254-1.798,0.496-2.703,0.729c-0.315,0.082-0.632,0.156-0.948,0.234c-0.603,0.15-1.206,0.302-1.812,0.442
		c-0.368,0.085-0.739,0.164-1.108,0.246c-0.558,0.125-1.115,0.25-1.675,0.365c-0.388,0.08-0.778,0.155-1.167,0.232
		c-0.546,0.107-1.092,0.215-1.64,0.314c-0.398,0.073-0.798,0.142-1.197,0.21c-0.543,0.095-1.086,0.186-1.632,0.272
		c-0.404,0.063-0.81,0.124-1.215,0.184c-0.543,0.08-1.088,0.158-1.633,0.23c-0.408,0.056-0.816,0.106-1.225,0.157
		c-0.55,0.068-1.101,0.132-1.653,0.192c-0.404,0.043-0.809,0.086-1.213,0.126c-0.563,0.057-1.127,0.106-1.692,0.154
		c-0.397,0.033-0.794,0.066-1.192,0.097c-0.58,0.043-1.161,0.079-1.742,0.113c-0.386,0.023-0.772,0.049-1.159,0.067
		c-0.609,0.03-1.22,0.053-1.831,0.074c-0.36,0.013-0.718,0.028-1.079,0.037c-0.68,0.018-1.362,0.025-2.043,0.03
		c-0.293,0.003-0.586,0.011-0.88,0.012c-0.299,0-0.599-0.008-0.898-0.01c-0.855-0.005-1.712-0.016-2.57-0.039
		c-0.416-0.012-0.832-0.029-1.248-0.045c-0.751-0.028-1.503-0.063-2.256-0.104c-0.427-0.024-0.854-0.05-1.281-0.078
		c-0.793-0.054-1.588-0.116-2.383-0.186c-0.369-0.031-0.736-0.06-1.105-0.095c-1.159-0.111-2.321-0.235-3.484-0.38
		c-66.026-8.229-112.88-68.423-104.651-134.447c0.124-0.993,0.261-1.983,0.408-2.969c0.049-0.326,0.105-0.651,0.156-0.977
		c0.104-0.656,0.207-1.311,0.321-1.962c0.068-0.393,0.144-0.781,0.216-1.171c0.107-0.583,0.214-1.165,0.33-1.745
		c0.083-0.413,0.172-0.824,0.258-1.235c0.116-0.551,0.233-1.102,0.356-1.649c0.096-0.424,0.196-0.846,0.296-1.268
		c0.125-0.531,0.253-1.063,0.386-1.591c0.107-0.429,0.218-0.854,0.33-1.281c0.136-0.517,0.274-1.031,0.416-1.545
		c0.119-0.431,0.241-0.859,0.365-1.288c0.146-0.504,0.295-1.006,0.446-1.507c0.131-0.431,0.263-0.86,0.397-1.289
		c0.156-0.495,0.318-0.989,0.48-1.481c0.141-0.427,0.281-0.853,0.426-1.276c0.167-0.49,0.341-0.977,0.515-1.463
		c0.15-0.422,0.299-0.844,0.455-1.264c0.179-0.485,0.366-0.968,0.551-1.45c0.159-0.413,0.315-0.828,0.478-1.238
		c0.195-0.492,0.398-0.979,0.6-1.467c0.163-0.396,0.322-0.795,0.49-1.188c0.226-0.532,0.461-1.059,0.695-1.586
		c0.305-0.689,0.616-1.375,0.934-2.057c0.228-0.491,0.454-0.983,0.688-1.471c0.209-0.434,0.427-0.862,0.641-1.294
		c0.206-0.414,0.409-0.83,0.619-1.241c0.228-0.446,0.464-0.888,0.697-1.331c0.205-0.388,0.408-0.777,0.617-1.164
		c0.243-0.448,0.492-0.894,0.741-1.339c0.208-0.375,0.417-0.749,0.63-1.121c0.255-0.446,0.516-0.89,0.777-1.333
		c0.214-0.362,0.428-0.726,0.646-1.085c0.268-0.445,0.541-0.888,0.815-1.328c0.218-0.351,0.438-0.701,0.659-1.05
		c0.283-0.444,0.568-0.886,0.856-1.327c0.22-0.335,0.441-0.67,0.665-1.003c0.298-0.445,0.598-0.89,0.902-1.331
		c0.219-0.318,0.44-0.634,0.663-0.949c0.316-0.45,0.633-0.899,0.956-1.345c0.213-0.295,0.43-0.586,0.646-0.88
		c0.339-0.458,0.677-0.918,1.022-1.371c0.199-0.261,0.402-0.52,0.603-0.779c0.369-0.479,0.739-0.957,1.115-1.429
		c0.159-0.198,0.32-0.393,0.479-0.59c2.019-2.5,4.133-4.916,6.339-7.24c0.111-0.117,0.22-0.237,0.333-0.354
		c0.464-0.484,0.935-0.963,1.406-1.439c0.177-0.178,0.352-0.359,0.529-0.537c0.451-0.45,0.908-0.895,1.367-1.338
		c0.203-0.197,0.405-0.395,0.61-0.59c0.451-0.431,0.907-0.855,1.364-1.279c0.217-0.2,0.434-0.401,0.652-0.601
		c0.456-0.415,0.915-0.825,1.376-1.233c0.226-0.199,0.452-0.398,0.679-0.596c0.464-0.404,0.932-0.805,1.402-1.202
		c0.227-0.192,0.455-0.383,0.684-0.573c0.478-0.398,0.958-0.793,1.443-1.184c0.222-0.178,0.445-0.354,0.667-0.531
		c0.498-0.396,0.997-0.789,1.501-1.177c0.208-0.16,0.417-0.317,0.626-0.476c0.524-0.398,1.05-0.795,1.582-1.186
		c0.177-0.129,0.356-0.256,0.534-0.385c0.569-0.413,1.139-0.824,1.715-1.227c0.094-0.066,0.19-0.13,0.284-0.195
		c2.804-1.948,5.689-3.779,8.651-5.486c0.046-0.027,0.092-0.055,0.138-0.081c0.627-0.36,1.259-0.711,1.893-1.06
		c0.177-0.098,0.352-0.197,0.529-0.293c0.586-0.319,1.176-0.63,1.767-0.939c0.228-0.119,0.455-0.24,0.685-0.357
		c0.567-0.293,1.138-0.578,1.71-0.861c0.257-0.127,0.514-0.255,0.771-0.38c0.558-0.271,1.119-0.536,1.681-0.8
		c0.277-0.129,0.554-0.258,0.833-0.386c0.553-0.254,1.109-0.503,1.667-0.748c0.289-0.127,0.579-0.253,0.868-0.377
		c0.556-0.239,1.114-0.476,1.675-0.707c0.292-0.12,0.587-0.239,0.881-0.358c0.563-0.227,1.128-0.452,1.696-0.672
		c0.289-0.111,0.58-0.219,0.87-0.328c0.579-0.218,1.158-0.436,1.74-0.645c0.272-0.098,0.547-0.191,0.821-0.287
		c0.603-0.213,1.207-0.424,1.814-0.627c0.232-0.077,0.466-0.149,0.699-0.226c0.653-0.214,1.307-0.427,1.964-0.628
		c0.045-0.015,0.09-0.027,0.136-0.041c2.295-0.703,4.619-1.334,6.965-1.901c0.285-0.068,0.567-0.141,0.853-0.208
		c0.558-0.13,1.118-0.251,1.678-0.373c0.367-0.08,0.733-0.163,1.101-0.24c0.527-0.109,1.056-0.212,1.585-0.314
		c0.405-0.08,0.809-0.16,1.215-0.234c0.511-0.094,1.024-0.182,1.537-0.27c0.428-0.072,0.855-0.146,1.284-0.214
		c0.501-0.079,1.003-0.154,1.506-0.228c0.445-0.065,0.891-0.129,1.337-0.189c0.492-0.066,0.985-0.129,1.479-0.189
		c0.464-0.057,0.928-0.11,1.394-0.161c0.481-0.054,0.962-0.104,1.444-0.151c0.483-0.047,0.968-0.09,1.453-0.132
		c0.469-0.04,0.938-0.08,1.409-0.114c0.505-0.037,1.012-0.068,1.519-0.1c0.453-0.028,0.905-0.057,1.358-0.08
		c0.541-0.026,1.083-0.045,1.624-0.064c0.424-0.016,0.847-0.033,1.271-0.045c0.611-0.016,1.224-0.021,1.837-0.027
		c0.357-0.004,0.713-0.012,1.07-0.013c0.268,0,0.536,0.007,0.804,0.009c0.883,0.004,1.767,0.016,2.652,0.04
		c0.411,0.012,0.822,0.028,1.234,0.044c0.751,0.028,1.503,0.063,2.257,0.105c0.431,0.023,0.862,0.049,1.293,0.078
		c0.783,0.053,1.568,0.115,2.354,0.183c0.379,0.032,0.757,0.062,1.137,0.098c1.156,0.111,2.314,0.234,3.476,0.379
		c22.08,2.752,42.011,11.321,58.46,23.972l61.492-102.684V35.093h12.039v322.979L678.237,70.494c0,0,154.826,53.968,236.573,219.369
		L506.02,470.037v36.441C516.684,498.885,531.556,500.795,539.92,511.104z"/>
	<path d="M506.02,644.061c0.36-0.918,0.722-1.835,1.064-2.767c11.958-32.462,11.225-68.994-1.064-91.268V644.061z"/>
	<path d="M482.833,784.108c2.959,1.513,6.62,3.045,11.147,3.874v-48.594c-11.507,8.263-24.107,14.958-37.619,19.915
		C464.033,770.107,472.854,779.011,482.833,784.108z"/>
</g>
</svg>
