<?xml version="1.0" encoding="utf-8"?>
<!-- Generator: Adobe Illustrator 16.0.0, SVG Export Plug-In . SVG Version: 6.00 Build 0)  -->
<!DOCTYPE svg PUBLIC "-//W3C//DTD SVG 1.1//EN" "http://www.w3.org/Graphics/SVG/1.1/DTD/svg11.dtd">
<svg version="1.1" id="Layer_1" xmlns="http://www.w3.org/2000/svg" xmlns:xlink="http://www.w3.org/1999/xlink" x="0px" y="0px"
	 width="1000px" height="1000px" viewBox="0 0 1000 1000" enable-background="new 0 0 1000 1000" xml:space="preserve">
<g>
	<path d="M313.417,747.391c15.801,11.299,34.382,17.271,53.733,17.271c29.851,0,58.021-14.474,75.356-38.718
		c14.376-20.106,20.062-44.606,16.011-68.988s-17.354-45.726-37.459-60.101c-15.802-11.3-34.383-17.272-53.735-17.272
		c-29.85,0-58.02,14.476-75.355,38.72c-14.376,20.104-20.063,44.604-16.011,68.986C280.008,711.67,293.312,733.015,313.417,747.391z
		"/>
	<path d="M500.001,0C223.857,0,0,223.857,0,500c0,276.142,223.857,500,500.001,500C776.144,1000,1000,776.143,1000,500
		C1000,223.857,776.144,0,500.001,0z M656.766,419.069c23.628,0,46.307,7.286,65.586,21.071
		c50.641,36.212,62.381,106.873,26.171,157.516c-21.153,29.583-55.521,47.244-91.932,47.244c-23.627,0-46.305-7.287-65.584-21.071
		c-50.642-36.214-62.382-106.875-26.171-157.517C585.988,436.73,620.354,419.069,656.766,419.069z M417.831,228.631
		c1.224-0.555,2.455-1.074,3.689-1.569c0.116-0.047,0.23-0.096,0.347-0.142c1.176-0.466,2.358-0.902,3.543-1.314
		c0.171-0.061,0.342-0.122,0.514-0.18c1.159-0.396,2.322-0.766,3.487-1.112c0.19-0.057,0.381-0.113,0.571-0.168
		c1.165-0.338,2.331-0.651,3.501-0.939c0.18-0.044,0.36-0.087,0.541-0.13c1.19-0.285,2.383-0.549,3.576-0.784
		c0.138-0.027,0.276-0.051,0.414-0.078c1.242-0.239,2.486-0.456,3.731-0.64c0.05-0.007,0.099-0.013,0.147-0.02
		c1.287-0.189,2.574-0.35,3.862-0.481c0.034-0.003,0.067-0.008,0.103-0.011c1.265-0.127,2.53-0.224,3.794-0.297
		c0.114-0.007,0.228-0.016,0.341-0.021c1.224-0.066,2.445-0.104,3.666-0.12c0.147-0.002,0.296-0.005,0.443-0.006
		c1.207-0.01,2.413,0.006,3.617,0.044c0.147,0.005,0.294,0.011,0.441,0.016c1.215,0.045,2.427,0.114,3.635,0.209
		c0.118,0.009,0.236,0.02,0.354,0.03c1.244,0.103,2.485,0.228,3.722,0.381c0.049,0.006,0.098,0.013,0.146,0.02
		c2.593,0.328,5.166,0.766,7.712,1.316c0.025,0.005,0.05,0.01,0.074,0.016c1.238,0.268,2.468,0.565,3.692,0.885
		c0.085,0.022,0.172,0.044,0.257,0.066c1.193,0.315,2.378,0.657,3.557,1.021c0.105,0.032,0.211,0.065,0.316,0.098
		c1.173,0.367,2.337,0.756,3.493,1.17c0.096,0.035,0.191,0.07,0.287,0.104c1.172,0.424,2.336,0.871,3.49,1.344
		c0.056,0.023,0.111,0.047,0.167,0.07c3.608,1.486,7.121,3.207,10.514,5.153c0.048,0.027,0.096,0.053,0.143,0.081
		c1.083,0.624,2.153,1.272,3.211,1.942c0.088,0.056,0.178,0.111,0.267,0.168c1.034,0.659,2.056,1.342,3.063,2.044
		c0.099,0.069,0.198,0.139,0.297,0.208c1.005,0.707,1.996,1.433,2.973,2.182c0.086,0.066,0.171,0.133,0.257,0.199
		c0.992,0.767,1.972,1.552,2.934,2.362c0.044,0.037,0.088,0.076,0.132,0.113c1.986,1.678,3.905,3.449,5.75,5.31
		c0.043,0.042,0.086,0.084,0.129,0.127c0.876,0.887,1.732,1.798,2.574,2.725c0.095,0.104,0.19,0.206,0.283,0.311
		c0.81,0.899,1.6,1.819,2.375,2.755c0.113,0.137,0.228,0.274,0.34,0.413c0.759,0.927,1.501,1.872,2.226,2.834
		c0.111,0.149,0.223,0.3,0.335,0.451c0.722,0.971,1.428,1.958,2.113,2.964c0.094,0.138,0.185,0.278,0.279,0.417
		c0.696,1.036,1.378,2.086,2.035,3.157c0.109,0.179,0.216,0.361,0.324,0.542c0.33,0.547,0.657,1.097,0.978,1.653
		c0.149,0.259,0.295,0.522,0.442,0.783c0.278,0.496,0.554,0.995,0.824,1.498c0.148,0.278,0.298,0.557,0.444,0.837
		c0.271,0.518,0.537,1.041,0.801,1.566c0.127,0.256,0.258,0.51,0.384,0.768c0.379,0.776,0.75,1.559,1.109,2.352
		c20.455,45.139,0.448,98.313-44.691,118.768c-1.223,0.555-2.453,1.073-3.687,1.568c-0.117,0.047-0.234,0.097-0.352,0.143
		c-1.175,0.466-2.355,0.9-3.539,1.313c-0.172,0.06-0.344,0.122-0.517,0.181c-1.158,0.396-2.319,0.765-3.483,1.111
		c-0.192,0.057-0.385,0.114-0.578,0.17c-1.161,0.336-2.324,0.649-3.49,0.937c-0.186,0.045-0.371,0.089-0.556,0.134
		c-1.185,0.284-2.371,0.546-3.559,0.781c-0.147,0.029-0.295,0.055-0.442,0.083c-1.234,0.236-2.47,0.452-3.706,0.635
		c-0.058,0.009-0.115,0.016-0.174,0.023c-1.271,0.187-2.542,0.345-3.814,0.475c-0.047,0.005-0.094,0.011-0.141,0.016
		c-1.253,0.126-2.504,0.222-3.756,0.294c-0.128,0.007-0.258,0.017-0.386,0.024c-1.209,0.065-2.417,0.103-3.623,0.119
		c-0.163,0.001-0.326,0.005-0.49,0.006c-1.191,0.009-2.382-0.006-3.569-0.044c-0.167-0.005-0.333-0.012-0.499-0.018
		c-1.196-0.046-2.389-0.113-3.578-0.206c-0.141-0.011-0.281-0.024-0.422-0.035c-1.222-0.101-2.44-0.224-3.654-0.375
		c-0.077-0.01-0.154-0.021-0.231-0.031c-2.548-0.323-5.076-0.754-7.579-1.292c-0.061-0.013-0.122-0.025-0.183-0.038
		c-1.205-0.262-2.403-0.551-3.595-0.862c-0.12-0.031-0.241-0.061-0.362-0.093c-1.16-0.308-2.313-0.64-3.459-0.993
		c-0.141-0.043-0.282-0.086-0.423-0.131c-1.138-0.356-2.27-0.735-3.393-1.137c-0.133-0.047-0.266-0.097-0.399-0.145
		c-1.137-0.412-2.266-0.845-3.384-1.303c-0.097-0.04-0.193-0.081-0.289-0.121c-1.157-0.478-2.306-0.976-3.442-1.502
		c-0.022-0.01-0.045-0.021-0.066-0.032c-1.184-0.548-2.354-1.122-3.514-1.722c-0.005-0.002-0.011-0.005-0.016-0.008
		c-1.118-0.579-2.223-1.185-3.316-1.811c-0.089-0.051-0.179-0.1-0.267-0.151c-1.047-0.604-2.081-1.231-3.104-1.878
		c-0.125-0.079-0.252-0.158-0.376-0.238c-1.001-0.639-1.989-1.299-2.966-1.979c-0.134-0.093-0.268-0.188-0.401-0.282
		c-0.974-0.686-1.935-1.39-2.882-2.115c-0.117-0.089-0.233-0.181-0.35-0.271c-0.963-0.745-1.913-1.506-2.847-2.292
		c-0.077-0.065-0.152-0.132-0.229-0.196c-1.947-1.649-3.829-3.386-5.64-5.209c-0.064-0.064-0.129-0.126-0.192-0.191
		c-0.862-0.874-1.705-1.77-2.534-2.682c-0.105-0.117-0.213-0.232-0.318-0.349c-0.801-0.891-1.583-1.801-2.352-2.729
		c-0.119-0.144-0.238-0.289-0.357-0.434c-0.756-0.925-1.495-1.867-2.218-2.826c-0.111-0.148-0.222-0.298-0.333-0.448
		c-0.725-0.976-1.434-1.967-2.122-2.978c-0.086-0.127-0.171-0.256-0.257-0.384c-0.706-1.049-1.396-2.114-2.063-3.2
		c-0.084-0.135-0.163-0.272-0.245-0.408c-0.356-0.588-0.708-1.181-1.052-1.779c-0.144-0.25-0.284-0.502-0.426-0.753
		c-0.284-0.506-0.564-1.015-0.841-1.528c-0.145-0.27-0.289-0.54-0.431-0.811c-0.281-0.536-0.556-1.076-0.826-1.619
		c-0.119-0.238-0.24-0.474-0.357-0.714c-0.382-0.781-0.755-1.569-1.117-2.367C352.685,302.261,372.693,249.086,417.831,228.631z
		 M366.282,394.717c3.711-4.977,7.443-9.584,10.983-13.728c8.556,9.407,18.632,17.023,29.643,22.663
		c-2.806,3.228-5.78,6.822-8.762,10.692c9.211,8.167,19.828,13.96,31.685,17.25c13.472,3.738,28.465,4.145,43.358,1.18
		c28.318-5.637,53.697-23.383,60.348-42.197c3.427-9.698,14.066-14.78,23.765-11.353c9.698,3.428,14.779,14.068,11.354,23.765
		c-5.661,16.022-17.416,30.865-33.992,42.925c-15.597,11.348-34.339,19.437-54.2,23.391c-37.896,7.545-74.028-0.747-101.927-22.82
		c-4.21,9.846-6.085,18.758-5.492,26.437c1.084,14.025,10.766,21.956,17.954,26.703c14.915,9.848,28.844,5.783,50.01-2.082
		c14.896-5.536,30.297-11.26,46.081-6.514c26.94,8.098,45.739,29.064,49.058,54.715c3.581,27.673-11.159,54.532-39.433,71.844
		c-8.771,5.374-20.235,2.617-25.608-6.153c-5.37-8.774-2.614-20.239,6.157-25.611c15.382-9.418,23.585-22.613,21.943-35.301
		c-1.431-11.048-9.97-19.954-22.842-23.823c-3.807-1.144-14.543,2.845-22.382,5.757c-10.764,4.001-22.963,8.534-36.591,9.854
		c-16.979,1.646-32.764-2.257-46.917-11.602c-11.731-7.745-19.629-16.404-24.885-24.987c-6.592-10.764-9.034-21.411-9.688-30.007
		C334.055,451.48,344.276,424.229,366.282,394.717z M275.395,606.451c21.151-29.582,55.518-47.243,91.929-47.243
		c23.628,0,46.308,7.286,65.587,21.072c24.531,17.541,40.764,43.585,45.707,73.336c4.942,29.75-1.996,59.646-19.537,84.178
		c-21.152,29.582-55.519,47.242-91.93,47.242c-23.627,0-46.306-7.286-65.584-21.071c-24.532-17.542-40.766-43.588-45.709-73.338
		C250.915,660.877,257.853,630.982,275.395,606.451z M343.472,841.462l-12.705,15.28l-13.638-15.28H343.472z M290.735,822.016
		l-6.945,22.225l-19.447,5.557v-27.781l7.348-22.688L290.735,822.016z M247.674,876.189v-19.447l24.017,13.893l-7.348,20.835
		L247.674,876.189z M500,963.958c-82.996,0-160.903-21.792-228.31-59.969l39.882-34.744l19.194,18.058l30.813-34.728l89.659-31.949
		l15.912-21.299h45.84l156.244-103.086l55.665-4.685l55.572-56.844l32.563,17.833l50.008-76.4l37.506,12.501l61.433-45.544
		C940.24,779.132,741.704,963.958,500,963.958z"/>
	<path d="M602.858,607.256c15.801,11.297,34.381,17.27,53.732,17.27c29.851,0,58.021-14.475,75.357-38.72
		c29.677-41.503,20.055-99.414-21.448-129.092c-15.801-11.298-34.382-17.27-53.734-17.27c-29.85,0-58.02,14.474-75.355,38.718
		C551.733,519.666,561.354,577.577,602.858,607.256z"/>
</g>
</svg>
