<?xml version="1.0" encoding="utf-8"?>
<!-- Generator: Adobe Illustrator 16.0.0, SVG Export Plug-In . SVG Version: 6.00 Build 0)  -->
<!DOCTYPE svg PUBLIC "-//W3C//DTD SVG 1.1//EN" "http://www.w3.org/Graphics/SVG/1.1/DTD/svg11.dtd">
<svg version="1.1" id="Layer_1" xmlns="http://www.w3.org/2000/svg" xmlns:xlink="http://www.w3.org/1999/xlink" x="0px" y="0px"
	 width="1000px" height="1000px" viewBox="0 0 1000 1000" enable-background="new 0 0 1000 1000" xml:space="preserve">
<g>
	<polygon points="174.455,339.63 204.67,321.162 225.971,372.682 298.207,329.154 346.184,339.631 268.571,192.09 	"/>
	<path d="M658.428,330.888c-10.833-0.956-20.503-0.686-28.892,0.835c-15.324,2.777-25.771,9.661-31.939,21.044
		c-7.442,13.735-4.831,17.184,4.888,30.014c8.291,10.947,19.249,25.423,19.312,47.896l39.551,23.86
		c0.323-0.16,0.65-0.313,0.99-0.449c-0.418-1.033-0.83-2.078-1.237-3.135C645.313,409.956,644.451,368.736,658.428,330.888z"/>
	<path d="M500,0C223.856,0,0,223.857,0,500.001C0,776.143,223.856,1000,500,1000c276.143,0,500-223.857,500-499.999
		C1000,223.857,776.143,0,500,0z M400.339,352.959c4.987-2.603,11.142-0.671,13.745,4.317l125.312,240.052
		c11.966,22.923,25.435,34.98,34.626,41.06c8.978,5.941,15.24,7.212,15.301,7.223c5.545,0.952,9.27,6.218,8.32,11.761
		c-0.949,5.546-6.216,9.271-11.762,8.319c-1.515-0.259-37.412-6.955-64.547-58.934L396.022,366.704
		C393.419,361.717,395.351,355.563,400.339,352.959z M500.694,964.908c-244.266,0-444.529-188.374-463.446-427.778l231.323-362.637
		l399.468,759.388C616.114,953.921,559.688,964.908,500.694,964.908z M741.334,510.121c-4.109,6.813-14.685,7.969-23.614,2.578
		l-1.371-0.828c-5.296,2.813-11.601,2.853-16.878,0.264c-2.183-1.072-4.19-2.594-5.879-4.553
		c-0.404-0.471-5.528-6.484-12.176-16.785l-16.208-9.778c-6.405-3.865-10.206-10.041-10.341-15.74l-34.358-20.729
		c-3.866,20.231-16.891,37.3-36.998,48.324c-23.136,12.684-51.714,15.224-71.109,6.317c-0.148-0.066-0.295-0.139-0.439-0.209
		c-9.005-4.416-12.895-15.233-8.686-24.402c4.277-9.315,15.297-13.4,24.612-9.123c7.438,3.414,23.994,2.423,37.777-5.135
		c7.545-4.136,16.902-11.699,18.637-24.243c0.765-5.525,0.359-9.894-1.044-14.003l-78.05-47.089l-5.077,8.416
		c-1.259,2.087-4.493,2.438-7.225,0.792c-2.731-1.648-3.928-4.673-2.669-6.76l5.551-9.201l-23.491-20.429l29.024,11.257l5.552-9.201
		c1.258-2.085,4.489-2.437,7.221-0.789c2.733,1.647,3.929,4.672,2.67,6.758l-5.076,8.416l55.922,33.738
		c-9.584-13.9-18.521-33.61-2.65-62.903c14.211-26.225,47.75-53.831,126.835-36.425c18.66,4.107,36.241,9.929,50.265,15.252
		c-5.51,11.269-8.922,23.404-10.079,35.922c-10.206-3.978-22.824-8.401-36.369-12.031c-28.332,66.158,11.912,126.813,23.272,141.949
		l13.721,8.277C741.537,493.417,745.444,503.308,741.334,510.121z M845.315,448.613c-0.965,0.1-1.927,0.179-2.888,0.247
		c-0.27,0.02-0.538,0.036-0.808,0.054c-0.774,0.048-1.547,0.086-2.317,0.115c-0.205,0.007-0.41,0.019-0.614,0.024
		c-0.944,0.028-1.886,0.041-2.824,0.04c-0.228,0-0.454-0.005-0.682-0.008c-0.75-0.006-1.497-0.022-2.243-0.048
		c-0.26-0.009-0.518-0.017-0.776-0.027c-0.936-0.04-1.869-0.091-2.797-0.159c-0.09-0.007-0.177-0.017-0.266-0.023
		c-0.851-0.065-1.698-0.146-2.542-0.235c-0.264-0.028-0.526-0.058-0.788-0.088c-0.772-0.089-1.542-0.188-2.309-0.296
		c-0.165-0.023-0.331-0.044-0.495-0.068c-0.91-0.134-1.815-0.284-2.717-0.446c-0.231-0.041-0.462-0.087-0.693-0.13
		c-0.713-0.134-1.424-0.276-2.131-0.427c-0.238-0.052-0.477-0.101-0.715-0.153c-0.89-0.197-1.775-0.405-2.656-0.629
		c-0.138-0.036-0.274-0.074-0.41-0.11c-0.758-0.195-1.512-0.403-2.263-0.619c-0.253-0.073-0.507-0.146-0.76-0.223
		c-0.755-0.224-1.506-0.458-2.254-0.702c-0.125-0.041-0.253-0.078-0.378-0.12c-0.853-0.283-1.7-0.582-2.542-0.89
		c-0.238-0.087-0.476-0.177-0.714-0.267c-0.652-0.245-1.302-0.497-1.948-0.758c-0.227-0.091-0.453-0.18-0.68-0.272
		c-0.817-0.337-1.631-0.685-2.437-1.045c-0.186-0.083-0.369-0.171-0.554-0.255c-0.646-0.294-1.287-0.595-1.925-0.903
		c-0.265-0.128-0.527-0.256-0.79-0.386c-0.54-0.269-1.075-0.543-1.608-0.821c-0.216-0.112-0.433-0.222-0.646-0.336
		c-0.722-0.384-1.439-0.778-2.15-1.182c-0.212-0.121-0.423-0.247-0.636-0.37c-0.519-0.3-1.033-0.604-1.546-0.914
		c-0.263-0.159-0.525-0.321-0.786-0.482c-0.479-0.298-0.956-0.601-1.431-0.907c-0.24-0.155-0.481-0.309-0.721-0.467
		c-0.681-0.449-1.357-0.905-2.025-1.374c-0.118-0.082-0.235-0.169-0.353-0.253c-0.565-0.399-1.125-0.805-1.68-1.216
		c-0.242-0.18-0.482-0.362-0.723-0.545c-0.439-0.334-0.877-0.671-1.312-1.013c-0.241-0.19-0.482-0.38-0.723-0.572
		c-0.492-0.396-0.979-0.798-1.461-1.204c-0.159-0.133-0.321-0.264-0.479-0.397c-0.619-0.526-1.229-1.063-1.834-1.605
		c-0.206-0.186-0.408-0.375-0.612-0.563c-0.418-0.383-0.833-0.769-1.244-1.159c-0.229-0.218-0.456-0.436-0.682-0.655
		c-0.409-0.397-0.813-0.799-1.215-1.204c-0.192-0.195-0.388-0.388-0.579-0.585c-0.565-0.582-1.126-1.17-1.676-1.768
		c-0.151-0.165-0.3-0.333-0.45-0.499c-0.414-0.457-0.825-0.917-1.229-1.382c-0.205-0.234-0.407-0.472-0.609-0.709
		c-0.358-0.421-0.714-0.846-1.065-1.274c-0.191-0.232-0.384-0.465-0.573-0.7c-0.445-0.555-0.885-1.115-1.318-1.681
		c-0.095-0.125-0.192-0.248-0.288-0.374c-0.477-0.629-0.942-1.266-1.402-1.908c-0.171-0.238-0.338-0.479-0.508-0.72
		c-0.322-0.462-0.643-0.925-0.957-1.393c-0.174-0.258-0.347-0.516-0.518-0.775c-0.337-0.51-0.667-1.025-0.992-1.543
		c-0.127-0.201-0.256-0.399-0.381-0.602c-0.434-0.702-0.859-1.412-1.274-2.127c-0.125-0.216-0.246-0.435-0.369-0.65
		c-0.3-0.527-0.596-1.058-0.885-1.591c-0.146-0.27-0.291-0.539-0.434-0.811c-0.274-0.519-0.544-1.043-0.81-1.568
		c-0.124-0.246-0.249-0.49-0.37-0.736c-0.371-0.753-0.734-1.512-1.085-2.276c-0.059-0.129-0.114-0.261-0.173-0.391
		c-0.295-0.652-0.582-1.31-0.861-1.972c-0.113-0.268-0.224-0.537-0.334-0.806c-0.227-0.55-0.447-1.103-0.663-1.658
		c-0.104-0.271-0.211-0.541-0.313-0.813c-0.253-0.67-0.497-1.345-0.733-2.022c-0.05-0.142-0.103-0.282-0.151-0.425
		c-0.279-0.813-0.546-1.631-0.803-2.454c-0.075-0.245-0.147-0.492-0.221-0.738c-0.183-0.602-0.358-1.206-0.528-1.813
		c-0.079-0.285-0.157-0.569-0.234-0.856c-0.169-0.629-0.33-1.262-0.485-1.897c-0.057-0.228-0.115-0.453-0.169-0.682
		c-0.201-0.854-0.393-1.711-0.57-2.574c-0.037-0.183-0.07-0.368-0.106-0.551c-0.138-0.692-0.269-1.388-0.391-2.086
		c-0.05-0.286-0.099-0.574-0.146-0.862c-0.104-0.632-0.201-1.268-0.293-1.905c-0.039-0.271-0.078-0.54-0.115-0.812
		c-0.119-0.892-0.229-1.787-0.323-2.688c-5.094-49.123,30.602-93.073,79.726-98.166c0.964-0.1,1.925-0.179,2.885-0.247
		c0.271-0.02,0.542-0.036,0.812-0.054c0.771-0.048,1.542-0.086,2.31-0.114c0.208-0.008,0.417-0.02,0.624-0.025
		c0.943-0.028,1.883-0.041,2.821-0.04c0.227,0,0.453,0.005,0.681,0.007c0.751,0.007,1.499,0.023,2.246,0.049
		c0.257,0.009,0.515,0.017,0.771,0.027c0.938,0.04,1.872,0.091,2.803,0.16c0.082,0.006,0.163,0.015,0.244,0.021
		c0.859,0.066,1.715,0.147,2.568,0.238c0.257,0.027,0.514,0.056,0.771,0.086c0.783,0.09,1.564,0.189,2.343,0.3
		c0.154,0.022,0.309,0.041,0.462,0.063c0.917,0.136,1.828,0.286,2.736,0.449c0.22,0.04,0.439,0.083,0.658,0.124
		c0.73,0.137,1.458,0.283,2.183,0.438c0.224,0.048,0.448,0.094,0.672,0.144c0.899,0.199,1.795,0.41,2.686,0.637
		c0.115,0.029,0.231,0.063,0.347,0.092c0.781,0.203,1.56,0.416,2.333,0.64c0.24,0.068,0.479,0.139,0.718,0.21
		c0.779,0.231,1.555,0.472,2.325,0.725c0.104,0.033,0.211,0.065,0.314,0.101c0.864,0.286,1.722,0.588,2.574,0.899
		c0.222,0.081,0.442,0.165,0.664,0.249c0.676,0.253,1.349,0.515,2.017,0.783c0.207,0.084,0.416,0.166,0.623,0.251
		c0.828,0.341,1.652,0.693,2.469,1.059c0.169,0.075,0.334,0.154,0.502,0.229c0.665,0.303,1.326,0.613,1.982,0.932
		c0.253,0.122,0.504,0.244,0.755,0.369c0.555,0.275,1.106,0.558,1.655,0.844c0.202,0.106,0.406,0.209,0.608,0.315
		c0.728,0.388,1.45,0.785,2.167,1.192c0.2,0.114,0.399,0.233,0.6,0.349c0.529,0.307,1.057,0.617,1.58,0.934
		c0.259,0.157,0.517,0.316,0.773,0.476c0.484,0.301,0.967,0.606,1.445,0.916c0.235,0.152,0.473,0.304,0.707,0.458
		c0.683,0.45,1.361,0.908,2.032,1.378c0.114,0.081,0.228,0.165,0.343,0.246c0.567,0.401,1.131,0.809,1.689,1.224
		c0.24,0.178,0.479,0.36,0.718,0.541c0.441,0.334,0.88,0.673,1.315,1.016c0.241,0.189,0.481,0.38,0.722,0.572
		c0.491,0.396,0.979,0.797,1.461,1.203c0.159,0.133,0.321,0.263,0.479,0.397c0.619,0.526,1.229,1.062,1.831,1.604
		c0.209,0.188,0.414,0.379,0.62,0.568c0.416,0.38,0.828,0.764,1.237,1.152c0.229,0.219,0.458,0.438,0.686,0.659
		c0.407,0.396,0.811,0.798,1.212,1.202c0.193,0.194,0.389,0.388,0.579,0.584c0.567,0.583,1.127,1.173,1.678,1.771
		c0.15,0.162,0.296,0.329,0.444,0.492c0.416,0.459,0.827,0.92,1.234,1.387c0.204,0.235,0.407,0.473,0.609,0.71
		c0.359,0.421,0.714,0.846,1.065,1.273c0.191,0.232,0.383,0.465,0.572,0.699c0.447,0.558,0.889,1.12,1.324,1.688
		c0.092,0.119,0.185,0.238,0.276,0.358c0.479,0.632,0.947,1.272,1.411,1.919c0.17,0.236,0.336,0.477,0.504,0.716
		c0.323,0.462,0.645,0.927,0.96,1.396c0.173,0.257,0.346,0.515,0.517,0.773c0.337,0.513,0.668,1.029,0.995,1.55
		c0.125,0.199,0.254,0.395,0.378,0.595c0.435,0.704,0.859,1.414,1.275,2.132c0.123,0.211,0.242,0.426,0.362,0.638
		c0.303,0.531,0.602,1.065,0.893,1.604c0.145,0.267,0.287,0.535,0.431,0.804c0.275,0.521,0.546,1.047,0.812,1.575
		c0.123,0.244,0.248,0.486,0.369,0.731c0.371,0.754,0.734,1.513,1.085,2.279c0.058,0.127,0.111,0.256,0.17,0.383
		c0.295,0.655,0.585,1.315,0.865,1.979c0.112,0.266,0.222,0.533,0.331,0.8c0.228,0.553,0.449,1.108,0.667,1.667
		c0.104,0.269,0.209,0.536,0.31,0.806c0.254,0.674,0.499,1.352,0.738,2.034c0.048,0.138,0.1,0.275,0.147,0.414
		c0.279,0.813,0.545,1.632,0.802,2.456c0.076,0.245,0.147,0.491,0.222,0.736c0.182,0.603,0.358,1.208,0.528,1.816
		c0.079,0.283,0.157,0.567,0.233,0.852c0.17,0.632,0.332,1.267,0.487,1.904c0.056,0.227,0.114,0.451,0.167,0.678
		c0.202,0.854,0.393,1.712,0.571,2.575c0.037,0.183,0.07,0.367,0.106,0.55c0.138,0.692,0.269,1.388,0.391,2.087
		c0.051,0.286,0.098,0.573,0.145,0.861c0.105,0.633,0.202,1.269,0.293,1.906c0.039,0.271,0.08,0.54,0.116,0.812
		c0.119,0.892,0.229,1.786,0.323,2.688C930.135,399.571,894.439,443.521,845.315,448.613z"/>
</g>
</svg>
