<?xml version="1.0" encoding="utf-8"?>
<!-- Generator: Adobe Illustrator 16.0.0, SVG Export Plug-In . SVG Version: 6.00 Build 0)  -->
<!DOCTYPE svg PUBLIC "-//W3C//DTD SVG 1.1//EN" "http://www.w3.org/Graphics/SVG/1.1/DTD/svg11.dtd">
<svg version="1.1" id="Layer_1" xmlns="http://www.w3.org/2000/svg" xmlns:xlink="http://www.w3.org/1999/xlink" x="0px" y="0px"
	 width="1000px" height="1000px" viewBox="0 0 1000 1000" enable-background="new 0 0 1000 1000" xml:space="preserve">
<g>
	<path d="M481.314,808.723c2.475,3.325,8.048,4.69,14.549,3.563c0.846-0.146,1.709-0.341,2.584-0.574l-18.711-14.467
		C478.886,802.746,479.726,806.585,481.314,808.723z"/>
	<path d="M608.018,137.036c-51.005-47.252-102.091-81.292-102.091-81.292c-87.067,28.499-93.701,110.522-156.532,217.232
		c-95.48,162.161-172.274,205.829-172.274,205.829c-7.376,4.918-36.039,15.475-65.702,23.133l344.73,266.534
		c0.182-0.373,0.35-0.739,0.538-1.115c3.93-7.859,13.487-11.047,21.346-7.115c7.86,3.93,11.045,13.487,7.115,21.347
		c-1.238,2.477-2.233,4.788-3.04,6.953l25.14,19.438c8.649-5.094,17.159-14.61,21.815-29.894c0.01-0.034,0.024-0.063,0.034-0.098
		c0.111-0.356,0.245-0.708,0.382-1.058c0.023-0.059,0.041-0.12,0.064-0.179c0.057-0.515,0.097-1.018,0.157-1.537
		c0.562-4.814,1.271-9.395,2.036-13.615c8.636,2.729,17.683,4.135,26.91,4.135c1.556,0,3.11-0.048,4.664-0.13
		c-0.619,3.285-1.188,6.77-1.665,10.369c10.684,7.288,25.246,13.969,33.67,10.976c8.427-2.99,12.228-17.518,13.744-25.911
		c1.521-8.426,9.421-14.072,17.822-12.915l184.888-537.347C759.785,211.685,669.199,193.715,608.018,137.036z M621.196,720.514
		c-0.688,0.969-1.4,1.909-2.125,2.836c-0.142,0.181-0.28,0.362-0.424,0.54c-0.707,0.891-1.431,1.761-2.171,2.611
		c-0.134,0.153-0.271,0.305-0.406,0.458c-0.728,0.823-1.469,1.631-2.226,2.417c-0.059,0.061-0.116,0.125-0.176,0.186
		c-0.794,0.818-1.607,1.61-2.432,2.388c-0.165,0.155-0.328,0.311-0.494,0.463c-0.819,0.759-1.649,1.5-2.495,2.216
		c-0.125,0.105-0.252,0.208-0.377,0.313c-0.811,0.679-1.633,1.338-2.466,1.979c-0.106,0.081-0.211,0.166-0.318,0.248
		c-0.885,0.672-1.784,1.319-2.692,1.948c-0.179,0.124-0.357,0.247-0.537,0.369c-0.918,0.624-1.844,1.231-2.783,1.813
		c-0.092,0.056-0.185,0.109-0.277,0.166c-0.899,0.551-1.81,1.081-2.729,1.593c-0.146,0.081-0.29,0.165-0.437,0.245
		c-0.957,0.524-1.925,1.026-2.9,1.509c-0.186,0.092-0.373,0.181-0.559,0.271c-1.002,0.484-2.01,0.954-3.029,1.394
		c-0.03,0.013-0.06,0.024-0.089,0.037c-1.004,0.432-2.018,0.835-3.037,1.223c-0.176,0.067-0.351,0.136-0.527,0.201
		c-1.015,0.377-2.035,0.732-3.063,1.065c-0.181,0.06-0.363,0.114-0.546,0.173c-1.049,0.331-2.103,0.646-3.163,0.933
		c-0.016,0.005-0.031,0.009-0.046,0.014c-1.072,0.288-2.151,0.546-3.232,0.788c-0.197,0.043-0.395,0.089-0.592,0.131
		c-1.057,0.227-2.116,0.435-3.182,0.616c-0.166,0.028-0.332,0.053-0.497,0.08c-1.033,0.17-2.068,0.322-3.108,0.449
		c-0.093,0.013-0.187,0.026-0.28,0.037c-0.493,0.061-0.99,0.096-1.484,0.144c-0.001,0.005-0.003,0.01-0.004,0.015
		c-0.222,0.021-0.445,0.029-0.667,0.05c-0.368,0.033-0.736,0.078-1.106,0.107c-0.211,0.015-0.421,0.031-0.632,0.045
		c-0.244,0.017-0.489,0.021-0.733,0.035c-0.503,0.031-1.005,0.053-1.508,0.073c-0.338,0.014-0.675,0.04-1.013,0.049
		c-0.134,0.004-0.268,0.003-0.4,0.006c-0.229,0.004-0.458-0.002-0.688,0c-0.299,0.003-0.597,0.023-0.896,0.023
		c-0.375,0-0.751-0.018-1.126-0.022c-0.023,0-0.045,0-0.067,0c-0.348-0.006-0.693-0.01-1.041-0.02
		c-0.039-0.001-0.078-0.004-0.116-0.005c-0.768-0.023-1.534-0.063-2.301-0.11c-0.143-0.01-0.283-0.012-0.426-0.021
		c-0.176-0.012-0.353-0.016-0.528-0.029c-0.068-0.006-0.136-0.015-0.203-0.021c-0.915-0.069-1.828-0.16-2.742-0.264
		c-0.141-0.016-0.283-0.023-0.424-0.041c-0.021-0.003-0.04-0.005-0.06-0.008c-0.181-0.021-0.359-0.048-0.538-0.07
		c-0.084-0.012-0.168-0.022-0.251-0.034c-0.197-0.024-0.395-0.059-0.592-0.086c-0.688-0.095-1.376-0.189-2.063-0.304
		c-0.316-0.052-0.633-0.105-0.949-0.162c-0.294-0.053-0.586-0.116-0.879-0.172c-0.438-0.085-0.877-0.166-1.314-0.257
		c-0.086-0.019-0.173-0.033-0.259-0.051c-0.31-0.066-0.619-0.127-0.928-0.196c-0.31-0.069-0.616-0.155-0.926-0.229
		c-0.354-0.085-0.709-0.172-1.063-0.262c-0.445-0.112-0.892-0.209-1.335-0.33c-0.078-0.021-0.157-0.047-0.236-0.068
		c-0.232-0.064-0.463-0.143-0.695-0.209c-0.235-0.068-0.469-0.143-0.704-0.212c-0.547-0.164-1.097-0.317-1.641-0.493
		c-0.331-0.105-0.66-0.221-0.99-0.332c-0.78-0.262-1.556-0.538-2.329-0.826c-0.346-0.13-0.692-0.259-1.035-0.393
		c-0.854-0.334-1.704-0.686-2.549-1.051c-0.224-0.097-0.448-0.187-0.672-0.285c-1.058-0.471-2.108-0.967-3.151-1.488
		c-0.254-0.127-0.506-0.265-0.759-0.395c-0.793-0.408-1.583-0.828-2.366-1.268c-0.339-0.188-0.676-0.383-1.013-0.578
		c-0.729-0.422-1.452-0.858-2.171-1.309c-0.308-0.191-0.616-0.379-0.922-0.574c-1.002-0.646-1.997-1.309-2.978-2.006
		c-34.509-24.523-42.602-72.381-18.077-106.889c0.688-0.968,1.4-1.907,2.124-2.833c0.142-0.183,0.283-0.365,0.427-0.546
		c0.707-0.887,1.428-1.756,2.167-2.604c0.137-0.158,0.277-0.313,0.416-0.47c0.723-0.816,1.457-1.619,2.208-2.397
		c0.063-0.066,0.126-0.136,0.19-0.201c0.79-0.815,1.601-1.604,2.422-2.378c0.168-0.159,0.336-0.317,0.506-0.475
		c0.815-0.756,1.643-1.493,2.485-2.207c0.129-0.109,0.26-0.215,0.391-0.323c0.804-0.673,1.62-1.328,2.448-1.965
		c0.11-0.085,0.219-0.173,0.33-0.257c0.882-0.67,1.778-1.316,2.685-1.943c0.181-0.126,0.363-0.251,0.545-0.375
		c0.916-0.623,1.84-1.229,2.778-1.81c0.093-0.058,0.188-0.112,0.281-0.169c0.899-0.551,1.81-1.081,2.729-1.593
		c0.144-0.08,0.287-0.163,0.433-0.242c0.958-0.526,1.929-1.029,2.906-1.513c0.182-0.089,0.364-0.177,0.546-0.266
		c1.007-0.486,2.02-0.958,3.045-1.4c0.018-0.007,0.037-0.014,0.055-0.022c1.019-0.438,2.048-0.848,3.082-1.24
		c0.165-0.063,0.33-0.128,0.496-0.189c1.023-0.381,2.055-0.739,3.092-1.076c0.168-0.055,0.337-0.105,0.505-0.159
		c2.142-0.679,4.311-1.262,6.5-1.749c0.178-0.04,0.354-0.08,0.532-0.118c1.074-0.231,2.151-0.441,3.232-0.627
		c0.142-0.023,0.282-0.045,0.424-0.068c1.073-0.178,2.149-0.335,3.23-0.467c0.06-0.008,0.12-0.017,0.18-0.024
		c1.108-0.133,2.22-0.236,3.333-0.32c0.182-0.014,0.364-0.027,0.547-0.04c1.106-0.076,2.215-0.132,3.325-0.16
		c0.1-0.003,0.199-0.003,0.3-0.005c0.967-0.021,1.935-0.017,2.902,0c0.317,0.005,0.635,0.009,0.952,0.018
		c1,0.028,1.999,0.075,2.998,0.143c0.128,0.01,0.255,0.013,0.383,0.022c1.143,0.083,2.283,0.195,3.423,0.33
		c0.248,0.028,0.496,0.066,0.743,0.099c0.883,0.112,1.766,0.24,2.646,0.385c0.332,0.055,0.664,0.111,0.996,0.17
		c0.851,0.151,1.699,0.318,2.547,0.499c0.282,0.06,0.566,0.115,0.849,0.179c1.124,0.253,2.246,0.526,3.363,0.832
		c0.038,0.01,0.077,0.022,0.115,0.033c1.059,0.291,2.113,0.611,3.163,0.949c0.313,0.102,0.627,0.21,0.939,0.315
		c0.798,0.269,1.594,0.551,2.386,0.848c0.331,0.123,0.663,0.247,0.994,0.376c0.871,0.34,1.738,0.699,2.602,1.072
		c0.208,0.091,0.419,0.174,0.627,0.266c1.063,0.474,2.119,0.973,3.167,1.496c0.245,0.122,0.485,0.254,0.729,0.379
		c0.803,0.413,1.603,0.839,2.396,1.283c0.335,0.187,0.668,0.378,1,0.57c0.733,0.425,1.46,0.863,2.184,1.314
		c0.305,0.191,0.611,0.378,0.915,0.572c1.002,0.645,1.997,1.309,2.979,2.006C637.628,638.149,645.724,686.006,621.196,720.514z"/>
	<path d="M561.671,812.482c1.201,6.439,3.241,12.351,6.426,17.201c4.421,6.735,10.745,10.86,19.632,12.753
		c2.855-2.02,5.696-3.764,8.512-5.256l6.637-19.288c-4.057,1.106-8.157,1.604-12.23,1.604
		C580.444,819.496,570.413,816.45,561.671,812.482z"/>
	<path d="M500.001,0C223.857,0,0,223.857,0,500.001C0,776.143,223.857,1000,500.001,1000C776.144,1000,1000,776.143,1000,500.001
		C1000,223.857,776.144,0,500.001,0z M820.709,210.411l-186.134,540.97c4.458,3.526,6.88,9.328,5.799,15.313
		c-4.186,23.17-13.327,38.904-27.211,46.92l-6.591,19.156c2.785-0.902,5.528-1.563,8.218-2c6.011-5.503,13.546-11.258,24.551-13.896
		c20.911-5.017,41.284,1.11,55.893,16.808c16.384,17.606,22.236,43.903,14.908,66.995c-2.149,6.773-8.413,11.101-15.16,11.102
		c-1.596,0.002-3.215-0.24-4.816-0.749c-8.376-2.657-13.011-11.602-10.354-19.979c3.855-12.146,0.69-26.488-7.872-35.691
		c-2.948-3.167-7.256-6.472-13.069-7.785c8.57,10.811,12.682,25.382,11.319,40.526c-1.554,17.24-9.723,33.616-23.628,47.364
		c-3.101,3.063-7.144,4.595-11.186,4.595c-4.104,0-8.202-1.576-11.314-4.726c-6.178-6.248-6.121-16.32,0.129-22.498
		c18.588-18.379,16.474-38.167,9.033-46.349c-1.691-1.86-3.68-3.143-5.906-3.859c-7.308,6.378-16.969,12.642-31.533,12.643
		c-1.62,0-3.303-0.083-5.048-0.247c-0.052-0.004-0.104-0.007-0.155-0.011c-0.027-0.003-0.054-0.004-0.081-0.007
		c-4.604-0.45-8.985-1.268-13.155-2.4l-0.052,0.067l-0.163-0.127c-15.204-4.179-27.397-12.818-35.676-25.462
		c-0.837-1.278-1.62-2.606-2.378-3.959L526.5,833.4c-8.409,5.545-17.19,8.848-25.194,10.236c-3.355,0.583-6.66,0.868-9.877,0.868
		c-14.686,0-27.584-5.953-35.647-16.792c-5.902-7.936-13.46-24.629-3.085-51.375L101.074,504.477
		c-33.875,7.855-65.981,10.624-65.981-4.477C35.092,243.239,243.239,35.092,500,35.092c139.847,0,265.271,61.745,350.497,159.461
		C857.583,202.677,844.666,208.832,820.709,210.411z"/>
</g>
</svg>
