<?xml version="1.0" encoding="utf-8"?>
<!-- Generator: Adobe Illustrator 16.0.0, SVG Export Plug-In . SVG Version: 6.00 Build 0)  -->
<!DOCTYPE svg PUBLIC "-//W3C//DTD SVG 1.1//EN" "http://www.w3.org/Graphics/SVG/1.1/DTD/svg11.dtd">
<svg version="1.1" id="Layer_1" xmlns="http://www.w3.org/2000/svg" xmlns:xlink="http://www.w3.org/1999/xlink" x="0px" y="0px"
	 width="1000px" height="1000px" viewBox="0 0 1000 1000" enable-background="new 0 0 1000 1000" xml:space="preserve">
<g>
	<path d="M241.985,657.661h38.21c-13.739-8.051-26.611-25.207-28.32-60.868c-1.672,2.028-3.341,4.242-4.922,6.624
		c-10.614,15.992-12.516,32.146-5.652,48.018C242.182,653.472,242.375,655.634,241.985,657.661z"/>
	<path d="M559.271,60.098v508.378C640.854,363.278,559.566,61.778,559.271,60.098z"/>
	<path d="M500,0C223.857,0,0,223.857,0,500c0,276.142,223.857,500,500,500c276.144,0,500-223.858,500-500
		C1000,223.857,776.144,0,500,0z M559.271,60.098c237.085,287.094,194.483,581.598,194.483,581.598H519.449
		c6.293-8.606,12.101-17.58,17.473-26.857H344.968C344.968,614.838,479.626,374.975,559.271,60.098z M250.14,436.37
		c0.859-0.288,1.721-0.55,2.583-0.796c0.273-0.078,0.548-0.147,0.821-0.221c0.598-0.161,1.196-0.314,1.796-0.455
		c0.31-0.073,0.62-0.143,0.93-0.21c0.588-0.128,1.176-0.245,1.764-0.354c0.29-0.054,0.579-0.11,0.868-0.16
		c0.743-0.125,1.486-0.235,2.228-0.33c0.124-0.017,0.248-0.038,0.371-0.053c0.863-0.105,1.725-0.188,2.585-0.253
		c0.257-0.02,0.513-0.03,0.77-0.047c0.616-0.038,1.23-0.069,1.845-0.087c0.301-0.01,0.601-0.015,0.901-0.019
		c0.595-0.008,1.188-0.007,1.781,0.004c0.274,0.005,0.549,0.007,0.823,0.016c0.728,0.023,1.454,0.062,2.177,0.112
		c0.126,0.009,0.253,0.013,0.38,0.022c0.852,0.065,1.701,0.152,2.546,0.257c0.22,0.026,0.438,0.062,0.658,0.091
		c0.628,0.084,1.256,0.177,1.88,0.282c0.273,0.046,0.545,0.095,0.817,0.145c0.594,0.109,1.185,0.229,1.773,0.355
		c0.25,0.055,0.501,0.106,0.752,0.164c0.739,0.17,1.474,0.354,2.204,0.553c0.083,0.022,0.167,0.041,0.249,0.064
		c0.82,0.228,1.634,0.476,2.443,0.739c0.203,0.066,0.404,0.14,0.606,0.207c0.602,0.204,1.201,0.416,1.795,0.64
		c0.251,0.094,0.501,0.191,0.751,0.289c0.567,0.222,1.129,0.454,1.688,0.693c0.227,0.097,0.454,0.191,0.68,0.292
		c0.716,0.317,1.427,0.648,2.13,0.996c0.05,0.024,0.102,0.047,0.152,0.072c0.763,0.379,1.515,0.778,2.259,1.19
		c0.188,0.104,0.372,0.214,0.558,0.319c0.55,0.313,1.097,0.634,1.637,0.965c0.229,0.141,0.456,0.283,0.683,0.427
		c0.516,0.326,1.025,0.661,1.531,1.004c0.203,0.138,0.408,0.273,0.609,0.413c0.659,0.459,1.31,0.93,1.95,1.417
		c0.031,0.023,0.063,0.046,0.095,0.069c0.676,0.518,1.339,1.053,1.993,1.601c0.174,0.146,0.345,0.298,0.517,0.445
		c0.475,0.407,0.943,0.821,1.405,1.244c0.204,0.188,0.406,0.376,0.607,0.565c0.442,0.417,0.876,0.843,1.306,1.274
		c0.179,0.18,0.359,0.357,0.536,0.539c0.567,0.587,1.125,1.184,1.668,1.796c0.023,0.025,0.046,0.049,0.068,0.074
		c0.567,0.642,1.117,1.3,1.657,1.968c0.155,0.192,0.305,0.39,0.457,0.583c0.381,0.485,0.756,0.977,1.123,1.476
		c0.172,0.234,0.342,0.471,0.511,0.708c0.352,0.496,0.696,1,1.034,1.509c0.146,0.221,0.295,0.439,0.44,0.663
		c0.456,0.709,0.9,1.427,1.327,2.16c0.011,0.02,0.024,0.038,0.035,0.059c0.438,0.753,0.855,1.521,1.26,2.3
		c0.122,0.236,0.238,0.476,0.358,0.713c0.279,0.556,0.552,1.116,0.814,1.684c0.128,0.277,0.254,0.557,0.379,0.837
		c0.252,0.569,0.494,1.145,0.73,1.726c0.104,0.257,0.211,0.512,0.312,0.771c0.324,0.833,0.635,1.676,0.923,2.533
		c6.783,20.183,1.312,44.505-15.187,60.085c-0.239,0.224-0.476,0.448-0.719,0.668c-0.334,0.305-0.679,0.601-1.021,0.898
		c-0.453,0.391-0.906,0.779-1.373,1.156c-0.163,0.133-0.331,0.261-0.496,0.392c-0.617,0.488-1.241,0.968-1.881,1.432
		c-0.044,0.033-0.091,0.063-0.136,0.098c-2.249,1.617-4.633,3.086-7.147,4.383c-0.064,0.033-0.13,0.063-0.194,0.096
		c-0.779,0.398-1.569,0.783-2.373,1.148c-0.27,0.122-0.548,0.232-0.821,0.351c-0.617,0.269-1.232,0.539-1.862,0.788
		c-0.927,0.364-1.869,0.712-2.83,1.034c-0.859,0.289-1.72,0.55-2.582,0.796c-0.274,0.078-0.55,0.148-0.825,0.222
		c-0.597,0.161-1.194,0.314-1.792,0.455c-0.31,0.072-0.621,0.143-0.931,0.21c-0.59,0.128-1.181,0.246-1.771,0.355
		c-0.286,0.052-0.573,0.108-0.859,0.157c-0.167,0.028-0.333,0.048-0.5,0.074c0,0.004-0.001,0.008-0.002,0.013
		c-0.468,0.075-0.937,0.133-1.405,0.196c-0.115,0.016-0.23,0.037-0.346,0.052c-0.115,0.015-0.23,0.035-0.345,0.049
		c-0.029,0.003-0.057,0.004-0.085,0.008c-0.836,0.102-1.671,0.182-2.506,0.246c-0.001,0-0.003,0-0.004,0
		c-0.227,0.017-0.453,0.027-0.68,0.04c-0.645,0.041-1.289,0.074-1.932,0.094c-0.001,0-0.001,0-0.002,0
		c-0.031,0.001-0.062,0.001-0.093,0.002c-0.531,0.016-1.062,0.031-1.592,0.031c-0.224,0-0.446-0.016-0.669-0.019
		c-0.107-0.002-0.215,0.001-0.323-0.001c-0.274-0.005-0.549-0.008-0.823-0.017c-0.238-0.007-0.474-0.026-0.711-0.036
		c-0.384-0.018-0.768-0.034-1.151-0.059c-0.104-0.008-0.208-0.009-0.311-0.017c-0.128-0.009-0.257-0.013-0.385-0.022
		c-0.481-0.037-0.959-0.095-1.438-0.145c-0.275-0.029-0.552-0.051-0.827-0.083c-0.092-0.011-0.186-0.018-0.277-0.028
		c-0.227-0.028-0.452-0.063-0.678-0.093c-0.621-0.085-1.24-0.176-1.857-0.28c-0.013-0.001-0.025-0.004-0.038-0.006
		c-0.083-0.015-0.167-0.03-0.25-0.044c-0.183-0.033-0.366-0.064-0.549-0.098c-0.583-0.108-1.165-0.225-1.744-0.35
		c-0.227-0.049-0.454-0.098-0.679-0.148c0,0-0.001,0-0.001,0c-0.033-0.007-0.066-0.015-0.1-0.021
		c-0.72-0.166-1.436-0.346-2.148-0.539c-0.1-0.027-0.202-0.051-0.302-0.079c-0.815-0.226-1.623-0.472-2.426-0.733
		c-0.216-0.07-0.429-0.147-0.644-0.221c-0.589-0.198-1.174-0.405-1.755-0.624c-0.26-0.098-0.52-0.198-0.779-0.3
		c-0.554-0.217-1.104-0.444-1.652-0.679c-0.237-0.101-0.475-0.2-0.711-0.306c-0.695-0.308-1.384-0.63-2.066-0.966
		c-0.071-0.035-0.144-0.066-0.214-0.102c-0.756-0.377-1.502-0.771-2.241-1.181c-0.199-0.11-0.395-0.228-0.592-0.34
		c-0.539-0.307-1.073-0.621-1.602-0.944c-0.236-0.145-0.471-0.291-0.705-0.439c-0.506-0.32-1.006-0.649-1.502-0.986
		c-0.211-0.143-0.424-0.283-0.633-0.43c-0.642-0.447-1.276-0.906-1.9-1.381c-0.047-0.035-0.095-0.068-0.142-0.104
		c-0.673-0.514-1.332-1.047-1.982-1.591c-0.181-0.152-0.358-0.31-0.538-0.463c-0.467-0.401-0.928-0.809-1.383-1.225
		c-0.208-0.191-0.415-0.385-0.621-0.579c-0.437-0.412-0.866-0.833-1.291-1.26c-0.182-0.183-0.367-0.364-0.546-0.55
		c-0.561-0.58-1.112-1.17-1.648-1.773c-0.029-0.033-0.059-0.063-0.088-0.096c-0.565-0.64-1.114-1.296-1.652-1.962
		c-0.158-0.196-0.311-0.397-0.466-0.596c-0.377-0.48-0.75-0.968-1.113-1.463c-0.173-0.237-0.345-0.475-0.516-0.715
		c-0.351-0.493-0.692-0.994-1.028-1.501c-0.148-0.223-0.299-0.444-0.445-0.669c-0.453-0.705-0.895-1.419-1.319-2.147
		c-0.014-0.023-0.029-0.047-0.043-0.07c-0.437-0.753-0.854-1.521-1.258-2.297c-0.123-0.237-0.24-0.479-0.36-0.719
		c-0.278-0.553-0.551-1.112-0.813-1.679c-0.129-0.278-0.255-0.558-0.38-0.839c-0.252-0.568-0.494-1.144-0.729-1.723
		c-0.104-0.258-0.212-0.513-0.313-0.773c-0.324-0.834-0.635-1.676-0.923-2.532C204.022,478.92,220.159,446.446,250.14,436.37z
		 M220.829,657.661c-8.754-22.132-5.734-45.124,8.794-66.648c8.71-12.902,19.19-21.631,23.253-24.761
		c0.386-3.754,0.835-7.312,1.307-10.586c4.597,1.001,9.346,1.537,14.193,1.537c2.458,0,4.909-0.147,7.345-0.42
		c-1.381,9.069-2.672,20.831-2.595,32.844c0.187,29.486,7.961,46.911,23.101,51.83c0.56,0.22,1.119,0.422,1.676,0.608
		c0.39,0.131,0.778,0.242,1.166,0.357c0.167,0.05,0.334,0.107,0.5,0.153c0.336,0.095,0.672,0.172,1.007,0.256
		c0.216,0.053,0.434,0.114,0.649,0.164c0.302,0.069,0.603,0.122,0.904,0.183c0.247,0.049,0.495,0.106,0.741,0.149
		c0.296,0.053,0.59,0.092,0.886,0.136c0.249,0.037,0.5,0.081,0.747,0.114c0.285,0.037,0.567,0.061,0.85,0.09
		c0.257,0.027,0.515,0.061,0.77,0.082c0.283,0.024,0.563,0.036,0.844,0.052c0.254,0.017,0.509,0.037,0.762,0.048
		c0.3,0.012,0.597,0.013,0.896,0.019c0.229,0.004,0.46,0.014,0.689,0.014c0.002,0,0.003,0,0.005,0c0.708,0,1.41-0.025,2.108-0.061
		c0.172-0.009,0.343-0.02,0.514-0.03c0.684-0.043,1.365-0.097,2.039-0.169c0.006-0.001,0.012-0.001,0.018-0.002
		c0.687-0.075,1.365-0.168,2.04-0.271c0.165-0.024,0.33-0.05,0.495-0.076c0.661-0.106,1.319-0.219,1.968-0.347
		c0.002,0,0.006-0.001,0.009-0.002c0.662-0.129,1.315-0.272,1.964-0.421c0.158-0.036,0.315-0.072,0.472-0.109
		c0.628-0.148,1.252-0.3,1.866-0.461c0.008-0.002,0.016-0.004,0.023-0.006c0.633-0.165,1.256-0.338,1.874-0.513
		c0.152-0.043,0.303-0.086,0.454-0.129c0.593-0.171,1.182-0.344,1.761-0.519c0.005-0.002,0.011-0.003,0.017-0.005
		c0.604-0.182,1.197-0.365,1.784-0.549c0.194-0.061,0.384-0.12,0.576-0.18c0.432-0.136,0.86-0.271,1.282-0.403
		c0.619-0.194,1.226-0.384,1.822-0.568c0.124-0.039,0.247-0.076,0.37-0.114c1.082-0.333,2.124-0.642,3.127-0.912
		c0.117-0.032,0.235-0.063,0.352-0.094c0.982-0.259,1.923-0.475,2.822-0.638c0.11-0.02,0.22-0.039,0.329-0.058
		c0.445-0.074,0.883-0.14,1.305-0.183c1.177-0.121,2.318-0.205,3.437-0.269c0.132-0.009,0.266-0.019,0.397-0.024
		c1.058-0.055,2.086-0.08,3.094-0.084c0.165,0,0.331-0.002,0.495-0.001c1.037,0.003,2.047,0.033,3.032,0.088
		c0.154,0.008,0.307,0.017,0.459,0.026c0.979,0.063,1.933,0.147,2.86,0.257c0.138,0.017,0.273,0.035,0.409,0.052
		c0.931,0.119,1.84,0.258,2.721,0.423c0.109,0.021,0.216,0.043,0.325,0.063c0.896,0.175,1.771,0.369,2.615,0.589
		c0.069,0.019,0.135,0.038,0.204,0.057c0.875,0.233,1.728,0.486,2.55,0.766c0.011,0.004,0.021,0.009,0.033,0.012
		c0.839,0.286,1.649,0.597,2.434,0.927c0.027,0.012,0.055,0.022,0.082,0.034c0.76,0.322,1.491,0.669,2.201,1.03
		c0.06,0.031,0.122,0.061,0.182,0.092c0.684,0.354,1.342,0.729,1.98,1.116c0.075,0.045,0.151,0.089,0.225,0.136
		c0.622,0.384,1.221,0.786,1.801,1.2c0.078,0.056,0.156,0.111,0.233,0.167c0.571,0.416,1.122,0.846,1.652,1.288
		c0.072,0.06,0.144,0.121,0.216,0.182c0.527,0.446,1.037,0.906,1.526,1.377c0.062,0.06,0.122,0.119,0.183,0.179
		c0.492,0.481,0.966,0.971,1.42,1.474c0.045,0.05,0.088,0.101,0.133,0.15c0.462,0.519,0.908,1.046,1.332,1.583
		c0.023,0.029,0.045,0.059,0.068,0.089c0.886,1.13,1.692,2.301,2.422,3.497c0.009,0.016,0.019,0.03,0.028,0.045
		c0.354,0.583,0.688,1.172,1.008,1.766c0.024,0.044,0.049,0.089,0.073,0.133c0.307,0.576,0.597,1.156,0.874,1.738
		c0.03,0.063,0.06,0.125,0.09,0.188c0.039,0.084,0.073,0.169,0.112,0.253h437.747c0,0-7.101,16.201-22.663,37.625
		c-29.917-5.719-58.678-3.061-77.536,7.604l-8.806,4.979l4.917,8.841c3.48,6.259,4.357,12.182,2.676,18.125
		c-2.735,9.726-15.33,20.187-30.629,25.438c-19.771,6.787-40.104,4.048-55.789-7.515c-4.571-3.37-8.579-7.963-13.219-13.28
		c-12.15-13.927-27.272-31.259-64.197-41.663c-35.002-9.89-70.426-8.324-92.444,4.09l-8.834,4.98l4.941,8.856
		c3.474,6.228,4.35,12.154,2.675,18.117c-2.729,9.72-15.32,20.176-30.617,25.43c-19.783,6.795-40.129,4.06-55.817-7.51
		c-4.571-3.37-8.576-7.962-13.213-13.277c-12.148-13.928-27.268-31.26-64.202-41.663c-34.996-9.894-70.411-8.327-92.426,4.088
		l-8.848,4.99l4.965,8.862c3.483,6.218,4.359,12.134,2.674,18.101c-1.636,5.819-6.529,10.833-13.924,14.552
		c-18.857-40.38-32.778-89.769-32.778-89.769H220.829z M500,964.907c-155.6,0-293.332-76.45-377.719-193.828
		c13.203,2.803,26.238,4.009,38.423,3.577c0.135-0.005,0.27-0.012,0.405-0.018c1.013-0.039,2.02-0.09,3.02-0.151
		c0.29-0.018,0.578-0.039,0.866-0.06c0.844-0.058,1.683-0.123,2.517-0.197c0.358-0.032,0.715-0.065,1.071-0.101
		c0.764-0.074,1.521-0.157,2.276-0.246c0.385-0.046,0.771-0.09,1.153-0.139c0.73-0.093,1.454-0.196,2.174-0.302
		c0.383-0.058,0.768-0.11,1.147-0.17c0.751-0.119,1.494-0.25,2.235-0.383c0.331-0.06,0.666-0.114,0.995-0.177
		c1.059-0.2,2.108-0.414,3.146-0.645c0.768-0.171,1.526-0.351,2.277-0.537c0.246-0.062,0.486-0.127,0.73-0.189
		c0.504-0.129,1.006-0.259,1.501-0.395c0.279-0.077,0.554-0.158,0.831-0.236c0.455-0.13,0.909-0.262,1.357-0.397
		c0.282-0.085,0.56-0.172,0.839-0.26c0.439-0.137,0.875-0.278,1.308-0.421c0.27-0.09,0.539-0.181,0.807-0.272
		c0.441-0.151,0.878-0.308,1.313-0.465c0.246-0.09,0.492-0.178,0.735-0.27c0.468-0.175,0.93-0.355,1.389-0.537
		c0.199-0.079,0.401-0.157,0.599-0.238c0.569-0.231,1.13-0.469,1.685-0.711c0.081-0.035,0.164-0.069,0.244-0.104
		c0.66-0.291,1.309-0.59,1.948-0.896h0.001c0.347-0.166,0.688-0.339,1.028-0.51c1.57-0.787,3.075-1.62,4.513-2.498
		c0.012-0.008,0.024-0.016,0.036-0.022c2.135-1.306,4.121-2.712,5.954-4.213c0.033-0.027,0.066-0.053,0.099-0.08
		c1.192-0.98,2.316-2.003,3.375-3.063c0.061-0.061,0.121-0.121,0.181-0.183c0.496-0.502,0.979-1.012,1.445-1.531
		c0.019-0.022,0.04-0.044,0.06-0.066c0.491-0.549,0.963-1.106,1.419-1.675c0.046-0.058,0.091-0.117,0.137-0.176
		c0.392-0.491,0.769-0.991,1.135-1.498c0.076-0.105,0.153-0.211,0.229-0.317c0.796-1.124,1.528-2.282,2.196-3.472
		c0.079-0.14,0.155-0.281,0.232-0.421c0.27-0.495,0.528-0.994,0.775-1.499c0.055-0.111,0.114-0.223,0.168-0.337
		c0.287-0.602,0.559-1.21,0.815-1.827c0.055-0.132,0.104-0.266,0.158-0.398c0.2-0.498,0.39-1,0.57-1.508
		c0.062-0.175,0.124-0.35,0.184-0.525c0.214-0.633,0.417-1.271,0.6-1.918c2.17-7.688,2.091-15.618-0.182-23.376
		c17.675-6.11,43.415-5.721,68.672,1.419c31.103,8.762,43.47,22.938,54.381,35.447c4.705,5.393,9.184,10.507,14.708,14.911h0
		c0.581,0.463,1.161,0.926,1.767,1.372c1.968,1.451,3.988,2.799,6.054,4.045c0.224,0.135,0.45,0.261,0.674,0.393
		c0.442,0.261,0.883,0.521,1.329,0.772c0.291,0.164,0.584,0.319,0.877,0.479c0.384,0.21,0.768,0.421,1.155,0.623
		c0.311,0.163,0.625,0.319,0.937,0.479c0.374,0.189,0.748,0.379,1.124,0.562c0.321,0.157,0.644,0.308,0.967,0.46
		c0.372,0.174,0.744,0.348,1.119,0.517c0.329,0.147,0.658,0.292,0.988,0.435c0.375,0.163,0.751,0.323,1.129,0.479
		c0.33,0.137,0.66,0.272,0.991,0.404c0.384,0.152,0.769,0.301,1.154,0.447c0.329,0.125,0.659,0.251,0.99,0.371
		c0.395,0.144,0.792,0.282,1.19,0.42c0.324,0.112,0.647,0.226,0.972,0.333c0.418,0.139,0.839,0.27,1.261,0.401
		c0.307,0.096,0.613,0.194,0.921,0.286c0.482,0.145,0.968,0.279,1.453,0.414c0.25,0.068,0.499,0.144,0.75,0.21
		c0.725,0.193,1.452,0.376,2.182,0.548c0.253,0.06,0.51,0.111,0.765,0.17c0.491,0.11,0.981,0.221,1.475,0.321
		c0.312,0.063,0.625,0.121,0.938,0.181c0.438,0.084,0.877,0.169,1.317,0.246c0.333,0.058,0.668,0.11,1.002,0.163
		c0.422,0.068,0.845,0.136,1.27,0.197c0.342,0.049,0.685,0.094,1.028,0.14c0.42,0.054,0.841,0.107,1.263,0.155
		c0.346,0.04,0.692,0.077,1.039,0.112c0.422,0.042,0.844,0.081,1.267,0.117c0.346,0.03,0.693,0.059,1.04,0.083
		c0.43,0.031,0.86,0.058,1.292,0.081c0.34,0.019,0.681,0.039,1.022,0.053c0.444,0.02,0.89,0.032,1.336,0.044
		c0.33,0.009,0.658,0.02,0.988,0.024c0.476,0.007,0.953,0.006,1.431,0.004c0.3-0.001,0.599,0.002,0.899-0.002
		c0.6-0.009,1.2-0.028,1.801-0.05c0.179-0.007,0.358-0.008,0.537-0.017c0.773-0.032,1.548-0.077,2.323-0.132
		c0.262-0.019,0.524-0.045,0.787-0.066c0.521-0.041,1.043-0.084,1.565-0.136c0.315-0.031,0.631-0.069,0.946-0.104
		c0.471-0.053,0.941-0.104,1.412-0.165c0.335-0.043,0.669-0.091,1.004-0.138c0.452-0.063,0.905-0.128,1.357-0.198
		c0.344-0.055,0.689-0.112,1.034-0.17c0.446-0.075,0.892-0.153,1.337-0.235c0.345-0.064,0.69-0.13,1.035-0.198
		c0.448-0.089,0.896-0.181,1.343-0.276c0.343-0.073,0.686-0.147,1.028-0.225c0.454-0.103,0.909-0.212,1.363-0.322
		c0.333-0.08,0.667-0.16,1-0.245c0.474-0.122,0.948-0.25,1.422-0.38c0.313-0.085,0.626-0.167,0.939-0.256
		c0.523-0.148,1.046-0.307,1.568-0.466c0.262-0.08,0.525-0.155,0.787-0.237c0.784-0.246,1.568-0.502,2.351-0.771
		c0.942-0.324,1.872-0.667,2.796-1.02c0.14-0.053,0.279-0.106,0.418-0.16c0.236-0.091,0.467-0.188,0.702-0.281
		c0.668-0.265,1.335-0.531,1.992-0.812c0.351-0.148,0.696-0.306,1.044-0.458c0.616-0.271,1.231-0.546,1.837-0.829
		c0.341-0.16,0.677-0.324,1.015-0.487c0.61-0.295,1.217-0.596,1.816-0.903c0.313-0.161,0.624-0.322,0.934-0.486
		c0.626-0.331,1.246-0.669,1.859-1.014c0.268-0.15,0.536-0.301,0.801-0.452c0.668-0.386,1.327-0.778,1.978-1.178
		c0.199-0.122,0.4-0.242,0.598-0.365c0.768-0.48,1.524-0.971,2.268-1.471c0.073-0.049,0.149-0.097,0.222-0.146
		c0.843-0.57,1.67-1.153,2.479-1.747c0,0,0,0,0,0c10.492-7.713,18.046-17.377,20.856-27.382c2.156-7.68,2.074-15.604-0.191-23.355
		c17.681-6.116,43.437-5.728,68.704,1.412c31.094,8.76,43.464,22.938,54.379,35.448c0.848,0.973,1.689,1.934,2.531,2.885
		c0.12,0.138,0.241,0.272,0.362,0.409c0.789,0.889,1.58,1.765,2.377,2.63c0.129,0.141,0.256,0.28,0.386,0.419
		c1.817,1.959,3.675,3.854,5.647,5.656c0.174,0.159,0.342,0.322,0.518,0.479c0.159,0.144,0.324,0.282,0.485,0.424
		c0.499,0.439,1.006,0.873,1.522,1.299c0.194,0.161,0.389,0.321,0.585,0.48c0.675,0.545,1.358,1.082,2.066,1.604
		c1.318,0.972,2.665,1.883,4.028,2.763c0.791,0.511,1.591,1.007,2.396,1.486c0.003,0.002,0.005,0.003,0.007,0.003
		c5.55,3.305,11.432,5.867,17.533,7.681c0.151,0.044,0.303,0.093,0.453,0.138c0.662,0.191,1.33,0.369,1.997,0.543
		c0.29,0.076,0.579,0.154,0.87,0.227c0.596,0.149,1.195,0.286,1.795,0.421c0.369,0.083,0.74,0.165,1.112,0.242
		c0.549,0.114,1.101,0.223,1.653,0.325c0.431,0.081,0.863,0.156,1.296,0.229c0.512,0.087,1.024,0.17,1.538,0.246
		c0.483,0.071,0.969,0.136,1.453,0.199c0.477,0.062,0.953,0.124,1.431,0.177c0.542,0.061,1.085,0.109,1.628,0.158
		c0.431,0.039,0.86,0.082,1.293,0.113c0.636,0.048,1.274,0.079,1.912,0.11c0.347,0.019,0.691,0.043,1.039,0.056
		c0.991,0.036,1.984,0.057,2.98,0.057c9.271,0,18.736-1.581,28.08-4.789c0.787-0.27,1.565-0.552,2.34-0.843
		c0.239-0.089,0.478-0.184,0.716-0.275c0.545-0.209,1.087-0.423,1.625-0.642c0.256-0.104,0.512-0.21,0.767-0.316
		c0.555-0.231,1.106-0.469,1.653-0.712c0.203-0.09,0.407-0.178,0.61-0.27c0.753-0.34,1.502-0.688,2.24-1.046
		c0.006-0.003,0.012-0.007,0.018-0.01c0.728-0.354,1.445-0.718,2.155-1.088c0.183-0.096,0.363-0.192,0.545-0.289
		c0.546-0.289,1.089-0.584,1.626-0.885c0.191-0.106,0.383-0.213,0.572-0.321c0.572-0.326,1.139-0.657,1.699-0.993
		c0.123-0.073,0.247-0.146,0.369-0.22c0.702-0.427,1.396-0.86,2.077-1.303c0.256-0.166,0.505-0.336,0.758-0.505
		c2.244-1.494,4.374-3.074,6.374-4.729c0.015-0.012,0.029-0.023,0.043-0.036c1.976-1.637,3.822-3.346,5.528-5.113
		c0.045-0.047,0.09-0.094,0.135-0.14c1.118-1.166,2.175-2.356,3.165-3.568c0.04-0.049,0.078-0.098,0.118-0.146
		c0.436-0.537,0.856-1.079,1.266-1.623c0.074-0.099,0.148-0.197,0.222-0.296c0.883-1.191,1.702-2.401,2.454-3.626
		c0.072-0.117,0.142-0.235,0.212-0.354c0.295-0.49,0.579-0.981,0.853-1.477c0.081-0.147,0.163-0.296,0.243-0.443
		c0.32-0.597,0.63-1.195,0.918-1.798c0.003-0.006,0.007-0.013,0.011-0.02c0.291-0.609,0.56-1.222,0.816-1.835
		c0.069-0.165,0.134-0.33,0.2-0.495c0.187-0.462,0.361-0.925,0.527-1.389c0.063-0.176,0.127-0.353,0.187-0.528
		c0.209-0.612,0.406-1.226,0.579-1.841c2.172-7.672,2.091-15.605-0.184-23.383c0.981-0.34,1.995-0.651,3.025-0.951
		c0.271-0.078,0.544-0.155,0.818-0.231c0.93-0.259,1.875-0.503,2.841-0.729c0.127-0.029,0.25-0.063,0.377-0.093
		c1.069-0.243,2.163-0.463,3.273-0.667c0.311-0.059,0.626-0.111,0.94-0.167c0.919-0.159,1.85-0.305,2.794-0.438
		c0.25-0.035,0.497-0.075,0.749-0.108c1.126-0.149,2.271-0.276,3.43-0.388c0.367-0.036,0.738-0.065,1.108-0.097
		c0.891-0.077,1.791-0.143,2.699-0.196c0.37-0.023,0.736-0.049,1.109-0.067c1.159-0.059,2.331-0.099,3.515-0.122
		c0.428-0.008,0.858-0.008,1.288-0.013c0.862-0.007,1.729-0.006,2.603,0.005c0.469,0.005,0.937,0.009,1.409,0.02
		c1.182,0.027,2.37,0.069,3.568,0.13c0.47,0.023,0.944,0.058,1.416,0.086c0.853,0.052,1.709,0.111,2.568,0.181
		c0.533,0.042,1.065,0.085,1.601,0.134c1.207,0.109,2.417,0.231,3.635,0.373c7.828,0.915,15.881,2.495,23.889,4.758
		c39.178,11.037,58.977,27.368,71.869,40.291h0.001c0.057,0.057,0.109,0.112,0.167,0.169c0.528,0.532,1.046,1.057,1.553,1.576
		c0.127,0.131,0.256,0.262,0.382,0.391c0.047,0.047,0.094,0.096,0.14,0.144h-0.001c0.524,0.541,1.045,1.079,1.548,1.604
		C799.917,884.753,659.325,964.907,500,964.907z"/>
</g>
</svg>
