<?xml version="1.0" encoding="utf-8"?>
<!-- Generator: Adobe Illustrator 16.0.0, SVG Export Plug-In . SVG Version: 6.00 Build 0)  -->
<!DOCTYPE svg PUBLIC "-//W3C//DTD SVG 1.1//EN" "http://www.w3.org/Graphics/SVG/1.1/DTD/svg11.dtd">
<svg version="1.1" id="Layer_1" xmlns="http://www.w3.org/2000/svg" xmlns:xlink="http://www.w3.org/1999/xlink" x="0px" y="0px"
	 width="1000px" height="1000px" viewBox="0 0 1000 1000" enable-background="new 0 0 1000 1000" xml:space="preserve">
<path d="M500,0C223.857,0,0,223.857,0,500.001C0,776.143,223.857,1000,500,1000c276.144,0,500-223.857,500-499.999
	C1000,223.857,776.144,0,500,0z M525.801,896.504c-10.521,1.29-49.708,7.784-117.195,37.845c-2.435,1.085-5.016,1.401-7.473,1.054
	c-4.513-0.64-8.604-3.517-10.595-7.986c-3.076-6.904,0.028-14.994,6.932-18.068c13.224-5.89,25.431-10.924,36.627-15.228
	c-15.324-2.502-29.861-6.118-43.52-10.838c-36.706-12.688-67.055-33.353-90.206-61.421c-4.808-5.828-3.981-14.452,1.85-19.261
	c5.83-4.813,14.456-3.982,19.264,1.848c16.381,19.858,36.754,35.296,60.948,46.284c-20.501-22.087-33.236-43.811-34.173-45.43
	c-3.785-6.542-1.552-14.915,4.99-18.7c6.541-3.785,14.912-1.552,18.698,4.99c0.628,1.075,37.22,63.099,82.254,77.118
	c0.624,0.194,1.213,0.442,1.787,0.713c10.083,0.98,20.548,1.493,31.414,1.511c12.664,0.02,24.802-0.657,36.028-1.716
	c1.021-0.115,1.835-0.192,2.453-0.245c3.067-0.309,6.081-0.637,8.995-0.994c-0.003,0.16-0.016,0.317-0.018,0.477
	c-0.11,9.141,1.412,18.13,4.399,26.596C534.944,895.587,530.439,896.072,525.801,896.504z M533.419,802.524
	c-18.979,3.332-37.438,4.541-54.867,3.601c-5.775-0.313-11.444-0.865-16.991-1.648c-9.079-1.286-17.836-3.205-26.234-5.738
	c-0.03-0.013-0.061-0.018-0.092-0.025c-0.076-0.024-0.149-0.05-0.224-0.073c-6.03-1.836-11.875-3.982-17.513-6.45
	c-42.529-18.634-73.313-54.75-91.493-107.342c-2.471-7.141,1.318-14.933,8.461-17.403c7.143-2.469,14.936,1.32,17.405,8.463
	c5.626,16.271,12.586,30.657,20.833,43.14c-4.709-16.934-6.097-30.099-6.235-31.504c-0.74-7.523,4.757-14.219,12.279-14.959
	c7.515-0.74,14.209,4.751,14.958,12.263c0.02,0.197,2.073,19.896,9.899,40.907c6.611,17.745,18.856,40.251,39.658,46.787
	c7.002,2.119,14.073,3.651,21.116,4.694c-3.098-2.871-6.072-5.962-8.911-9.266c-5.146-5.985-9.847-12.687-14.09-20.039
	c-0.059-0.102-0.117-0.203-0.175-0.306c-0.631-1.1-1.253-2.213-1.863-3.342c-0.045-0.084-0.091-0.167-0.137-0.251
	c-1.314-2.442-2.582-4.948-3.798-7.524c-0.028-0.06-0.056-0.12-0.083-0.181c-0.539-1.143-1.066-2.301-1.585-3.47
	c-0.146-0.33-0.29-0.663-0.435-0.994c-0.402-0.921-0.798-1.849-1.187-2.785c-0.169-0.404-0.337-0.811-0.503-1.219
	c-0.375-0.918-0.741-1.845-1.104-2.778c-0.151-0.387-0.304-0.772-0.453-1.162c-0.498-1.306-0.987-2.623-1.463-3.957
	c-2.536-7.118,1.179-14.946,8.298-17.483c0.402-0.144,0.807-0.26,1.212-0.364c0.074-0.019,0.148-0.039,0.223-0.057
	c0.394-0.094,0.788-0.171,1.183-0.229c0.066-0.01,0.132-0.017,0.198-0.025c0.403-0.054,0.806-0.094,1.207-0.109
	c0.008-0.001,0.016-0.002,0.023-0.002c0.407-0.017,0.812-0.009,1.215,0.011c0.07,0.003,0.141,0.006,0.211,0.011
	c0.344,0.022,0.688,0.054,1.027,0.102c0.042,0.006,0.084,0.016,0.126,0.021c0.081,0.013,0.16,0.029,0.24,0.043
	c0.321,0.054,0.64,0.12,0.955,0.196c0.093,0.024,0.187,0.045,0.28,0.07c0.378,0.101,0.753,0.213,1.121,0.346
	c0.042,0.016,0.083,0.034,0.126,0.05c0.327,0.122,0.648,0.257,0.965,0.403c0.094,0.043,0.188,0.087,0.281,0.133
	c0.328,0.16,0.649,0.33,0.964,0.516c0.024,0.014,0.05,0.025,0.074,0.04c0.333,0.2,0.655,0.418,0.971,0.646
	c0.085,0.062,0.168,0.125,0.252,0.189c0.255,0.192,0.504,0.396,0.746,0.606c0.061,0.053,0.124,0.104,0.184,0.158
	c0.287,0.259,0.563,0.533,0.828,0.818c0.066,0.07,0.128,0.145,0.193,0.218c0.21,0.235,0.412,0.479,0.606,0.729
	c0.063,0.081,0.126,0.16,0.188,0.243c0.234,0.318,0.458,0.646,0.666,0.986c0.037,0.062,0.07,0.125,0.106,0.187
	c0.173,0.294,0.335,0.596,0.487,0.905c0.049,0.1,0.099,0.2,0.146,0.304c0.173,0.374,0.336,0.757,0.478,1.153
	c0.355,0.997,0.716,1.978,1.081,2.944c0.069,0.182,0.139,0.357,0.208,0.537c0.304,0.796,0.609,1.587,0.919,2.363
	c0.046,0.117,0.094,0.229,0.141,0.345c0.342,0.85,0.688,1.692,1.037,2.517c0.002,0.007,0.004,0.012,0.007,0.018
	c23.812,56.206,64.085,56.01,65.869,55.971l-0.146,0.004l0.041,0.936c2.22-0.343,4.392-0.712,6.521-1.098
	c2.397,9.149,6.47,17.813,12.055,25.546C539.297,801.442,536.399,802.002,533.419,802.524z M544.977,783.901
	c-0.065-0.137-0.125-0.276-0.188-0.416c-0.116-0.249-0.228-0.501-0.34-0.752c-0.246-0.548-0.491-1.097-0.723-1.651
	c-0.09-0.216-0.174-0.435-0.26-0.651c-0.172-0.425-0.336-0.853-0.498-1.281c-0.123-0.318-0.248-0.636-0.365-0.958
	c-0.12-0.333-0.233-0.668-0.348-1.003c-0.165-0.48-0.322-0.964-0.477-1.45c-0.055-0.167-0.111-0.333-0.164-0.503
	c-0.136-0.439-0.267-0.881-0.394-1.323c-0.017-0.061-0.031-0.121-0.049-0.181c-0.062-0.218-0.136-0.43-0.195-0.647
	c0.007-0.002,0.013-0.003,0.02-0.004c-0.079-0.289-0.16-0.576-0.235-0.867c-0.115-0.446-0.228-0.894-0.333-1.343
	c-0.136-0.578-0.26-1.16-0.38-1.743c-0.092-0.45-0.186-0.897-0.27-1.35c-0.11-0.6-0.206-1.204-0.3-1.809
	c-0.069-0.444-0.143-0.887-0.203-1.333c-0.064-0.484-0.115-0.974-0.168-1.463c-0.021-0.185-0.043-0.369-0.063-0.555
	c-0.042-0.389-0.088-0.776-0.122-1.167c-0.02-0.238-0.03-0.479-0.045-0.72c-0.036-0.463-0.063-0.929-0.089-1.395
	c-0.001-0.012-0.002-0.024-0.003-0.037c-0.02-0.358-0.05-0.715-0.063-1.076c-0.003-0.09-0.001-0.183-0.003-0.273
	c-0.035-0.992-0.052-1.989-0.04-2.992c0.013-1.029,0.055-2.051,0.114-3.068c0.019-0.315,0.045-0.629,0.067-0.943
	c0.052-0.715,0.114-1.426,0.188-2.133c0.036-0.347,0.072-0.692,0.113-1.037c0.09-0.741,0.193-1.476,0.308-2.208
	c0.042-0.267,0.076-0.536,0.12-0.802c0.158-0.936,0.336-1.862,0.532-2.783c0.082-0.385,0.177-0.766,0.265-1.149
	c0.13-0.559,0.263-1.117,0.407-1.67c0.116-0.452,0.239-0.9,0.364-1.348c0.134-0.473,0.275-0.941,0.419-1.408
	c0.146-0.476,0.288-0.951,0.444-1.421c0.125-0.375,0.261-0.744,0.393-1.115c0.353-1.003,0.729-1.994,1.128-2.975
	c0.112-0.276,0.221-0.554,0.338-0.828c0.247-0.583,0.505-1.16,0.768-1.734c0.109-0.237,0.22-0.475,0.332-0.711
	c0.289-0.613,0.584-1.223,0.892-1.826c0.018-0.032,0.035-0.064,0.053-0.099c1.082-2.106,2.275-4.145,3.568-6.111
	c0.061-0.092,0.12-0.183,0.181-0.273c0.422-0.637,0.854-1.266,1.299-1.886c0.002-0.003,0.004-0.007,0.007-0.011
	c12.122-16.924,32.03-27.861,54.424-27.589c1.023,0.013,2.039,0.056,3.05,0.114c0.207,0.012,0.415,0.023,0.621,0.037
	c1.001,0.066,1.997,0.151,2.985,0.263c0.097,0.011,0.193,0.025,0.291,0.037c0.823,0.096,1.639,0.216,2.452,0.341
	c0.424,0.066,0.847,0.136,1.268,0.21c0.631,0.11,1.257,0.231,1.881,0.359c0.417,0.086,0.834,0.173,1.248,0.267
	c0.625,0.142,1.245,0.294,1.861,0.453c0.402,0.104,0.806,0.204,1.206,0.315c0.629,0.175,1.252,0.364,1.873,0.557
	c0.376,0.116,0.755,0.228,1.129,0.352c0.654,0.216,1.301,0.449,1.947,0.685c0.329,0.12,0.66,0.232,0.987,0.358
	c0.744,0.285,1.478,0.591,2.209,0.901c0.218,0.094,0.441,0.178,0.659,0.273c1.902,0.835,3.758,1.757,5.561,2.761
	c0.248,0.138,0.488,0.287,0.735,0.428c0.643,0.369,1.282,0.741,1.911,1.131c0.302,0.188,0.597,0.385,0.896,0.576
	c0.562,0.36,1.122,0.724,1.672,1.101c0.317,0.218,0.629,0.444,0.942,0.668c0.52,0.368,1.036,0.741,1.543,1.125
	c0.317,0.24,0.631,0.487,0.943,0.733c0.491,0.385,0.979,0.774,1.459,1.175c0.31,0.257,0.615,0.518,0.919,0.781
	c0.471,0.406,0.936,0.818,1.396,1.238c0.296,0.27,0.589,0.541,0.879,0.816c0.456,0.432,0.903,0.871,1.347,1.315
	c0.276,0.277,0.555,0.555,0.825,0.837c0.447,0.463,0.883,0.937,1.315,1.413c0.252,0.277,0.507,0.553,0.753,0.834
	c0.446,0.508,0.88,1.027,1.31,1.548c0.218,0.264,0.439,0.523,0.652,0.791c0.467,0.584,0.918,1.18,1.365,1.779
	c0.162,0.217,0.33,0.429,0.488,0.647c0.579,0.799,1.143,1.609,1.687,2.434c0.018,0.026,0.037,0.052,0.055,0.079
	c0.574,0.873,1.128,1.762,1.662,2.663c0.061,0.103,0.115,0.209,0.176,0.312c0.455,0.779,0.898,1.566,1.321,2.366
	c0.14,0.262,0.269,0.53,0.404,0.796c0.332,0.646,0.661,1.296,0.972,1.954c0.154,0.327,0.299,0.66,0.447,0.99
	c0.274,0.606,0.546,1.217,0.803,1.833c0.15,0.363,0.292,0.73,0.437,1.097c0.235,0.596,0.466,1.193,0.684,1.798
	c0.14,0.386,0.272,0.774,0.404,1.165c0.203,0.594,0.398,1.191,0.584,1.793c0.124,0.404,0.244,0.81,0.36,1.217
	c0.172,0.599,0.335,1.201,0.489,1.807c0.107,0.415,0.211,0.83,0.31,1.249c0.144,0.609,0.275,1.225,0.401,1.841
	c0.087,0.42,0.174,0.84,0.253,1.263c0.115,0.628,0.216,1.261,0.314,1.895c0.064,0.418,0.134,0.835,0.19,1.257
	c0.089,0.659,0.159,1.325,0.229,1.991c0.033,0.325,0.069,0.648,0.101,0.975c0.007,0.073,0.017,0.145,0.022,0.218
	c0,0.003,0.001,0.006,0.001,0.009c0.063,0.733,0.104,1.474,0.143,2.214c0.011,0.202,0.022,0.403,0.035,0.605
	c0.054,1.221,0.081,2.448,0.066,3.686c-0.012,1.007-0.055,2.006-0.111,3.001c-0.019,0.318-0.042,0.634-0.064,0.95
	c-0.05,0.695-0.111,1.388-0.183,2.076c-0.035,0.343-0.067,0.687-0.107,1.027c-0.107,0.893-0.229,1.781-0.37,2.663
	c-0.071,0.443-0.157,0.88-0.237,1.32c-0.087,0.476-0.175,0.95-0.271,1.423c-0.107,0.525-0.222,1.048-0.341,1.569
	c-0.081,0.351-0.168,0.699-0.255,1.049c-0.313,1.268-0.657,2.524-1.044,3.762c-0.009,0.028-0.016,0.059-0.025,0.087
	c-3.283,10.486-9.103,19.839-16.746,27.337c-8.543-4.992-18.017-8.34-27.95-9.746l-1.562,11.04l1.561-11.04
	c-3.279-0.464-6.629-0.719-9.956-0.76c-17.573-0.213-34.31,5.444-48,16.046c-0.347-0.263-0.689-0.53-1.03-0.8
	c-0.435-0.343-0.867-0.688-1.293-1.042c-0.358-0.297-0.713-0.6-1.064-0.904c-0.419-0.362-0.833-0.729-1.242-1.102
	c-0.343-0.313-0.683-0.628-1.019-0.947c-0.404-0.384-0.802-0.773-1.196-1.168c-0.323-0.323-0.647-0.648-0.966-0.979
	c-0.392-0.408-0.775-0.825-1.156-1.243c-0.304-0.332-0.607-0.662-0.903-0.999c-0.31-0.354-0.609-0.716-0.909-1.076
	c-0.002,0-0.003,0.001-0.005,0.001c-0.027-0.033-0.053-0.067-0.079-0.1c-0.047-0.057-0.095-0.11-0.141-0.167
	c-0.273-0.33-0.553-0.656-0.82-0.992c-0.365-0.458-0.718-0.929-1.07-1.397c-0.045-0.06-0.091-0.117-0.135-0.177
	c-0.215-0.283-0.434-0.562-0.642-0.851c-0.446-0.614-0.874-1.242-1.299-1.874c-0.012-0.017-0.023-0.034-0.035-0.051
	c-0.009-0.013-0.019-0.026-0.027-0.039c-0.125-0.181-0.253-0.36-0.374-0.544c-0.558-0.848-1.095-1.71-1.613-2.585
	c-0.148-0.25-0.285-0.51-0.431-0.764c-0.364-0.632-0.725-1.264-1.067-1.907c-0.04-0.074-0.076-0.15-0.114-0.226
	c-0.034-0.065-0.065-0.132-0.101-0.197c-0.105-0.211-0.212-0.421-0.319-0.632C545.533,785.035,545.246,784.474,544.977,783.901z
	 M677.658,874.494c-0.008,0.103-0.019,0.203-0.026,0.306c-0.089,1.079-0.201,2.15-0.341,3.215c-0.022,0.171-0.048,0.342-0.071,0.513
	c-0.137,0.988-0.295,1.97-0.475,2.943c-0.041,0.219-0.082,0.436-0.125,0.654c-0.18,0.92-0.38,1.834-0.598,2.741
	c-0.06,0.247-0.118,0.493-0.181,0.739c-0.221,0.875-0.461,1.74-0.717,2.601c-0.076,0.26-0.15,0.519-0.231,0.776
	c-0.264,0.851-0.549,1.691-0.847,2.527c-0.088,0.249-0.171,0.499-0.262,0.745c-0.323,0.874-0.668,1.734-1.026,2.59
	c-0.081,0.192-0.155,0.389-0.236,0.579c-0.442,1.026-0.906,2.04-1.397,3.039c-0.004,0.009-0.008,0.018-0.013,0.027
	c-10.875,22.075-33.723,37.144-59.969,36.826c-1.008-0.012-2.008-0.056-3.004-0.112c-0.237-0.014-0.473-0.027-0.709-0.042
	c-0.974-0.067-1.944-0.149-2.907-0.258c-0.141-0.016-0.28-0.035-0.421-0.052c-0.775-0.093-1.544-0.204-2.311-0.322
	c-0.456-0.07-0.911-0.146-1.363-0.226c-0.597-0.105-1.19-0.219-1.781-0.341c-0.448-0.091-0.895-0.185-1.339-0.285
	c-0.592-0.134-1.179-0.28-1.764-0.429c-0.434-0.111-0.866-0.221-1.296-0.34c-0.594-0.165-1.182-0.344-1.769-0.525
	c-0.41-0.126-0.822-0.248-1.229-0.383c-0.609-0.201-1.212-0.42-1.814-0.639c-0.372-0.135-0.749-0.264-1.118-0.405
	c-0.675-0.259-1.34-0.537-2.005-0.817c-0.285-0.121-0.576-0.232-0.86-0.356c-0.943-0.415-1.878-0.851-2.799-1.307
	c-0.101-0.05-0.198-0.106-0.299-0.157c-0.816-0.41-1.624-0.833-2.421-1.276c-0.303-0.169-0.597-0.351-0.896-0.522
	c-0.586-0.339-1.172-0.677-1.746-1.032c-0.342-0.212-0.675-0.436-1.013-0.652c-0.521-0.335-1.042-0.672-1.553-1.022
	c-0.35-0.239-0.692-0.488-1.035-0.732c-0.486-0.347-0.97-0.696-1.445-1.055c-0.347-0.262-0.688-0.531-1.029-0.799
	c-0.461-0.363-0.917-0.729-1.368-1.103c-0.336-0.279-0.669-0.563-1-0.85c-0.441-0.382-0.877-0.769-1.308-1.161
	c-0.324-0.295-0.644-0.592-0.961-0.893c-0.425-0.402-0.843-0.813-1.256-1.227c-0.306-0.306-0.612-0.612-0.912-0.925
	c-0.412-0.428-0.814-0.865-1.214-1.305c-0.285-0.313-0.571-0.623-0.851-0.94c-0.405-0.463-0.799-0.937-1.191-1.41
	c-0.256-0.309-0.516-0.613-0.767-0.927c-0.413-0.519-0.812-1.049-1.21-1.58c-0.213-0.283-0.432-0.56-0.64-0.847
	c-0.48-0.661-0.943-1.338-1.399-2.02c-0.11-0.165-0.229-0.325-0.339-0.491c-0.562-0.854-1.104-1.724-1.625-2.604
	c-0.126-0.212-0.24-0.431-0.363-0.644c-0.388-0.671-0.771-1.344-1.135-2.028c-0.174-0.328-0.335-0.664-0.503-0.995
	c-0.297-0.581-0.593-1.163-0.872-1.754c-0.178-0.374-0.343-0.755-0.513-1.134c-0.252-0.559-0.501-1.119-0.738-1.686
	c-0.165-0.399-0.322-0.805-0.481-1.207c-0.001-0.003-0.002-0.008-0.004-0.012c-0.218-0.554-0.432-1.109-0.635-1.67
	c-0.149-0.411-0.291-0.825-0.431-1.24c-0.001,0-0.001-0.001-0.001-0.002c-0.004-0.01-0.008-0.02-0.011-0.03
	c-0.189-0.559-0.372-1.119-0.547-1.684c-0.121-0.39-0.235-0.782-0.349-1.175c-0.015-0.052-0.03-0.102-0.044-0.151
	c-0.161-0.563-0.314-1.127-0.46-1.695c-0.096-0.374-0.189-0.75-0.278-1.126c-0.026-0.106-0.052-0.215-0.077-0.321
	c-0.126-0.545-0.244-1.093-0.357-1.642c-0.066-0.321-0.13-0.645-0.193-0.968c-0.05-0.261-0.096-0.523-0.143-0.785
	c-0.081-0.467-0.16-0.935-0.233-1.404c-0.045-0.288-0.088-0.577-0.131-0.865c-0.06-0.411-0.108-0.825-0.16-1.24
	c-0.043-0.38-0.09-0.758-0.13-1.139c-0.021-0.198-0.04-0.396-0.063-0.593c-0.064-0.682-0.113-1.366-0.158-2.053
	c-0.016-0.258-0.036-0.514-0.05-0.771c-0.006-0.119-0.013-0.237-0.02-0.355c-0.063-1.32-0.102-2.646-0.085-3.986
	c0.009-0.717,0.049-1.426,0.079-2.138c0.952-21.583,12.239-40.412,29.004-51.733c0.001,0,0.003-0.001,0.003-0.002
	c0.588-0.396,1.185-0.78,1.785-1.158c0.161-0.101,0.323-0.202,0.485-0.303c0.591-0.364,1.186-0.723,1.788-1.069
	c0.105-0.061,0.214-0.118,0.319-0.178c1.877-1.064,3.811-2.038,5.795-2.918c0.284-0.125,0.569-0.251,0.855-0.374
	c0.54-0.229,1.084-0.455,1.632-0.671c0.34-0.135,0.684-0.262,1.026-0.391c0.615-0.231,1.231-0.458,1.854-0.672
	c0.702-0.239,1.409-0.472,2.122-0.688c0.443-0.135,0.892-0.255,1.338-0.381c0.499-0.141,0.999-0.278,1.503-0.407
	c0.435-0.111,0.871-0.217,1.31-0.319c0.563-0.131,1.13-0.253,1.698-0.37c0.382-0.078,0.762-0.161,1.147-0.233
	c0.924-0.173,1.855-0.33,2.794-0.464c0.242-0.035,0.487-0.06,0.731-0.091c0.755-0.1,1.513-0.188,2.276-0.262
	c0.343-0.032,0.688-0.061,1.032-0.088c0.707-0.057,1.418-0.102,2.131-0.137c0.317-0.015,0.634-0.032,0.951-0.043
	c1.017-0.034,2.035-0.054,3.063-0.041c1.004,0.013,2.002,0.056,2.995,0.111c0.005,0.001,0.01,0.001,0.016,0.001
	c0.232,0.014,0.466,0.027,0.698,0.043c0,0,0.001,0,0.002,0c1.622,0.11,3.229,0.271,4.816,0.496c2.854,0.404,5.646,0.999,8.369,1.757
	c0.002,0.001,0.005,0.001,0.007,0.002c0.013,0.003,0.026,0.008,0.04,0.012c0.878,0.245,1.748,0.508,2.609,0.787
	c0.114,0.036,0.229,0.07,0.342,0.107c0.191,0.063,0.378,0.134,0.568,0.199c0.566,0.193,1.13,0.392,1.689,0.6
	c0.223,0.079,0.446,0.156,0.668,0.241c0.177,0.068,0.349,0.145,0.523,0.214c0.458,0.181,0.913,0.367,1.366,0.558
	c0.051,0.022,0.102,0.041,0.152,0.063c0.272,0.116,0.55,0.222,0.82,0.341c0.132,0.058,0.261,0.124,0.393,0.184
	c0.446,0.198,0.886,0.409,1.327,0.618c0.362,0.172,0.731,0.331,1.091,0.509c0.061,0.031,0.119,0.064,0.18,0.096
	c0.013,0.006,0.025,0.014,0.039,0.021c0.002,0.001,0.004,0.002,0.006,0.003c0.843,0.422,1.675,0.859,2.496,1.316
	c0.281,0.156,0.555,0.325,0.834,0.486c0.608,0.35,1.216,0.701,1.811,1.07c0.326,0.201,0.644,0.414,0.965,0.62
	c0.538,0.347,1.076,0.694,1.603,1.056c0.336,0.229,0.665,0.47,0.996,0.705c0.499,0.355,0.997,0.715,1.486,1.084
	c0.335,0.253,0.664,0.514,0.994,0.773c0.473,0.37,0.941,0.745,1.402,1.129c0.327,0.271,0.65,0.549,0.973,0.826
	c0.451,0.39,0.896,0.785,1.336,1.186c0.315,0.288,0.627,0.577,0.937,0.87c0.433,0.411,0.86,0.829,1.281,1.252
	c0.299,0.298,0.596,0.596,0.889,0.899c0.42,0.438,0.832,0.885,1.24,1.334c0.276,0.303,0.556,0.605,0.826,0.915
	c0.413,0.472,0.815,0.954,1.215,1.438c0.249,0.301,0.502,0.596,0.745,0.901c0.421,0.526,0.827,1.066,1.231,1.606
	c0.206,0.274,0.419,0.544,0.62,0.821c0.489,0.675,0.961,1.362,1.425,2.056c0.103,0.154,0.213,0.302,0.314,0.457
	c0.562,0.855,1.104,1.726,1.627,2.607c0.126,0.212,0.241,0.431,0.364,0.643c0.387,0.671,0.77,1.345,1.133,2.029
	c0.177,0.331,0.339,0.669,0.509,1.003c0.294,0.577,0.588,1.155,0.866,1.742c0.18,0.379,0.347,0.766,0.519,1.147
	c0.249,0.555,0.498,1.109,0.731,1.672c0.17,0.407,0.329,0.819,0.49,1.229c0.217,0.551,0.429,1.102,0.631,1.658
	c0.154,0.426,0.301,0.856,0.446,1.287c0.188,0.553,0.369,1.106,0.542,1.666c0.136,0.44,0.267,0.883,0.394,1.327
	c0.161,0.561,0.313,1.124,0.459,1.691c0.115,0.449,0.229,0.9,0.335,1.354c0.135,0.573,0.258,1.151,0.377,1.73
	c0.094,0.453,0.188,0.905,0.271,1.361c0.11,0.595,0.205,1.194,0.299,1.795c0.069,0.448,0.144,0.895,0.204,1.345
	c0.085,0.63,0.151,1.266,0.218,1.9c0.046,0.429,0.098,0.854,0.135,1.284c0.061,0.708,0.099,1.422,0.137,2.136
	c0.02,0.363,0.05,0.725,0.063,1.091c0.04,1.081,0.057,2.169,0.043,3.264C677.849,871.637,677.768,873.068,677.658,874.494z
	 M678.766,734.768c5.345-6.482,10.145-15.331,13.22-27.411c1.865-7.324,9.313-11.744,16.639-9.884
	c7.322,1.863,11.749,9.313,9.886,16.637c-7.803,30.64-24.415,46.729-37.993,55.039c0.711-4.078,1.117-8.238,1.168-12.459
	C681.775,749.213,680.766,741.839,678.766,734.768z M746.132,888.386c-1.06,7.481-7.983,12.689-15.467,11.63
	c-13.133-1.859-31.359-2.111-47.2-1.843c3.466-8.619,5.369-17.882,5.534-27.442c15.46-0.112,32.427,0.337,45.501,2.188
	C741.983,873.978,747.192,880.902,746.132,888.386z M870.039,444.889c-32.297,9.349-70.505-10.578-100.422-35.317
	c-104.813,35.738-179.259,94.116-216.296,170.036c-25.857,53.005-26.006,99.301-25.387,112.775
	c6.735,4.694,12.125,9.912,16.434,15.298c-10.697,13.35-16.626,29.767-16.837,47.143c-0.036,3.027,0.12,6.035,0.439,9.016
	c-1.764,0.275-3.318,0.446-4.585,0.482c0,0-1.235,0.011-3.318-0.284c-4.743-0.672-14.239-2.975-24.546-10.859
	c-12.958-9.911-23.268-25.436-30.646-46.145c-3.111-8.727-10.745-14.958-19.924-16.258c-3.951-0.56-8.034-0.146-11.806,1.2
	c-6.25,2.225-11.257,6.751-14.102,12.745c-2.843,5.991-3.184,12.734-0.958,18.984c2.39,6.708,5.056,13.095,7.986,19.143
	c-1.019-0.588-1.985-1.211-2.907-1.86c-3.825-6.249-6.831-13.005-9.111-19.126c-1.527-4.1-2.819-8.157-3.91-12.015
	c2.898-16.175,18.004-31.911,44.319-35.423c-28.408-30.667-74.465-84.708-112.579-149.668
	c-35.114-59.847-56.778-117.188-64.39-170.431c-6.663-46.601-2.528-90.1,12.262-129.938c-12.978-12.42-24.054-25.089-33.18-36.801
	C217.241,137.097,335.212-2.652,591.763,40.515c225.034,37.863,300.046,215.668,300.046,215.668
	c-67.145-65.593-220.863-28.206-332.765,18.917c-115.198,48.511-202.592,8.139-259.021-41.308
	c-28.171,80.723-10.495,176.012,52.906,284.168c41.318,70.483,92.161,127.935,118.799,155.919c5.15,0.318,10.604,1.039,16.367,2.23
	c10.254,2.12,19.072,5.106,26.664,8.69c0.002-20.343,3.376-62.287,26.569-110.174c18.737-38.688,46.606-73.166,82.833-102.479
	c36.445-29.487,81.476-53.768,134.229-72.427c-23.389-21.74-39.454-44.658-39.454-53.734c0-40.326,57.511-41.169,58.54-74.442
	c1.633-52.761,70.29-32.627,87.515-15.146C904.343,296.332,933.993,426.375,870.039,444.889z"/>
</svg>
