<?xml version="1.0" encoding="utf-8"?>
<!-- Generator: Adobe Illustrator 16.0.0, SVG Export Plug-In . SVG Version: 6.00 Build 0)  -->
<!DOCTYPE svg PUBLIC "-//W3C//DTD SVG 1.1//EN" "http://www.w3.org/Graphics/SVG/1.1/DTD/svg11.dtd">
<svg version="1.1" id="Layer_1" xmlns="http://www.w3.org/2000/svg" xmlns:xlink="http://www.w3.org/1999/xlink" x="0px" y="0px"
	 width="1000px" height="1000px" viewBox="0 0 1000 1000" enable-background="new 0 0 1000 1000" xml:space="preserve">
<path d="M499.567,0.365c-276.143,0-500,223.857-500,500c0,276.143,223.857,500,500,500c276.143,0,499.999-223.857,499.999-500
	C999.566,224.222,775.71,0.365,499.567,0.365z M607.65,367.746c5.643-5.479,11.325-10.519,16.55-14.914
	c2.949-12.213,13.929-20.469,25.545-18.75c12.364,1.833,20.765,14.273,18.761,27.79l-11.77,79.465
	c-1.438,9.695-7.838,17.31-15.907,20.163l-33.545,226.434l15.274,2.263c3.784,0.561,6.353,4.367,5.741,8.501
	c-0.613,4.133-4.175,7.029-7.959,6.47l-16.698-2.474l-14.209,38.5l-2.436-40.967l-16.7-2.474c-3.782-0.562-6.351-4.363-5.737-8.498
	c0.611-4.134,4.173-7.031,7.957-6.471l15.273,2.263l32.538-219.637c-13.142-2.654-23.646-6.417-31.308-11.227
	c-2.178-1.366-4.141-2.831-5.898-4.383c-13.213,2.212-29.991,4.096-48.868,4.096c-2.657,0-5.35-0.037-8.085-0.115
	c-49.877-1.438-94.432-16.148-131.019-42.932c-4.481,34.678-2.261,70.214,16.056,96.857c10.532,15.319,26.545,26.494,43.5,38.325
	c23.931,16.7,51.055,35.628,64.057,69.22c14.034,36.259,8.841,81.565-16.343,142.584c-3.98,9.644-13.301,15.472-23.124,15.472
	c-3.179,0-6.409-0.609-9.53-1.897c-12.765-5.27-18.843-19.888-13.574-32.653c36.432-88.271,19.5-114.881-14.055-140.222
	c0.679,5.249,1.26,10.697,1.696,16.351c5.484,71.068-13.342,139.906-54.443,199.073c-4.857,6.992-12.644,10.74-20.559,10.74
	c-4.923,0-9.894-1.448-14.244-4.471c-11.342-7.879-14.149-23.46-6.271-34.802c34.556-49.744,49.963-105.182,45.795-164.772
	c-2.695-38.536-13.136-66.669-16.279-74.397c-2.73-3.234-5.363-6.618-7.837-10.218c-23.632-34.375-31.785-79.438-24.229-133.937
	c5.9-42.563,20.405-84.112,32.383-115.554c0.496-1.3,1.092-2.532,1.77-3.697c14.26,8.333,29.863,14.065,46.221,16.938
	c-0.271,1.53-0.684,3.057-1.257,4.562c-4.59,12.048-11.509,30.222-17.717,51.346c30.994,30.169,70.923,46.33,118.875,48.043
	c22.566,0.804,42.264-1.894,55.328-4.451C587.269,389.556,596.035,379.024,607.65,367.746z M450.807,40.611
	c66.536,0,120.474,53.938,120.474,120.474S517.343,281.56,450.807,281.56s-120.474-53.938-120.474-120.474
	S384.271,40.611,450.807,40.611z M343.038,841.827l-12.705,15.28l-13.638-15.28H343.038z M263.91,822.38l7.348-22.688l19.045,22.688
	l-6.946,22.226l-19.447,5.557V822.38z M247.241,876.555v-19.447l24.017,13.892l-7.348,20.836L247.241,876.555z M499.566,964.323
	c-82.996,0-160.903-21.793-228.309-59.97l39.882-34.744l19.194,18.059l30.813-34.728l89.66-31.949l15.912-21.299h45.84
	l156.244-103.086l60.456,14.646l43.061-109.739l40.284,51.396l50.008-76.4l37.506,12.502l61.433-45.545
	C939.807,779.496,741.271,964.323,499.566,964.323z"/>
</svg>
