<?xml version="1.0" encoding="utf-8"?>
<!-- Generator: Adobe Illustrator 17.0.0, SVG Export Plug-In . SVG Version: 6.00 Build 0)  -->
<!DOCTYPE svg PUBLIC "-//W3C//DTD SVG 1.1//EN" "http://www.w3.org/Graphics/SVG/1.1/DTD/svg11.dtd">
<svg version="1.1" id="Layer_1" xmlns="http://www.w3.org/2000/svg" xmlns:xlink="http://www.w3.org/1999/xlink" x="0px" y="0px"
	 width="810px" height="810px" viewBox="0 0 810 810" enable-background="new 0 0 810 810" xml:space="preserve">
<path d="M405,0C181.325,0,0,181.325,0,405s181.325,405,405,405s405-181.325,405-405S628.675,0,405,0z M655.162,644.394
	c-18.159-12.851-30.728-16.456-30.728-16.456c-81.376-10.16-180.766,23.285-201.18,29.891c-0.597,6.234-5.751,23.561-5.751,23.561
	c-2.363,12.84-11.662,19.761-11.662,19.761c-6.701,7.024-25.962-5.76-25.962-5.76c-23.568-12.98-4.632-28.119-4.632-28.119
	c3.15-8.955-14.625-17.645-14.625-17.645c-25.435-11.966-19.913-29.059-19.913-29.059c11.09-25.757,33.899,2.152,33.899,2.152
	c16.453,12.901,32.534,9.235,32.534,9.235c61.298-3.015,220.753-29.784,220.753-29.784c17.021-2.768,22.29-14.886,22.29-14.886
	c13.826-5.072,17.105,12.218,17.105,12.218c4.545,9.367-1.876,16.099-1.876,16.099c-3.231,8.098,6.459,16.783,6.459,16.783
	c7.632,8.958,7.472,13.837,7.472,13.837C683.88,670.673,655.162,644.394,655.162,644.394z M687.66,479.406
	c0,0-23.462-8.522-51.807,0.741c0,0-266.615,85.93-359.617,126.321c0,0-28.148,7.688-35.226,32.397c0,0,3.265,44.391-46.449,26.2
	c0,0-30.321-13.375-8.973-43.503c0,0,14.491-21.386-1.767-28.21c0,0-47.262-1.891-29.95-31.722c0,0,11.31-26.58,30.209-24.225
	c0,0,22.541,0.41,42.723,11.722c0,0,30.092,13.871,39.091,19.754c38.285-7.786,226.329-44.396,331.316-112.341
	c0,0,13.56-12.553,23.181-38.42c0,0,7.448-46.93,32.755-18.985c0,0,6.597,4.821,7.193,19.29c0,0-2.75,15.651,12.509,21.552
	c0,0,18.112,2.257,23.727,14.953C696.575,454.927,714.365,474.737,687.66,479.406z M624.988,241.188
	c0,0-0.353,62.194-20.125,101.934l-20.255-1.914c0,0,22.063-53.336,2.114-118.825c0,0-14.932-24.148-42.928-28.404
	c0,0,14.248,95.194-15.311,147.909l-24.389-5.895c0,0,12.399-90.284-25.177-148.559c0,0-21.09-9.633-30.24-3.41
	c0,0,31.58,41.83,23.506,133.12l-30.459-6.928c0,0,5.275-66.95-46.929-112.228l-16.803,14.391
	c34.923,40.478,48.156,105.434-8.725,209.234c0,0-43.22-3.739-107.528,36.05c0,0,104.56-86.522,86.446-158.38
	c0,0-148.855,144.843-129.687,169.28c0,0-43.245-16.741-41.407-54.603c0,0-37.104-5.281-42.898-34.715
	c0,0,52.008-0.102,41.974-46.354c0,0-52.893-35.448-61.898-155.131c0,0,85.076,79.368,103.783,63.27c0,0,29.73-49.772,18.553-94.109
	c0,0,53.466,4.899,100.688,32.406l7.624-10.722c0,0-10.512-21.245,12.361-50.934c0,0,12.887,25.336,23.443,24.676
	c0,0,32.219-21.442,74.928-10.686c0,0,33.781-36.022,35.012-27.622c0,0-7.171,37.893,8.378,37.981c0,0,50.318,8.16,62.26,24.017
	c0,0,3.607-15.768,27.051-19.353c0,0-11.216,18.363,3.672,36.156c0,0,47.283,21.774,51.77,20.08c0,0,10.359-15.13,21.773-19.023
	c0,0-1.98,24.851,6.817,24.302c0,0,23.29,16.561,45.634-4.617C718.017,203.584,703.435,230.282,624.988,241.188z"/>
</svg>
