<?xml version="1.0" encoding="utf-8"?>
<!-- Generator: Adobe Illustrator 17.0.0, SVG Export Plug-In . SVG Version: 6.00 Build 0)  -->
<!DOCTYPE svg PUBLIC "-//W3C//DTD SVG 1.1//EN" "http://www.w3.org/Graphics/SVG/1.1/DTD/svg11.dtd">
<svg version="1.1" id="Layer_1" xmlns="http://www.w3.org/2000/svg" xmlns:xlink="http://www.w3.org/1999/xlink" x="0px" y="0px"
	 width="810px" height="810px" viewBox="0 0 810 810" enable-background="new 0 0 810 810" xml:space="preserve">
<g>
	<path fill="#000505" d="M405,0C181.325,0,0,181.325,0,405s181.325,405,405,405s405-181.325,405-405S628.675,0,405,0z M347,630
		c0,0,8,62-58,54c0,0-412-80-95-499c0,0,136-123,279-72c0,0,127,32,170,186c0,0,20,113-63,134c0,0-107,1-146,27
		C434,460,339,498,347,630z M531.102,710.573l-12.699-6.782c0,0,45.507-121.926,121.461-206.685l10.999,6.151
		C650.862,503.257,617.965,590.757,531.102,710.573z M658.739,497.134l-17.167-8.242c0,0-8.067-45.116,29-53.854
		c37.066-8.739,37.169-32.302,37.169-32.302S732.013,488.809,658.739,497.134z"/>
	<circle fill="#000505" cx="214" cy="573" r="41"/>
	<circle fill="#000505" cx="157" cy="432" r="41"/>
	<circle fill="#000505" cx="207" cy="289" r="41"/>
	<circle fill="#000505" cx="319" cy="187" r="41"/>
	<circle fill="#000505" cx="474" cy="198" r="41"/>
	<circle fill="#000505" cx="573" cy="301" r="41"/>
	<circle fill="#000505" cx="384" cy="432" r="24"/>
</g>
</svg>
