<?xml version="1.0" encoding="utf-8"?>
<!-- Generator: Adobe Illustrator 17.0.0, SVG Export Plug-In . SVG Version: 6.00 Build 0)  -->
<!DOCTYPE svg PUBLIC "-//W3C//DTD SVG 1.1//EN" "http://www.w3.org/Graphics/SVG/1.1/DTD/svg11.dtd">
<svg version="1.1" id="Layer_1" xmlns="http://www.w3.org/2000/svg" xmlns:xlink="http://www.w3.org/1999/xlink" x="0px" y="0px"
	 width="810px" height="810px" viewBox="0 0 810 810" enable-background="new 0 0 810 810" xml:space="preserve">
<g>
	<ellipse cx="361.286" cy="515.213" rx="11.047" ry="12.316"/>
	<path d="M405,0C181.325,0,0,181.325,0,405s181.325,405,405,405s405-181.325,405-405S628.675,0,405,0z M148.764,474.563
		l-34.193-53.574c-10.521-59.24,40.505-24.731,40.505-24.731l73.12-44.304l31.037,48.425l-75.75,47.91
		C190.322,496.715,148.764,474.563,148.764,474.563z M481.553,698.123c-30.614,0-55.432-24.294-55.432-54.275
		c0-8.665,2.084-16.84,5.771-24.107L367.073,557h-9.995l-60.596,59.74c7.309,9.197,11.674,20.745,11.674,33.302
		c0,29.981-24.818,54.284-55.432,54.284c-30.614,0-55.432-24.305-55.432-54.286s24.818-54.286,55.432-54.286
		c3.87,0,7.548,0.391,11.195,1.13L329,532.261V459h68.057l1.052,77.038l58.309,59.285c7.547-3.768,16.083-5.828,25.135-5.828
		c30.614,0,55.432,24.343,55.432,54.324C536.985,673.799,512.168,698.123,481.553,698.123z M304,443.653v-36.576l117-58.728v94.274
		c0,0-0.797,12.377-12.896,12.377h-99.422C308.682,455,304,453.956,304,443.653z M594.324,254.074L277.119,413.259l-48.922-81.911
		l291.955-194.731c3.156-51.001,44.188-24.728,44.188-24.728l71.016,119.002C635.356,278.802,594.324,254.074,594.324,254.074z"/>
</g>
</svg>
