<?xml version="1.0" encoding="utf-8"?>
<!-- Generator: Adobe Illustrator 17.0.0, SVG Export Plug-In . SVG Version: 6.00 Build 0)  -->
<!DOCTYPE svg PUBLIC "-//W3C//DTD SVG 1.1//EN" "http://www.w3.org/Graphics/SVG/1.1/DTD/svg11.dtd">
<svg version="1.1" id="Layer_1" xmlns="http://www.w3.org/2000/svg" xmlns:xlink="http://www.w3.org/1999/xlink" x="0px" y="0px"
	 width="810px" height="810px" viewBox="0 0 810 810" enable-background="new 0 0 810 810" xml:space="preserve">
<g>
	<path fill="#000202" d="M405,0C181.325,0,0,181.325,0,405s181.325,405,405,405s405-181.325,405-405S628.675,0,405,0z
		 M589.186,431.777c0,0-35.849,19.483-88.844,24.159c0,0-57.671,60.009-102.093,68.581c0,0-11.103,1.988-28.682,3.155
		l-32.879,75.689l-13.492-0.426l1.801-0.046l21.834,0.674c-6.807,0.235-28.941-1.249-2.503-0.077l7.997,0.247
		c-15.322,0.53-26.658,2.797-34.824,9.33l-0.002-6.396L283.25,603l39.946-0.065l42.172-75.008
		c-72.927,4.018-240.477-8.031-222.739-206.815c0,0,6.235-45.201-64.295-59.229c0,0,1.169-5.845,45.591-10.521
		c0,0,32.732-25.718,54.943-22.211c0,0,44.812-6.235,92.351,47.539c0,0,13.249,17.145,86.506,28.835
		c0,0,82.609,31.953,170.674,54.553c0,0,96.637-0.779,97.417,16.366c0,0-21.042,7.793-17.925,17.535
		c0,0,150.411-8.183,158.204,5.066c0,0-0.779,29.615,8.573,32.732C774.667,431.777,674.133,427.101,589.186,431.777z"/>
	<path fill="#000202" d="M365.368,528c1.438,0,2.838-0.164,4.2-0.255L367.75,528H365.368z"/>
</g>
</svg>
