<?xml version="1.0" encoding="utf-8"?>
<!-- Generator: Adobe Illustrator 17.0.0, SVG Export Plug-In . SVG Version: 6.00 Build 0)  -->
<!DOCTYPE svg PUBLIC "-//W3C//DTD SVG 1.1//EN" "http://www.w3.org/Graphics/SVG/1.1/DTD/svg11.dtd">
<svg version="1.1" id="Layer_1" xmlns="http://www.w3.org/2000/svg" xmlns:xlink="http://www.w3.org/1999/xlink" x="0px" y="0px"
	 width="810px" height="810px" viewBox="0 0 810 810" enable-background="new 0 0 810 810" xml:space="preserve">
<path d="M405,0C181.325,0,0,181.325,0,405s181.325,405,405,405s405-181.325,405-405S628.675,0,405,0z M92.895,627.962
	c0,0,100.031-68.478,257.491-86.238c0.404-16.036,0.732-39.655,0.199-65.63c-6.403-5.325-4.651-3.496-4.651-3.496
	c-22.979-18.423-39.49-36.116-51.364-51.937c-0.052,0.125-0.082,0.195-0.082,0.195s-0.069-0.2-0.194-0.56
	c-28.511-38.148-29.999-65.31-29.999-65.31c-4.851-2.26-5.891,1.667-5.891,1.667c1.016,28.305,24.409,59.666,24.409,59.666
	c-32.519,9.698-45.237-35.686-45.237-35.686c-1.625-31.955-23.836-76.66-23.836-76.66c103.314,9.03,91.723,81.293,84.011,107.463
	c-0.345,1.172-0.682,2.246-1.001,3.223c13.123,19.941,38.809,41.953,53.655,53.817c-1.131-42.231-4.662-89.199-13.801-119.49
	c-1.626-0.587-3.374-1.239-5.241-1.965C283.978,328.591,164.727,264.664,275,116c0,0,38.667,79,83.333,116.333c0,0,51,67-2,100
	c0,0-17.791-65.909-57.863-98.409c0,0-6.971-2.924-9.471,6.076c0,0,37.839,31.877,59.415,112.124C348.791,352.687,349,353,349,353
	s-0.137-0.036-0.382-0.104C357.507,386.245,363.584,427.879,363,479c0,0-0.445,32.492-0.244,61.471
	c43.513-3.901,90.657-2.8,140.292,6.202c-7.878-66.68-11.386-187.31-11.386-187.31c-5.333-90.639,40.662-163.692,40.662-163.692
	c-4-7.333-12.01-0.661-12.01-0.661c-48,71.333-43.354,163.344-43.354,163.344c12,8.667-125.375-65.313-46.708-137.313
	S481.5,63.083,481.5,63.083C786,268.5,509,366.583,509,366.583c-4.105,29.764,5.812,136.012,10.597,183.359
	c65.597,14.103,128.908,30.613,200.07,79.391C727.5,640.5,394.767,983.749,92.895,627.962z"/>
<path d="M362,559c-0.122-5.731-0.199-12.042-0.244-18.529c-4.157,0.373-8.281,0.792-12.371,1.253
	c-0.333,13.21-0.719,21.276-0.719,21.276L362,559z"/>
<path d="M521,573c0,0-0.972-8.896-2.403-23.058c-5.547-1.193-11.062-2.274-16.549-3.269C503.26,556.94,504.577,565.928,506,573H521z
	"/>
<path d="M360.732,477.217c0,0-4.526-3.306-11.327-8.74c0.069,2.558,0.128,5.098,0.18,7.617c1.577,1.311,3.64,3.05,6.355,5.364
	L360.732,477.217z"/>
</svg>
