<?xml version="1.0" encoding="utf-8"?>
<!-- Generator: Adobe Illustrator 17.0.0, SVG Export Plug-In . SVG Version: 6.00 Build 0)  -->
<!DOCTYPE svg PUBLIC "-//W3C//DTD SVG 1.1//EN" "http://www.w3.org/Graphics/SVG/1.1/DTD/svg11.dtd">
<svg version="1.1" id="Layer_1" xmlns="http://www.w3.org/2000/svg" xmlns:xlink="http://www.w3.org/1999/xlink" x="0px" y="0px"
	 width="810px" height="810px" viewBox="0 0 810 810" enable-background="new 0 0 810 810" xml:space="preserve">
<path d="M405,0C181.325,0,0,181.325,0,405s181.325,405,405,405s405-181.325,405-405S628.675,0,405,0z M621.247,476.521
	c152.378,200.994-76.424,233.714-76.424,233.714C453.396,709.3,406.52,607.401,406.52,607.401S358.869,709.3,266.318,710.235
	c0,0-231.714-32.72-77.463-233.714c0,0-117.857-9.349-120.661-136.489c0,0-11.751-121.531,41.302-156.121
	c0,0,115.943-55.156,297.023,208.472c177.847-263.629,293.221-208.472,293.221-208.472c52.409,34.59,40.752,156.121,40.752,156.121
	C737.722,467.173,621.247,476.521,621.247,476.521z"/>
</svg>
