<?xml version="1.0" encoding="utf-8"?>
<!-- Generator: Adobe Illustrator 17.0.0, SVG Export Plug-In . SVG Version: 6.00 Build 0)  -->
<!DOCTYPE svg PUBLIC "-//W3C//DTD SVG 1.1//EN" "http://www.w3.org/Graphics/SVG/1.1/DTD/svg11.dtd">
<svg version="1.1" id="Layer_1" xmlns="http://www.w3.org/2000/svg" xmlns:xlink="http://www.w3.org/1999/xlink" x="0px" y="0px"
	 width="810px" height="810px" viewBox="0 0 810 810" enable-background="new 0 0 810 810" xml:space="preserve">
<g>
	<path d="M405,0C181.325,0,0,181.325,0,405s181.325,405,405,405s405-181.325,405-405S628.675,0,405,0z M266.597,139.605
		c52.188,0,94.495,42.643,94.495,95.245s-42.307,95.245-94.495,95.245s-94.495-42.643-94.495-95.245
		S214.409,139.605,266.597,139.605z M418.09,669.079l-70.497-127.494l-49.497,124.494c0,0-34.498,31.498-44.998-19.499
		l56.997-125.994L285.874,423H168.238c-38.578-21,0-31,0-31h109.941l-11.582-46.662c0,0,25.499,7.256,55.497-15.243
		c0,0,2.159,14.698,8.331,39.357l86.164-73.855c0,0,38.998-11.999,22.499,26.999l-98.213,84.182
		c19.031,61.649,55.505,151.926,122.212,238.302C463.087,645.08,472.087,700.577,418.09,669.079z M597,353h-0.05
		c-1.574,9.136-10.063,17.761-21.948,21.159c-15.222,4.352-30.249-1.518-33.564-13.112s6.338-24.52,21.561-28.872
		c8.813-2.52,17.555-1.607,24.002,1.852v-75.928l0,0V242l0,0v-21.449l112-26.948V212l0,0v17.25V228v91.288
		c1.749,11.044-7.647,22.768-21.998,26.871c-15.222,4.352-30.249-1.518-33.564-13.112s6.338-24.52,21.561-28.872
		c8.813-2.52,17.555-1.607,24.002,1.852v-75.339l-92,24.724v91.876c0.282,1.782,0.272,3.581,0,5.364V353z M683.728,449.472
		c-8.245,1.452-14.298-1.093-18.728-6.006v69.821c0.282,1.782,0.272,3.581,0,5.364V519h-0.05
		c-1.574,9.136-10.063,17.761-21.948,21.159c-15.222,4.352-30.249-1.518-33.564-13.112s6.338-24.52,21.561-28.872
		c8.813-2.52,17.555-1.607,24.002,1.852v-82.634c-3.152-21.138-0.22-44.798-0.22-44.798s0.739,29.705,35.456,41.523
		s45.272,41.995,43.056,49.382C733.292,463.5,723.061,442.547,683.728,449.472z"/>
	<path d="M278.179,392"/>
	<line x1="285.874" y1="423" x2="285.874" y2="423"/>
</g>
</svg>
