<?xml version="1.0" encoding="utf-8"?>
<!-- Generator: Adobe Illustrator 17.0.0, SVG Export Plug-In . SVG Version: 6.00 Build 0)  -->
<!DOCTYPE svg PUBLIC "-//W3C//DTD SVG 1.1//EN" "http://www.w3.org/Graphics/SVG/1.1/DTD/svg11.dtd">
<svg version="1.1" id="Layer_1" xmlns="http://www.w3.org/2000/svg" xmlns:xlink="http://www.w3.org/1999/xlink" x="0px" y="0px"
	 width="810px" height="810px" viewBox="0 0 810 810" enable-background="new 0 0 810 810" xml:space="preserve">
<g>
	<path fill="#000505" d="M405,0C181.325,0,0,181.325,0,405s181.325,405,405,405s405-181.325,405-405S628.675,0,405,0z M502,643.673
		c0,5.703-4.624,10.327-10.327,10.327c5.703,0,10.327,4.623,10.327,10.327v6.346c0,5.703-4.624,10.327-10.327,10.327
		c5.703,0,10.327,4.623,10.327,10.327v6.346c0,5.703-4.624,10.327-10.327,10.327h-27.822c1.864,1.963,3.148,5.161,3.148,8.649v6.024
		c0,5.703-3.428,10.327-7.222,10.327H341.85c-3.794,0-6.85-4.624-6.85-10.327v-6.024c0-3.488,1.146-6.686,2.902-8.649h-23.575
		c-5.703,0-10.327-4.624-10.327-10.327v-6.346c0-5.703,4.623-10.327,10.327-10.327c-5.703,0-10.327-4.624-10.327-10.327v-6.346
		c0-5.703,4.623-10.327,10.327-10.327c-5.703,0-10.327-4.624-10.327-10.327v-6.346c0-5.703,4.623-10.327,10.327-10.327h177.346
		c5.703,0,10.327,4.623,10.327,10.327V643.673z M561.703,435.733C488.914,521.763,495.738,596,495.738,596H311.596
		c0,0,0-89.714-63.119-162.535s-42.76-316.238,147.175-319.978S634.493,349.703,561.703,435.733z"/>
	<path fill="#000505" d="M459.778,706H341.85c-1.474,0-2.833,0.753-3.948,2h125.95C462.668,706.753,461.252,706,459.778,706z"/>
	<path fill="#000505" d="M448.929,207.576c-0.412-0.398-0.693-0.576-0.693-0.576S448.481,207.198,448.929,207.576z"/>
	<path fill="#000505" d="M448.929,207.576c3.79,3.667,18.784,26.286-69.809,106.13c-98.218,88.518-9.701,162.484-9.701,162.484
		C614.665,353.567,460.628,217.452,448.929,207.576z M376.892,457c-1.46-2.149-1.981-5.256-1.752-9.083
		c-3.102-21.659-4.505-77.01,53.367-109.917c0,0-51.502,78.799-53.367,109.917C375.958,453.624,376.892,457,376.892,457z"/>
</g>
</svg>
