<?xml version="1.0" encoding="utf-8"?>
<!-- Generator: Adobe Illustrator 17.0.0, SVG Export Plug-In . SVG Version: 6.00 Build 0)  -->
<!DOCTYPE svg PUBLIC "-//W3C//DTD SVG 1.1//EN" "http://www.w3.org/Graphics/SVG/1.1/DTD/svg11.dtd">
<svg version="1.1" id="Layer_1" xmlns="http://www.w3.org/2000/svg" xmlns:xlink="http://www.w3.org/1999/xlink" x="0px" y="0px"
	 width="810px" height="810px" viewBox="0 0 810 810" enable-background="new 0 0 810 810" xml:space="preserve">
<g>
	<path fill="#000202" d="M700.827,128.398c0.34,77.765-2.953,381.541-78.826,190.691l-12,8.191l10.666-54.514l26.665,43.552
		l-10.697-1.019c8.139,26.932,51.565,154.472,48.037-203.229C611.97,42.64,513.465,0,405,0C181.325,0,0,181.325,0,405
		s181.325,405,405,405s405-181.325,405-405C810,298.052,768.543,200.79,700.827,128.398z M181.277,443.686
		c-48.728,44.073-108.775,57.31-108.775,57.31c85.832-85.778-13.499-143.581-13.499-143.581
		c65.986-5.076,105.726,31.253,124.05,54.313c56.13-58.999,250.747-228.287,445.365,18.091
		C628.418,429.819,434.487,681.669,181.277,443.686z"/>
	<path fill="#000202" d="M694.327,121.62c2.19,2.237,4.361,4.492,6.5,6.778C698.417,125.853,695.724,123.062,694.327,121.62z"/>
	<path fill="#000202" d="M693.368,120.631l-0.149-0.147c0.371,0.376,0.738,0.758,1.108,1.135
		C693.733,121.005,693.368,120.631,693.368,120.631z"/>
	<path fill="#000202" d="M684.671,112.069l8.549,8.415C690.411,117.638,687.563,114.831,684.671,112.069z"/>
	<path fill="#000202" d="M684.671,112.069C684.67,111.979,684.669,111.89,684.671,112.069
		C684.672,112.249,684.671,112.159,684.671,112.069z"/>
	<ellipse fill="#000202" cx="555.196" cy="406.503" rx="12.681" ry="12.272"/>
</g>
</svg>
