<?xml version="1.0" encoding="utf-8"?>
<!-- Generator: Adobe Illustrator 17.0.0, SVG Export Plug-In . SVG Version: 6.00 Build 0)  -->
<!DOCTYPE svg PUBLIC "-//W3C//DTD SVG 1.1//EN" "http://www.w3.org/Graphics/SVG/1.1/DTD/svg11.dtd">
<svg version="1.1" id="Layer_1" xmlns="http://www.w3.org/2000/svg" xmlns:xlink="http://www.w3.org/1999/xlink" x="0px" y="0px"
	 width="810px" height="810px" viewBox="555 195 810 810" enable-background="new 555 195 810 810" xml:space="preserve">
<path d="M960,195c-223.675,0-405,181.325-405,405s181.325,405,405,405s405-181.325,405-405S1183.675,195,960,195z M785.482,789.179
	c-33.672,15.7-39.783-20.946-39.783-20.946L930.5,420.5c-90.805-61.18-110-61-110-61l-67-26.5
	c113.634-43.132,337.261,107.459,337.261,107.459l-33.072,62.816l-95.271-50.159L785.482,789.179z M1082,584.328v26.269
	l-27.427,28.896L1009.994,650l-12.793-59.104l55.14-28.896L1082,584.328z M1077.598,770.239l-47,14.761H989l24.423-53.675
	l53.541-17.444l24.086,29.521L1077.598,770.239z M1176.64,886.627L1128.604,896L1104,852.065l57.995-44.235l39.249,38.963
	L1176.64,886.627z M1201.41,710.052L1161.25,718l-20.917-29.702l31.793-46.853L1224,669.892L1201.41,710.052z M1237.073,620
	L1167,561.855L1210.236,538l47.709,11.927L1237.073,620z"/>
</svg>
