<?xml version="1.0" encoding="utf-8"?>
<!-- Generator: Adobe Illustrator 17.0.0, SVG Export Plug-In . SVG Version: 6.00 Build 0)  -->
<!DOCTYPE svg PUBLIC "-//W3C//DTD SVG 1.1//EN" "http://www.w3.org/Graphics/SVG/1.1/DTD/svg11.dtd">
<svg version="1.1" id="Layer_1" xmlns="http://www.w3.org/2000/svg" xmlns:xlink="http://www.w3.org/1999/xlink" x="0px" y="0px"
	 width="810px" height="810px" viewBox="0 0 810 810" enable-background="new 0 0 810 810" xml:space="preserve">
<g>
	<path fill="#000202" d="M405,0C181.325,0,0,181.325,0,405s181.325,405,405,405s405-181.325,405-405S628.675,0,405,0z M105.5,637
		c0,0,95.427-45.908,250.934-58.534c-9.777-89.484-0.271-170.067,7.302-214.444c-29.081-0.734-60.445-2.424-93.736-5.467
		c0,0-103.908-16.47-96.001-33.015C178.998,315.081,394-165.334,647,309.833c0,0,29.252,32.681-64.748,40.681
		c0,0-50.429,9.997-134.477,13.068c-2.785,55.237-2.322,150.568-1.628,212.028c90.695,1.771,177.48,13.26,269.846,58.186
		C740,601,439.5,989,105.5,637z"/>
	<path fill="#000202" d="M626.267,324c0-11.598-95.199-21-212.633-21S201,312.402,201,324c0,10.028,71.178,18.413,166.358,20.5
		C369.503,333.87,371,328,371,328c37-19,83-8,83-8c-2.152,0.828-3.784,9.996-5.008,24.709
		C549.594,343.046,626.267,334.408,626.267,324z"/>
	<path fill="#000202" d="M447.278,568.094"/>
	<ellipse fill="#000202" cx="355" cy="154.5" rx="22" ry="10.5"/>
	<ellipse fill="#000202" cx="452" cy="199" rx="21" ry="15"/>
	<ellipse fill="#000202" cx="466.5" cy="148" rx="19.5" ry="11"/>
	<ellipse fill="#000202" cx="367.634" cy="206.5" rx="15.366" ry="7.5"/>
	<ellipse fill="#000202" cx="295" cy="239.5" rx="22" ry="13.5"/>
	<ellipse fill="#000202" cx="548.5" cy="229.75" rx="18.5" ry="23.25"/>
	<ellipse fill="#000202" cx="414.5" cy="251.75" rx="16.5" ry="12.25"/>
	<ellipse fill="#000202" cx="551.5" cy="281.5" rx="30.5" ry="11.5"/>
	<ellipse fill="#000202" cx="229" cy="295" rx="17" ry="8"/>
	<ellipse fill="#000202" cx="347.317" cy="282.5" rx="20.317" ry="12.5"/>
</g>
</svg>
