<?xml version="1.0" encoding="utf-8"?>
<!-- Generator: Adobe Illustrator 17.0.0, SVG Export Plug-In . SVG Version: 6.00 Build 0)  -->
<!DOCTYPE svg PUBLIC "-//W3C//DTD SVG 1.1//EN" "http://www.w3.org/Graphics/SVG/1.1/DTD/svg11.dtd">
<svg version="1.1" id="Layer_1" xmlns="http://www.w3.org/2000/svg" xmlns:xlink="http://www.w3.org/1999/xlink" x="0px" y="0px"
	 width="810px" height="810px" viewBox="0 0 810 810" enable-background="new 0 0 810 810" xml:space="preserve">
<g>
	<path fill="#000202" d="M405,0C181.325,0,0,181.325,0,405s181.325,405,405,405s405-181.325,405-405S628.675,0,405,0z
		 M666.174,188.331c3.26,3.12,3.375,8.293,0.255,11.553l-0.184,0.192c-3.12,3.261-8.292,3.375-11.553,0.255l-4.501-4.307
		l-3.778,4.61l5.642,5.399c3.513,3.362,3.833,8.731,0.713,11.991l-0.184,0.192c-3.12,3.261-8.498,3.178-12.011-0.184l-4.717-4.514
		l-4.844,5.912l5.606,5.364c3.76,3.598,4.278,9.157,1.158,12.418l-0.184,0.192c-3.12,3.261-8.697,2.987-12.457-0.61l-4.681-4.479
		l-6.142,7.496l-24.051-2.514L431.72,404.263c15.608,14.341,21.427,30.719,21.427,30.719c35.072,70.197-32.723,98.075-32.723,98.075
		c-47.378,8.587-53.51,48.358-53.51,48.358c-20.507,95.15-45.358,108.607-45.358,108.607c-75.331,72.274-186.068-25-185.245-25.044
		l0.384-0.388c-13.914-13.285-100.14-104.759-34.537-174.736c0,0,12.654-24.518,110.724-49.035c0,0,41.126-7.909,47.453-53.78
		c0,0,25.308-66.435,100.443-36.381c0,0,17.4,4.745,33.217,18.981l165.295-160.55l-3.954-22.936l8.992-7.545l-4.644-4.444
		c-3.76-3.598-4.278-9.157-1.158-12.418l0.184-0.192c3.12-3.261,8.697-2.987,12.457,0.61l5.961,5.704l5.872-4.927l-3.594-3.439
		c-3.514-3.362-3.833-8.731-0.713-11.991l0.184-0.192c3.12-3.261,8.497-3.178,12.011,0.184l4.911,4.699l4.58-3.843l-2.45-2.344
		c-3.261-3.12-3.375-8.292-0.255-11.553l0.184-0.192c3.12-3.261,8.292-3.375,11.553-0.255l3.767,3.605l10.965-9.2l37.687,6.153
		l0.469-0.474l0.133,0.572l0.464,0.076l-0.361,0.366l8.314,35.701l-10.1,12.326L666.174,188.331z"/>
	<circle fill="#000202" cx="305.689" cy="489.71" r="43.026"/>
</g>
</svg>
