<?xml version="1.0" encoding="utf-8"?>
<!-- Generator: Adobe Illustrator 17.0.0, SVG Export Plug-In . SVG Version: 6.00 Build 0)  -->
<!DOCTYPE svg PUBLIC "-//W3C//DTD SVG 1.1//EN" "http://www.w3.org/Graphics/SVG/1.1/DTD/svg11.dtd">
<svg version="1.1" id="Layer_1" xmlns="http://www.w3.org/2000/svg" xmlns:xlink="http://www.w3.org/1999/xlink" x="0px" y="0px"
	 width="810px" height="810px" viewBox="0 0 810 810" enable-background="new 0 0 810 810" xml:space="preserve">
<g>
	<ellipse cx="217.841" cy="559.417" rx="85.677" ry="80.765"/>
	<path d="M405,0C181.325,0,0,181.325,0,405s181.325,405,405,405s405-181.325,405-405S628.675,0,405,0z M537.673,158.34
		c0,0,75.146-8.202,81.419,68.439c0,0-62.328-53.304-148.564,8.274C470.528,235.052,474.304,164.21,537.673,158.34z
		 M265.318,152.315c0,0,75.308,6.549,66.577,82.948c0,0-50.789-64.394-147.342-20.737
		C184.552,214.526,202.015,145.767,265.318,152.315z M538.174,665.285c0,0-86.223-37.108-84.04-130.971
		c0,0,1.58-41.077,23.472-69.784c-25.176,21.497-83.541,54.083-160.992-12.073c0,0,86.223,83.955,3.274,177.902
		c0,0-78.583,91.68-192.091,8.731c0,0-59.953-51.297-41.982-133.154l90.005-246.662c0,0,32.079-32.266,66.577-27.286
		c0,0,46.931-10.914,94.954,57.846c0,0,17.463,24.011,31.651,0c0,0,44.748-24.011,77.491,2.183c0,0,10.914,17.463,27.286-4.366
		c0,0,49.114-63.479,86.223-56.296c0,0,53.48-1.901,72.034,34.292l92.89,251.203C724.926,516.851,742.27,704.576,538.174,665.285z"
		/>
	<ellipse cx="590.017" cy="552.868" rx="85.677" ry="80.765"/>
</g>
</svg>
