<?xml version="1.0" encoding="utf-8"?>
<!-- Generator: Adobe Illustrator 17.0.0, SVG Export Plug-In . SVG Version: 6.00 Build 0)  -->
<!DOCTYPE svg PUBLIC "-//W3C//DTD SVG 1.1//EN" "http://www.w3.org/Graphics/SVG/1.1/DTD/svg11.dtd">
<svg version="1.1" xmlns="http://www.w3.org/2000/svg" xmlns:xlink="http://www.w3.org/1999/xlink" x="0px" y="0px" width="1920px"
	 height="1200px" viewBox="0 0 1920 1200" enable-background="new 0 0 1920 1200" xml:space="preserve">
<g id="Layer_7">
	<circle fill="none" stroke="#000000" stroke-width="35" stroke-miterlimit="10" cx="962" cy="573" r="405"/>
</g>
<g id="Layer_2" display="none">
	<path display="inline" d="M1251,747c0,6.627,0.047,30-36,30H705c-6.651,0-30,0-30-28V423c0-34,24.349-34,31-34
		c133.49,0,510,0,510,0c6.651,0,36.391,0,35,33V747z"/>
	<path display="inline" d="M1139,487H935"/>
	<path display="inline" fill="#000202" d="M935,399c-6.627,0-12-2.775-12-6.198l-8-3.302c0-3.423,22-83.5,48.024-83.5H1117
		c27,0,45,80.077,45,83.5l-11,3.552c0,3.423-5.373,6.073-12,6.073"/>
	<circle display="inline" fill="none" stroke="#F7F9F9" stroke-width="40" stroke-miterlimit="10" cx="994" cy="576" r="101"/>
	<circle display="inline" fill="#FCFCFC" cx="1149.5" cy="461.5" r="25.5"/>
</g>
<g id="Layer_3" display="none">
	<path display="inline" d="M640,809c0,0,303-231,640,0C1280,809,976,1174,640,809z"/>
	<path display="inline" d="M903,521c0,0-7.012-1.845-17.638-5.978C837.978,496.591,718.727,432.664,829,284
		c0,0,38.667,79,83.333,116.333c0,0,51,67-2,100c0,0-17.791-65.909-57.863-98.409c0,0-6.971-2.924-9.471,6.076c0,0,76,64,74,239
		c0,0-0.667,48.667,0,80l-13.333,4c0,0,8.667-181.333-20.667-232.667S903,521,903,521z"/>
	<path display="inline" d="M1035.5,231.083c0,0,27.417,85.958-51.25,157.958s58.708,145.979,46.708,137.313
		c0,0-4.646-92.01,43.354-163.344c0,0,8.01-6.672,12.01,0.661c0,0-45.995,73.052-40.661,163.692c0,0,4.672,160.637,15.339,213.637
		h15c0,0-18.333-167.75-13-206.417C1063,534.583,1340,436.5,1035.5,231.083z"/>
	<path display="inline" d="M848.487,588.856c0,0,1.534-3.551,3.264-9.419c7.712-26.17,19.303-98.433-84.011-107.463
		c0,0,22.211,44.704,23.836,76.66c0,0,12.718,45.384,45.237,35.686c0,0-23.393-31.361-24.409-59.666c0,0,1.04-3.927,5.891-1.667
		c0,0,2.978,54.546,81.639,117.612c0,0-2.733-2.853,11.006,8.859l4.792-4.241c0,0-57.607-42.067-70.624-72.842
		C832.089,541.6,848.487,588.856,848.487,588.856z"/>
</g>
<g id="Layer_4" display="none">
	<path display="inline" fill="#000202" d="M635.333,429.883c0,0,1.169-5.845,45.591-10.521c0,0,32.732-25.718,54.943-22.211
		c0,0,44.812-6.235,92.351,47.539c0,0,13.249,17.145,86.506,28.835c0,0,82.609,31.953,170.674,54.553
		c0,0,96.637-0.779,97.417,16.366c0,0-21.042,7.793-17.925,17.535c0,0,150.411-8.183,158.204,5.066c0,0-0.779,29.615,8.573,32.732
		c0,0-100.534-4.676-185.481,0c0,0-35.849,19.483-88.844,24.159c0,0-57.671,60.009-102.092,68.581
		c0,0-278.222,49.877-255.621-203.406C699.628,489.112,705.863,443.91,635.333,429.883z"/>
	<path display="inline" fill="none" stroke="#000202" stroke-width="8" stroke-miterlimit="10" d="M931.965,678.857l-29.374,91.509
		L838.281,772h99.365c0,0-49.093-2.179-63.144,9.062"/>
	
		<line display="inline" fill="none" stroke="#000202" stroke-width="6" stroke-miterlimit="10" x1="911.678" y1="689.688" x2="888.927" y2="769.25"/>
</g>
<g id="Layer_5" display="none">
	<path display="inline" fill="#000202" d="M893.232,567.002c0,0-71.292-83.207-131.013-173.094c0,0-58.383-126.23,54.095-40.944
		c0,0,88.979,92.681,137.699,168.034c0,0,101.851,134.896,143.328,203.26c0,0,52.827-8.923,56.804-9.161
		c0,0,20.217,24.88,24.48,39.666l-82.94,10.124l-30.7,75.889c0,0-23.502-18.237-35.052-31.665l21.878-49.813
		C1051.812,759.297,951.909,639.792,893.232,567.002z"/>
	<polygon display="inline" fill="#000202" points="753.557,791.383 854.542,466.573 1186.256,431.248 1240.491,501.088 
		940.772,572.321 819.467,850.115 	"/>
</g>
<g id="Layer_6" display="none">
	<path display="inline" fill="#000202" d="M742.225,810.984c0,0.709-96.38-90.002-32.599-158.034c0,0,11.339-21.969,99.214-43.938
		c0,0,36.851-7.087,42.52-48.19c0,0,22.678-59.529,90.002-32.599c0,0,15.591,4.252,29.764,17.008L1119.24,401.37l-3.543-20.552
		l61.655-51.733l34.725,5.669L742.225,810.984z"/>
	<path display="inline" fill="#000202" d="M740.229,809.869c-0.737,0.039,98.489,87.201,165.989,22.44
		c0,0,22.268-12.059,40.643-97.318c0,0,5.495-35.636,47.948-43.331c0,0,60.747-24.98,29.321-87.88c0,0-5.214-14.676-19.199-27.526
		l142.061-149.609l21.551,2.253l50.659-61.827l-7.661-32.898L740.229,809.869z"/>
	<path display="inline" fill="#000202" d="M1215.077,393.294c-2.796,2.922-7.43,3.024-10.352,0.228l-50.863-48.669
		c-2.922-2.796-3.024-7.43-0.228-10.352l0.165-0.172c2.796-2.922,7.43-3.024,10.352-0.228l50.863,48.669
		c2.922,2.796,3.024,7.43,0.228,10.352L1215.077,393.294z"/>
	<path display="inline" fill="#000202" d="M1202.836,409.548c-2.796,2.922-7.614,2.848-10.763-0.165l-54.81-52.446
		c-3.148-3.013-3.434-7.823-0.639-10.745l0.165-0.172c2.796-2.922,7.614-2.848,10.763,0.165l54.809,52.446
		c3.148,3.013,3.434,7.823,0.639,10.745L1202.836,409.548z"/>
	<path display="inline" fill="#000202" d="M1189.403,426.743c-2.796,2.922-7.793,2.677-11.162-0.547l-58.649-56.12
		c-3.369-3.224-3.834-8.205-1.038-11.127l0.165-0.172c2.796-2.922,7.793-2.677,11.162,0.547l58.649,56.12
		c3.369,3.224,3.833,8.205,1.038,11.127L1189.403,426.743z"/>
	
		<circle display="inline" fill="none" stroke="#F9F9F9" stroke-width="8" stroke-miterlimit="10" cx="892.001" cy="652.819" r="38.554"/>
</g>
<g id="Layer_1" display="none">
	<path display="inline" d="M641,807c0,0,349-143,643,0C1284,807,973,1165,641,807z"/>
	<path display="inline" d="M730.999,493.54C735.998,483.081,951,2.666,1204,477.833c0,0,29.252,32.681-64.748,40.681
		c0,0-126.252,25.042-312.252,8.042C827,526.556,723.092,510.085,730.999,493.54z"/>
	<ellipse display="inline" fill="#FCFCFC" cx="970.633" cy="492" rx="212.633" ry="21"/>
	<path display="inline" d="M928,496c0,0-37,145-7,301l83,5c0,0-6-309,7-314C1011,488,965,477,928,496z"/>
	<ellipse display="inline" fill="#F7F9F9" cx="912" cy="322.5" rx="22" ry="10.5"/>
	<ellipse display="inline" fill="#F7F9F9" cx="1009" cy="367" rx="21" ry="15"/>
	<ellipse display="inline" fill="#F7F9F9" cx="1023.5" cy="316" rx="19.5" ry="11"/>
	<ellipse display="inline" fill="#F7F9F9" cx="924.634" cy="374.5" rx="15.366" ry="7.5"/>
	<ellipse display="inline" fill="#F7F9F9" cx="852" cy="407.5" rx="22" ry="13.5"/>
	<ellipse display="inline" fill="#F7F9F9" cx="1105.5" cy="397.75" rx="18.5" ry="23.25"/>
	<ellipse display="inline" fill="#F7F9F9" cx="971.5" cy="419.75" rx="16.5" ry="12.25"/>
	<ellipse display="inline" fill="#F7F9F9" cx="1108.5" cy="449.5" rx="30.5" ry="11.5"/>
	<ellipse display="inline" fill="#F7F9F9" cx="786" cy="463" rx="17" ry="8"/>
	<ellipse display="inline" fill="#F7F9F9" cx="904.317" cy="450.5" rx="20.317" ry="12.5"/>
</g>
<g id="Layer_8" display="none">
	<path display="inline" d="M687.433,340.03c0,0,107.567-51.172,275.567,193.413v199.484c0,0-44.209,94.538-130.074,95.406
		c0,0-214.975-30.356-71.867-216.831c0,0-109.343-8.673-111.945-126.629C649.114,484.873,638.212,372.121,687.433,340.03z"/>
	<path display="inline" d="M1235.04,340.03c0,0-107.04-51.172-272.04,193.413v199.484c0,0,43.49,94.538,128.313,95.406
		c0,0,212.275-30.356,70.904-216.831c0,0,108.061-8.673,110.632-126.629C1272.848,484.873,1283.663,372.121,1235.04,340.03z"/>
</g>
<g id="Layer_9" display="none">
	<path display="inline" fill="#000202" d="M675.407,587.668l176.758-70.617l-6.186-18.917l259.797-102.132l27.769,65.564
		c0,0-109.33,43.526-164.503,66.365c0,0-42.88-31.062-54.228,19.057l-39.717,17.022l-6.62-12.293l-193.07,77.543l-22.538-45.391
		l-9.456,3.783c0-5.674-18.913-30.261-18.913-30.261l40.663-16.076l12.293,28.369l-11.348,7.565L675.407,587.668z"/>
	<path display="inline" fill="#000505" d="M1120.02,379.609l37.826,85.108l91.728-37.826c0,0,18.913-56.739-37.826-88.891
		L1120.02,379.609z"/>
	<ellipse display="inline" fill="#000202" cx="946.021" cy="549.825" rx="20.804" ry="21.75"/>
	
		<rect x="878.88" y="576.304" transform="matrix(-0.9681 -0.2505 0.2505 -0.9681 1562.673 1621.9519)" display="inline" width="11.348" height="270.456"/>
	<rect x="947" y="591" display="inline" width="11" height="271"/>
	
		<rect x="1015.053" y="563.064" transform="matrix(-0.9578 0.2873 -0.2873 -0.9578 2199.05 1073.8586)" display="inline" width="11.348" height="270.456"/>
</g>
<g id="Layer_10" display="none">
	<path display="inline" d="M723.995,597.819c0,0,230.711-292.071,461.423,0C1185.418,597.819,984.159,859.21,723.995,597.819z"/>
	<path display="inline" d="M752.221,597.819c0,0-40.497-79.767-136.218-72.404c0,0,99.331,57.803,13.499,143.581
		C629.502,668.996,701.906,653.043,752.221,597.819z"/>
	<path display="inline" d="M1257.659,279c0,0,7.999,432.299-80.66,202.984l15.332-3.166c0,0,53.329,196.151,49.329-199.817H1257.659
		z"/>
	<polygon display="inline" points="1167,495.279 1177.666,440.765 1204.33,484.317 1185.665,482.539 	"/>
	<ellipse display="inline" fill="#F9F9F9" cx="1112.196" cy="574.503" rx="12.681" ry="12.272"/>
</g>
<g id="Layer_11" display="none">
	<path display="inline" fill="none" stroke="#000000" stroke-width="34" stroke-miterlimit="10" d="M706,383.64
		c0,0,132.865-72.087,258.799-0.125c0,0,122.201-61.293,255.201-0.125v362.109c0,0-147.33-49.074-257,8.495c0,0-140-69.482-257,0
		V383.64z"/>
	
		<line display="inline" fill="none" stroke="#000000" stroke-width="34" stroke-miterlimit="10" x1="962" y1="393" x2="962" y2="764"/>
	<path display="inline" fill="none" stroke="#000000" stroke-width="9" stroke-miterlimit="10" d="M758.685,453.553
		c0,0,75.56-34.182,147.522,0"/>
	<path display="inline" fill="none" stroke="#000000" stroke-width="9" stroke-miterlimit="10" d="M758.685,538.712
		c0,0,75.56-34.182,147.522,0"/>
	<path display="inline" fill="none" stroke="#000000" stroke-width="9" stroke-miterlimit="10" d="M758.685,635.866
		c0,0,75.56-34.182,147.522,0"/>
	<path display="inline" fill="none" stroke="#000000" stroke-width="9" stroke-miterlimit="10" d="M1015.362,453.553
		c0,0,75.56-34.182,147.522,0"/>
	<path display="inline" fill="none" stroke="#000000" stroke-width="9" stroke-miterlimit="10" d="M1015.362,538.712
		c0,0,75.56-34.182,147.522,0"/>
	<path display="inline" fill="none" stroke="#000000" stroke-width="9" stroke-miterlimit="10" d="M1015.362,635.866
		c0,0,75.56-34.182,147.522,0"/>
	<polyline display="inline" fill="none" stroke="#000000" stroke-width="12" stroke-miterlimit="10" points="683,393 683,789 
		1240,789 1240,393 	"/>
	<rect x="930" y="781" display="inline" width="66" height="22"/>
</g>
<g id="Layer_12" display="none">
	<ellipse display="inline" cx="823.597" cy="402.85" rx="94.495" ry="95.245"/>
	<path display="inline" d="M823.597,513.338c0,0,25.499,7.256,55.497-15.243c0,0,23.999,163.492,140.993,314.984
		c0,0,9,55.497-44.998,23.999l-70.497-127.494l-49.497,124.494c0,0-34.498,31.498-44.998-19.499l56.997-125.994L823.597,513.338z"/>
	<path display="inline" d="M879.094,544.593l94.495-80.996c0,0,38.998-11.999,22.499,26.999l-104.995,89.996L879.094,544.593z"/>
	<path display="inline" d="M849,560H725.238c0,0-38.578,10,0,31H849V560z"/>
	<polygon display="inline" points="1144,388.551 1256,361.602 1256,396 1144,426.099 1144,415.667 	"/>
	<rect x="1144" y="410" display="inline" width="10" height="111"/>
	
		<ellipse transform="matrix(0.9615 -0.2749 0.2749 0.9615 -99.8849 329.6023)" display="inline" cx="1126" cy="521.167" rx="28.667" ry="21.833"/>
	<rect x="1246" y="380" display="inline" width="10" height="111"/>
	
		<ellipse transform="matrix(0.9615 -0.2749 0.2749 0.9615 -88.2586 356.5623)" display="inline" cx="1228" cy="493.167" rx="28.667" ry="21.833"/>
	<rect x="1212" y="576" display="inline" width="10" height="111"/>
	
		<ellipse transform="matrix(0.9615 -0.2749 0.2749 0.9615 -142.8968 354.6897)" display="inline" cx="1194" cy="687.167" rx="28.667" ry="21.833"/>
	<path display="inline" d="M1211.78,540.595c0,0,0.739,29.705,35.456,41.523s45.272,41.995,43.056,49.382
		c0,0-10.231-20.953-49.564-14.028C1201.394,624.397,1211.78,540.595,1211.78,540.595z"/>
</g>
<g id="Layer_13" display="none">
	<path display="inline" fill="#000202" d="M846,852c0,0-412-80-95-499c0,0,136-123,279-72c0,0,127,32,170,186c0,0,20,113-63,134
		c0,0-107,1-146,27c0,0-95,38-87,170C904,798,912,860,846,852z"/>
	<circle display="inline" fill="#FAFCFC" cx="771" cy="741" r="41"/>
	<circle display="inline" fill="#FAFCFC" cx="714" cy="600" r="41"/>
	<circle display="inline" fill="#FAFCFC" cx="764" cy="457" r="41"/>
	<circle display="inline" fill="#FAFCFC" cx="876" cy="355" r="41"/>
	<circle display="inline" fill="#FAFCFC" cx="1031" cy="366" r="41"/>
	<circle display="inline" fill="#FAFCFC" cx="1130" cy="469" r="41"/>
	<circle display="inline" fill="#FAFCFC" cx="941" cy="600" r="24"/>
	<path display="inline" fill="#000505" stroke="#1AD6CD" stroke-miterlimit="10" d="M1075.403,871.792
		c0,0,45.507-121.926,121.461-206.685l10.999,6.151c0,0-32.897,87.5-119.76,207.316L1075.403,871.792z"/>
	<path display="inline" fill="#000505" stroke="#1AD6CD" stroke-miterlimit="10" d="M1198.572,656.892
		c0,0-8.067-45.116,28.999-53.854c37.066-8.738,37.17-32.302,37.17-32.302s24.272,86.074-49.003,94.398L1198.572,656.892z"/>
</g>
<g id="Layer_14" display="none">
	
		<ellipse transform="matrix(0.8397 -0.543 0.543 0.8397 -155.909 618.2096)" display="inline" fill="none" stroke="#000000" stroke-width="15" stroke-miterlimit="10" cx="969.291" cy="573.214" rx="356" ry="184.516"/>
	
		<ellipse transform="matrix(0.8397 -0.543 0.543 0.8397 -161.6252 615.386)" display="inline" fill="none" stroke="#000000" stroke-width="15" stroke-miterlimit="10" cx="961.65" cy="581.486" rx="288.534" ry="149.548"/>
	
		<ellipse transform="matrix(0.8397 -0.543 0.543 0.8397 -155.8712 618.1248)" display="inline" fill="none" stroke="#000000" stroke-width="15" stroke-miterlimit="10" cx="969.167" cy="573.108" rx="236.371" ry="122.512"/>
	
		<ellipse transform="matrix(0.8397 -0.543 0.543 0.8397 -155.9352 618.1075)" display="inline" fill="none" stroke="#000000" stroke-width="15" stroke-miterlimit="10" cx="969.105" cy="573.208" rx="142.664" ry="73.943"/>
	<circle display="inline" cx="1139" cy="311" r="44"/>
	<circle display="inline" cx="744.744" cy="759.256" r="31.744"/>
	<circle display="inline" cx="1170.474" cy="497.527" r="22.473"/>
	<circle display="inline" cx="842.751" cy="615.249" r="23.751"/>
</g>
<g id="Layer_15" display="none">
	<path display="inline" fill="none" stroke="#000000" stroke-width="34" stroke-miterlimit="10" d="M868.596,764
		c0,0,0-89.714-63.119-162.534s-42.76-316.238,147.175-319.978c189.935-3.74,238.841,236.216,166.051,322.246
		c-72.79,86.03-65.965,160.267-65.965,160.267H868.596z"/>
	<path display="inline" d="M1059,811.673c0,5.703-4.624,10.327-10.327,10.327H871.327c-5.703,0-10.327-4.623-10.327-10.327v-6.346
		c0-5.703,4.623-10.327,10.327-10.327h177.346c5.703,0,10.327,4.623,10.327,10.327V811.673z"/>
	<path display="inline" d="M1059,838.673c0,5.703-4.624,10.327-10.327,10.327H871.327c-5.703,0-10.327-4.623-10.327-10.327v-6.346
		c0-5.703,4.623-10.327,10.327-10.327h177.346c5.703,0,10.327,4.623,10.327,10.327V838.673z"/>
	<path display="inline" d="M1059,865.673c0,5.703-4.624,10.327-10.327,10.327H871.327c-5.703,0-10.327-4.623-10.327-10.327v-6.346
		c0-5.703,4.623-10.327,10.327-10.327h177.346c5.703,0,10.327,4.623,10.327,10.327V865.673z"/>
	<path display="inline" d="M1024,890.673c0,5.703-3.428,10.327-7.222,10.327H898.85c-3.794,0-6.85-4.623-6.85-10.327v-6.024
		c0-5.703,3.056-10.649,6.85-10.649h117.928c3.794,0,7.222,4.946,7.222,10.649V890.673z"/>
	<path display="inline" d="M842,537"/>
	<path display="inline" d="M926.419,644.19c0,0-88.518-73.967,9.701-162.484S1005.236,375,1005.236,375
		S1181.058,516.871,926.419,644.19z"/>
	<path display="inline" fill="#FDFFFF" d="M933.892,625c0,0-21.506-77.422,51.614-119C985.507,506,920.557,605.374,933.892,625z"/>
</g>
<g id="Layer_16" display="none">
	<path display="inline" d="M924.635,405.17L747.699,741.234c0,0,6.112,36.646,39.783,20.946l176.936-336.064l95.271,50.159
		l33.072-62.816c0,0-253.409-156.15-367.042-113.018l-4.961,9.422C720.758,309.863,833.829,343.99,924.635,405.17z"/>
	<path display="inline" d="M1028,696"/>
	<polygon display="inline" points="999.201,563.896 1054.341,535 1084,557.328 1084,583.597 1056.573,612.493 1011.994,623 	"/>
	<polygon display="inline" points="1169,534.855 1212.236,511 1259.945,522.927 1239.073,593 	"/>
	<polygon display="inline" points="1015.423,704.325 1068.964,686.88 1093.05,716.402 1079.598,743.239 1032.598,758 991,758 	"/>
	<polygon display="inline" points="1106,825.065 1163.995,780.83 1203.244,819.792 1178.64,859.627 1130.604,869 	"/>
	<polygon display="inline" points="1174.127,614.445 1226,642.892 1203.41,683.052 1163.25,691 1142.333,661.298 	"/>
</g>
<g id="Layer_17" display="none">
	<rect x="947" y="226" display="inline" width="31" height="254"/>
	<rect x="868" y="288" display="inline" width="185" height="27"/>
	<polygon display="inline" fill="none" stroke="#000000" stroke-width="16" stroke-miterlimit="10" points="829,717 1093.087,717 
		961.044,921.633 	"/>
	<polygon display="inline" fill="none" stroke="#000000" stroke-width="16" stroke-miterlimit="10" points="1095.234,856.426 
		831.151,854.835 964.425,651.001 	"/>
	<path display="inline" fill="none" stroke="#000000" stroke-width="24" stroke-miterlimit="10" d="M1265.104,632.088
		C1244.016,656.53,1212.815,672,1178,672c-63.513,0-115-51.487-115-115s51.487-115,115-115c35.513,0,67.266,16.097,88.361,41.393"/>
	<polygon display="inline" points="1227,600 1266.361,512 1296,600 1218,549 1306,549 	"/>
	<circle display="inline" fill="none" stroke="#000000" stroke-width="8" stroke-miterlimit="10" cx="732.5" cy="556.5" r="122.5"/>
	<path display="inline" fill="none" stroke="#000000" stroke-width="6" stroke-miterlimit="10" d="M795.28,451.313
		c0,0,35.594,95.77-56.312,109.895c0,0-140.541,12.126-68.47,100.949"/>
	<ellipse display="inline" cx="749.887" cy="499.25" rx="20.387" ry="20.75"/>
	<g display="inline">
		<g>
			<path d="M698.205,611.257c3.722,7.142,18.614,26.026,26.32,12.715c5.28-9.12-11.644-22.078-19.126-23.418
				c-0.847-0.152-1.558,0.221-1.845,1.048c-1.428,4.12-2.356,13.341,3.401,14.556c6.912,1.459,8.544-9.868,1.944-11.604
				c-0.866-0.228-1.529,0.286-1.845,1.048c-1.502,3.62-1.396,6.591,1.386,9.459c0.832,0.858,2.143,0.367,2.507-0.662
				c0.863-2.437,1.162-4.29,0.5-6.797c-0.423-1.604-3.092-1.317-2.946,0.399c0.531,6.266,6.077,9.347,12,9
				c1.923-0.112,1.933-3.113,0-3c-4.06,0.238-8.602-1.308-9-6c-0.982,0.133-1.964,0.266-2.946,0.399
				c0.589,2.23,0.161,3.335-0.5,5.203c0.836-0.221,1.671-0.441,2.507-0.662c-1.615-2.288-1.82-4.469-0.614-6.541
				c-0.615,0.349-1.23,0.698-1.845,1.048c5.172,1.36,0.158,6.702-1.438,5.358c-1.014-0.854-1.003-3.047-1.056-4.205
				c-0.094-2.056,0.163-4.252,0.839-6.2c-0.615,0.349-1.23,0.698-1.845,1.048c6.939,1.243,17.014,9.691,17.682,17.017
				c0.224,2.459-1.888,4.184-4.025,4.855c-2.906,0.912-6.325-1.961-8.301-3.67c-3.743-3.239-6.879-7.524-9.162-11.905
				C699.901,608.027,697.312,609.544,698.205,611.257L698.205,611.257z"/>
		</g>
	</g>
	<g display="inline">
		<g>
			<path d="M800.439,463.561c2.397,2.998,4.399,6.177,5.614,9.838c0.512,1.543,3.048,1.364,2.946-0.399
				c-0.373-6.497-3.815-12.094-6.705-17.757c-0.738-1.445-2.671-0.606-2.795,0.757c-1.051,11.486,2.839,24.167,6.554,34.899
				c0.444,1.283,2.603,1.573,2.893,0c1.28-6.936-0.461-13.183-2.5-19.798c-0.914,0.385-1.828,0.771-2.742,1.156
				c2.971,6.928,5.973,13.832,9.5,20.5c0.73,1.38,2.737,0.665,2.795-0.757c0.307-7.536-2.799-16.192-7.205-22.257
				c-0.76-1.047-3.013-0.891-2.795,0.757c0.711,5.384,2.536,10.304,4.705,15.257c0.588,1.342,2.958,0.696,2.795-0.757
				c-0.728-6.51-3.415-12.276-5.554-18.399c-0.836,0.486-1.671,0.973-2.507,1.459c5.589,5.697,10.519,11.938,14.765,18.696
				c1.046,1.665,3.386,0.22,2.59-1.514c-4.186-9.127-9.881-17.393-15-26c-0.93-1.564-2.977-0.444-2.742,1.156
				c0.859,5.838,4.359,10.608,6.5,16c0.836-0.486,1.671-0.973,2.507-1.459c-3.498-4.053-6.758-8.267-9.765-12.696
				c-0.785,0.606-1.571,1.212-2.356,1.818c6.853,7.802,13.916,15.409,21,23c0.99,1.06,3.033-0.031,2.507-1.459
				c-1.935-5.258-4.91-9.997-7.651-14.858c-0.835-1.48-3.229-0.482-2.742,1.156c1.206,4.047,3.409,7.608,5,11.5
				c0.914-0.385,1.828-0.771,2.742-1.156c-1.592-2.798-3.589-5.415-5.5-8c-1.121-1.517-3.625-0.173-2.59,1.514
				c3.318,5.413,7.067,10.473,11.735,14.804c1.12,1.039,2.839,0.014,2.507-1.459c-0.56-2.488-0.94-5.011-1.5-7.5
				c-0.836,0.486-1.671,0.973-2.507,1.459c0.731,0.81,1.319,1.709,1.765,2.696c0.785-0.606,1.571-1.212,2.356-1.818
				c-2.191-1.902-3.754-4.241-5.265-6.696c-0.767-1.247-2.816-0.768-2.795,0.757c0.027,1.986,0.297,3.547,1.054,5.399
				c0.914-0.385,1.828-0.771,2.742-1.156c-1.467-3.034-3.429-4.797-6.795-5.243c-0.628-0.083-1.314,0.517-1.446,1.101
				c-0.308,1.363-0.758,2.618-1,4c0.914-0.119,1.828-0.239,2.742-0.358c-2.306-3.089-3.514-6.724-5.5-10
				c-0.884-1.458-3.176-0.502-2.742,1.156c1.127,4.301,2.549,8.433,4.651,12.358c0.863-0.505,1.727-1.009,2.59-1.514
				c-1.512-2.664-2.786-5.456-4.5-8c-1-1.484-2.978-0.496-2.742,1.156c0.569,3.98,1.504,7.764,3,11.5
				c0.481,1.202,2.631,1.64,2.893,0c0.425-2.658,0.575-5.342,1-8c-0.914,0.119-1.828,0.239-2.742,0.358
				c2.401,3.507,4.301,7.183,5.849,11.142c0.697,1.784,3.284,1.126,2.893-0.798c-0.518-2.551-1.116-4.969-2.151-7.358
				c-0.703-1.623-3.104-0.426-2.742,1.156c0.629,2.744,1.491,5.373,2.5,8c0.734-0.565,1.469-1.129,2.203-1.694
				c-1.856-1.322-3.683-2.536-5.196-4.265c-0.701-0.801-2.325-0.434-2.507,0.662c-0.487,2.932-0.223,5.021,1.151,7.656
				c0.818,1.569,3.092,0.447,2.742-1.156c-0.631-2.882-1.447-5.664-2.651-8.358c-0.554-1.24-2.418-0.791-2.742,0.358
				c-0.574,2.034-1.304,4.006-2,6c0.734-0.299,1.469-0.598,2.203-0.896c-0.79-0.7-1.522-1.455-2.196-2.265
				c-0.821-0.926-2.126-0.305-2.507,0.662c-0.357,0.906-0.826,1.32-0.5,2.298c0.607,1.821,3.419,1.079,2.893-0.798
				c-0.656-2.341-1.443-4.632-2-7c-0.401-1.703-2.878-1.246-2.946,0.399c-0.098,2.341-0.385,4.66-0.5,7
				c0.982-0.133,1.964-0.266,2.946-0.399c-0.333-1-0.667-2-1-3c-0.526-1.578-2.946-1.345-2.946,0.399c0,1.5,0,3,0,4.5
				c0.932-0.252,1.863-0.505,2.795-0.757c-0.543-1.035-1.087-1.871-2.038-2.538c-0.955-0.67-2.257,0.23-2.257,1.295
				c0,2.333,0,4.667,0,7c0.854-0.354,1.707-0.707,2.561-1.061c-0.044-0.479-0.064-0.959-0.061-1.439c-0.026-1.993-2.759-1.859-3,0
				c-0.092,0.707-0.278,1.409-0.446,2.101c0.964,0.266,1.929,0.532,2.893,0.798c0.504-2.403,1.136-4.701,2-7
				c-0.982-0.133-1.964-0.266-2.946-0.399c0,0.667,0,1.333,0,2c0,1.585,1.969,1.924,2.795,0.757
				c3.486-4.923,10.529-5.222,14.765-9.696c-0.785-0.101-1.571-0.202-2.356-0.304c2.153,4.537,6.9,6.642,8.349,11.642
				c0.5,1.724,2.768,1.217,2.946-0.399c0.126-1.512,0.558-2.927,1.295-4.243c-0.932-0.252-1.863-0.505-2.795-0.757
				c0.116,1.676,0.407,3.319,0.5,5c0.982-0.133,1.964-0.266,2.946-0.399c-0.5-3-1-6-1.5-9c-0.284-1.702-2.955-1.253-2.946,0.399
				c0.011,2.182,0.141,4.259,0.554,6.399c0.914-0.385,1.828-0.771,2.742-1.156c-0.111-0.179-0.222-0.358-0.333-0.537
				c-0.778-1.253-2.795-0.763-2.795,0.757c0,0.581,0.146,0.86,0.387,1.436c0.735,1.757,3.64,0.987,2.893-0.798
				c-0.093-0.213-0.187-0.426-0.28-0.638c-0.932,0.252-1.863,0.505-2.795,0.757c0.111,0.179,0.222,0.358,0.333,0.537
				c0.928,1.496,3.059,0.489,2.742-1.156c-0.369-1.915-0.436-3.675-0.446-5.601c-0.982,0.133-1.964,0.266-2.946,0.399
				c0.5,3,1,6,1.5,9c0.279,1.676,3.039,1.275,2.946-0.399c-0.093-1.68-0.384-3.322-0.5-5c-0.094-1.364-2.095-2.206-2.795-0.757
				c-0.914,1.891-1.474,3.669-1.705,5.757c0.982-0.133,1.964-0.266,2.946-0.399c-1.567-5.407-6.363-7.536-8.651-12.358
				c-0.412-0.869-1.73-0.964-2.356-0.304c-4.561,4.818-11.287,4.73-15.235,10.304c0.932,0.252,1.863,0.505,2.795,0.757
				c0-0.667,0-1.333,0-2c0-1.781-2.373-1.926-2.946-0.399c-0.864,2.299-1.496,4.597-2,7c-0.395,1.881,2.432,2.686,2.893,0.798
				c0.235-0.963,0.426-1.917,0.554-2.899c-1,0-2,0-3,0c0.017,1.326,0.022,2.544,0.939,3.561c0.895,0.992,2.561,0.198,2.561-1.061
				c0-2.333,0-4.667,0-7c-0.752,0.432-1.505,0.863-2.257,1.295c0.464,0.326,0.708,0.979,0.962,1.462
				c0.707,1.347,2.795,0.693,2.795-0.757c0-1.5,0-3,0-4.5c-0.982,0.133-1.964,0.266-2.946,0.399c0.333,1,0.667,2,1,3
				c0.54,1.619,2.862,1.312,2.946-0.399c0.115-2.34,0.402-4.659,0.5-7c-0.982,0.133-1.964,0.266-2.946,0.399
				c0.557,2.368,1.344,4.659,2,7c0.964-0.266,1.929-0.532,2.893-0.798c0.221,0.664,0.432-0.529,0.5-0.702
				c-0.836,0.221-1.671,0.441-2.507,0.662c0.919,1.036,1.701,1.913,2.804,2.735c0.829,0.617,1.915-0.071,2.203-0.896
				c0.696-1.994,1.426-3.966,2-6c-0.914,0.119-1.828,0.239-2.742,0.358c1.096,2.452,1.776,5.027,2.349,7.642
				c0.914-0.385,1.828-0.771,2.742-1.156c-1.095-1.687-1.378-3.468-0.849-5.344c-0.836,0.221-1.671,0.441-2.507,0.662
				c1.696,1.937,3.717,3.248,5.804,4.735c1.039,0.74,2.665-0.492,2.203-1.694c-1.009-2.627-1.871-5.256-2.5-8
				c-0.914,0.385-1.828,0.771-2.742,1.156c0.93,2.146,1.386,4.366,1.849,6.642c0.964-0.266,1.929-0.532,2.893-0.798
				c-1.639-4.193-3.604-8.138-6.151-11.858c-0.65-0.95-2.518-1.043-2.742,0.358c-0.425,2.658-0.575,5.342-1,8
				c0.964,0,1.929,0,2.893,0c-1.496-3.736-2.431-7.52-3-11.5c-0.914,0.385-1.828,0.771-2.742,1.156c1.714,2.544,2.988,5.336,4.5,8
				c0.957,1.686,3.502,0.189,2.59-1.514c-1.98-3.697-3.289-7.597-4.349-11.642c-0.914,0.385-1.828,0.771-2.742,1.156
				c1.986,3.276,3.194,6.911,5.5,10c0.682,0.913,2.491,1.071,2.742-0.358c0.242-1.382,0.692-2.637,1-4
				c-0.482,0.367-0.964,0.734-1.446,1.101c2.136,0.63,3.537,1.882,4.205,3.757c0.735,1.52,3.386,0.42,2.742-1.156
				c-0.629-1.538-0.923-2.936-0.946-4.601c-0.932,0.252-1.863,0.505-2.795,0.757c1.646,2.674,3.348,5.233,5.735,7.304
				c1.288,1.117,3.158-0.271,2.356-1.818c-0.648-1.249-1.328-2.239-2.235-3.304c-1.036-1.217-2.813,0.1-2.507,1.459
				c0.56,2.488,0.94,5.011,1.5,7.5c0.836-0.486,1.671-0.973,2.507-1.459c-4.483-4.159-8.077-8.995-11.265-14.196
				c-0.863,0.505-1.727,1.009-2.59,1.514c1.911,2.585,3.908,5.202,5.5,8c0.821,1.443,3.397,0.447,2.742-1.156
				c-1.585-3.876-3.801-7.474-5-11.5c-0.914,0.385-1.828,0.771-2.742,1.156c2.608,4.625,5.508,9.138,7.349,14.142
				c0.836-0.486,1.671-0.973,2.507-1.459c-7.084-7.591-14.147-15.198-21-23c-1.122-1.277-3.313,0.408-2.356,1.818
				c3.152,4.642,6.569,9.056,10.235,13.304c0.951,1.102,3.061-0.064,2.507-1.459c-2.129-5.362-5.648-10.21-6.5-16
				c-0.914,0.385-1.828,0.771-2.742,1.156c5.119,8.607,10.815,16.873,15,26c0.863-0.505,1.727-1.009,2.59-1.514
				c-4.379-6.969-9.47-13.428-15.235-19.304c-1.013-1.033-3.014,0.009-2.507,1.459c2.036,5.83,4.752,11.395,5.446,17.601
				c0.932-0.252,1.863-0.505,2.795-0.757c-1.945-4.442-3.656-8.907-4.295-13.743c-0.932,0.252-1.863,0.505-2.795,0.757
				c4.102,5.647,7.082,13.705,6.795,20.743c0.932-0.252,1.863-0.505,2.795-0.757c-3.527-6.668-6.529-13.572-9.5-20.5
				c-0.676-1.577-3.235-0.444-2.742,1.156c1.85,6.003,3.669,11.868,2.5,18.202c0.964,0,1.929,0,2.893,0
				c-3.635-10.503-7.473-22.883-6.446-34.101c-0.932,0.252-1.863,0.505-2.795,0.757C802.33,461.901,805.66,467.09,806,473
				c0.982-0.133,1.964-0.266,2.946-0.399c-1.381-4.162-3.659-7.751-6.386-11.162C801.353,459.928,799.244,462.066,800.439,463.561
				L800.439,463.561z"/>
		</g>
	</g>
	<g display="inline">
		<g>
			<path d="M801.743,470.295c1.23,0.789,3.08,1.237,3.962,2.462c0.537,0.746,1.653,1.072,2.356,0.304
				c0.595-0.65,0.917-1.243,1.017-2.123c0.086-0.761-0.451-1.554-0.782-2.195c-0.889-1.719-3.477-0.202-2.59,1.514
				c0.116,0.225,0.235,0.448,0.352,0.672c0.004,0.007,0.194-0.33-0.117,0.01c0.785,0.101,1.571,0.202,2.356,0.304
				c-1.295-1.798-3.248-2.389-5.038-3.538C801.624,466.656,800.121,469.254,801.743,470.295L801.743,470.295z"/>
		</g>
	</g>
	<g display="inline">
		<g>
			<path d="M803.5,558c0.027,6.593-3.968,13.441-7.764,19.437c-4.425,6.989-9.62,13.452-14.303,20.263c6.044,0,12.089,0,18.133,0
				c0.812,1.611-0.476-2.177-0.135,0.381c-0.077-0.581,0.398-3.178-0.069-0.949c0.567-2.715-0.934,1.482,0.382-1.066
				c0.329-0.593,0.687-1.169,1.073-1.727c-0.607,0.712-0.499,0.581,0.325-0.394c3.457-4.109,7.913-7.382,12.099-10.696
				c4.08-3.23,7.58-6.416,10.69-10.619c4.485-6.061,4.941-14.829,4.802-22.044c-0.203-10.568,0.875-20.626,1.555-31.151
				c0.652-10.086,0.795-23.475-7.364-30.86c-4.489-4.063-10.341-3.872-14.849,0c-5.396,4.635-6.443,12.016-5.935,18.719
				c0.225,2.978,0.697,5.933,0.929,8.912c0.109,1.399,0.093,2.793,0.011,4.192c0.172-1.176,0.126-1.169-0.135,0.021
				c0.277-1.073,0.96-1.381,1.756-1.986c5.141,2.092,10.283,4.183,15.424,6.275c-0.403-1.696-0.776-2.604-0.625-4.209
				c-7,0-14,0-21,0c0.012,2.761,0.988,8.891-0.925,11.075c5.497,0.708,10.994,1.417,16.491,2.125
				c-0.919-1.24-2.031-2.553-2.442-3.992c-3.191-11.185-21.215-9.287-20.625,2.791c0.097,1.992,0.15,2.291-0.186,3.52
				c0.45-1.646,0.068-0.348-0.013-0.288c-1.181,0.862-1.367,0.726-3.185,1.014c-3.068,0.486-5.413,2.359-7.679,4.31
				c-1.599,1.377-2.767,3.486-3.628,5.395c-2.188,4.85,0.421,0.638-1.649,3.305c-2.17,2.796-6.309,3.839-9.451,5.12
				c1.361-0.555-5.912,2.489-2.865,1.275c-1.376,0.548-2.771,1.052-4.155,1.578c-3.866,1.469-7.712,2.897-10.894,5.603
				c-7.031,5.98-5.364,17.43-1.302,24.526c8.43,14.728,30.981,5.766,42.699,0.367c7.297-3.362,14-8.06,20.277-13.031
				c5.975-4.732,11.855-10.158,15.599-16.894c4.499-8.093-2.842-17.747-11.858-15.424c-16.636,4.285-25.711,17.647-37.633,28.7
				c-9.95,9.225,4.936,24.041,14.849,14.849c8.887-8.239,16.03-20.122,28.367-23.3c-3.953-5.141-7.905-10.283-11.858-15.424
				c-2.022,3.637-5.928,7.356-10.161,10.912c-4.856,4.08-10.406,7.467-16.012,10.408c-3.63,1.904-7.727,3.18-12.805,4.58
				c-2.904,0.801-4.602,1.173-7.011,1.198c1.605-0.017,4.561,4,3.125,1.491c0.369,0.645,0.03-1.979-0.261-0.104
				c-0.223,1.44-4.491,4.239-1.954,2.835c1.039-0.477,1.133-0.544,0.282-0.201c0.708-0.289,1.419-0.569,2.134-0.842
				c2.796-1.085,5.578-2.158,8.343-3.325c4.941-2.086,13.762-5.37,18.311-11.229c1.063-1.369,2.188-2.651,3.064-4.156
				c0.321-0.552,2.3-4.609,1.298-3.363c-2.013,1.048-2.157,1.35-0.432,0.907c0.811-0.104,1.6-0.3,2.366-0.588
				c2.1-0.653,3.923-1.807,5.677-3.087c6.865-5.012,10.018-12.173,9.604-20.637c-6.875,0.93-13.75,1.861-20.625,2.791
				c0.961,3.368,2.491,6.218,4.558,9.008c3.75,5.062,11.634,7.671,16.491,2.125c6.57-7.501,7.116-16.379,7.075-25.925
				c-0.025-5.723-4.758-10.5-10.5-10.5c-6.129,0-9.965,4.804-10.5,10.5c-0.315,3.356,0.607,6.556,1.375,9.791
				c1.438,6.055,10.047,10.361,15.424,6.275c6.795-5.164,9.225-11.932,8.769-20.36c-0.181-3.343-0.758-6.657-1.011-9.995
				c-0.103-1.364-0.08-2.722,0.013-4.085c-0.164,1.238-0.11,1.272,0.163,0.103c-0.184,0.649-1.86,2.528-0.309,1.196
				c-4.95,0-9.899,0-14.849,0c1.79,1.62-1.098-1.99,0.267,0.19c1.381,2.205-0.603-2.009,0.26,0.688
				c0.298,0.933,0.471,1.905,0.652,2.865c-0.356-1.884,0.153,2.221,0.177,2.645c0.288,5.21-0.145,10.468-0.617,15.654
				c-0.39,4.284-0.955,8.552-1.273,12.842c-0.449,6.049,0.969,12.318,0.148,18.307c-0.698,5.092-2.763,6.441-6.702,9.7
				c-3.855,3.189-7.874,6.157-11.558,9.551c-9.439,8.697-14.06,20.398-7.997,32.432c3.801,7.545,13.982,6.038,18.133,0
				c10.413-15.145,25.013-30.75,24.934-50.3C824.445,544.461,803.445,544.455,803.5,558L803.5,558z"/>
		</g>
	</g>
	<g display="inline">
		<g>
			<path d="M817.5,501c0.62-0.061,1.241-0.075,1.863-0.04c-1.339-0.218-1.427-0.189-0.265,0.087c-0.88-0.24-1.15-0.773-0.459-0.15
				c0.41,0.396,0.796,0.815,1.156,1.257c-0.754-0.956-0.788-0.932-0.103,0.072c0.216,0.341,1.815,3.701,1.04,1.814
				c2.199,5.357,3.151,11.221,4.131,16.896c2.514,14.566,7.646,28.565,6.637,43.565c6.875-0.93,13.75-1.861,20.625-2.791
				c-0.983-5.88-1.965-11.723-1.625-17.709c-6.875,0.93-13.75,1.861-20.625,2.791c3.672,10.973-3.013,22.449-2.875,33.709
				c0.105,8.572,11.744,14.685,17.925,7.425c3.344-3.928,4.497-8.383,7.142-12.625c-6.397-0.836-12.794-1.672-19.191-2.508
				c-0.573-2.676-0.064-0.061-0.069,0.637c-0.023,3.107,0.448-1.924-0.131,1.489c-0.424,2.498-1.144,4.948-1.873,7.37
				c-1.468,4.879-3.643,10.321-5.239,13.933c-4.66,10.548-11.585,20.397-19.46,28.783c-4.117,4.384-8.532,7.08-13.926,9.689
				c-6.297,3.046-11.453,7.248-16.804,11.681c-4.416,3.659-11.043,4.95-16.367,6.685c-7.056,2.3-14.193,3.944-21.573,4.709
				c-12.897,1.337-25.657,0.985-37.857-3.738c-5.322-2.061-10.424-5.804-14.334-9.906c-1.171-1.229-0.438-2.325-0.847,0.024
				c0.435-2.497-0.847,1.2,0.52-1.08c-0.676,1.128,1.637-1.65,2.054-2.038c3.122-2.905,8.194-5.553,12.316-7.929
				c6.287-3.623,12.508-7.293,18.999-10.546c12.697-6.363,26.088-11.165,39.607-15.449c9.173-2.907,18.445-5.638,27.772-8.009
				c8.324-2.116,16.453-3.9,24.286-7.559c17.82-8.323,22.819-29.657,28.176-46.746c1.712-5.461-1.964-11.439-7.334-12.916
				c-5.856-1.611-10.959,1.961-12.916,7.334c-4.563,12.526-4.322,25.742-6.861,38.667c-2.51,12.778-11.373,22.276-19.469,32.008
				c-8.555,10.284-18.503,18.37-30.978,23.452c-12.891,5.252-27.214,8.805-40.845,11.555c-5.12,1.033-10.404,1.063-15.025-1.538
				c0.509,0.287-3.372-2.47-1.51-0.989c-0.931-0.74-1.805-1.546-2.677-2.354c-0.941-0.872-1.786-1.83-2.622-2.799
				c-0.854-0.99,0.302-1.309-0.262,2.08c-0.074,0.442-2.452,3.771-1.197,2.536c1.68-1.652-1.972,1.342,0.278-0.185
				c1.606-1.091,3.349-1.988,5.071-2.875c4.589-2.364,7.944-3.696,12.178-5.414c22.84-9.262,44.385-21.404,69.39-23.868
				c3.54-0.349,7.099-0.458,10.655-0.486c1.359-0.01,2.716-0.088,4.074-0.13c3.858-0.119-2.654,1.252-2.801-4.503
				c-0.013-0.513-1.581,1.641-2.198,2.208c-0.856,0.787-4.03,2.317-5.754,3.002c-10.26,4.076-21.485,4.894-31.686,9.053
				c-10.025,4.088-19.615,8.871-29.932,12.179c-4.818,1.545-8.886,2.452-13.047,2.532c-0.081,0.002-3.638-0.269-1.531,0.036
				c-1.019-0.148-2.004-0.444-2.985-0.747c2.294,0.709-1.559-0.656-2.458-0.968c-1.749-0.605-3.437-0.365-5.182-0.164
				c2.475,5.975,4.95,11.95,7.425,17.925c4.909-3.945,12.128-5.056,17.984-6.847c8.891-2.72,17.652-5.686,26.648-8.079
				c8.604-2.289,17.222-4.349,25.683-7.146c8.949-2.959,17.72-6.443,26.552-9.727c5.359-1.993,8.952-7.032,7.334-12.916
				c-1.418-5.154-7.546-9.33-12.916-7.334c-8.836,3.286-17.621,6.704-26.552,9.727c-9.64,3.263-19.563,5.486-29.378,8.137
				c-8.74,2.361-17.24,5.406-25.91,7.979c-8.868,2.632-17.003,5.497-24.294,11.357c-6.882,5.531-1.414,18.945,7.425,17.925
				c2.265-0.261,1.995,0.48-1.39-1.028c1.472,0.656,2.889,1.237,4.416,1.709c2.552,0.789,5.367,0.993,8.017,1.142
				c5.719,0.323,11.71-1.01,17.197-2.505c11.036-3.008,21.45-8.154,31.909-12.693c0.92-0.399,2.23-0.934,4.291-1.698
				c2.263-0.839,4.7-1.286,7.045-1.837c6.119-1.44,12.239-2.823,18.216-4.788c13.163-4.328,24.142-11.848,26.074-26.434
				c1.02-7.701-5.877-14.402-12.781-15.975c-6.815-1.553-15.024-0.411-21.888,0.265c-14.667,1.445-28.772,5.376-42.419,10.847
				c-6.73,2.698-13.33,5.706-19.848,8.877c-1.212,0.59-2.405,1.222-3.634,1.776c-2.056,0.928,2.402-0.988-0.071,0.028
				c-2.075,0.852-4.163,1.673-6.244,2.509c-9.173,3.684-18.9,7.188-26.725,13.383c-18.31,14.496,8.27,36.93,22.802,39.68
				c11.59,2.194,23.145-1.23,34.262-4.221c11.52-3.1,22.742-6.155,33.674-11.033c20.567-9.178,34.443-26.669,47.665-44.204
				c7.05-9.35,10.079-20.162,11.581-31.603c1.335-10.173,1.931-20.168,5.478-29.905c-6.75-1.861-13.5-3.722-20.25-5.583
				c-1.973,6.295-3.849,12.615-6.188,18.787c-1.685,4.445-4.259,10.139-7.898,12.816c-8.437,6.207-20.929,7.209-31.051,10.026
				c-28.559,7.947-56.012,17.805-81.693,32.769c-10.009,5.832-21.827,11.706-26.287,23.133c-5.501,14.093,7.647,25.492,18.2,32.188
				c24.081,15.278,57.505,12.247,83.366,3.816c6.697-2.183,13.756-4.235,19.624-8.232c4.814-3.279,8.721-7.341,13.849-10.182
				c6.057-3.355,11.789-5.984,17.113-10.566c5.232-4.503,9.5-10.061,13.677-15.512c6.91-9.016,12.088-18.707,16.398-29.168
				c4.017-9.75,8.424-21.202,6.14-31.874c-1.986-9.279-14.646-9.799-19.191-2.508c-1.547,2.481-2.028,6.225-3.858,8.375
				c5.975,2.475,11.95,4.95,17.925,7.425c-0.071-5.773,1.666-11.13,2.877-16.726c1.636-7.56,1.721-15.177-0.752-22.565
				c-3.805-11.369-19.947-9.15-20.625,2.791c-0.442,7.791,1.095,15.636,2.375,23.291C832.634,571.833,837.697,575,842,575
				c6.014,0,10.116-4.792,10.5-10.5c1.209-17.967-4.864-35.544-8.077-53.031c-2.6-14.152-9.351-32.512-26.923-31.469
				C804.044,480.799,803.966,501.804,817.5,501L817.5,501z"/>
		</g>
	</g>
	<g display="inline">
		<g>
			<path d="M660.375,632.791c0.794,2.449,1.04,4.405,0.5,6.917c6.397-0.836,12.794-1.672,19.191-2.508
				c-3.411-5.791-5.255-12.185-6.417-18.792c-0.474-2.695-0.623-6.41-0.274-8.82c0.064-0.444,1.171-4.328,0.552-2.945
				c0.303-0.619,0.646-1.215,1.029-1.788c-0.629,0.766-0.535,0.688,0.282-0.235c1.418-1.537,2.811-2.192,5.761-3.581
				c-1.114,0.525,2.337-0.855,2.754-1.001c1.452-0.51,2.926-0.959,4.396-1.412c6.006-1.852,12.087-3.556,17.649-6.56
				c9.478-5.119,4.806-19.323-5.3-19.566c-2.465-0.059-4.91,0.325-7.291,0.946c-1.503,0.392-3.166,1.422-4.709,1.554
				c-13.44,1.146-13.605,20.107,0,21c9.125,0.599,19.301-0.794,27.3-5.434c5.333-3.093,7.545-12.242,2.125-16.491
				c-1.929-1.512-3.528-3.266-5.625-4.642c-1.767,6.522-3.533,13.044-5.3,19.566c16.09-0.656,33.03-1.415,47.8-8.434
				c4.201-1.996,5.992-7.615,4.825-11.858c-1.312-4.769-5.416-7.342-10.125-7.709c-14.921-1.162-33.941,2.807-45.925,12.075
				c-7.232,5.594-11.456,13.691-17.671,20.232c-7.145,7.521-14.836,14.039-20.471,22.893c-5.722,8.99,5.492,19.662,14.366,14.366
				c17.572-10.488,39.297-10.724,57.869-19.096c6.696-3.019,13.195-6.108,18.842-10.892c6.346-5.378,7.552-15.837,1.077-21.637
				c-10.326-9.25-26.616-0.814-36.931,4.12c-9.464,4.526-18.529,9.876-27.455,15.373c-11.505,7.085-0.966,25.255,10.599,18.133
				c7.185-4.425,14.463-8.69,21.941-12.604c2.423-1.268,4.877-2.476,7.351-3.64c1.199-0.564,2.412-1.1,3.627-1.629
				c-1.999,0.87,1.501-0.567,1.857-0.702c2.062-0.782,4.169-1.437,6.314-1.951c3.01-0.72-1.117-0.001,0.548-0.153
				c0.39-0.029,0.78-0.041,1.171-0.036c2.087-0.017-2.641-0.555-0.773-0.112c-1.678-0.398-2.647-1.251-3.943-3.162
				c-0.688-1.892-0.886-2.316-0.594-1.273c1.535-5.818,1.659-7.571,0.371-5.26c0.727-1.201,0.538-0.692-0.219-0.153
				c-1.21,0.861-2.514,1.593-3.804,2.325c-2.606,1.478-5.338,2.74-8.06,3.986c-3.364,1.54-4.177,1.922-7.058,2.947
				c-17.789,6.331-36.781,7.408-53.328,17.284c4.789,4.789,9.577,9.577,14.366,14.366c4.279-6.723,10.403-11.865,16.01-17.441
				c5.622-5.592,9.548-12.532,15.055-18.195c4.233-4.353,9.739-5.663,15.565-7.167c6.34-1.637,12.732-2.508,19.304-1.996
				c-1.767-6.522-3.533-13.044-5.3-19.566c-10.684,5.077-25.208,5.078-37.2,5.566c-10.628,0.433-14.08,13.804-5.3,19.566
				c-0.187-0.123,1.391,1.371,1.375,1.358c0.708-5.497,1.417-10.994,2.125-16.491c-4.35,2.523-11.17,2.93-16.7,2.566c0,7,0,14,0,21
				c3.899-0.333,8.383-2.587,12-2.5c-1.767-6.522-3.533-13.044-5.3-19.566c-0.335,0.181-3.714,1.7-2.015,1.025
				c-1.685,0.67-3.422,1.212-5.15,1.758c-3.285,1.038-6.598,1.974-9.864,3.073c-8.064,2.714-15.694,6.58-20.754,13.641
				c-5.323,7.428-5.712,17.521-4.619,26.271c1.228,9.829,4.085,19.522,9.135,28.099c4.414,7.496,17.232,6.604,19.191-2.508
				c1.307-6.08,1.434-12.116-0.5-18.083C676.468,614.383,656.187,619.872,660.375,632.791L660.375,632.791z"/>
		</g>
	</g>
	<ellipse display="inline" fill="#FCFCFC" cx="688.887" cy="614.25" rx="20.387" ry="20.75"/>
</g>
<g id="Layer_18" display="none">
	<circle display="inline" cx="964.5" cy="400.5" r="124.5"/>
	<path display="inline" d="M934,536c0,0,21,15,68,0v242h-68V536z"/>
	<path display="inline" d="M942,573L811,712c0,0-7,33.436,29,22.218L957,611L942,573z"/>
	<path display="inline" d="M993.376,573l125.549,139c0,0,6.709,33.436-27.793,22.218L979,611L993.376,573z"/>
	<path display="inline" d="M816.384,822.723l278.529-93.257c0,0,63.415,11.191,22.382,54.711L826.331,865
		C826.331,865,784.055,851.322,816.384,822.723z"/>
	<path display="inline" d="M1111.173,825.892L835.893,729c0,0-62.675,11.627-22.121,56.843l287.569,83.973
		C1101.341,869.816,1143.125,855.605,1111.173,825.892z"/>
</g>
<g id="Layer_19" display="none">
	<circle display="inline" fill="none" stroke="#000000" stroke-width="18" stroke-miterlimit="10" cx="825" cy="396" r="110"/>
	<polygon display="inline" points="797.95,374.459 834.536,363.484 859.742,393.882 837.369,428.171 798.267,417.416 	"/>
	<polyline display="inline" points="722.735,429.042 729.133,420.248 765.08,433.163 767.288,472.59 757.282,476.315 	"/>
	<polyline display="inline" points="765.965,307.284 776.036,311.387 772.114,349.382 734.365,360.976 728.35,352.154 	"/>
	<polyline display="inline" points="888.805,312.708 887.728,323.53 850.182,330.551 828.352,297.645 835.105,289.374 	"/>
	<polyline display="inline" points="930.654,415.304 920.731,419.752 895.964,390.673 913.653,355.367 924.187,357.111 	"/>
	<polyline display="inline" points="831.468,502.839 825.106,494.02 848.578,463.886 886.731,474.073 887.152,484.742 	"/>
	<circle display="inline" cx="833.588" cy="734.081" r="127.494"/>
	<path display="inline" fill="none" stroke="#FCFCFC" stroke-width="10" stroke-miterlimit="10" d="M750.742,627.394
		c0,0,38.388,114.937,193.262,174.504"/>
	<path display="inline" fill="none" stroke="#FCFCFC" stroke-width="10" stroke-miterlimit="10" d="M847,606.315
		c0,0-8.622,117.35,130,106.685"/>
	<path display="inline" fill="none" stroke="#FCFCFC" stroke-width="10" stroke-miterlimit="10" d="M820.421,882.584
		c0,0,25.453-144.504-147.868-148.706"/>
	
		<ellipse transform="matrix(0.9785 0.2064 -0.2064 0.9785 118.1503 -226.5599)" display="inline" fill="none" stroke="#000505" stroke-width="22" stroke-miterlimit="10" cx="1145.004" cy="453.029" rx="99" ry="138.519"/>
	<path display="inline" fill="none" stroke="#000505" stroke-width="13" stroke-miterlimit="10" d="M1078.515,574.439
		c0,0,30.531,24.836,21.397,72.987"/>
	<path display="inline" fill="none" stroke="#000505" stroke-width="13" stroke-miterlimit="10" d="M1154.683,586.417
		c0,0-42.718,9.386-53.945,57.096"/>
	<path display="inline" fill="#000505" d="M1076.109,803.882c-1.026,4.864-5.8,7.975-10.664,6.949l0,0
		c-4.864-1.026-7.975-5.8-6.949-10.664l32.609-154.598c1.026-4.864,5.8-7.975,10.664-6.949l0,0c4.864,1.026,7.975,5.8,6.949,10.664
		L1076.109,803.882z"/>
	<path display="inline" fill="#000505" d="M1069.855,852.914c-0.425,2.017-6.465,2.451-13.49,0.97l0,0
		c-7.025-1.482-12.375-4.318-11.95-6.336l13.525-64.123c0.425-2.017,6.465-2.451,13.49-0.97l0,0
		c7.025,1.482,12.375,4.318,11.95,6.336L1069.855,852.914z"/>
	
		<line display="inline" fill="none" stroke="#000505" stroke-width="7" stroke-miterlimit="10" x1="1089.83" y1="346.364" x2="1238.558" y2="377.734"/>
	
		<line display="inline" fill="none" stroke="#000505" stroke-width="7" stroke-miterlimit="10" x1="1082.201" y1="363.151" x2="1230.929" y2="394.521"/>
	
		<line display="inline" fill="none" stroke="#000505" stroke-width="7" stroke-miterlimit="10" x1="1065.766" y1="378.08" x2="1246.783" y2="416.262"/>
	
		<line display="inline" fill="none" stroke="#000505" stroke-width="7" stroke-miterlimit="10" x1="1061.639" y1="397.649" x2="1242.656" y2="435.831"/>
	
		<line display="inline" fill="none" stroke="#000505" stroke-width="7" stroke-miterlimit="10" x1="1046.182" y1="412.785" x2="1245.79" y2="454.888"/>
	
		<line display="inline" fill="none" stroke="#000505" stroke-width="7" stroke-miterlimit="10" x1="1049.11" y1="432.821" x2="1241.869" y2="473.479"/>
	
		<line display="inline" fill="none" stroke="#000505" stroke-width="7" stroke-miterlimit="10" x1="1055.539" y1="455.639" x2="1234.599" y2="493.408"/>
	
		<line display="inline" fill="none" stroke="#000505" stroke-width="7" stroke-miterlimit="10" x1="1036.169" y1="469.949" x2="1230.884" y2="511.02"/>
	
		<line display="inline" fill="none" stroke="#000505" stroke-width="7" stroke-miterlimit="10" x1="1055.937" y1="492.515" x2="1223.255" y2="527.807"/>
	
		<line display="inline" fill="none" stroke="#000505" stroke-width="7" stroke-miterlimit="10" x1="1055.157" y1="510.747" x2="1203.885" y2="542.117"/>
	
		<line display="inline" fill="none" stroke="#000505" stroke-width="7" stroke-miterlimit="10" x1="1055.563" y1="528.206" x2="1204.29" y2="559.577"/>
	
		<line display="inline" fill="none" stroke="#000505" stroke-width="7" stroke-miterlimit="10" x1="1107.048" y1="584.524" x2="1160.569" y2="317.342"/>
	
		<line display="inline" fill="none" stroke="#000505" stroke-width="7" stroke-miterlimit="10" x1="1126.618" y1="588.652" x2="1180.138" y2="321.47"/>
	
		<line display="inline" fill="none" stroke="#000505" stroke-width="7" stroke-miterlimit="10" x1="1147.166" y1="592.986" x2="1200.686" y2="325.804"/>
	
		<line display="inline" fill="none" stroke="#000505" stroke-width="7" stroke-miterlimit="10" x1="1172.886" y1="576.625" x2="1219.86" y2="342.122"/>
	
		<line display="inline" fill="none" stroke="#000505" stroke-width="7" stroke-miterlimit="10" x1="1196.104" y1="564.473" x2="1232.244" y2="384.058"/>
	
		<line display="inline" fill="none" stroke="#000505" stroke-width="7" stroke-miterlimit="10" x1="1085.522" y1="579.984" x2="1139.043" y2="312.802"/>
	
		<line display="inline" fill="none" stroke="#000505" stroke-width="7" stroke-miterlimit="10" x1="1067.286" y1="554.34" x2="1112.494" y2="328.657"/>
	
		<line display="inline" fill="none" stroke="#000505" stroke-width="7" stroke-miterlimit="10" x1="1054.753" y1="502.976" x2="1086.188" y2="346.05"/>
	<circle display="inline" cx="1220.088" cy="721.581" r="44.994"/>
	<path display="inline" fill="none" stroke="#FCFCFC" stroke-width="10" stroke-miterlimit="10" d="M1268.591,697.368
		c0,0-57.687,11.553-33.996,76.907"/>
	<path display="inline" fill="none" stroke="#FCFCFC" stroke-width="10" stroke-miterlimit="10" d="M1159.048,738.942
		c0,0,63.501-10.151,40.421-82.544"/>
</g>
<g id="Layer_20">
	<path fill="none" stroke="#000505" stroke-width="15" stroke-miterlimit="10" d="M707.288,350.5c0,0-25.504,192.558,146.65,192.558
		S996.762,350.5,996.762,350.5H707.288z"/>
	<path fill="#000505" d="M723.44,456.481c0,0,85.015-29.755,143.675-8.501s103.794,16.546,113.069,8.501
		c0,0-16.104,55.984-36.617,60.183c0,0-127.461,86.892-220.127-56.783"/>
	<path fill="#000505" d="M877,810.697c0,8.451-6.851,15.303-15.303,15.303h-1.395c-8.451,0-15.303-6.851-15.303-15.303V553.303
		c0-8.451,6.851-15.303,15.303-15.303h1.395c8.451,0,15.303,6.851,15.303,15.303V810.697z"/>
	<path fill="#000505" d="M845.011,763h31.88c0,0,13.177,63.294,87.352,99H757.021C757.021,862,842.886,806,845.011,763z"/>
	<polygon fill="#000505" points="914,716 997.238,860 1208.183,860 1288,716 	"/>
	<path fill="#000505" d="M1086,704h174.634c0,0,1.71-32.034-31.927-40.015c-33.637-7.982-32.497-2.904-50.171-20.578
		c-17.674-17.674-47.89-10.289-47.89-10.289s-17.674,14.81-34.207,19.941c-16.533,5.131-45.128,17.204-51.399,50.841"/>
</g>
</svg>
