<?xml version="1.0" encoding="utf-8"?>
<!-- Generator: Adobe Illustrator 17.0.0, SVG Export Plug-In . SVG Version: 6.00 Build 0)  -->
<!DOCTYPE svg PUBLIC "-//W3C//DTD SVG 1.1//EN" "http://www.w3.org/Graphics/SVG/1.1/DTD/svg11.dtd">
<svg version="1.1" id="Layer_1" xmlns="http://www.w3.org/2000/svg" xmlns:xlink="http://www.w3.org/1999/xlink" x="0px" y="0px"
	 width="810px" height="810px" viewBox="0 0 810 810" enable-background="new 0 0 810 810" xml:space="preserve">
<g>
	<path fill="#000202" d="M405,0C181.325,0,0,181.325,0,405s181.325,405,405,405s405-181.325,405-405S628.675,0,405,0z M693,579
		c0,6.627,1.047,31-35,31H148c-6.651,0-31-1-31-29V255c0-34,25.349-33,32-33c47.921,0,127.161,0,209.058,0
		c1.236-8,22.704-83,47.966-83H560c26.209,0,43.936,75,44.953,83c33.375,0,54.047,0,54.047,0c6.651,0,36-1,34,32V579z"/>
	<path fill="#000202" d="M366,224.802c0,3.423,5.373,6.198,12,6.198l204,0.125c6.627,0,12-2.65,12-6.073L605,222
		c0-0.1-0.017,0-0.047,0c-57.926,0-154.115,0-246.895,0c-0.037,0-0.058-0.1-0.058,0L366,224.802z"/>
	<circle fill="#000202" cx="437" cy="408" r="101"/>
	<circle fill="#000202" cx="592.5" cy="293.5" r="25.5"/>
</g>
</svg>
