<?xml version="1.0" encoding="utf-8"?>
<!-- Generator: Adobe Illustrator 17.0.0, SVG Export Plug-In . SVG Version: 6.00 Build 0)  -->
<!DOCTYPE svg PUBLIC "-//W3C//DTD SVG 1.1//EN" "http://www.w3.org/Graphics/SVG/1.1/DTD/svg11.dtd">
<svg version="1.1" id="Layer_1" xmlns="http://www.w3.org/2000/svg" xmlns:xlink="http://www.w3.org/1999/xlink" x="0px" y="0px"
	 width="810px" height="810px" viewBox="0 0 810 810" enable-background="new 0 0 810 810" xml:space="preserve">
<g>
	<path d="M405,0C181.325,0,0,181.325,0,405s181.325,405,405,405s405-181.325,405-405S628.675,0,405,0z M439,607v17h-66v-17 M125,607
		V211h23v-14.36c0,0,132.865-72.087,258.799-0.125c0,0,122.201-61.293,255.201-0.125V211h20v396"/>
	<path d="M183.685,486"/>
</g>
<path fill="none" stroke="#000000" stroke-width="19" stroke-miterlimit="10" d="M200.685,486.553c0,0,75.56-34.182,147.522,0"/>
<path fill="none" stroke="#000000" stroke-width="19" stroke-miterlimit="10" d="M200.685,408.553c0,0,75.56-34.182,147.522,0"/>
<path fill="none" stroke="#000000" stroke-width="19" stroke-miterlimit="10" d="M200.685,325.553c0,0,75.56-34.182,147.522,0"/>
<path fill="none" stroke="#000000" stroke-width="19" stroke-miterlimit="10" d="M459.685,489.553c0,0,75.56-34.182,147.522,0"/>
<path fill="none" stroke="#000000" stroke-width="19" stroke-miterlimit="10" d="M459.685,410.553c0,0,75.56-34.182,147.522,0"/>
<path fill="none" stroke="#000000" stroke-width="19" stroke-miterlimit="10" d="M459.685,327.553c0,0,75.56-34.182,147.522,0"/>
<line fill="none" stroke="#000000" stroke-width="18" stroke-miterlimit="10" x1="405" y1="209" x2="405" y2="597"/>
</svg>
