<?xml version="1.0" encoding="utf-8"?>
<!-- Generator: Adobe Illustrator 17.0.0, SVG Export Plug-In . SVG Version: 6.00 Build 0)  -->
<!DOCTYPE svg PUBLIC "-//W3C//DTD SVG 1.1//EN" "http://www.w3.org/Graphics/SVG/1.1/DTD/svg11.dtd">
<svg version="1.1" id="Layer_1" xmlns="http://www.w3.org/2000/svg" xmlns:xlink="http://www.w3.org/1999/xlink" x="0px" y="0px"
	 width="826px" height="826px" viewBox="0 0 826 826" enable-background="new 0 0 826 826" xml:space="preserve">
<path fill="none" stroke="#000000" stroke-width="16" stroke-miterlimit="10" d="M413,8C189.325,8,8,189.325,8,413
	s181.325,405,405,405s405-181.325,405-405S636.675,8,413,8z M214.616,470.248l-47.024,80.168l-43.622-79.463L214.616,470.248z
	 M122,629l46.471-77.831L214.942,629H122z M263.319,705.604l-47.483-79.897l90.649,0.186L263.319,705.604z M214.942,470
	l46.471-77.831L307.884,470H214.942z M309.251,626l46.471-77.831L402.193,626H309.251z M308.216,472.256l90.615-2.465l-40.817,80.94
	L308.216,472.256z M497,185h-87v193h-37V185h-92v-32h92V81h37v72h87V185z M645.344,535.679
	c-74.837,0.42-135.845-59.907-136.265-134.744c-0.42-74.837,59.907-135.845,134.744-136.265
	c35.403-0.199,67.705,13.203,91.968,35.298c-16.67-9.283-35.887-14.532-56.328-14.418c-63.307,0.355-114.339,51.964-113.984,115.271
	s51.964,114.339,115.271,113.984c19.972-0.112,38.719-5.329,55.019-14.401C711.882,522.149,680.188,535.483,645.344,535.679z
	 M710.72,421.586L676,444l15.613-34.907L667,393h31.811l16.55-37l12.462,37H755l-22.323,14.411L745,444L710.72,421.586z"/>
</svg>
