<?xml version="1.0" encoding="utf-8"?>
<!-- Generator: Adobe Illustrator 17.0.0, SVG Export Plug-In . SVG Version: 6.00 Build 0)  -->
<!DOCTYPE svg PUBLIC "-//W3C//DTD SVG 1.1//EN" "http://www.w3.org/Graphics/SVG/1.1/DTD/svg11.dtd">
<svg version="1.1" id="Layer_1" xmlns="http://www.w3.org/2000/svg" xmlns:xlink="http://www.w3.org/1999/xlink" x="0px" y="0px"
	 width="810px" height="801px" viewBox="0 0 810 801" enable-background="new 0 0 810 801" xml:space="preserve">
<g>
	<path d="M810,396h-0.105C805.108,176,625.667,0,405,0C147.502,0,3.9,176,0.083,396H0c0,1,0.012,2.659,0.025,3.988
		C0.009,401.656,0,403,0,405h0.105C4.892,624,184.333,801,405,801s400.108-177,404.895-396H810c0-2-0.012-3.002-0.029-4.5
		C809.988,399.002,810,397,810,396z M511.937,556.126l0.051,1.289l-3.85,1.251c-31.394,20.488-68.889,32.407-109.174,32.407
		c-45.49,0-87.425-15.195-121.03-40.771l-2.116,0.788l-4.269-5.842c-25.556-21.139-45.761-48.511-58.305-79.783l-0.25-0.342
		l0.07-0.097c-9.117-22.887-14.137-47.852-14.137-73.99C198.926,280.56,288.486,191,398.963,191c7.593,0,15.083,0.438,22.456,1.262
		l0.919-1.126l3.995,1.736c72.672,9.945,132.914,58.911,158.897,125.096l2.105,0.349l0.858,7.724
		C595.193,346.421,599,368.283,599,391.037c0,7.325-0.405,14.555-1.173,21.676l1.27,11.428l-3.068,1.375
		C586.628,479.624,555.49,526.265,511.937,556.126z"/>
	<polygon points="349.773,351.865 350.35,429.982 421.457,449.54 462.143,387.186 416.305,331.906 	"/>
	<path d="M289.998,472.618l-65.371-23.486l-11.564,15.895c0.058,0.147,0.12,0.292,0.179,0.439l58.305,79.783
		c2.091,1.73,4.224,3.409,6.385,5.054l16.08-5.985L289.998,472.618z"/>
	<polygon points="223.204,304.302 234.141,320.345 302.788,299.262 309.921,230.167 291.607,222.705 	"/>
	<path d="M449.758,266.017l68.278-12.769l1.958-19.679l-93.66-40.697c-1.632-0.223-3.27-0.427-4.915-0.61l-11.36,13.914
		L449.758,266.017z"/>
	<path d="M588.195,326.041c-0.933-2.717-1.918-5.41-2.963-8.073l-17.051-2.823l-32.168,64.204l45.039,52.881l14.978-6.714
		c0.734-4.224,1.333-8.493,1.798-12.804L588.195,326.041z"/>
	<path d="M441.841,519.489l-42.685,54.798l11.57,16.038l97.412-31.659c1.277-0.833,2.543-1.679,3.8-2.541l-0.715-18.112
		L441.841,519.489z"/>
</g>
</svg>
