<?xml version="1.0" encoding="utf-8"?>
<!-- Generator: Adobe Illustrator 17.0.0, SVG Export Plug-In . SVG Version: 6.00 Build 0)  -->
<!DOCTYPE svg PUBLIC "-//W3C//DTD SVG 1.1//EN" "http://www.w3.org/Graphics/SVG/1.1/DTD/svg11.dtd">
<svg version="1.1" id="Layer_1" xmlns="http://www.w3.org/2000/svg" xmlns:xlink="http://www.w3.org/1999/xlink" x="0px" y="0px"
	 width="810px" height="810px" viewBox="0 0 810 810" enable-background="new 0 0 810 810" xml:space="preserve">
<g>
	<path fill="#000202" d="M405,0C181.325,0,0,181.325,0,405s181.325,405,405,405s405-181.325,405-405S628.675,0,405,0z
		 M681.082,328.973c-0.095,0.21-0.197,0.419-0.298,0.629l0.12,0.154l-0.219,0.055c-0.005,0.009-0.009,0.019-0.013,0.028
		l-0.016-0.021l-253.531,63.623c33.407,45.304,86.157,118.215,113.218,162.816c0,0,52.827-8.923,56.803-9.161
		c0,0,38.855,20.237,24.48,39.666l-82.94,10.124l-30.7,75.889c0,0-18.319,12.725-35.052-31.665l21.878-49.813
		c0,0-69.144-82.711-126.171-152.426l0.029,0.035L262.5,682.04l0,0l0,0l-0.033,0.075l-0.037-0.033
		c-32.102,20.599-65.872-58.699-65.872-58.699l89.133-286.688l0.005,0.006c-24.08-30.843-53.461-70.134-80.475-110.794
		c0,0-58.383-126.23,54.095-40.944c0,0,48.422,50.439,93.384,107.15l-0.013-0.017l273.983-32.179
		C626.669,259.917,697.098,293.677,681.082,328.973z"/>
	<path fill="#000202" d="M411.121,371.844l-16.546-22.581c0.823,1.249,1.637,2.494,2.439,3.734
		C397.013,352.997,402.374,360.098,411.121,371.844z"/>
	<path fill="#000202" d="M262.429,682.082c0.023-0.015,0.047-0.027,0.07-0.042l0,0l-65.943-58.657L262.429,682.082z"/>
	<path fill="#000202" d="M336.232,399.002c9.861,12.233,20.888,25.787,32.408,39.87l-82.946-102.17
		C314.849,374.044,336.232,399.002,336.232,399.002z"/>
	<path fill="#000202" d="M680.655,329.819l0.03-0.007c0.034-0.07,0.065-0.139,0.099-0.209l-54.115-69.686L680.655,329.819z"/>
	<path fill="#000202" d="M426.974,393.48l0.15-0.038c-6.063-8.222-11.484-15.529-16.003-21.598L426.974,393.48z"/>
	<path fill="#000202" d="M352.698,292.113l41.877,57.15C382.28,330.606,367.682,311.012,352.698,292.113z"/>
</g>
</svg>
