<?xml version="1.0" encoding="utf-8"?>
<!-- Generator: Adobe Illustrator 17.0.0, SVG Export Plug-In . SVG Version: 6.00 Build 0)  -->
<!DOCTYPE svg PUBLIC "-//W3C//DTD SVG 1.1//EN" "http://www.w3.org/Graphics/SVG/1.1/DTD/svg11.dtd">
<svg version="1.1" id="Layer_1" xmlns="http://www.w3.org/2000/svg" xmlns:xlink="http://www.w3.org/1999/xlink" x="0px" y="0px"
	 width="810px" height="810px" viewBox="555 195 810 810" enable-background="new 555 195 810 810" xml:space="preserve">
<path d="M960,195c-223.675,0-405,181.325-405,405s181.325,405,405,405s405-181.325,405-405S1183.675,195,960,195z M962.5,303
	c68.76,0,124.5,55.741,124.5,124.5S1031.26,552,962.5,552S838,496.259,838,427.5S893.741,303,962.5,303z M1117.775,760.333
	c0,0-39.46-1.204-117.775-105.266v132.508l92.913-31.109c0,0,63.415,11.191,22.382,54.711l-69.661,19.35l63.54,22.365
	c31.952,29.713-9.831,43.924-9.831,43.924L956.82,855.198L824.331,892c0,0-42.277-13.678-9.947-42.277l57.619-19.292l-60.231-17.588
	C771.218,767.627,833.893,756,833.893,756L932,790.531V650.925C861.78,755.11,826.401,756.333,826.401,756.333
	c-25.943-8.332-11.026-31.939-11.026-31.939C860.204,709.15,913.608,629.173,932,599.819V563c0,0,21,15,68,0v42.675
	c16.312,23.476,78.243,108.509,129.751,123.992C1129.751,729.667,1145.954,752.333,1117.775,760.333z"/>
</svg>
